M48
; DRILL file {KiCad 9.0.2} date 2026-02-14T14:17:21-0500
; FORMAT={-:-/ absolute / inch / decimal}
; #@! TF.CreationDate,2026-02-14T14:17:21-05:00
; #@! TF.GenerationSoftware,Kicad,Pcbnew,9.0.2
; #@! TF.FileFunction,Plated,1,2,PTH
FMAT,2
INCH
; #@! TA.AperFunction,Plated,PTH,ViaDrill
T1C0.0079
; #@! TA.AperFunction,Plated,PTH,ViaDrill
T2C0.0098
; #@! TA.AperFunction,Plated,PTH,ViaDrill
T3C0.0138
; #@! TA.AperFunction,Plated,PTH,ComponentDrill
T4C0.0138
; #@! TA.AperFunction,Plated,PTH,ViaDrill
T5C0.0197
; #@! TA.AperFunction,Plated,PTH,ComponentDrill
T6C0.0197
%
G90
G05
T1
X-0.0661Y1.239
X0.0128Y1.238
T2
X-0.0667Y0.8213
T3
X-0.2471Y0.6766
X-0.2331Y1.1988
X-0.2272Y0.4956
X-0.211Y0.309
X-0.2071Y0.9524
X-0.1252Y0.3267
X-0.1241Y1.1611
X-0.0785Y1.1455
X-0.0638Y0.3617
X-0.062Y0.9121
X-0.0453Y1.0047
X-0.0394Y0.8246
X-0.033Y0.9026
X-0.0185Y1.1335
X0.0161Y0.3436
X0.0209Y1.124
X0.0283Y0.8257
X0.0396Y1.1596
X0.0757Y0.4511
X0.098Y0.3133
X0.1035Y0.8287
X0.1197Y0.5637
X0.1201Y0.4102
X0.1206Y0.6022
X0.1693Y1.1429
X0.172Y1.0953
T4
X-0.112Y0.6949
X-0.112Y0.6447
X-0.112Y0.5945
X-0.0618Y0.6949
X-0.0618Y0.6447
X-0.0618Y0.5945
X-0.0116Y0.6949
X-0.0116Y0.6447
X-0.0116Y0.5945
T5
X-0.2437Y1.3232
X-0.226Y1.0205
X0.1047Y0.3826
X0.1488Y0.3428
X0.1661Y1.2713
T6
G00X-0.1831Y1.187
M15
G01X-0.1831Y1.2264
M16
G05
G00X0.1087Y1.187
M15
G01X0.1087Y1.2264
M16
G05
M30
