%TF.GenerationSoftware,KiCad,Pcbnew,9.0.2*%
%TF.CreationDate,2026-02-14T14:17:21-05:00*%
%TF.ProjectId,RP2040_minimal_r2,52503230-3430-45f6-9d69-6e696d616c5f,REV2*%
%TF.SameCoordinates,Original*%
%TF.FileFunction,Soldermask,Top*%
%TF.FilePolarity,Negative*%
%FSLAX46Y46*%
G04 Gerber Fmt 4.6, Leading zero omitted, Abs format (unit mm)*
G04 Created by KiCad (PCBNEW 9.0.2) date 2026-02-14 14:17:21*
%MOMM*%
%LPD*%
G01*
G04 APERTURE LIST*
G04 APERTURE END LIST*
G36*
X-1376907Y8494427D02*
G01*
X-1314943Y8453023D01*
X-1273539Y8391059D01*
X-1259000Y8317966D01*
X-1259000Y7977966D01*
X-1273539Y7904873D01*
X-1314943Y7842909D01*
X-1376907Y7801505D01*
X-1450000Y7786966D01*
X-1730000Y7786966D01*
X-1803093Y7801505D01*
X-1865057Y7842909D01*
X-1906461Y7904873D01*
X-1921000Y7977966D01*
X-1921000Y8317966D01*
X-1906461Y8391059D01*
X-1865057Y8453023D01*
X-1803093Y8494427D01*
X-1730000Y8508966D01*
X-1450000Y8508966D01*
X-1376907Y8494427D01*
G37*
G36*
X-416907Y8494427D02*
G01*
X-354943Y8453023D01*
X-313539Y8391059D01*
X-299000Y8317966D01*
X-299000Y7977966D01*
X-313539Y7904873D01*
X-354943Y7842909D01*
X-416907Y7801505D01*
X-490000Y7786966D01*
X-770000Y7786966D01*
X-843093Y7801505D01*
X-905057Y7842909D01*
X-946461Y7904873D01*
X-961000Y7977966D01*
X-961000Y8317966D01*
X-946461Y8391059D01*
X-905057Y8453023D01*
X-843093Y8494427D01*
X-770000Y8508966D01*
X-490000Y8508966D01*
X-416907Y8494427D01*
G37*
G36*
X-4660483Y9915084D02*
G01*
X-4643938Y9904028D01*
X-4632882Y9887483D01*
X-4629000Y9867966D01*
X-4629000Y8667966D01*
X-4632882Y8648449D01*
X-4643938Y8631904D01*
X-4660483Y8620848D01*
X-4680000Y8616966D01*
X-6080000Y8616966D01*
X-6099517Y8620848D01*
X-6116062Y8631904D01*
X-6127118Y8648449D01*
X-6131000Y8667966D01*
X-6131000Y9867966D01*
X-6127118Y9887483D01*
X-6116062Y9904028D01*
X-6099517Y9915084D01*
X-6080000Y9918966D01*
X-4680000Y9918966D01*
X-4660483Y9915084D01*
G37*
G36*
X-2460483Y9915084D02*
G01*
X-2443938Y9904028D01*
X-2432882Y9887483D01*
X-2429000Y9867966D01*
X-2429000Y8667966D01*
X-2432882Y8648449D01*
X-2443938Y8631904D01*
X-2460483Y8620848D01*
X-2480000Y8616966D01*
X-3880000Y8616966D01*
X-3899517Y8620848D01*
X-3916062Y8631904D01*
X-3927118Y8648449D01*
X-3931000Y8667966D01*
X-3931000Y9867966D01*
X-3927118Y9887483D01*
X-3916062Y9904028D01*
X-3899517Y9915084D01*
X-3880000Y9918966D01*
X-2480000Y9918966D01*
X-2460483Y9915084D01*
G37*
G36*
X-343821Y9884808D02*
G01*
X-283478Y9844488D01*
X-243158Y9784145D01*
X-229000Y9712966D01*
X-229000Y9442966D01*
X-243158Y9371787D01*
X-283478Y9311444D01*
X-343821Y9271124D01*
X-415000Y9256966D01*
X-785000Y9256966D01*
X-856179Y9271124D01*
X-916522Y9311444D01*
X-956842Y9371787D01*
X-971000Y9442966D01*
X-971000Y9712966D01*
X-956842Y9784145D01*
X-916522Y9844488D01*
X-856179Y9884808D01*
X-785000Y9898966D01*
X-415000Y9898966D01*
X-343821Y9884808D01*
G37*
G36*
X2019818Y9908590D02*
G01*
X2081782Y9867186D01*
X2123186Y9805222D01*
X2137725Y9732129D01*
X2137725Y9452129D01*
X2123186Y9379036D01*
X2081782Y9317072D01*
X2019818Y9275668D01*
X1946725Y9261129D01*
X1606725Y9261129D01*
X1533632Y9275668D01*
X1471668Y9317072D01*
X1430264Y9379036D01*
X1415725Y9452129D01*
X1415725Y9732129D01*
X1430264Y9805222D01*
X1471668Y9867186D01*
X1533632Y9908590D01*
X1606725Y9923129D01*
X1946725Y9923129D01*
X2019818Y9908590D01*
G37*
G36*
X653093Y9944427D02*
G01*
X715057Y9903023D01*
X756461Y9841059D01*
X771000Y9767966D01*
X771000Y9487966D01*
X756461Y9414873D01*
X715057Y9352909D01*
X653093Y9311505D01*
X580000Y9296966D01*
X240000Y9296966D01*
X166907Y9311505D01*
X104943Y9352909D01*
X63539Y9414873D01*
X49000Y9487966D01*
X49000Y9767966D01*
X63539Y9841059D01*
X104943Y9903023D01*
X166907Y9944427D01*
X240000Y9958966D01*
X580000Y9958966D01*
X653093Y9944427D01*
G37*
G36*
X-1386907Y10394427D02*
G01*
X-1324943Y10353023D01*
X-1283539Y10291059D01*
X-1269000Y10217966D01*
X-1269000Y9937966D01*
X-1283539Y9864873D01*
X-1324943Y9802909D01*
X-1386907Y9761505D01*
X-1460000Y9746966D01*
X-1800000Y9746966D01*
X-1873093Y9761505D01*
X-1935057Y9802909D01*
X-1976461Y9864873D01*
X-1991000Y9937966D01*
X-1991000Y10217966D01*
X-1976461Y10291059D01*
X-1935057Y10353023D01*
X-1873093Y10394427D01*
X-1800000Y10408966D01*
X-1460000Y10408966D01*
X-1386907Y10394427D01*
G37*
G36*
X2019818Y10868590D02*
G01*
X2081782Y10827186D01*
X2123186Y10765222D01*
X2137725Y10692129D01*
X2137725Y10412129D01*
X2123186Y10339036D01*
X2081782Y10277072D01*
X2019818Y10235668D01*
X1946725Y10221129D01*
X1606725Y10221129D01*
X1533632Y10235668D01*
X1471668Y10277072D01*
X1430264Y10339036D01*
X1415725Y10412129D01*
X1415725Y10692129D01*
X1430264Y10765222D01*
X1471668Y10827186D01*
X1533632Y10868590D01*
X1606725Y10883129D01*
X1946725Y10883129D01*
X2019818Y10868590D01*
G37*
G36*
X653093Y10904427D02*
G01*
X715057Y10863023D01*
X756461Y10801059D01*
X771000Y10727966D01*
X771000Y10447966D01*
X756461Y10374873D01*
X715057Y10312909D01*
X653093Y10271505D01*
X580000Y10256966D01*
X240000Y10256966D01*
X166907Y10271505D01*
X104943Y10312909D01*
X63539Y10374873D01*
X49000Y10447966D01*
X49000Y10727966D01*
X63539Y10801059D01*
X104943Y10863023D01*
X166907Y10904427D01*
X240000Y10918966D01*
X580000Y10918966D01*
X653093Y10904427D01*
G37*
G36*
X-343821Y10904808D02*
G01*
X-283478Y10864488D01*
X-243158Y10804145D01*
X-229000Y10732966D01*
X-229000Y10462966D01*
X-243158Y10391787D01*
X-283478Y10331444D01*
X-343821Y10291124D01*
X-415000Y10276966D01*
X-785000Y10276966D01*
X-856179Y10291124D01*
X-916522Y10331444D01*
X-956842Y10391787D01*
X-971000Y10462966D01*
X-971000Y10732966D01*
X-956842Y10804145D01*
X-916522Y10864488D01*
X-856179Y10904808D01*
X-785000Y10918966D01*
X-415000Y10918966D01*
X-343821Y10904808D01*
G37*
G36*
X-4660483Y11615084D02*
G01*
X-4643938Y11604028D01*
X-4632882Y11587483D01*
X-4629000Y11567966D01*
X-4629000Y10367966D01*
X-4632882Y10348449D01*
X-4643938Y10331904D01*
X-4660483Y10320848D01*
X-4680000Y10316966D01*
X-6080000Y10316966D01*
X-6099517Y10320848D01*
X-6116062Y10331904D01*
X-6127118Y10348449D01*
X-6131000Y10367966D01*
X-6131000Y11567966D01*
X-6127118Y11587483D01*
X-6116062Y11604028D01*
X-6099517Y11615084D01*
X-6080000Y11618966D01*
X-4680000Y11618966D01*
X-4660483Y11615084D01*
G37*
G36*
X-2460483Y11615084D02*
G01*
X-2443938Y11604028D01*
X-2432882Y11587483D01*
X-2429000Y11567966D01*
X-2429000Y10367966D01*
X-2432882Y10348449D01*
X-2443938Y10331904D01*
X-2460483Y10320848D01*
X-2480000Y10316966D01*
X-3880000Y10316966D01*
X-3899517Y10320848D01*
X-3916062Y10331904D01*
X-3927118Y10348449D01*
X-3931000Y10367966D01*
X-3931000Y11567966D01*
X-3927118Y11587483D01*
X-3916062Y11604028D01*
X-3899517Y11615084D01*
X-3880000Y11618966D01*
X-2480000Y11618966D01*
X-2460483Y11615084D01*
G37*
G36*
X-1386907Y11354427D02*
G01*
X-1324943Y11313023D01*
X-1283539Y11251059D01*
X-1269000Y11177966D01*
X-1269000Y10897966D01*
X-1283539Y10824873D01*
X-1324943Y10762909D01*
X-1386907Y10721505D01*
X-1460000Y10706966D01*
X-1800000Y10706966D01*
X-1873093Y10721505D01*
X-1935057Y10762909D01*
X-1976461Y10824873D01*
X-1991000Y10897966D01*
X-1991000Y11177966D01*
X-1976461Y11251059D01*
X-1935057Y11313023D01*
X-1873093Y11354427D01*
X-1800000Y11368966D01*
X-1460000Y11368966D01*
X-1386907Y11354427D01*
G37*
G36*
X3197785Y12287472D02*
G01*
X3246773Y12254739D01*
X3279506Y12205751D01*
X3291000Y12147966D01*
X3291000Y11887966D01*
X3279506Y11830181D01*
X3246773Y11781193D01*
X3197785Y11748460D01*
X3140000Y11736966D01*
X3135555Y11736966D01*
X3125158Y11734898D01*
X3125156Y11661038D01*
X3135572Y11658966D01*
X3140000Y11658966D01*
X3197785Y11647472D01*
X3246773Y11614739D01*
X3279506Y11565751D01*
X3291000Y11507966D01*
X3291000Y11247966D01*
X3279506Y11190181D01*
X3246773Y11141193D01*
X3197785Y11108460D01*
X3140000Y11096966D01*
X2940000Y11096966D01*
X2882215Y11108460D01*
X2833227Y11141193D01*
X2800494Y11190181D01*
X2789000Y11247966D01*
X2789000Y11507966D01*
X2800494Y11565751D01*
X2833227Y11614739D01*
X2882215Y11647472D01*
X2940000Y11658966D01*
X2944434Y11658966D01*
X2954842Y11661036D01*
X2954842Y11734896D01*
X2944435Y11736966D01*
X2940000Y11736966D01*
X2882215Y11748460D01*
X2833227Y11781193D01*
X2800494Y11830181D01*
X2789000Y11887966D01*
X2789000Y12147966D01*
X2800494Y12205751D01*
X2833227Y12254739D01*
X2882215Y12287472D01*
X2940000Y12298966D01*
X3140000Y12298966D01*
X3197785Y12287472D01*
G37*
G36*
X-4081349Y13418440D02*
G01*
X-4048582Y13396546D01*
X-4026688Y13363779D01*
X-4019000Y13325128D01*
X-4019000Y12550128D01*
X-4026688Y12511477D01*
X-4048582Y12478710D01*
X-4081349Y12456816D01*
X-4120000Y12449128D01*
X-4220000Y12449128D01*
X-4258651Y12456816D01*
X-4291418Y12478710D01*
X-4313312Y12511477D01*
X-4321000Y12550128D01*
X-4321000Y13325128D01*
X-4313312Y13363779D01*
X-4291418Y13396546D01*
X-4258651Y13418440D01*
X-4220000Y13426128D01*
X-4120000Y13426128D01*
X-4081349Y13418440D01*
G37*
G36*
X-3681349Y13418440D02*
G01*
X-3648582Y13396546D01*
X-3626688Y13363779D01*
X-3619000Y13325128D01*
X-3619000Y12550128D01*
X-3626688Y12511477D01*
X-3648582Y12478710D01*
X-3681349Y12456816D01*
X-3720000Y12449128D01*
X-3820000Y12449128D01*
X-3858651Y12456816D01*
X-3891418Y12478710D01*
X-3913312Y12511477D01*
X-3921000Y12550128D01*
X-3921000Y13325128D01*
X-3913312Y13363779D01*
X-3891418Y13396546D01*
X-3858651Y13418440D01*
X-3820000Y13426128D01*
X-3720000Y13426128D01*
X-3681349Y13418440D01*
G37*
G36*
X-3281349Y13418440D02*
G01*
X-3248582Y13396546D01*
X-3226688Y13363779D01*
X-3219000Y13325128D01*
X-3219000Y12550128D01*
X-3226688Y12511477D01*
X-3248582Y12478710D01*
X-3281349Y12456816D01*
X-3320000Y12449128D01*
X-3420000Y12449128D01*
X-3458651Y12456816D01*
X-3491418Y12478710D01*
X-3513312Y12511477D01*
X-3521000Y12550128D01*
X-3521000Y13325128D01*
X-3513312Y13363779D01*
X-3491418Y13396546D01*
X-3458651Y13418440D01*
X-3420000Y13426128D01*
X-3320000Y13426128D01*
X-3281349Y13418440D01*
G37*
G36*
X-2881349Y13418440D02*
G01*
X-2848582Y13396546D01*
X-2826688Y13363779D01*
X-2819000Y13325128D01*
X-2819000Y12550128D01*
X-2826688Y12511477D01*
X-2848582Y12478710D01*
X-2881349Y12456816D01*
X-2920000Y12449128D01*
X-3020000Y12449128D01*
X-3058651Y12456816D01*
X-3091418Y12478710D01*
X-3113312Y12511477D01*
X-3121000Y12550128D01*
X-3121000Y13325128D01*
X-3113312Y13363779D01*
X-3091418Y13396546D01*
X-3058651Y13418440D01*
X-3020000Y13426128D01*
X-2920000Y13426128D01*
X-2881349Y13418440D01*
G37*
G36*
X-2481349Y13418440D02*
G01*
X-2448582Y13396546D01*
X-2426688Y13363779D01*
X-2419000Y13325128D01*
X-2419000Y12550128D01*
X-2426688Y12511477D01*
X-2448582Y12478710D01*
X-2481349Y12456816D01*
X-2520000Y12449128D01*
X-2620000Y12449128D01*
X-2658651Y12456816D01*
X-2691418Y12478710D01*
X-2713312Y12511477D01*
X-2721000Y12550128D01*
X-2721000Y13325128D01*
X-2713312Y13363779D01*
X-2691418Y13396546D01*
X-2658651Y13418440D01*
X-2620000Y13426128D01*
X-2520000Y13426128D01*
X-2481349Y13418440D01*
G37*
G36*
X-2081349Y13418440D02*
G01*
X-2048582Y13396546D01*
X-2026688Y13363779D01*
X-2019000Y13325128D01*
X-2019000Y12550128D01*
X-2026688Y12511477D01*
X-2048582Y12478710D01*
X-2081349Y12456816D01*
X-2120000Y12449128D01*
X-2220000Y12449128D01*
X-2258651Y12456816D01*
X-2291418Y12478710D01*
X-2313312Y12511477D01*
X-2321000Y12550128D01*
X-2321000Y13325128D01*
X-2313312Y13363779D01*
X-2291418Y13396546D01*
X-2258651Y13418440D01*
X-2220000Y13426128D01*
X-2120000Y13426128D01*
X-2081349Y13418440D01*
G37*
G36*
X-1681349Y13418440D02*
G01*
X-1648582Y13396546D01*
X-1626688Y13363779D01*
X-1619000Y13325128D01*
X-1619000Y12550128D01*
X-1626688Y12511477D01*
X-1648582Y12478710D01*
X-1681349Y12456816D01*
X-1720000Y12449128D01*
X-1820000Y12449128D01*
X-1858651Y12456816D01*
X-1891418Y12478710D01*
X-1913312Y12511477D01*
X-1921000Y12550128D01*
X-1921000Y13325128D01*
X-1913312Y13363779D01*
X-1891418Y13396546D01*
X-1858651Y13418440D01*
X-1820000Y13426128D01*
X-1720000Y13426128D01*
X-1681349Y13418440D01*
G37*
G36*
X-1281349Y13418440D02*
G01*
X-1248582Y13396546D01*
X-1226688Y13363779D01*
X-1219000Y13325128D01*
X-1219000Y12550128D01*
X-1226688Y12511477D01*
X-1248582Y12478710D01*
X-1281349Y12456816D01*
X-1320000Y12449128D01*
X-1420000Y12449128D01*
X-1458651Y12456816D01*
X-1491418Y12478710D01*
X-1513312Y12511477D01*
X-1521000Y12550128D01*
X-1521000Y13325128D01*
X-1513312Y13363779D01*
X-1491418Y13396546D01*
X-1458651Y13418440D01*
X-1420000Y13426128D01*
X-1320000Y13426128D01*
X-1281349Y13418440D01*
G37*
G36*
X-881349Y13418440D02*
G01*
X-848582Y13396546D01*
X-826688Y13363779D01*
X-819000Y13325128D01*
X-819000Y12550128D01*
X-826688Y12511477D01*
X-848582Y12478710D01*
X-881349Y12456816D01*
X-920000Y12449128D01*
X-1020000Y12449128D01*
X-1058651Y12456816D01*
X-1091418Y12478710D01*
X-1113312Y12511477D01*
X-1121000Y12550128D01*
X-1121000Y13325128D01*
X-1113312Y13363779D01*
X-1091418Y13396546D01*
X-1058651Y13418440D01*
X-1020000Y13426128D01*
X-920000Y13426128D01*
X-881349Y13418440D01*
G37*
G36*
X-481349Y13418440D02*
G01*
X-448582Y13396546D01*
X-426688Y13363779D01*
X-419000Y13325128D01*
X-419000Y12550128D01*
X-426688Y12511477D01*
X-448582Y12478710D01*
X-481349Y12456816D01*
X-520000Y12449128D01*
X-620000Y12449128D01*
X-658651Y12456816D01*
X-691418Y12478710D01*
X-713312Y12511477D01*
X-721000Y12550128D01*
X-721000Y13325128D01*
X-713312Y13363779D01*
X-691418Y13396546D01*
X-658651Y13418440D01*
X-620000Y13426128D01*
X-520000Y13426128D01*
X-481349Y13418440D01*
G37*
G36*
X-81349Y13418440D02*
G01*
X-48582Y13396546D01*
X-26688Y13363779D01*
X-19000Y13325128D01*
X-19000Y12550128D01*
X-26688Y12511477D01*
X-48582Y12478710D01*
X-81349Y12456816D01*
X-120000Y12449128D01*
X-220000Y12449128D01*
X-258651Y12456816D01*
X-291418Y12478710D01*
X-313312Y12511477D01*
X-321000Y12550128D01*
X-321000Y13325128D01*
X-313312Y13363779D01*
X-291418Y13396546D01*
X-258651Y13418440D01*
X-220000Y13426128D01*
X-120000Y13426128D01*
X-81349Y13418440D01*
G37*
G36*
X318651Y13418440D02*
G01*
X351418Y13396546D01*
X373312Y13363779D01*
X381000Y13325128D01*
X381000Y12550128D01*
X373312Y12511477D01*
X351418Y12478710D01*
X318651Y12456816D01*
X280000Y12449128D01*
X180000Y12449128D01*
X141349Y12456816D01*
X108582Y12478710D01*
X86688Y12511477D01*
X79000Y12550128D01*
X79000Y13325128D01*
X86688Y13363779D01*
X108582Y13396546D01*
X141349Y13418440D01*
X180000Y13426128D01*
X280000Y13426128D01*
X318651Y13418440D01*
G37*
G36*
X718651Y13418440D02*
G01*
X751418Y13396546D01*
X773312Y13363779D01*
X781000Y13325128D01*
X781000Y12550128D01*
X773312Y12511477D01*
X751418Y12478710D01*
X718651Y12456816D01*
X680000Y12449128D01*
X580000Y12449128D01*
X541349Y12456816D01*
X508582Y12478710D01*
X486688Y12511477D01*
X479000Y12550128D01*
X479000Y13325128D01*
X486688Y13363779D01*
X508582Y13396546D01*
X541349Y13418440D01*
X580000Y13426128D01*
X680000Y13426128D01*
X718651Y13418440D01*
G37*
G36*
X1118651Y13418440D02*
G01*
X1151418Y13396546D01*
X1173312Y13363779D01*
X1181000Y13325128D01*
X1181000Y12550128D01*
X1173312Y12511477D01*
X1151418Y12478710D01*
X1118651Y12456816D01*
X1080000Y12449128D01*
X980000Y12449128D01*
X941349Y12456816D01*
X908582Y12478710D01*
X886688Y12511477D01*
X879000Y12550128D01*
X879000Y13325128D01*
X886688Y13363779D01*
X908582Y13396546D01*
X941349Y13418440D01*
X980000Y13426128D01*
X1080000Y13426128D01*
X1118651Y13418440D01*
G37*
G36*
X-4581349Y13918440D02*
G01*
X-4548582Y13896546D01*
X-4526688Y13863779D01*
X-4519000Y13825128D01*
X-4519000Y13725128D01*
X-4526688Y13686477D01*
X-4548582Y13653710D01*
X-4581349Y13631816D01*
X-4620000Y13624128D01*
X-5395000Y13624128D01*
X-5433651Y13631816D01*
X-5466418Y13653710D01*
X-5488312Y13686477D01*
X-5496000Y13725128D01*
X-5496000Y13825128D01*
X-5488312Y13863779D01*
X-5466418Y13896546D01*
X-5433651Y13918440D01*
X-5395000Y13926128D01*
X-4620000Y13926128D01*
X-4581349Y13918440D01*
G37*
G36*
X2293651Y13918440D02*
G01*
X2326418Y13896546D01*
X2348312Y13863779D01*
X2356000Y13825128D01*
X2356000Y13725128D01*
X2348312Y13686477D01*
X2326418Y13653710D01*
X2293651Y13631816D01*
X2255000Y13624128D01*
X1480000Y13624128D01*
X1441349Y13631816D01*
X1408582Y13653710D01*
X1386688Y13686477D01*
X1379000Y13725128D01*
X1379000Y13825128D01*
X1386688Y13863779D01*
X1408582Y13896546D01*
X1441349Y13918440D01*
X1480000Y13926128D01*
X2255000Y13926128D01*
X2293651Y13918440D01*
G37*
G36*
X-4581349Y14318440D02*
G01*
X-4548582Y14296546D01*
X-4526688Y14263779D01*
X-4519000Y14225128D01*
X-4519000Y14125128D01*
X-4526688Y14086477D01*
X-4548582Y14053710D01*
X-4581349Y14031816D01*
X-4620000Y14024128D01*
X-5395000Y14024128D01*
X-5433651Y14031816D01*
X-5466418Y14053710D01*
X-5488312Y14086477D01*
X-5496000Y14125128D01*
X-5496000Y14225128D01*
X-5488312Y14263779D01*
X-5466418Y14296546D01*
X-5433651Y14318440D01*
X-5395000Y14326128D01*
X-4620000Y14326128D01*
X-4581349Y14318440D01*
G37*
G36*
X2293651Y14318440D02*
G01*
X2326418Y14296546D01*
X2348312Y14263779D01*
X2356000Y14225128D01*
X2356000Y14125128D01*
X2348312Y14086477D01*
X2326418Y14053710D01*
X2293651Y14031816D01*
X2255000Y14024128D01*
X1480000Y14024128D01*
X1441349Y14031816D01*
X1408582Y14053710D01*
X1386688Y14086477D01*
X1379000Y14125128D01*
X1379000Y14225128D01*
X1386688Y14263779D01*
X1408582Y14296546D01*
X1441349Y14318440D01*
X1480000Y14326128D01*
X2255000Y14326128D01*
X2293651Y14318440D01*
G37*
G36*
X-4581349Y14718440D02*
G01*
X-4548582Y14696546D01*
X-4526688Y14663779D01*
X-4519000Y14625128D01*
X-4519000Y14525128D01*
X-4526688Y14486477D01*
X-4548582Y14453710D01*
X-4581349Y14431816D01*
X-4620000Y14424128D01*
X-5395000Y14424128D01*
X-5433651Y14431816D01*
X-5466418Y14453710D01*
X-5488312Y14486477D01*
X-5496000Y14525128D01*
X-5496000Y14625128D01*
X-5488312Y14663779D01*
X-5466418Y14696546D01*
X-5433651Y14718440D01*
X-5395000Y14726128D01*
X-4620000Y14726128D01*
X-4581349Y14718440D01*
G37*
G36*
X2293651Y14718440D02*
G01*
X2326418Y14696546D01*
X2348312Y14663779D01*
X2356000Y14625128D01*
X2356000Y14525128D01*
X2348312Y14486477D01*
X2326418Y14453710D01*
X2293651Y14431816D01*
X2255000Y14424128D01*
X1480000Y14424128D01*
X1441349Y14431816D01*
X1408582Y14453710D01*
X1386688Y14486477D01*
X1379000Y14525128D01*
X1379000Y14625128D01*
X1386688Y14663779D01*
X1408582Y14696546D01*
X1441349Y14718440D01*
X1480000Y14726128D01*
X2255000Y14726128D01*
X2293651Y14718440D01*
G37*
G36*
X-39377Y18011285D02*
G01*
X23886Y17969014D01*
X66157Y17905751D01*
X81000Y17831128D01*
X81000Y14919128D01*
X66157Y14844505D01*
X23886Y14781242D01*
X-39377Y14738971D01*
X-114000Y14724128D01*
X-3026000Y14724128D01*
X-3100623Y14738971D01*
X-3163886Y14781242D01*
X-3206157Y14844505D01*
X-3221000Y14919128D01*
X-3221000Y17831128D01*
X-3206157Y17905751D01*
X-3163886Y17969014D01*
X-3100623Y18011285D01*
X-3026000Y18026128D01*
X-114000Y18026128D01*
X-39377Y18011285D01*
G37*
G36*
X-4581349Y15118440D02*
G01*
X-4548582Y15096546D01*
X-4526688Y15063779D01*
X-4519000Y15025128D01*
X-4519000Y14925128D01*
X-4526688Y14886477D01*
X-4548582Y14853710D01*
X-4581349Y14831816D01*
X-4620000Y14824128D01*
X-5395000Y14824128D01*
X-5433651Y14831816D01*
X-5466418Y14853710D01*
X-5488312Y14886477D01*
X-5496000Y14925128D01*
X-5496000Y15025128D01*
X-5488312Y15063779D01*
X-5466418Y15096546D01*
X-5433651Y15118440D01*
X-5395000Y15126128D01*
X-4620000Y15126128D01*
X-4581349Y15118440D01*
G37*
G36*
X2293651Y15118440D02*
G01*
X2326418Y15096546D01*
X2348312Y15063779D01*
X2356000Y15025128D01*
X2356000Y14925128D01*
X2348312Y14886477D01*
X2326418Y14853710D01*
X2293651Y14831816D01*
X2255000Y14824128D01*
X1480000Y14824128D01*
X1441349Y14831816D01*
X1408582Y14853710D01*
X1386688Y14886477D01*
X1379000Y14925128D01*
X1379000Y15025128D01*
X1386688Y15063779D01*
X1408582Y15096546D01*
X1441349Y15118440D01*
X1480000Y15126128D01*
X2255000Y15126128D01*
X2293651Y15118440D01*
G37*
G36*
X-6034407Y15731589D02*
G01*
X-5972443Y15690185D01*
X-5931039Y15628221D01*
X-5916500Y15555128D01*
X-5916500Y15275128D01*
X-5931039Y15202035D01*
X-5972443Y15140071D01*
X-6034407Y15098667D01*
X-6107500Y15084128D01*
X-6447500Y15084128D01*
X-6520593Y15098667D01*
X-6582557Y15140071D01*
X-6623961Y15202035D01*
X-6638500Y15275128D01*
X-6638500Y15555128D01*
X-6623961Y15628221D01*
X-6582557Y15690185D01*
X-6520593Y15731589D01*
X-6447500Y15746128D01*
X-6107500Y15746128D01*
X-6034407Y15731589D01*
G37*
G36*
X-4581349Y15518440D02*
G01*
X-4548582Y15496546D01*
X-4526688Y15463779D01*
X-4519000Y15425128D01*
X-4519000Y15325128D01*
X-4526688Y15286477D01*
X-4548582Y15253710D01*
X-4581349Y15231816D01*
X-4620000Y15224128D01*
X-5395000Y15224128D01*
X-5433651Y15231816D01*
X-5466418Y15253710D01*
X-5488312Y15286477D01*
X-5496000Y15325128D01*
X-5496000Y15425128D01*
X-5488312Y15463779D01*
X-5466418Y15496546D01*
X-5433651Y15518440D01*
X-5395000Y15526128D01*
X-4620000Y15526128D01*
X-4581349Y15518440D01*
G37*
G36*
X2293651Y15518440D02*
G01*
X2326418Y15496546D01*
X2348312Y15463779D01*
X2356000Y15425128D01*
X2356000Y15325128D01*
X2348312Y15286477D01*
X2326418Y15253710D01*
X2293651Y15231816D01*
X2255000Y15224128D01*
X1480000Y15224128D01*
X1441349Y15231816D01*
X1408582Y15253710D01*
X1386688Y15286477D01*
X1379000Y15325128D01*
X1379000Y15425128D01*
X1386688Y15463779D01*
X1408582Y15496546D01*
X1441349Y15518440D01*
X1480000Y15526128D01*
X2255000Y15526128D01*
X2293651Y15518440D01*
G37*
G36*
X-4581349Y15918440D02*
G01*
X-4548582Y15896546D01*
X-4526688Y15863779D01*
X-4519000Y15825128D01*
X-4519000Y15725128D01*
X-4526688Y15686477D01*
X-4548582Y15653710D01*
X-4581349Y15631816D01*
X-4620000Y15624128D01*
X-5395000Y15624128D01*
X-5433651Y15631816D01*
X-5466418Y15653710D01*
X-5488312Y15686477D01*
X-5496000Y15725128D01*
X-5496000Y15825128D01*
X-5488312Y15863779D01*
X-5466418Y15896546D01*
X-5433651Y15918440D01*
X-5395000Y15926128D01*
X-4620000Y15926128D01*
X-4581349Y15918440D01*
G37*
G36*
X2293651Y15918440D02*
G01*
X2326418Y15896546D01*
X2348312Y15863779D01*
X2356000Y15825128D01*
X2356000Y15725128D01*
X2348312Y15686477D01*
X2326418Y15653710D01*
X2293651Y15631816D01*
X2255000Y15624128D01*
X1480000Y15624128D01*
X1441349Y15631816D01*
X1408582Y15653710D01*
X1386688Y15686477D01*
X1379000Y15725128D01*
X1379000Y15825128D01*
X1386688Y15863779D01*
X1408582Y15896546D01*
X1441349Y15918440D01*
X1480000Y15926128D01*
X2255000Y15926128D01*
X2293651Y15918440D01*
G37*
G36*
X-4581349Y16318440D02*
G01*
X-4548582Y16296546D01*
X-4526688Y16263779D01*
X-4519000Y16225128D01*
X-4519000Y16125128D01*
X-4526688Y16086477D01*
X-4548582Y16053710D01*
X-4581349Y16031816D01*
X-4620000Y16024128D01*
X-5395000Y16024128D01*
X-5433651Y16031816D01*
X-5466418Y16053710D01*
X-5488312Y16086477D01*
X-5496000Y16125128D01*
X-5496000Y16225128D01*
X-5488312Y16263779D01*
X-5466418Y16296546D01*
X-5433651Y16318440D01*
X-5395000Y16326128D01*
X-4620000Y16326128D01*
X-4581349Y16318440D01*
G37*
G36*
X2293651Y16318440D02*
G01*
X2326418Y16296546D01*
X2348312Y16263779D01*
X2356000Y16225128D01*
X2356000Y16125128D01*
X2348312Y16086477D01*
X2326418Y16053710D01*
X2293651Y16031816D01*
X2255000Y16024128D01*
X1480000Y16024128D01*
X1441349Y16031816D01*
X1408582Y16053710D01*
X1386688Y16086477D01*
X1379000Y16125128D01*
X1379000Y16225128D01*
X1386688Y16263779D01*
X1408582Y16296546D01*
X1441349Y16318440D01*
X1480000Y16326128D01*
X2255000Y16326128D01*
X2293651Y16318440D01*
G37*
G36*
X-6034407Y16691589D02*
G01*
X-5972443Y16650185D01*
X-5931039Y16588221D01*
X-5916500Y16515128D01*
X-5916500Y16235128D01*
X-5931039Y16162035D01*
X-5972443Y16100071D01*
X-6034407Y16058667D01*
X-6107500Y16044128D01*
X-6447500Y16044128D01*
X-6520593Y16058667D01*
X-6582557Y16100071D01*
X-6623961Y16162035D01*
X-6638500Y16235128D01*
X-6638500Y16515128D01*
X-6623961Y16588221D01*
X-6582557Y16650185D01*
X-6520593Y16691589D01*
X-6447500Y16706128D01*
X-6107500Y16706128D01*
X-6034407Y16691589D01*
G37*
G36*
X-4581349Y16718440D02*
G01*
X-4548582Y16696546D01*
X-4526688Y16663779D01*
X-4519000Y16625128D01*
X-4519000Y16525128D01*
X-4526688Y16486477D01*
X-4548582Y16453710D01*
X-4581349Y16431816D01*
X-4620000Y16424128D01*
X-5395000Y16424128D01*
X-5433651Y16431816D01*
X-5466418Y16453710D01*
X-5488312Y16486477D01*
X-5496000Y16525128D01*
X-5496000Y16625128D01*
X-5488312Y16663779D01*
X-5466418Y16696546D01*
X-5433651Y16718440D01*
X-5395000Y16726128D01*
X-4620000Y16726128D01*
X-4581349Y16718440D01*
G37*
G36*
X2293651Y16718440D02*
G01*
X2326418Y16696546D01*
X2348312Y16663779D01*
X2356000Y16625128D01*
X2356000Y16525128D01*
X2348312Y16486477D01*
X2326418Y16453710D01*
X2293651Y16431816D01*
X2255000Y16424128D01*
X1480000Y16424128D01*
X1441349Y16431816D01*
X1408582Y16453710D01*
X1386688Y16486477D01*
X1379000Y16525128D01*
X1379000Y16625128D01*
X1386688Y16663779D01*
X1408582Y16696546D01*
X1441349Y16718440D01*
X1480000Y16726128D01*
X2255000Y16726128D01*
X2293651Y16718440D01*
G37*
G36*
X-4581349Y17118440D02*
G01*
X-4548582Y17096546D01*
X-4526688Y17063779D01*
X-4519000Y17025128D01*
X-4519000Y16925128D01*
X-4526688Y16886477D01*
X-4548582Y16853710D01*
X-4581349Y16831816D01*
X-4620000Y16824128D01*
X-5395000Y16824128D01*
X-5433651Y16831816D01*
X-5466418Y16853710D01*
X-5488312Y16886477D01*
X-5496000Y16925128D01*
X-5496000Y17025128D01*
X-5488312Y17063779D01*
X-5466418Y17096546D01*
X-5433651Y17118440D01*
X-5395000Y17126128D01*
X-4620000Y17126128D01*
X-4581349Y17118440D01*
G37*
G36*
X2293651Y17118440D02*
G01*
X2326418Y17096546D01*
X2348312Y17063779D01*
X2356000Y17025128D01*
X2356000Y16925128D01*
X2348312Y16886477D01*
X2326418Y16853710D01*
X2293651Y16831816D01*
X2255000Y16824128D01*
X1480000Y16824128D01*
X1441349Y16831816D01*
X1408582Y16853710D01*
X1386688Y16886477D01*
X1379000Y16925128D01*
X1379000Y17025128D01*
X1386688Y17063779D01*
X1408582Y17096546D01*
X1441349Y17118440D01*
X1480000Y17126128D01*
X2255000Y17126128D01*
X2293651Y17118440D01*
G37*
G36*
X-4581349Y17518440D02*
G01*
X-4548582Y17496546D01*
X-4526688Y17463779D01*
X-4519000Y17425128D01*
X-4519000Y17325128D01*
X-4526688Y17286477D01*
X-4548582Y17253710D01*
X-4581349Y17231816D01*
X-4620000Y17224128D01*
X-5395000Y17224128D01*
X-5433651Y17231816D01*
X-5466418Y17253710D01*
X-5488312Y17286477D01*
X-5496000Y17325128D01*
X-5496000Y17425128D01*
X-5488312Y17463779D01*
X-5466418Y17496546D01*
X-5433651Y17518440D01*
X-5395000Y17526128D01*
X-4620000Y17526128D01*
X-4581349Y17518440D01*
G37*
G36*
X2293651Y17518440D02*
G01*
X2326418Y17496546D01*
X2348312Y17463779D01*
X2356000Y17425128D01*
X2356000Y17325128D01*
X2348312Y17286477D01*
X2326418Y17253710D01*
X2293651Y17231816D01*
X2255000Y17224128D01*
X1480000Y17224128D01*
X1441349Y17231816D01*
X1408582Y17253710D01*
X1386688Y17286477D01*
X1379000Y17325128D01*
X1379000Y17425128D01*
X1386688Y17463779D01*
X1408582Y17496546D01*
X1441349Y17518440D01*
X1480000Y17526128D01*
X2255000Y17526128D01*
X2293651Y17518440D01*
G37*
G36*
X-4581349Y17918440D02*
G01*
X-4548582Y17896546D01*
X-4526688Y17863779D01*
X-4519000Y17825128D01*
X-4519000Y17725128D01*
X-4526688Y17686477D01*
X-4548582Y17653710D01*
X-4581349Y17631816D01*
X-4620000Y17624128D01*
X-5395000Y17624128D01*
X-5433651Y17631816D01*
X-5466418Y17653710D01*
X-5488312Y17686477D01*
X-5496000Y17725128D01*
X-5496000Y17825128D01*
X-5488312Y17863779D01*
X-5466418Y17896546D01*
X-5433651Y17918440D01*
X-5395000Y17926128D01*
X-4620000Y17926128D01*
X-4581349Y17918440D01*
G37*
G36*
X2293651Y17918440D02*
G01*
X2326418Y17896546D01*
X2348312Y17863779D01*
X2356000Y17825128D01*
X2356000Y17725128D01*
X2348312Y17686477D01*
X2326418Y17653710D01*
X2293651Y17631816D01*
X2255000Y17624128D01*
X1480000Y17624128D01*
X1441349Y17631816D01*
X1408582Y17653710D01*
X1386688Y17686477D01*
X1379000Y17725128D01*
X1379000Y17825128D01*
X1386688Y17863779D01*
X1408582Y17896546D01*
X1441349Y17918440D01*
X1480000Y17926128D01*
X2255000Y17926128D01*
X2293651Y17918440D01*
G37*
G36*
X-6034407Y18321589D02*
G01*
X-5972443Y18280185D01*
X-5931039Y18218221D01*
X-5916500Y18145128D01*
X-5916500Y17865128D01*
X-5931039Y17792035D01*
X-5972443Y17730071D01*
X-6034407Y17688667D01*
X-6107500Y17674128D01*
X-6447500Y17674128D01*
X-6520593Y17688667D01*
X-6582557Y17730071D01*
X-6623961Y17792035D01*
X-6638500Y17865128D01*
X-6638500Y18145128D01*
X-6623961Y18218221D01*
X-6582557Y18280185D01*
X-6520593Y18321589D01*
X-6447500Y18336128D01*
X-6107500Y18336128D01*
X-6034407Y18321589D01*
G37*
G36*
X-4581349Y18318440D02*
G01*
X-4548582Y18296546D01*
X-4526688Y18263779D01*
X-4519000Y18225128D01*
X-4519000Y18125128D01*
X-4526688Y18086477D01*
X-4548582Y18053710D01*
X-4581349Y18031816D01*
X-4620000Y18024128D01*
X-5395000Y18024128D01*
X-5433651Y18031816D01*
X-5466418Y18053710D01*
X-5488312Y18086477D01*
X-5496000Y18125128D01*
X-5496000Y18225128D01*
X-5488312Y18263779D01*
X-5466418Y18296546D01*
X-5433651Y18318440D01*
X-5395000Y18326128D01*
X-4620000Y18326128D01*
X-4581349Y18318440D01*
G37*
G36*
X2293651Y18318440D02*
G01*
X2326418Y18296546D01*
X2348312Y18263779D01*
X2356000Y18225128D01*
X2356000Y18125128D01*
X2348312Y18086477D01*
X2326418Y18053710D01*
X2293651Y18031816D01*
X2255000Y18024128D01*
X1480000Y18024128D01*
X1441349Y18031816D01*
X1408582Y18053710D01*
X1386688Y18086477D01*
X1379000Y18125128D01*
X1379000Y18225128D01*
X1386688Y18263779D01*
X1408582Y18296546D01*
X1441349Y18318440D01*
X1480000Y18326128D01*
X2255000Y18326128D01*
X2293651Y18318440D01*
G37*
G36*
X-4581349Y18718440D02*
G01*
X-4548582Y18696546D01*
X-4526688Y18663779D01*
X-4519000Y18625128D01*
X-4519000Y18525128D01*
X-4526688Y18486477D01*
X-4548582Y18453710D01*
X-4581349Y18431816D01*
X-4620000Y18424128D01*
X-5395000Y18424128D01*
X-5433651Y18431816D01*
X-5466418Y18453710D01*
X-5488312Y18486477D01*
X-5496000Y18525128D01*
X-5496000Y18625128D01*
X-5488312Y18663779D01*
X-5466418Y18696546D01*
X-5433651Y18718440D01*
X-5395000Y18726128D01*
X-4620000Y18726128D01*
X-4581349Y18718440D01*
G37*
G36*
X2293651Y18718440D02*
G01*
X2326418Y18696546D01*
X2348312Y18663779D01*
X2356000Y18625128D01*
X2356000Y18525128D01*
X2348312Y18486477D01*
X2326418Y18453710D01*
X2293651Y18431816D01*
X2255000Y18424128D01*
X1480000Y18424128D01*
X1441349Y18431816D01*
X1408582Y18453710D01*
X1386688Y18486477D01*
X1379000Y18525128D01*
X1379000Y18625128D01*
X1386688Y18663779D01*
X1408582Y18696546D01*
X1441349Y18718440D01*
X1480000Y18726128D01*
X2255000Y18726128D01*
X2293651Y18718440D01*
G37*
G36*
X-6034407Y19281589D02*
G01*
X-5972443Y19240185D01*
X-5931039Y19178221D01*
X-5916500Y19105128D01*
X-5916500Y18825128D01*
X-5931039Y18752035D01*
X-5972443Y18690071D01*
X-6034407Y18648667D01*
X-6107500Y18634128D01*
X-6447500Y18634128D01*
X-6520593Y18648667D01*
X-6582557Y18690071D01*
X-6623961Y18752035D01*
X-6638500Y18825128D01*
X-6638500Y19105128D01*
X-6623961Y19178221D01*
X-6582557Y19240185D01*
X-6520593Y19281589D01*
X-6447500Y19296128D01*
X-6107500Y19296128D01*
X-6034407Y19281589D01*
G37*
G36*
X-4581349Y19118440D02*
G01*
X-4548582Y19096546D01*
X-4526688Y19063779D01*
X-4519000Y19025128D01*
X-4519000Y18925128D01*
X-4526688Y18886477D01*
X-4548582Y18853710D01*
X-4581349Y18831816D01*
X-4620000Y18824128D01*
X-5395000Y18824128D01*
X-5433651Y18831816D01*
X-5466418Y18853710D01*
X-5488312Y18886477D01*
X-5496000Y18925128D01*
X-5496000Y19025128D01*
X-5488312Y19063779D01*
X-5466418Y19096546D01*
X-5433651Y19118440D01*
X-5395000Y19126128D01*
X-4620000Y19126128D01*
X-4581349Y19118440D01*
G37*
G36*
X2293651Y19118440D02*
G01*
X2326418Y19096546D01*
X2348312Y19063779D01*
X2356000Y19025128D01*
X2356000Y18925128D01*
X2348312Y18886477D01*
X2326418Y18853710D01*
X2293651Y18831816D01*
X2255000Y18824128D01*
X1480000Y18824128D01*
X1441349Y18831816D01*
X1408582Y18853710D01*
X1386688Y18886477D01*
X1379000Y18925128D01*
X1379000Y19025128D01*
X1386688Y19063779D01*
X1408582Y19096546D01*
X1441349Y19118440D01*
X1480000Y19126128D01*
X2255000Y19126128D01*
X2293651Y19118440D01*
G37*
G36*
X-4081349Y20293440D02*
G01*
X-4048582Y20271546D01*
X-4026688Y20238779D01*
X-4019000Y20200128D01*
X-4019000Y19425128D01*
X-4026688Y19386477D01*
X-4048582Y19353710D01*
X-4081349Y19331816D01*
X-4120000Y19324128D01*
X-4220000Y19324128D01*
X-4258651Y19331816D01*
X-4291418Y19353710D01*
X-4313312Y19386477D01*
X-4321000Y19425128D01*
X-4321000Y20200128D01*
X-4313312Y20238779D01*
X-4291418Y20271546D01*
X-4258651Y20293440D01*
X-4220000Y20301128D01*
X-4120000Y20301128D01*
X-4081349Y20293440D01*
G37*
G36*
X-3681349Y20293440D02*
G01*
X-3648582Y20271546D01*
X-3626688Y20238779D01*
X-3619000Y20200128D01*
X-3619000Y19425128D01*
X-3626688Y19386477D01*
X-3648582Y19353710D01*
X-3681349Y19331816D01*
X-3720000Y19324128D01*
X-3820000Y19324128D01*
X-3858651Y19331816D01*
X-3891418Y19353710D01*
X-3913312Y19386477D01*
X-3921000Y19425128D01*
X-3921000Y20200128D01*
X-3913312Y20238779D01*
X-3891418Y20271546D01*
X-3858651Y20293440D01*
X-3820000Y20301128D01*
X-3720000Y20301128D01*
X-3681349Y20293440D01*
G37*
G36*
X-3281349Y20293440D02*
G01*
X-3248582Y20271546D01*
X-3226688Y20238779D01*
X-3219000Y20200128D01*
X-3219000Y19425128D01*
X-3226688Y19386477D01*
X-3248582Y19353710D01*
X-3281349Y19331816D01*
X-3320000Y19324128D01*
X-3420000Y19324128D01*
X-3458651Y19331816D01*
X-3491418Y19353710D01*
X-3513312Y19386477D01*
X-3521000Y19425128D01*
X-3521000Y20200128D01*
X-3513312Y20238779D01*
X-3491418Y20271546D01*
X-3458651Y20293440D01*
X-3420000Y20301128D01*
X-3320000Y20301128D01*
X-3281349Y20293440D01*
G37*
G36*
X-2881349Y20293440D02*
G01*
X-2848582Y20271546D01*
X-2826688Y20238779D01*
X-2819000Y20200128D01*
X-2819000Y19425128D01*
X-2826688Y19386477D01*
X-2848582Y19353710D01*
X-2881349Y19331816D01*
X-2920000Y19324128D01*
X-3020000Y19324128D01*
X-3058651Y19331816D01*
X-3091418Y19353710D01*
X-3113312Y19386477D01*
X-3121000Y19425128D01*
X-3121000Y20200128D01*
X-3113312Y20238779D01*
X-3091418Y20271546D01*
X-3058651Y20293440D01*
X-3020000Y20301128D01*
X-2920000Y20301128D01*
X-2881349Y20293440D01*
G37*
G36*
X-2481349Y20293440D02*
G01*
X-2448582Y20271546D01*
X-2426688Y20238779D01*
X-2419000Y20200128D01*
X-2419000Y19425128D01*
X-2426688Y19386477D01*
X-2448582Y19353710D01*
X-2481349Y19331816D01*
X-2520000Y19324128D01*
X-2620000Y19324128D01*
X-2658651Y19331816D01*
X-2691418Y19353710D01*
X-2713312Y19386477D01*
X-2721000Y19425128D01*
X-2721000Y20200128D01*
X-2713312Y20238779D01*
X-2691418Y20271546D01*
X-2658651Y20293440D01*
X-2620000Y20301128D01*
X-2520000Y20301128D01*
X-2481349Y20293440D01*
G37*
G36*
X-2081349Y20293440D02*
G01*
X-2048582Y20271546D01*
X-2026688Y20238779D01*
X-2019000Y20200128D01*
X-2019000Y19425128D01*
X-2026688Y19386477D01*
X-2048582Y19353710D01*
X-2081349Y19331816D01*
X-2120000Y19324128D01*
X-2220000Y19324128D01*
X-2258651Y19331816D01*
X-2291418Y19353710D01*
X-2313312Y19386477D01*
X-2321000Y19425128D01*
X-2321000Y20200128D01*
X-2313312Y20238779D01*
X-2291418Y20271546D01*
X-2258651Y20293440D01*
X-2220000Y20301128D01*
X-2120000Y20301128D01*
X-2081349Y20293440D01*
G37*
G36*
X-1681349Y20293440D02*
G01*
X-1648582Y20271546D01*
X-1626688Y20238779D01*
X-1619000Y20200128D01*
X-1619000Y19425128D01*
X-1626688Y19386477D01*
X-1648582Y19353710D01*
X-1681349Y19331816D01*
X-1720000Y19324128D01*
X-1820000Y19324128D01*
X-1858651Y19331816D01*
X-1891418Y19353710D01*
X-1913312Y19386477D01*
X-1921000Y19425128D01*
X-1921000Y20200128D01*
X-1913312Y20238779D01*
X-1891418Y20271546D01*
X-1858651Y20293440D01*
X-1820000Y20301128D01*
X-1720000Y20301128D01*
X-1681349Y20293440D01*
G37*
G36*
X-1281349Y20293440D02*
G01*
X-1248582Y20271546D01*
X-1226688Y20238779D01*
X-1219000Y20200128D01*
X-1219000Y19425128D01*
X-1226688Y19386477D01*
X-1248582Y19353710D01*
X-1281349Y19331816D01*
X-1320000Y19324128D01*
X-1420000Y19324128D01*
X-1458651Y19331816D01*
X-1491418Y19353710D01*
X-1513312Y19386477D01*
X-1521000Y19425128D01*
X-1521000Y20200128D01*
X-1513312Y20238779D01*
X-1491418Y20271546D01*
X-1458651Y20293440D01*
X-1420000Y20301128D01*
X-1320000Y20301128D01*
X-1281349Y20293440D01*
G37*
G36*
X-881349Y20293440D02*
G01*
X-848582Y20271546D01*
X-826688Y20238779D01*
X-819000Y20200128D01*
X-819000Y19425128D01*
X-826688Y19386477D01*
X-848582Y19353710D01*
X-881349Y19331816D01*
X-920000Y19324128D01*
X-1020000Y19324128D01*
X-1058651Y19331816D01*
X-1091418Y19353710D01*
X-1113312Y19386477D01*
X-1121000Y19425128D01*
X-1121000Y20200128D01*
X-1113312Y20238779D01*
X-1091418Y20271546D01*
X-1058651Y20293440D01*
X-1020000Y20301128D01*
X-920000Y20301128D01*
X-881349Y20293440D01*
G37*
G36*
X-481349Y20293440D02*
G01*
X-448582Y20271546D01*
X-426688Y20238779D01*
X-419000Y20200128D01*
X-419000Y19425128D01*
X-426688Y19386477D01*
X-448582Y19353710D01*
X-481349Y19331816D01*
X-520000Y19324128D01*
X-620000Y19324128D01*
X-658651Y19331816D01*
X-691418Y19353710D01*
X-713312Y19386477D01*
X-721000Y19425128D01*
X-721000Y20200128D01*
X-713312Y20238779D01*
X-691418Y20271546D01*
X-658651Y20293440D01*
X-620000Y20301128D01*
X-520000Y20301128D01*
X-481349Y20293440D01*
G37*
G36*
X-81349Y20293440D02*
G01*
X-48582Y20271546D01*
X-26688Y20238779D01*
X-19000Y20200128D01*
X-19000Y19425128D01*
X-26688Y19386477D01*
X-48582Y19353710D01*
X-81349Y19331816D01*
X-120000Y19324128D01*
X-220000Y19324128D01*
X-258651Y19331816D01*
X-291418Y19353710D01*
X-313312Y19386477D01*
X-321000Y19425128D01*
X-321000Y20200128D01*
X-313312Y20238779D01*
X-291418Y20271546D01*
X-258651Y20293440D01*
X-220000Y20301128D01*
X-120000Y20301128D01*
X-81349Y20293440D01*
G37*
G36*
X318651Y20293440D02*
G01*
X351418Y20271546D01*
X373312Y20238779D01*
X381000Y20200128D01*
X381000Y19425128D01*
X373312Y19386477D01*
X351418Y19353710D01*
X318651Y19331816D01*
X280000Y19324128D01*
X180000Y19324128D01*
X141349Y19331816D01*
X108582Y19353710D01*
X86688Y19386477D01*
X79000Y19425128D01*
X79000Y20200128D01*
X86688Y20238779D01*
X108582Y20271546D01*
X141349Y20293440D01*
X180000Y20301128D01*
X280000Y20301128D01*
X318651Y20293440D01*
G37*
G36*
X718651Y20293440D02*
G01*
X751418Y20271546D01*
X773312Y20238779D01*
X781000Y20200128D01*
X781000Y19425128D01*
X773312Y19386477D01*
X751418Y19353710D01*
X718651Y19331816D01*
X680000Y19324128D01*
X580000Y19324128D01*
X541349Y19331816D01*
X508582Y19353710D01*
X486688Y19386477D01*
X479000Y19425128D01*
X479000Y20200128D01*
X486688Y20238779D01*
X508582Y20271546D01*
X541349Y20293440D01*
X580000Y20301128D01*
X680000Y20301128D01*
X718651Y20293440D01*
G37*
G36*
X1118651Y20293440D02*
G01*
X1151418Y20271546D01*
X1173312Y20238779D01*
X1181000Y20200128D01*
X1181000Y19425128D01*
X1173312Y19386477D01*
X1151418Y19353710D01*
X1118651Y19331816D01*
X1080000Y19324128D01*
X980000Y19324128D01*
X941349Y19331816D01*
X908582Y19353710D01*
X886688Y19386477D01*
X879000Y19425128D01*
X879000Y20200128D01*
X886688Y20238779D01*
X908582Y20271546D01*
X941349Y20293440D01*
X980000Y20301128D01*
X1080000Y20301128D01*
X1118651Y20293440D01*
G37*
G36*
X415935Y26067360D02*
G01*
X452757Y26042757D01*
X477360Y26005935D01*
X486000Y25962500D01*
X486000Y25837500D01*
X477360Y25794065D01*
X452757Y25757243D01*
X415935Y25732640D01*
X372500Y25724000D01*
X-402500Y25724000D01*
X-445935Y25732640D01*
X-482757Y25757243D01*
X-507360Y25794065D01*
X-516000Y25837500D01*
X-516000Y25962500D01*
X-507360Y26005935D01*
X-482757Y26042757D01*
X-445935Y26067360D01*
X-402500Y26076000D01*
X372500Y26076000D01*
X415935Y26067360D01*
G37*
G36*
X3265935Y26067360D02*
G01*
X3302757Y26042757D01*
X3327360Y26005935D01*
X3336000Y25962500D01*
X3336000Y25837500D01*
X3327360Y25794065D01*
X3302757Y25757243D01*
X3265935Y25732640D01*
X3222500Y25724000D01*
X2447500Y25724000D01*
X2404065Y25732640D01*
X2367243Y25757243D01*
X2342640Y25794065D01*
X2334000Y25837500D01*
X2334000Y25962500D01*
X2342640Y26005935D01*
X2367243Y26042757D01*
X2404065Y26067360D01*
X2447500Y26076000D01*
X3222500Y26076000D01*
X3265935Y26067360D01*
G37*
G36*
X1529517Y27497118D02*
G01*
X1546062Y27486062D01*
X1557118Y27469517D01*
X1561000Y27450000D01*
X1561000Y25850000D01*
X1557118Y25830483D01*
X1546062Y25813938D01*
X1529517Y25802882D01*
X1510000Y25799000D01*
X1310000Y25799000D01*
X1290483Y25802882D01*
X1273938Y25813938D01*
X1262882Y25830483D01*
X1259000Y25850000D01*
X1259000Y27450000D01*
X1262882Y27469517D01*
X1273938Y27486062D01*
X1290483Y27497118D01*
X1310000Y27501000D01*
X1510000Y27501000D01*
X1529517Y27497118D01*
G37*
G36*
X415935Y26567360D02*
G01*
X452757Y26542757D01*
X477360Y26505935D01*
X486000Y26462500D01*
X486000Y26337500D01*
X477360Y26294065D01*
X452757Y26257243D01*
X415935Y26232640D01*
X372500Y26224000D01*
X-402500Y26224000D01*
X-445935Y26232640D01*
X-482757Y26257243D01*
X-507360Y26294065D01*
X-516000Y26337500D01*
X-516000Y26462500D01*
X-507360Y26505935D01*
X-482757Y26542757D01*
X-445935Y26567360D01*
X-402500Y26576000D01*
X372500Y26576000D01*
X415935Y26567360D01*
G37*
G36*
X3265935Y26567360D02*
G01*
X3302757Y26542757D01*
X3327360Y26505935D01*
X3336000Y26462500D01*
X3336000Y26337500D01*
X3327360Y26294065D01*
X3302757Y26257243D01*
X3265935Y26232640D01*
X3222500Y26224000D01*
X2447500Y26224000D01*
X2404065Y26232640D01*
X2367243Y26257243D01*
X2342640Y26294065D01*
X2334000Y26337500D01*
X2334000Y26462500D01*
X2342640Y26505935D01*
X2367243Y26542757D01*
X2404065Y26567360D01*
X2447500Y26576000D01*
X3222500Y26576000D01*
X3265935Y26567360D01*
G37*
G36*
X-5103821Y27226842D02*
G01*
X-5043478Y27186522D01*
X-5003158Y27126179D01*
X-4989000Y27055000D01*
X-4989000Y26785000D01*
X-5003158Y26713821D01*
X-5043478Y26653478D01*
X-5103821Y26613158D01*
X-5175000Y26599000D01*
X-5545000Y26599000D01*
X-5616179Y26613158D01*
X-5676522Y26653478D01*
X-5716842Y26713821D01*
X-5731000Y26785000D01*
X-5731000Y27055000D01*
X-5716842Y27126179D01*
X-5676522Y27186522D01*
X-5616179Y27226842D01*
X-5545000Y27241000D01*
X-5175000Y27241000D01*
X-5103821Y27226842D01*
G37*
G36*
X415935Y27067360D02*
G01*
X452757Y27042757D01*
X477360Y27005935D01*
X486000Y26962500D01*
X486000Y26837500D01*
X477360Y26794065D01*
X452757Y26757243D01*
X415935Y26732640D01*
X372500Y26724000D01*
X-402500Y26724000D01*
X-445935Y26732640D01*
X-482757Y26757243D01*
X-507360Y26794065D01*
X-516000Y26837500D01*
X-516000Y26962500D01*
X-507360Y27005935D01*
X-482757Y27042757D01*
X-445935Y27067360D01*
X-402500Y27076000D01*
X372500Y27076000D01*
X415935Y27067360D01*
G37*
G36*
X3265935Y27067360D02*
G01*
X3302757Y27042757D01*
X3327360Y27005935D01*
X3336000Y26962500D01*
X3336000Y26837500D01*
X3327360Y26794065D01*
X3302757Y26757243D01*
X3265935Y26732640D01*
X3222500Y26724000D01*
X2447500Y26724000D01*
X2404065Y26732640D01*
X2367243Y26757243D01*
X2342640Y26794065D01*
X2334000Y26837500D01*
X2334000Y26962500D01*
X2342640Y27005935D01*
X2367243Y27042757D01*
X2404065Y27067360D01*
X2447500Y27076000D01*
X3222500Y27076000D01*
X3265935Y27067360D01*
G37*
G36*
X-2283821Y27696842D02*
G01*
X-2223478Y27656522D01*
X-2183158Y27596179D01*
X-2169000Y27525000D01*
X-2169000Y27155000D01*
X-2183158Y27083821D01*
X-2223478Y27023478D01*
X-2283821Y26983158D01*
X-2355000Y26969000D01*
X-2625000Y26969000D01*
X-2696179Y26983158D01*
X-2756522Y27023478D01*
X-2796842Y27083821D01*
X-2811000Y27155000D01*
X-2811000Y27525000D01*
X-2796842Y27596179D01*
X-2756522Y27656522D01*
X-2696179Y27696842D01*
X-2625000Y27711000D01*
X-2355000Y27711000D01*
X-2283821Y27696842D01*
G37*
G36*
X-1263821Y27696842D02*
G01*
X-1203478Y27656522D01*
X-1163158Y27596179D01*
X-1149000Y27525000D01*
X-1149000Y27155000D01*
X-1163158Y27083821D01*
X-1203478Y27023478D01*
X-1263821Y26983158D01*
X-1335000Y26969000D01*
X-1605000Y26969000D01*
X-1676179Y26983158D01*
X-1736522Y27023478D01*
X-1776842Y27083821D01*
X-1791000Y27155000D01*
X-1791000Y27525000D01*
X-1776842Y27596179D01*
X-1736522Y27656522D01*
X-1676179Y27696842D01*
X-1605000Y27711000D01*
X-1335000Y27711000D01*
X-1263821Y27696842D01*
G37*
G36*
X415935Y27567360D02*
G01*
X452757Y27542757D01*
X477360Y27505935D01*
X486000Y27462500D01*
X486000Y27337500D01*
X477360Y27294065D01*
X452757Y27257243D01*
X415935Y27232640D01*
X372500Y27224000D01*
X-402500Y27224000D01*
X-445935Y27232640D01*
X-482757Y27257243D01*
X-507360Y27294065D01*
X-516000Y27337500D01*
X-516000Y27462500D01*
X-507360Y27505935D01*
X-482757Y27542757D01*
X-445935Y27567360D01*
X-402500Y27576000D01*
X372500Y27576000D01*
X415935Y27567360D01*
G37*
G36*
X3265935Y27567360D02*
G01*
X3302757Y27542757D01*
X3327360Y27505935D01*
X3336000Y27462500D01*
X3336000Y27337500D01*
X3327360Y27294065D01*
X3302757Y27257243D01*
X3265935Y27232640D01*
X3222500Y27224000D01*
X2447500Y27224000D01*
X2404065Y27232640D01*
X2367243Y27257243D01*
X2342640Y27294065D01*
X2334000Y27337500D01*
X2334000Y27462500D01*
X2342640Y27505935D01*
X2367243Y27542757D01*
X2404065Y27567360D01*
X2447500Y27576000D01*
X3222500Y27576000D01*
X3265935Y27567360D01*
G37*
G36*
X-5103821Y28246842D02*
G01*
X-5043478Y28206522D01*
X-5003158Y28146179D01*
X-4989000Y28075000D01*
X-4989000Y27805000D01*
X-5003158Y27733821D01*
X-5043478Y27673478D01*
X-5103821Y27633158D01*
X-5175000Y27619000D01*
X-5545000Y27619000D01*
X-5616179Y27633158D01*
X-5676522Y27673478D01*
X-5716842Y27733821D01*
X-5731000Y27805000D01*
X-5731000Y28075000D01*
X-5716842Y28146179D01*
X-5676522Y28206522D01*
X-5616179Y28246842D01*
X-5545000Y28261000D01*
X-5175000Y28261000D01*
X-5103821Y28246842D01*
G37*
G36*
X2103093Y28786461D02*
G01*
X2165057Y28745057D01*
X2206461Y28683093D01*
X2221000Y28610000D01*
X2221000Y28270000D01*
X2206461Y28196907D01*
X2165057Y28134943D01*
X2103093Y28093539D01*
X2030000Y28079000D01*
X1750000Y28079000D01*
X1676907Y28093539D01*
X1614943Y28134943D01*
X1573539Y28196907D01*
X1559000Y28270000D01*
X1559000Y28610000D01*
X1573539Y28683093D01*
X1614943Y28745057D01*
X1676907Y28786461D01*
X1750000Y28801000D01*
X2030000Y28801000D01*
X2103093Y28786461D01*
G37*
G36*
X3063093Y28786461D02*
G01*
X3125057Y28745057D01*
X3166461Y28683093D01*
X3181000Y28610000D01*
X3181000Y28270000D01*
X3166461Y28196907D01*
X3125057Y28134943D01*
X3063093Y28093539D01*
X2990000Y28079000D01*
X2710000Y28079000D01*
X2636907Y28093539D01*
X2574943Y28134943D01*
X2533539Y28196907D01*
X2519000Y28270000D01*
X2519000Y28610000D01*
X2533539Y28683093D01*
X2574943Y28745057D01*
X2636907Y28786461D01*
X2710000Y28801000D01*
X2990000Y28801000D01*
X3063093Y28786461D01*
G37*
G36*
X-4439141Y31659058D02*
G01*
X-4314572Y31587138D01*
X-4212862Y31485428D01*
X-4140942Y31360859D01*
X-4103714Y31221920D01*
X-4099000Y31150000D01*
X-4099000Y30150000D01*
X-4103714Y30078080D01*
X-4140942Y29939141D01*
X-4212862Y29814572D01*
X-4314572Y29712862D01*
X-4439141Y29640942D01*
X-4578080Y29603714D01*
X-4721920Y29603714D01*
X-4860859Y29640942D01*
X-4985428Y29712862D01*
X-5087138Y29814572D01*
X-5159058Y29939141D01*
X-5196286Y30078080D01*
X-5201000Y30150000D01*
X-5201000Y31150000D01*
X-5196286Y31221920D01*
X-5159058Y31360859D01*
X-5087138Y31485428D01*
X-4985428Y31587138D01*
X-4860859Y31659058D01*
X-4721920Y31696286D01*
X-4578080Y31696286D01*
X-4439141Y31659058D01*
G37*
G36*
X2970859Y31659058D02*
G01*
X3095428Y31587138D01*
X3197138Y31485428D01*
X3269058Y31360859D01*
X3306286Y31221920D01*
X3311000Y31150000D01*
X3311000Y30150000D01*
X3306286Y30078080D01*
X3269058Y29939141D01*
X3197138Y29814572D01*
X3095428Y29712862D01*
X2970859Y29640942D01*
X2831920Y29603714D01*
X2688080Y29603714D01*
X2549141Y29640942D01*
X2424572Y29712862D01*
X2322862Y29814572D01*
X2250942Y29939141D01*
X2213714Y30078080D01*
X2209000Y30150000D01*
X2209000Y31150000D01*
X2213714Y31221920D01*
X2250942Y31360859D01*
X2322862Y31485428D01*
X2424572Y31587138D01*
X2549141Y31659058D01*
X2688080Y31696286D01*
X2831920Y31696286D01*
X2970859Y31659058D01*
G37*
G36*
X-3675483Y31097118D02*
G01*
X-3658938Y31086062D01*
X-3647882Y31069517D01*
X-3644000Y31050000D01*
X-3644000Y30250000D01*
X-3647882Y30230483D01*
X-3658938Y30213938D01*
X-3675483Y30202882D01*
X-3695000Y30199000D01*
X-3945000Y30199000D01*
X-3964517Y30202882D01*
X-3981062Y30213938D01*
X-3992118Y30230483D01*
X-3996000Y30250000D01*
X-3996000Y31050000D01*
X-3992118Y31069517D01*
X-3981062Y31086062D01*
X-3964517Y31097118D01*
X-3945000Y31101000D01*
X-3695000Y31101000D01*
X-3675483Y31097118D01*
G37*
G36*
X-3175483Y31097118D02*
G01*
X-3158938Y31086062D01*
X-3147882Y31069517D01*
X-3144000Y31050000D01*
X-3144000Y30250000D01*
X-3147882Y30230483D01*
X-3158938Y30213938D01*
X-3175483Y30202882D01*
X-3195000Y30199000D01*
X-3445000Y30199000D01*
X-3464517Y30202882D01*
X-3481062Y30213938D01*
X-3492118Y30230483D01*
X-3496000Y30250000D01*
X-3496000Y31050000D01*
X-3492118Y31069517D01*
X-3481062Y31086062D01*
X-3464517Y31097118D01*
X-3445000Y31101000D01*
X-3195000Y31101000D01*
X-3175483Y31097118D01*
G37*
G36*
X-2675483Y31097118D02*
G01*
X-2658938Y31086062D01*
X-2647882Y31069517D01*
X-2644000Y31050000D01*
X-2644000Y30250000D01*
X-2647882Y30230483D01*
X-2658938Y30213938D01*
X-2675483Y30202882D01*
X-2695000Y30199000D01*
X-2945000Y30199000D01*
X-2964517Y30202882D01*
X-2981062Y30213938D01*
X-2992118Y30230483D01*
X-2996000Y30250000D01*
X-2996000Y31050000D01*
X-2992118Y31069517D01*
X-2981062Y31086062D01*
X-2964517Y31097118D01*
X-2945000Y31101000D01*
X-2695000Y31101000D01*
X-2675483Y31097118D01*
G37*
G36*
X-2175483Y31097118D02*
G01*
X-2158938Y31086062D01*
X-2147882Y31069517D01*
X-2144000Y31050000D01*
X-2144000Y30250000D01*
X-2147882Y30230483D01*
X-2158938Y30213938D01*
X-2175483Y30202882D01*
X-2195000Y30199000D01*
X-2445000Y30199000D01*
X-2464517Y30202882D01*
X-2481062Y30213938D01*
X-2492118Y30230483D01*
X-2496000Y30250000D01*
X-2496000Y31050000D01*
X-2492118Y31069517D01*
X-2481062Y31086062D01*
X-2464517Y31097118D01*
X-2445000Y31101000D01*
X-2195000Y31101000D01*
X-2175483Y31097118D01*
G37*
G36*
X-1675483Y31097118D02*
G01*
X-1658938Y31086062D01*
X-1647882Y31069517D01*
X-1644000Y31050000D01*
X-1644000Y30250000D01*
X-1647882Y30230483D01*
X-1658938Y30213938D01*
X-1675483Y30202882D01*
X-1695000Y30199000D01*
X-1945000Y30199000D01*
X-1964517Y30202882D01*
X-1981062Y30213938D01*
X-1992118Y30230483D01*
X-1996000Y30250000D01*
X-1996000Y31050000D01*
X-1992118Y31069517D01*
X-1981062Y31086062D01*
X-1964517Y31097118D01*
X-1945000Y31101000D01*
X-1695000Y31101000D01*
X-1675483Y31097118D01*
G37*
G36*
X-1175483Y31097118D02*
G01*
X-1158938Y31086062D01*
X-1147882Y31069517D01*
X-1144000Y31050000D01*
X-1144000Y30250000D01*
X-1147882Y30230483D01*
X-1158938Y30213938D01*
X-1175483Y30202882D01*
X-1195000Y30199000D01*
X-1445000Y30199000D01*
X-1464517Y30202882D01*
X-1481062Y30213938D01*
X-1492118Y30230483D01*
X-1496000Y30250000D01*
X-1496000Y31050000D01*
X-1492118Y31069517D01*
X-1481062Y31086062D01*
X-1464517Y31097118D01*
X-1445000Y31101000D01*
X-1195000Y31101000D01*
X-1175483Y31097118D01*
G37*
G36*
X-675483Y31097118D02*
G01*
X-658938Y31086062D01*
X-647882Y31069517D01*
X-644000Y31050000D01*
X-644000Y30250000D01*
X-647882Y30230483D01*
X-658938Y30213938D01*
X-675483Y30202882D01*
X-695000Y30199000D01*
X-945000Y30199000D01*
X-964517Y30202882D01*
X-981062Y30213938D01*
X-992118Y30230483D01*
X-996000Y30250000D01*
X-996000Y31050000D01*
X-992118Y31069517D01*
X-981062Y31086062D01*
X-964517Y31097118D01*
X-945000Y31101000D01*
X-695000Y31101000D01*
X-675483Y31097118D01*
G37*
G36*
X-175483Y31097118D02*
G01*
X-158938Y31086062D01*
X-147882Y31069517D01*
X-144000Y31050000D01*
X-144000Y30250000D01*
X-147882Y30230483D01*
X-158938Y30213938D01*
X-175483Y30202882D01*
X-195000Y30199000D01*
X-445000Y30199000D01*
X-464517Y30202882D01*
X-481062Y30213938D01*
X-492118Y30230483D01*
X-496000Y30250000D01*
X-496000Y31050000D01*
X-492118Y31069517D01*
X-481062Y31086062D01*
X-464517Y31097118D01*
X-445000Y31101000D01*
X-195000Y31101000D01*
X-175483Y31097118D01*
G37*
G36*
X324517Y31097118D02*
G01*
X341062Y31086062D01*
X352118Y31069517D01*
X356000Y31050000D01*
X356000Y30250000D01*
X352118Y30230483D01*
X341062Y30213938D01*
X324517Y30202882D01*
X305000Y30199000D01*
X55000Y30199000D01*
X35483Y30202882D01*
X18938Y30213938D01*
X7882Y30230483D01*
X4000Y30250000D01*
X4000Y31050000D01*
X7882Y31069517D01*
X18938Y31086062D01*
X35483Y31097118D01*
X55000Y31101000D01*
X305000Y31101000D01*
X324517Y31097118D01*
G37*
G36*
X824517Y31097118D02*
G01*
X841062Y31086062D01*
X852118Y31069517D01*
X856000Y31050000D01*
X856000Y30250000D01*
X852118Y30230483D01*
X841062Y30213938D01*
X824517Y30202882D01*
X805000Y30199000D01*
X555000Y30199000D01*
X535483Y30202882D01*
X518938Y30213938D01*
X507882Y30230483D01*
X504000Y30250000D01*
X504000Y31050000D01*
X507882Y31069517D01*
X518938Y31086062D01*
X535483Y31097118D01*
X555000Y31101000D01*
X805000Y31101000D01*
X824517Y31097118D01*
G37*
G36*
X1324517Y31097118D02*
G01*
X1341062Y31086062D01*
X1352118Y31069517D01*
X1356000Y31050000D01*
X1356000Y30250000D01*
X1352118Y30230483D01*
X1341062Y30213938D01*
X1324517Y30202882D01*
X1305000Y30199000D01*
X1055000Y30199000D01*
X1035483Y30202882D01*
X1018938Y30213938D01*
X1007882Y30230483D01*
X1004000Y30250000D01*
X1004000Y31050000D01*
X1007882Y31069517D01*
X1018938Y31086062D01*
X1035483Y31097118D01*
X1055000Y31101000D01*
X1305000Y31101000D01*
X1324517Y31097118D01*
G37*
G36*
X1824517Y31097118D02*
G01*
X1841062Y31086062D01*
X1852118Y31069517D01*
X1856000Y31050000D01*
X1856000Y30250000D01*
X1852118Y30230483D01*
X1841062Y30213938D01*
X1824517Y30202882D01*
X1805000Y30199000D01*
X1555000Y30199000D01*
X1535483Y30202882D01*
X1518938Y30213938D01*
X1507882Y30230483D01*
X1504000Y30250000D01*
X1504000Y31050000D01*
X1507882Y31069517D01*
X1518938Y31086062D01*
X1535483Y31097118D01*
X1555000Y31101000D01*
X1805000Y31101000D01*
X1824517Y31097118D01*
G37*
G36*
X-3425483Y32697118D02*
G01*
X-3408938Y32686062D01*
X-3397882Y32669517D01*
X-3394000Y32650000D01*
X-3394000Y31850000D01*
X-3397882Y31830483D01*
X-3408938Y31813938D01*
X-3425483Y31802882D01*
X-3445000Y31799000D01*
X-3695000Y31799000D01*
X-3714517Y31802882D01*
X-3731062Y31813938D01*
X-3742118Y31830483D01*
X-3746000Y31850000D01*
X-3746000Y32650000D01*
X-3742118Y32669517D01*
X-3731062Y32686062D01*
X-3714517Y32697118D01*
X-3695000Y32701000D01*
X-3445000Y32701000D01*
X-3425483Y32697118D01*
G37*
G36*
X-2925483Y32697118D02*
G01*
X-2908938Y32686062D01*
X-2897882Y32669517D01*
X-2894000Y32650000D01*
X-2894000Y31850000D01*
X-2897882Y31830483D01*
X-2908938Y31813938D01*
X-2925483Y31802882D01*
X-2945000Y31799000D01*
X-3195000Y31799000D01*
X-3214517Y31802882D01*
X-3231062Y31813938D01*
X-3242118Y31830483D01*
X-3246000Y31850000D01*
X-3246000Y32650000D01*
X-3242118Y32669517D01*
X-3231062Y32686062D01*
X-3214517Y32697118D01*
X-3195000Y32701000D01*
X-2945000Y32701000D01*
X-2925483Y32697118D01*
G37*
G36*
X-2425483Y32697118D02*
G01*
X-2408938Y32686062D01*
X-2397882Y32669517D01*
X-2394000Y32650000D01*
X-2394000Y31850000D01*
X-2397882Y31830483D01*
X-2408938Y31813938D01*
X-2425483Y31802882D01*
X-2445000Y31799000D01*
X-2695000Y31799000D01*
X-2714517Y31802882D01*
X-2731062Y31813938D01*
X-2742118Y31830483D01*
X-2746000Y31850000D01*
X-2746000Y32650000D01*
X-2742118Y32669517D01*
X-2731062Y32686062D01*
X-2714517Y32697118D01*
X-2695000Y32701000D01*
X-2445000Y32701000D01*
X-2425483Y32697118D01*
G37*
G36*
X-1925483Y32697118D02*
G01*
X-1908938Y32686062D01*
X-1897882Y32669517D01*
X-1894000Y32650000D01*
X-1894000Y31850000D01*
X-1897882Y31830483D01*
X-1908938Y31813938D01*
X-1925483Y31802882D01*
X-1945000Y31799000D01*
X-2195000Y31799000D01*
X-2214517Y31802882D01*
X-2231062Y31813938D01*
X-2242118Y31830483D01*
X-2246000Y31850000D01*
X-2246000Y32650000D01*
X-2242118Y32669517D01*
X-2231062Y32686062D01*
X-2214517Y32697118D01*
X-2195000Y32701000D01*
X-1945000Y32701000D01*
X-1925483Y32697118D01*
G37*
G36*
X-1425483Y32697118D02*
G01*
X-1408938Y32686062D01*
X-1397882Y32669517D01*
X-1394000Y32650000D01*
X-1394000Y31850000D01*
X-1397882Y31830483D01*
X-1408938Y31813938D01*
X-1425483Y31802882D01*
X-1445000Y31799000D01*
X-1695000Y31799000D01*
X-1714517Y31802882D01*
X-1731062Y31813938D01*
X-1742118Y31830483D01*
X-1746000Y31850000D01*
X-1746000Y32650000D01*
X-1742118Y32669517D01*
X-1731062Y32686062D01*
X-1714517Y32697118D01*
X-1695000Y32701000D01*
X-1445000Y32701000D01*
X-1425483Y32697118D01*
G37*
G36*
X-925483Y32697118D02*
G01*
X-908938Y32686062D01*
X-897882Y32669517D01*
X-894000Y32650000D01*
X-894000Y31850000D01*
X-897882Y31830483D01*
X-908938Y31813938D01*
X-925483Y31802882D01*
X-945000Y31799000D01*
X-1195000Y31799000D01*
X-1214517Y31802882D01*
X-1231062Y31813938D01*
X-1242118Y31830483D01*
X-1246000Y31850000D01*
X-1246000Y32650000D01*
X-1242118Y32669517D01*
X-1231062Y32686062D01*
X-1214517Y32697118D01*
X-1195000Y32701000D01*
X-945000Y32701000D01*
X-925483Y32697118D01*
G37*
G36*
X-425483Y32697118D02*
G01*
X-408938Y32686062D01*
X-397882Y32669517D01*
X-394000Y32650000D01*
X-394000Y31850000D01*
X-397882Y31830483D01*
X-408938Y31813938D01*
X-425483Y31802882D01*
X-445000Y31799000D01*
X-695000Y31799000D01*
X-714517Y31802882D01*
X-731062Y31813938D01*
X-742118Y31830483D01*
X-746000Y31850000D01*
X-746000Y32650000D01*
X-742118Y32669517D01*
X-731062Y32686062D01*
X-714517Y32697118D01*
X-695000Y32701000D01*
X-445000Y32701000D01*
X-425483Y32697118D01*
G37*
G36*
X74517Y32697118D02*
G01*
X91062Y32686062D01*
X102118Y32669517D01*
X106000Y32650000D01*
X106000Y31850000D01*
X102118Y31830483D01*
X91062Y31813938D01*
X74517Y31802882D01*
X55000Y31799000D01*
X-195000Y31799000D01*
X-214517Y31802882D01*
X-231062Y31813938D01*
X-242118Y31830483D01*
X-246000Y31850000D01*
X-246000Y32650000D01*
X-242118Y32669517D01*
X-231062Y32686062D01*
X-214517Y32697118D01*
X-195000Y32701000D01*
X55000Y32701000D01*
X74517Y32697118D01*
G37*
G36*
X574517Y32697118D02*
G01*
X591062Y32686062D01*
X602118Y32669517D01*
X606000Y32650000D01*
X606000Y31850000D01*
X602118Y31830483D01*
X591062Y31813938D01*
X574517Y31802882D01*
X555000Y31799000D01*
X305000Y31799000D01*
X285483Y31802882D01*
X268938Y31813938D01*
X257882Y31830483D01*
X254000Y31850000D01*
X254000Y32650000D01*
X257882Y32669517D01*
X268938Y32686062D01*
X285483Y32697118D01*
X305000Y32701000D01*
X555000Y32701000D01*
X574517Y32697118D01*
G37*
G36*
X1074517Y32697118D02*
G01*
X1091062Y32686062D01*
X1102118Y32669517D01*
X1106000Y32650000D01*
X1106000Y31850000D01*
X1102118Y31830483D01*
X1091062Y31813938D01*
X1074517Y31802882D01*
X1055000Y31799000D01*
X805000Y31799000D01*
X785483Y31802882D01*
X768938Y31813938D01*
X757882Y31830483D01*
X754000Y31850000D01*
X754000Y32650000D01*
X757882Y32669517D01*
X768938Y32686062D01*
X785483Y32697118D01*
X805000Y32701000D01*
X1055000Y32701000D01*
X1074517Y32697118D01*
G37*
G36*
X1574517Y32697118D02*
G01*
X1591062Y32686062D01*
X1602118Y32669517D01*
X1606000Y32650000D01*
X1606000Y31850000D01*
X1602118Y31830483D01*
X1591062Y31813938D01*
X1574517Y31802882D01*
X1555000Y31799000D01*
X1305000Y31799000D01*
X1285483Y31802882D01*
X1268938Y31813938D01*
X1257882Y31830483D01*
X1254000Y31850000D01*
X1254000Y32650000D01*
X1257882Y32669517D01*
X1268938Y32686062D01*
X1285483Y32697118D01*
X1305000Y32701000D01*
X1555000Y32701000D01*
X1574517Y32697118D01*
G37*
G36*
X2074517Y32697118D02*
G01*
X2091062Y32686062D01*
X2102118Y32669517D01*
X2106000Y32650000D01*
X2106000Y31850000D01*
X2102118Y31830483D01*
X2091062Y31813938D01*
X2074517Y31802882D01*
X2055000Y31799000D01*
X1805000Y31799000D01*
X1785483Y31802882D01*
X1768938Y31813938D01*
X1757882Y31830483D01*
X1754000Y31850000D01*
X1754000Y32650000D01*
X1757882Y32669517D01*
X1768938Y32686062D01*
X1785483Y32697118D01*
X1805000Y32701000D01*
X2055000Y32701000D01*
X2074517Y32697118D01*
G37*
M02*
