%TF.GenerationSoftware,KiCad,Pcbnew,9.0.2*%
%TF.CreationDate,2026-02-14T14:17:21-05:00*%
%TF.ProjectId,RP2040_minimal_r2,52503230-3430-45f6-9d69-6e696d616c5f,REV2*%
%TF.SameCoordinates,Original*%
%TF.FileFunction,Copper,L1,Top*%
%TF.FilePolarity,Positive*%
%FSLAX46Y46*%
G04 Gerber Fmt 4.6, Leading zero omitted, Abs format (unit mm)*
G04 Created by KiCad (PCBNEW 9.0.2) date 2026-02-14 14:17:21*
%MOMM*%
%LPD*%
G01*
G04 APERTURE LIST*
G04 Aperture macros list*
%AMRoundRect*
0 Rectangle with rounded corners*
0 $1 Rounding radius*
0 $2 $3 $4 $5 $6 $7 $8 $9 X,Y pos of 4 corners*
0 Add a 4 corners polygon primitive as box body*
4,1,4,$2,$3,$4,$5,$6,$7,$8,$9,$2,$3,0*
0 Add four circle primitives for the rounded corners*
1,1,$1+$1,$2,$3*
1,1,$1+$1,$4,$5*
1,1,$1+$1,$6,$7*
1,1,$1+$1,$8,$9*
0 Add four rect primitives between the rounded corners*
20,1,$1+$1,$2,$3,$4,$5,0*
20,1,$1+$1,$4,$5,$6,$7,0*
20,1,$1+$1,$6,$7,$8,$9,0*
20,1,$1+$1,$8,$9,$2,$3,0*%
G04 Aperture macros list end*
%ADD10C,0.300000*%
%TA.AperFunction,NonConductor*%
%ADD11C,0.300000*%
%TD*%
%TA.AperFunction,NonConductor*%
%ADD12C,0.200000*%
%TD*%
%TA.AperFunction,ComponentPad*%
%ADD13O,1.000000X2.000000*%
%TD*%
%TA.AperFunction,SMDPad,CuDef*%
%ADD14R,0.250000X0.800000*%
%TD*%
%TA.AperFunction,SMDPad,CuDef*%
%ADD15RoundRect,0.135000X-0.185000X0.135000X-0.185000X-0.135000X0.185000X-0.135000X0.185000X0.135000X0*%
%TD*%
%TA.AperFunction,SMDPad,CuDef*%
%ADD16RoundRect,0.100000X0.100000X-0.130000X0.100000X0.130000X-0.100000X0.130000X-0.100000X-0.130000X0*%
%TD*%
%TA.AperFunction,HeatsinkPad*%
%ADD17R,0.200000X1.600000*%
%TD*%
%TA.AperFunction,SMDPad,CuDef*%
%ADD18RoundRect,0.062500X-0.387500X-0.062500X0.387500X-0.062500X0.387500X0.062500X-0.387500X0.062500X0*%
%TD*%
%TA.AperFunction,ComponentPad*%
%ADD19C,0.600000*%
%TD*%
%TA.AperFunction,SMDPad,CuDef*%
%ADD20RoundRect,0.144000X-1.456000X-1.456000X1.456000X-1.456000X1.456000X1.456000X-1.456000X1.456000X0*%
%TD*%
%TA.AperFunction,SMDPad,CuDef*%
%ADD21RoundRect,0.050000X-0.050000X-0.387500X0.050000X-0.387500X0.050000X0.387500X-0.050000X0.387500X0*%
%TD*%
%TA.AperFunction,SMDPad,CuDef*%
%ADD22RoundRect,0.050000X-0.387500X-0.050000X0.387500X-0.050000X0.387500X0.050000X-0.387500X0.050000X0*%
%TD*%
%TA.AperFunction,SMDPad,CuDef*%
%ADD23RoundRect,0.140000X0.170000X-0.140000X0.170000X0.140000X-0.170000X0.140000X-0.170000X-0.140000X0*%
%TD*%
%TA.AperFunction,SMDPad,CuDef*%
%ADD24RoundRect,0.140000X0.140000X0.170000X-0.140000X0.170000X-0.140000X-0.170000X0.140000X-0.170000X0*%
%TD*%
%TA.AperFunction,SMDPad,CuDef*%
%ADD25RoundRect,0.135000X-0.135000X-0.185000X0.135000X-0.185000X0.135000X0.185000X-0.135000X0.185000X0*%
%TD*%
%TA.AperFunction,SMDPad,CuDef*%
%ADD26RoundRect,0.140000X-0.170000X0.140000X-0.170000X-0.140000X0.170000X-0.140000X0.170000X0.140000X0*%
%TD*%
%TA.AperFunction,SMDPad,CuDef*%
%ADD27RoundRect,0.140000X-0.140000X-0.170000X0.140000X-0.170000X0.140000X0.170000X-0.140000X0.170000X0*%
%TD*%
%TA.AperFunction,SMDPad,CuDef*%
%ADD28R,1.400000X1.200000*%
%TD*%
%TA.AperFunction,ViaPad*%
%ADD29C,0.600000*%
%TD*%
%TA.AperFunction,ViaPad*%
%ADD30C,0.800000*%
%TD*%
%TA.AperFunction,ViaPad*%
%ADD31C,0.500000*%
%TD*%
%TA.AperFunction,ViaPad*%
%ADD32C,0.450000*%
%TD*%
%TA.AperFunction,Conductor*%
%ADD33C,0.150000*%
%TD*%
%TA.AperFunction,Conductor*%
%ADD34C,0.200000*%
%TD*%
%TA.AperFunction,Conductor*%
%ADD35C,0.250000*%
%TD*%
G04 APERTURE END LIST*
D10*
D11*
X24751185Y13125414D02*
X24679757Y13196842D01*
X24679757Y13196842D02*
X24608328Y13339699D01*
X24608328Y13339699D02*
X24608328Y13696842D01*
X24608328Y13696842D02*
X24679757Y13839699D01*
X24679757Y13839699D02*
X24751185Y13911128D01*
X24751185Y13911128D02*
X24894042Y13982557D01*
X24894042Y13982557D02*
X25036900Y13982557D01*
X25036900Y13982557D02*
X25251185Y13911128D01*
X25251185Y13911128D02*
X26108328Y13053985D01*
X26108328Y13053985D02*
X26108328Y13982557D01*
X24608328Y15339699D02*
X24608328Y14625413D01*
X24608328Y14625413D02*
X25322614Y14553985D01*
X25322614Y14553985D02*
X25251185Y14625413D01*
X25251185Y14625413D02*
X25179757Y14768270D01*
X25179757Y14768270D02*
X25179757Y15125413D01*
X25179757Y15125413D02*
X25251185Y15268270D01*
X25251185Y15268270D02*
X25322614Y15339699D01*
X25322614Y15339699D02*
X25465471Y15411128D01*
X25465471Y15411128D02*
X25822614Y15411128D01*
X25822614Y15411128D02*
X25965471Y15339699D01*
X25965471Y15339699D02*
X26036900Y15268270D01*
X26036900Y15268270D02*
X26108328Y15125413D01*
X26108328Y15125413D02*
X26108328Y14768270D01*
X26108328Y14768270D02*
X26036900Y14625413D01*
X26036900Y14625413D02*
X25965471Y14553985D01*
X25965471Y16053984D02*
X26036900Y16125413D01*
X26036900Y16125413D02*
X26108328Y16053984D01*
X26108328Y16053984D02*
X26036900Y15982556D01*
X26036900Y15982556D02*
X25965471Y16053984D01*
X25965471Y16053984D02*
X26108328Y16053984D01*
X24608328Y17411127D02*
X24608328Y17125413D01*
X24608328Y17125413D02*
X24679757Y16982556D01*
X24679757Y16982556D02*
X24751185Y16911127D01*
X24751185Y16911127D02*
X24965471Y16768270D01*
X24965471Y16768270D02*
X25251185Y16696842D01*
X25251185Y16696842D02*
X25822614Y16696842D01*
X25822614Y16696842D02*
X25965471Y16768270D01*
X25965471Y16768270D02*
X26036900Y16839699D01*
X26036900Y16839699D02*
X26108328Y16982556D01*
X26108328Y16982556D02*
X26108328Y17268270D01*
X26108328Y17268270D02*
X26036900Y17411127D01*
X26036900Y17411127D02*
X25965471Y17482556D01*
X25965471Y17482556D02*
X25822614Y17553985D01*
X25822614Y17553985D02*
X25465471Y17553985D01*
X25465471Y17553985D02*
X25322614Y17482556D01*
X25322614Y17482556D02*
X25251185Y17411127D01*
X25251185Y17411127D02*
X25179757Y17268270D01*
X25179757Y17268270D02*
X25179757Y16982556D01*
X25179757Y16982556D02*
X25251185Y16839699D01*
X25251185Y16839699D02*
X25322614Y16768270D01*
X25322614Y16768270D02*
X25465471Y16696842D01*
X26108328Y18982556D02*
X26108328Y18125413D01*
X26108328Y18553984D02*
X24608328Y18553984D01*
X24608328Y18553984D02*
X24822614Y18411127D01*
X24822614Y18411127D02*
X24965471Y18268270D01*
X24965471Y18268270D02*
X25036900Y18125413D01*
X24751185Y19553984D02*
X24679757Y19625412D01*
X24679757Y19625412D02*
X24608328Y19768269D01*
X24608328Y19768269D02*
X24608328Y20125412D01*
X24608328Y20125412D02*
X24679757Y20268269D01*
X24679757Y20268269D02*
X24751185Y20339698D01*
X24751185Y20339698D02*
X24894042Y20411127D01*
X24894042Y20411127D02*
X25036900Y20411127D01*
X25036900Y20411127D02*
X25251185Y20339698D01*
X25251185Y20339698D02*
X26108328Y19482555D01*
X26108328Y19482555D02*
X26108328Y20411127D01*
X24608328Y21339698D02*
X24608328Y21482555D01*
X24608328Y21482555D02*
X24679757Y21625412D01*
X24679757Y21625412D02*
X24751185Y21696840D01*
X24751185Y21696840D02*
X24894042Y21768269D01*
X24894042Y21768269D02*
X25179757Y21839698D01*
X25179757Y21839698D02*
X25536900Y21839698D01*
X25536900Y21839698D02*
X25822614Y21768269D01*
X25822614Y21768269D02*
X25965471Y21696840D01*
X25965471Y21696840D02*
X26036900Y21625412D01*
X26036900Y21625412D02*
X26108328Y21482555D01*
X26108328Y21482555D02*
X26108328Y21339698D01*
X26108328Y21339698D02*
X26036900Y21196840D01*
X26036900Y21196840D02*
X25965471Y21125412D01*
X25965471Y21125412D02*
X25822614Y21053983D01*
X25822614Y21053983D02*
X25536900Y20982555D01*
X25536900Y20982555D02*
X25179757Y20982555D01*
X25179757Y20982555D02*
X24894042Y21053983D01*
X24894042Y21053983D02*
X24751185Y21125412D01*
X24751185Y21125412D02*
X24679757Y21196840D01*
X24679757Y21196840D02*
X24608328Y21339698D01*
X26108328Y23625411D02*
X25108328Y23625411D01*
X25251185Y23625411D02*
X25179757Y23696840D01*
X25179757Y23696840D02*
X25108328Y23839697D01*
X25108328Y23839697D02*
X25108328Y24053983D01*
X25108328Y24053983D02*
X25179757Y24196840D01*
X25179757Y24196840D02*
X25322614Y24268268D01*
X25322614Y24268268D02*
X26108328Y24268268D01*
X25322614Y24268268D02*
X25179757Y24339697D01*
X25179757Y24339697D02*
X25108328Y24482554D01*
X25108328Y24482554D02*
X25108328Y24696840D01*
X25108328Y24696840D02*
X25179757Y24839697D01*
X25179757Y24839697D02*
X25322614Y24911126D01*
X25322614Y24911126D02*
X26108328Y24911126D01*
X26108328Y25625411D02*
X25108328Y25625411D01*
X25251185Y25625411D02*
X25179757Y25696840D01*
X25179757Y25696840D02*
X25108328Y25839697D01*
X25108328Y25839697D02*
X25108328Y26053983D01*
X25108328Y26053983D02*
X25179757Y26196840D01*
X25179757Y26196840D02*
X25322614Y26268268D01*
X25322614Y26268268D02*
X26108328Y26268268D01*
X25322614Y26268268D02*
X25179757Y26339697D01*
X25179757Y26339697D02*
X25108328Y26482554D01*
X25108328Y26482554D02*
X25108328Y26696840D01*
X25108328Y26696840D02*
X25179757Y26839697D01*
X25179757Y26839697D02*
X25322614Y26911126D01*
X25322614Y26911126D02*
X26108328Y26911126D01*
D12*
X5580000Y32860000D02*
X27816420Y32860000D01*
X27816420Y7247966D02*
X5520000Y7247966D01*
X27230000Y32860000D02*
X27230000Y7247966D01*
X27230000Y32860000D02*
X27816421Y31733496D01*
X27230000Y32860000D02*
X26643579Y31733496D01*
X27230000Y7247966D02*
X26643579Y8374470D01*
X27230000Y7247966D02*
X27816421Y8374470D01*
D13*
%TO.P,1,25,GND*%
%TO.N,GND*%
X-4650000Y30650000D03*
X2760000Y30650000D03*
D14*
%TO.P,1,24,GND*%
X-3570000Y32250000D03*
%TO.P,1,23,SSRXP1*%
%TO.N,unconnected-(1-SSRXP1-Pad23)*%
X-3070000Y32250000D03*
%TO.P,1,22,SSRXN1*%
%TO.N,unconnected-(1-SSRXN1-Pad22)*%
X-2570000Y32250000D03*
%TO.P,1,21,VBUS*%
%TO.N,VBUS*%
X-2070000Y32250000D03*
%TO.P,1,20,SBU2*%
%TO.N,unconnected-(1-SBU2-Pad20)*%
X-1570000Y32250000D03*
%TO.P,1,19,DN2*%
%TO.N,/USB_D-*%
X-1070000Y32250000D03*
%TO.P,1,18,DP2*%
%TO.N,/USB_D+*%
X-570000Y32250000D03*
%TO.P,1,17,CC2*%
%TO.N,Net-(1-CC2)*%
X-70000Y32250000D03*
%TO.P,1,16,VBUS*%
%TO.N,unconnected-(1-VBUS-Pad16)*%
X430000Y32250000D03*
%TO.P,1,15,SSTXN2*%
%TO.N,unconnected-(1-SSTXN2-Pad15)*%
X930000Y32250000D03*
%TO.P,1,14,SSTXP2*%
%TO.N,unconnected-(1-SSTXP2-Pad14)*%
X1430000Y32250000D03*
%TO.P,1,13,GND*%
%TO.N,GND*%
X1930000Y32250000D03*
%TO.P,1,12,GND*%
X1680000Y30650000D03*
%TO.P,1,11,SSRXP2*%
%TO.N,unconnected-(1-SSRXP2-Pad11)*%
X1180000Y30650000D03*
%TO.P,1,10,SSRXN2*%
%TO.N,unconnected-(1-SSRXN2-Pad10)*%
X680000Y30650000D03*
%TO.P,1,9,VBUS*%
%TO.N,VBUS*%
X180000Y30650000D03*
%TO.P,1,8,SBU1*%
%TO.N,unconnected-(1-SBU1-Pad8)*%
X-320000Y30650000D03*
%TO.P,1,7,DN1*%
%TO.N,/USB_D-*%
X-820000Y30650000D03*
%TO.P,1,6,DP1*%
%TO.N,/USB_D+*%
X-1320000Y30650000D03*
%TO.P,1,5,CC1*%
%TO.N,Net-(1-CC1)*%
X-1820000Y30650000D03*
%TO.P,1,4,VBUS*%
%TO.N,VBUS*%
X-2320000Y30650000D03*
%TO.P,1,3,SSTXN1*%
%TO.N,unconnected-(1-SSTXN1-Pad3)*%
X-2820000Y30650000D03*
%TO.P,1,2,SSTXP1*%
%TO.N,unconnected-(1-SSTXP1-Pad2)*%
X-3320000Y30650000D03*
%TO.P,1,1,GND*%
%TO.N,GND*%
X-3820000Y30650000D03*
%TD*%
D15*
%TO.P,R6,2*%
%TO.N,GND*%
X-5360000Y26920000D03*
%TO.P,R6,1*%
%TO.N,Net-(1-CC2)*%
X-5360000Y27940000D03*
%TD*%
D16*
%TO.P,D1,2,A*%
%TO.N,Net-(D1-A)*%
X3040000Y12017966D03*
%TO.P,D1,1,K*%
%TO.N,GND*%
X3040000Y11377966D03*
%TD*%
D17*
%TO.P,U2,9*%
%TO.N,N/C*%
X1410000Y26650000D03*
D18*
%TO.P,U2,8,VCC*%
%TO.N,+3V3*%
X2835000Y27400000D03*
%TO.P,U2,7,IO3*%
%TO.N,/QSPI_SD3*%
X2835000Y26900000D03*
%TO.P,U2,6,CLK*%
%TO.N,/QSPI_SCLK*%
X2835000Y26400000D03*
%TO.P,U2,5,DI(IO0)*%
%TO.N,/QSPI_SD0*%
X2835000Y25900000D03*
%TO.P,U2,4,GND*%
%TO.N,GND*%
X-15000Y25900000D03*
%TO.P,U2,3,IO2*%
%TO.N,/QSPI_SD2*%
X-15000Y26400000D03*
%TO.P,U2,2,DO(IO1)*%
%TO.N,/QSPI_SD1*%
X-15000Y26900000D03*
%TO.P,U2,1,~{CS}*%
%TO.N,/QSPI_SS*%
X-15000Y27400000D03*
%TD*%
D19*
%TO.P,U3,57,GND*%
%TO.N,GND*%
X-295000Y15100128D03*
X-295000Y16375128D03*
X-295000Y17650128D03*
X-1570000Y15100128D03*
D20*
X-1570000Y16375128D03*
D19*
X-1570000Y16375128D03*
X-1570000Y17650128D03*
X-2845000Y15100128D03*
X-2845000Y16375128D03*
X-2845000Y17650128D03*
D21*
%TO.P,U3,56,QSPI_SS*%
%TO.N,/QSPI_SS*%
X-4170000Y19812628D03*
%TO.P,U3,55,QSPI_SD1*%
%TO.N,/QSPI_SD1*%
X-3770000Y19812628D03*
%TO.P,U3,54,QSPI_SD2*%
%TO.N,/QSPI_SD2*%
X-3370000Y19812628D03*
%TO.P,U3,53,QSPI_SD0*%
%TO.N,/QSPI_SD0*%
X-2970000Y19812628D03*
%TO.P,U3,52,QSPI_SCLK*%
%TO.N,/QSPI_SCLK*%
X-2570000Y19812628D03*
%TO.P,U3,51,QSPI_SD3*%
%TO.N,/QSPI_SD3*%
X-2170000Y19812628D03*
%TO.P,U3,50,DVDD*%
%TO.N,+1V1*%
X-1770000Y19812628D03*
%TO.P,U3,49,IOVDD*%
%TO.N,+3V3*%
X-1370000Y19812628D03*
%TO.P,U3,48,USB_VDD*%
X-970000Y19812628D03*
%TO.P,U3,47,USB_DP*%
%TO.N,Net-(U3-USB_DP)*%
X-570000Y19812628D03*
%TO.P,U3,46,USB_DM*%
%TO.N,Net-(U3-USB_DM)*%
X-170000Y19812628D03*
%TO.P,U3,45,VREG_VOUT*%
%TO.N,+1V1*%
X230000Y19812628D03*
%TO.P,U3,44,VREG_IN*%
%TO.N,+3V3*%
X630000Y19812628D03*
%TO.P,U3,43,ADC_AVDD*%
X1030000Y19812628D03*
D22*
%TO.P,U3,42,IOVDD*%
X1867500Y18975128D03*
%TO.P,U3,41,GPIO29_ADC3*%
%TO.N,/GPIO29_ADC3*%
X1867500Y18575128D03*
%TO.P,U3,40,GPIO28_ADC2*%
%TO.N,/GPIO28_ADC2*%
X1867500Y18175128D03*
%TO.P,U3,39,GPIO27_ADC1*%
%TO.N,/GPIO27_ADC1*%
X1867500Y17775128D03*
%TO.P,U3,38,GPIO26_ADC0*%
%TO.N,/GPIO26_ADC0*%
X1867500Y17375128D03*
%TO.P,U3,37,GPIO25*%
%TO.N,/GPIO25*%
X1867500Y16975128D03*
%TO.P,U3,36,GPIO24*%
%TO.N,/GPIO24*%
X1867500Y16575128D03*
%TO.P,U3,35,GPIO23*%
%TO.N,/GPIO23*%
X1867500Y16175128D03*
%TO.P,U3,34,GPIO22*%
%TO.N,/GPIO22*%
X1867500Y15775128D03*
%TO.P,U3,33,IOVDD*%
%TO.N,+3V3*%
X1867500Y15375128D03*
%TO.P,U3,32,GPIO21*%
%TO.N,/GPIO21*%
X1867500Y14975128D03*
%TO.P,U3,31,GPIO20*%
%TO.N,/GPIO20*%
X1867500Y14575128D03*
%TO.P,U3,30,GPIO19*%
%TO.N,/GPIO19*%
X1867500Y14175128D03*
%TO.P,U3,29,GPIO18*%
%TO.N,/GPIO18*%
X1867500Y13775128D03*
D21*
%TO.P,U3,28,GPIO17*%
%TO.N,/GPIO17*%
X1030000Y12937628D03*
%TO.P,U3,27,GPIO16*%
%TO.N,/GPIO16*%
X630000Y12937628D03*
%TO.P,U3,26,RUN*%
%TO.N,/RUN*%
X230000Y12937628D03*
%TO.P,U3,25,SWD*%
%TO.N,/SWD*%
X-170000Y12937628D03*
%TO.P,U3,24,SWCLK*%
%TO.N,/SWCLK*%
X-570000Y12937628D03*
%TO.P,U3,23,DVDD*%
%TO.N,+1V1*%
X-970000Y12937628D03*
%TO.P,U3,22,IOVDD*%
%TO.N,+3V3*%
X-1370000Y12937628D03*
%TO.P,U3,21,XOUT*%
%TO.N,/XOUT*%
X-1770000Y12937628D03*
%TO.P,U3,20,XIN*%
%TO.N,/XIN*%
X-2170000Y12937628D03*
%TO.P,U3,19,TESTEN*%
%TO.N,GND*%
X-2570000Y12937628D03*
%TO.P,U3,18,GPIO15*%
%TO.N,/GPIO15*%
X-2970000Y12937628D03*
%TO.P,U3,17,GPIO14*%
%TO.N,/GPIO14*%
X-3370000Y12937628D03*
%TO.P,U3,16,GPIO13*%
%TO.N,/GPIO13*%
X-3770000Y12937628D03*
%TO.P,U3,15,GPIO12*%
%TO.N,/GPIO12*%
X-4170000Y12937628D03*
D22*
%TO.P,U3,14,GPIO11*%
%TO.N,/GPIO11*%
X-5007500Y13775128D03*
%TO.P,U3,13,GPIO10*%
%TO.N,/GPIO10*%
X-5007500Y14175128D03*
%TO.P,U3,12,GPIO9*%
%TO.N,/GPIO9*%
X-5007500Y14575128D03*
%TO.P,U3,11,GPIO8*%
%TO.N,/GPIO8*%
X-5007500Y14975128D03*
%TO.P,U3,10,IOVDD*%
%TO.N,+3V3*%
X-5007500Y15375128D03*
%TO.P,U3,9,GPIO7*%
%TO.N,/GPIO7*%
X-5007500Y15775128D03*
%TO.P,U3,8,GPIO6*%
%TO.N,/GPIO6*%
X-5007500Y16175128D03*
%TO.P,U3,7,GPIO5*%
%TO.N,/GPIO5*%
X-5007500Y16575128D03*
%TO.P,U3,6,GPIO4*%
%TO.N,/GPIO4*%
X-5007500Y16975128D03*
%TO.P,U3,5,GPIO3*%
%TO.N,/GPIO3*%
X-5007500Y17375128D03*
%TO.P,U3,4,GPIO2*%
%TO.N,/GPIO2*%
X-5007500Y17775128D03*
%TO.P,U3,3,GPIO1*%
%TO.N,/GPIO1*%
X-5007500Y18175128D03*
%TO.P,U3,2,GPIO0*%
%TO.N,/GPIO0*%
X-5007500Y18575128D03*
%TO.P,U3,1,IOVDD*%
%TO.N,+3V3*%
X-5007500Y18975128D03*
%TD*%
D23*
%TO.P,C13,1*%
%TO.N,+3V3*%
X-6277500Y15415128D03*
%TO.P,C13,2*%
%TO.N,GND*%
X-6277500Y16375128D03*
%TD*%
D24*
%TO.P,C5,1*%
%TO.N,+3V3*%
X2850000Y28440000D03*
%TO.P,C5,2*%
%TO.N,GND*%
X1890000Y28440000D03*
%TD*%
D25*
%TO.P,R2,1*%
%TO.N,+3V3*%
X-2490000Y27340000D03*
%TO.P,R2,2*%
%TO.N,/QSPI_SS*%
X-1470000Y27340000D03*
%TD*%
D26*
%TO.P,C14,1*%
%TO.N,+3V3*%
X410000Y10587966D03*
%TO.P,C14,2*%
%TO.N,GND*%
X410000Y9627966D03*
%TD*%
%TO.P,C7,1*%
%TO.N,+1V1*%
X1776725Y10552129D03*
%TO.P,C7,2*%
%TO.N,GND*%
X1776725Y9592129D03*
%TD*%
%TO.P,C11,1*%
%TO.N,+3V3*%
X-6277500Y18965128D03*
%TO.P,C11,2*%
%TO.N,GND*%
X-6277500Y18005128D03*
%TD*%
%TO.P,C2,1*%
%TO.N,/XIN*%
X-1630000Y11037966D03*
%TO.P,C2,2*%
%TO.N,GND*%
X-1630000Y10077966D03*
%TD*%
D27*
%TO.P,C3,1*%
%TO.N,Net-(C3-Pad1)*%
X-1590000Y8147966D03*
%TO.P,C3,2*%
%TO.N,GND*%
X-630000Y8147966D03*
%TD*%
D28*
%TO.P,Y1,1,1*%
%TO.N,/XIN*%
X-3180000Y10967966D03*
%TO.P,Y1,2,2*%
%TO.N,GND*%
X-5380000Y10967966D03*
%TO.P,Y1,3,3*%
%TO.N,Net-(C3-Pad1)*%
X-5380000Y9267966D03*
%TO.P,Y1,4,4*%
%TO.N,GND*%
X-3180000Y9267966D03*
%TD*%
D15*
%TO.P,R5,1*%
%TO.N,/XOUT*%
X-600000Y10597966D03*
%TO.P,R5,2*%
%TO.N,Net-(C3-Pad1)*%
X-600000Y9577966D03*
%TD*%
D29*
%TO.N,GND*%
X-1150000Y25520000D03*
%TO.N,+3V3*%
X-1000138Y20945439D03*
%TO.N,/USB_D-*%
X-470000Y28790000D03*
%TO.N,Net-(1-CC1)*%
X530000Y28550000D03*
%TO.N,Net-(1-CC2)*%
X-5920000Y30450000D03*
%TO.N,GND*%
X-5770000Y12587966D03*
X-5360000Y7847966D03*
X2490000Y7957966D03*
D30*
X-6190000Y33610000D03*
X-5740000Y25920000D03*
X2660000Y9717966D03*
D29*
X4300000Y29030000D03*
X-6277500Y17185128D03*
X3050000Y10417966D03*
D30*
X3780000Y8707966D03*
D29*
X-3180000Y8297966D03*
X4370000Y27820000D03*
X410000Y8727966D03*
X-1620000Y9187966D03*
D30*
X4220000Y32290000D03*
D29*
%TO.N,VBUS*%
X-3151795Y29491386D03*
X1005000Y29455000D03*
%TO.N,+3V3*%
X3062500Y15295128D03*
X2630000Y21047966D03*
X-5260000Y24190000D03*
D31*
%TO.N,+1V1*%
X-1695000Y20860783D03*
D29*
X1922500Y11457129D03*
X717622Y20972628D03*
%TO.N,/GPIO18*%
X3040000Y14317966D03*
%TO.N,Net-(U3-USB_DP)*%
X-1575011Y23167192D03*
%TO.N,Net-(U3-USB_DM)*%
X-837583Y22926153D03*
%TO.N,/USB_D+*%
X-1995000Y29095000D03*
D32*
%TO.N,/USB_D-*%
X-1680000Y31470000D03*
%TO.N,Net-(1-CC2)*%
X325876Y31445876D03*
%TD*%
D33*
%TO.N,+1V1*%
X-1770000Y20735784D02*
X-1770000Y19812628D01*
X-1695000Y20860783D02*
X-1695000Y20810784D01*
X-1695000Y20810784D02*
X-1770000Y20735784D01*
D34*
%TO.N,Net-(U3-USB_DM)*%
X-837583Y22926153D02*
X-507985Y22596555D01*
X-96000Y20633340D02*
X-96000Y20454000D01*
X-507985Y22596555D02*
X-226555Y22596555D01*
X-226555Y22596555D02*
X90000Y22280000D01*
X-96000Y20454000D02*
X-170000Y20380000D01*
X90000Y22280000D02*
X90000Y20819340D01*
X90000Y20819340D02*
X-96000Y20633340D01*
X-170000Y20380000D02*
X-170000Y19812628D01*
%TO.N,Net-(U3-USB_DP)*%
X-521000Y20675389D02*
X-521000Y19861628D01*
X-1575011Y23167192D02*
X-1575011Y22590011D01*
X-1575011Y22590011D02*
X-420000Y21435000D01*
X-420000Y21435000D02*
X-420000Y20776389D01*
X-420000Y20776389D02*
X-521000Y20675389D01*
X-521000Y19861628D02*
X-570000Y19812628D01*
D33*
%TO.N,/QSPI_SD3*%
X-2170000Y19812628D02*
X-2170000Y23318644D01*
X-2170000Y23318644D02*
X-1096644Y24392000D01*
X2860000Y24480000D02*
X3812000Y25432000D01*
X-1096644Y24392000D02*
X-682767Y24392000D01*
X-594767Y24480000D02*
X2860000Y24480000D01*
X-682767Y24392000D02*
X-594767Y24480000D01*
X3284999Y26900000D02*
X2835000Y26900000D01*
X3812000Y25432000D02*
X3812000Y26372999D01*
X3812000Y26372999D02*
X3284999Y26900000D01*
%TO.N,/QSPI_SCLK*%
X2835000Y26400000D02*
X3284999Y26400000D01*
X-2570000Y23344322D02*
X-2570000Y19812628D01*
X3511000Y25716268D02*
X2654732Y24860000D01*
X-640445Y24860000D02*
X-807445Y24693000D01*
X-1221322Y24693000D02*
X-2570000Y23344322D01*
X3284999Y26400000D02*
X3511000Y26173999D01*
X3511000Y26173999D02*
X3511000Y25716268D01*
X2654732Y24860000D02*
X-640445Y24860000D01*
X-807445Y24693000D02*
X-1221322Y24693000D01*
%TO.N,/QSPI_SD0*%
X2835000Y25900000D02*
X2175000Y25240000D01*
X-1346000Y24994000D02*
X-2970000Y23370000D01*
X-686123Y25240000D02*
X-932123Y24994000D01*
X-932123Y24994000D02*
X-1346000Y24994000D01*
X2175000Y25240000D02*
X-686123Y25240000D01*
X-2970000Y23370000D02*
X-2970000Y19812628D01*
%TO.N,GND*%
X-1150000Y25520000D02*
X-770000Y25900000D01*
X-770000Y25900000D02*
X-15000Y25900000D01*
%TO.N,+1V1*%
X717622Y20972628D02*
X717622Y20947622D01*
X717622Y20947622D02*
X230000Y20460000D01*
X230000Y20460000D02*
X230000Y19812628D01*
D34*
%TO.N,Net-(U3-USB_DM)*%
X-170000Y19812628D02*
X-120000Y19862628D01*
%TO.N,+3V3*%
X-1120000Y20062628D02*
X-1120000Y20825577D01*
X-1120000Y20825577D02*
X-1000138Y20945439D01*
X-5260000Y24190000D02*
X-6277500Y23172500D01*
X-6277500Y23172500D02*
X-6277500Y18965128D01*
D33*
%TO.N,/QSPI_SS*%
X-1470000Y27340000D02*
X-1470000Y27320000D01*
X-1470000Y27320000D02*
X-4170000Y24620000D01*
X-4170000Y24620000D02*
X-4170000Y19812628D01*
%TO.N,/QSPI_SD1*%
X-15000Y26900000D02*
X-990000Y26900000D01*
X-990000Y26900000D02*
X-3770000Y24120000D01*
X-3770000Y24120000D02*
X-3770000Y19812628D01*
%TO.N,/QSPI_SD2*%
X-15000Y26400000D02*
X-1020000Y26400000D01*
X-1020000Y26400000D02*
X-3370000Y24050000D01*
X-3370000Y24050000D02*
X-3370000Y19812628D01*
D34*
%TO.N,+3V3*%
X2835000Y27400000D02*
X3490000Y27400000D01*
X3490000Y27400000D02*
X4340000Y26550000D01*
X4340000Y26550000D02*
X4340000Y22757966D01*
X4340000Y22757966D02*
X2630000Y21047966D01*
X-5260000Y24190000D02*
X-5260000Y25350000D01*
X-5260000Y25350000D02*
X-3270000Y27340000D01*
X-3270000Y27340000D02*
X-2490000Y27340000D01*
X-970000Y19812628D02*
X-970000Y19912628D01*
X-970000Y19912628D02*
X-1120000Y20062628D01*
X-1370000Y19812628D02*
X-1120000Y20062628D01*
D33*
%TO.N,GND*%
X-5360000Y26920000D02*
X-5360000Y26300000D01*
X-5360000Y26300000D02*
X-5740000Y25920000D01*
D34*
%TO.N,Net-(1-CC2)*%
X-5920000Y30450000D02*
X-5360000Y29890000D01*
X-5360000Y29890000D02*
X-5360000Y27940000D01*
X-70000Y31841752D02*
X325876Y31445876D01*
X-70000Y32250000D02*
X-70000Y31841752D01*
%TO.N,GND*%
X2760000Y31980000D02*
X2490000Y32250000D01*
D33*
X2300000Y8147966D02*
X2490000Y7957966D01*
D34*
X-6277500Y17185128D02*
X-6277500Y18005128D01*
X-6277500Y16375128D02*
X-6277500Y17185128D01*
D35*
X-1700000Y9267966D02*
X-3180000Y9267966D01*
D34*
X1946179Y9613111D02*
X2021179Y9538111D01*
D33*
X-3833000Y30715286D02*
X-3833000Y32065286D01*
X2660000Y9715766D02*
X2536363Y9592129D01*
X410000Y8727966D02*
X410000Y9627966D01*
D34*
X-3570000Y32250000D02*
X-3648286Y32250000D01*
X1680000Y29990000D02*
X1890000Y29780000D01*
D33*
X3040000Y10427966D02*
X3050000Y10417966D01*
X-5380000Y11877966D02*
X-5380000Y10967966D01*
D34*
X1930000Y30900000D02*
X1930000Y32250000D01*
X1890000Y29780000D02*
X2760000Y30650000D01*
X1680000Y30650000D02*
X1680000Y29990000D01*
D33*
X2536363Y9592129D02*
X1776725Y9592129D01*
D34*
X-3648286Y32250000D02*
X-3833000Y32065286D01*
D35*
X-3180000Y8297966D02*
X-3180000Y9267966D01*
X-1620000Y9187966D02*
X-1620000Y10067966D01*
D33*
X2660000Y9717966D02*
X2660000Y9715766D01*
X-2570000Y12297966D02*
X-2790000Y12077966D01*
D35*
X-1620000Y9187966D02*
X-1700000Y9267966D01*
D34*
X1890000Y28440000D02*
X1890000Y29780000D01*
D33*
X-630000Y8147966D02*
X2300000Y8147966D01*
D34*
X2490000Y32250000D02*
X1930000Y32250000D01*
X2760000Y30650000D02*
X2760000Y31980000D01*
D33*
X-4663000Y30715286D02*
X-3833000Y30715286D01*
X-2790000Y12077966D02*
X-5260000Y12077966D01*
X-5260000Y11997966D02*
X-5380000Y11877966D01*
D35*
X-1620000Y10067966D02*
X-1630000Y10077966D01*
D33*
X-5260000Y12077966D02*
X-5770000Y12587966D01*
X-2570000Y12937628D02*
X-2570000Y12297966D01*
X-5260000Y12077966D02*
X-5260000Y11997966D01*
X3040000Y11377966D02*
X3040000Y10427966D01*
D34*
X1680000Y30650000D02*
X1930000Y30900000D01*
%TO.N,VBUS*%
X-2320000Y30650000D02*
X-2320000Y30050000D01*
X-2320000Y31599000D02*
X-2070000Y31849000D01*
X795000Y29455000D02*
X167000Y30083000D01*
X-2878614Y29491386D02*
X-3151795Y29491386D01*
X-2320000Y30050000D02*
X-2878614Y29491386D01*
X167000Y30083000D02*
X167000Y30715286D01*
X-2320000Y30650000D02*
X-2320000Y31599000D01*
X1005000Y29455000D02*
X795000Y29455000D01*
X-2070000Y31849000D02*
X-2070000Y32250000D01*
D33*
%TO.N,/XIN*%
X-2170000Y11977966D02*
X-3180000Y10967966D01*
X-2170000Y11977966D02*
X-2170000Y11947966D01*
X-1630000Y11407966D02*
X-1630000Y11037966D01*
X-2170000Y11947966D02*
X-1630000Y11407966D01*
X-2170000Y12937628D02*
X-2170000Y11977966D01*
%TO.N,/XOUT*%
X-600000Y11126594D02*
X-600000Y10597966D01*
X-1770000Y12937628D02*
X-1770000Y12296594D01*
X-1770000Y12296594D02*
X-600000Y11126594D01*
D34*
%TO.N,+3V3*%
X670000Y10587966D02*
X410000Y10587966D01*
X2982500Y15375128D02*
X3062500Y15295128D01*
X2702500Y20404789D02*
X2702500Y19245128D01*
X-5007500Y15375128D02*
X-5707500Y15375128D01*
X-5707500Y15375128D02*
X-6237500Y15375128D01*
X410000Y10587966D02*
X399662Y10587966D01*
X2630000Y21047966D02*
X2630000Y20477289D01*
X-5707500Y18910128D02*
X-5652500Y18965128D01*
X-6277500Y18965128D02*
X-5652500Y18965128D01*
X630000Y20372628D02*
X680000Y20422628D01*
X1867500Y15375128D02*
X2982500Y15375128D01*
X1070000Y10187966D02*
X670000Y10587966D01*
X-1370000Y12357628D02*
X-1370000Y12937628D01*
X3840000Y9976527D02*
X2730602Y8867129D01*
X2835000Y28425000D02*
X2850000Y28440000D01*
X3840000Y14517628D02*
X3840000Y9976527D01*
X1030000Y19812628D02*
X1030000Y20422628D01*
X3062500Y15295128D02*
X3840000Y14517628D01*
X-5707500Y15375128D02*
X-5707500Y18910128D01*
X2363144Y20781110D02*
X1388482Y20781110D01*
X399662Y10587966D02*
X-1370000Y12357628D01*
X1030000Y20422628D02*
X680000Y20422628D01*
X2730602Y8867129D02*
X1332500Y8867129D01*
X-5642500Y18975128D02*
X-5652500Y18965128D01*
X1332500Y8867129D02*
X1070000Y9129629D01*
X2630000Y20477289D02*
X2702500Y20404789D01*
X-5007500Y18975128D02*
X-5642500Y18975128D01*
X2702500Y19245128D02*
X2432500Y18975128D01*
X-6237500Y15375128D02*
X-6277500Y15415128D01*
X2432500Y18975128D02*
X1867500Y18975128D01*
X2630000Y21047966D02*
X2363144Y20781110D01*
X630000Y19812628D02*
X630000Y20372628D01*
X2835000Y27400000D02*
X2835000Y28425000D01*
X1388482Y20781110D02*
X1030000Y20422628D01*
X1070000Y9129629D02*
X1070000Y10187966D01*
%TO.N,+1V1*%
X1922500Y11457129D02*
X26888Y11457129D01*
X1776725Y10552129D02*
X1776725Y11311354D01*
X-970000Y12454017D02*
X-970000Y12937628D01*
X26888Y11457129D02*
X-970000Y12454017D01*
D33*
%TO.N,/GPIO18*%
X3040000Y13942290D02*
X2872838Y13775128D01*
X2872838Y13775128D02*
X1867500Y13775128D01*
X3040000Y14317966D02*
X3040000Y13942290D01*
%TO.N,/QSPI_SS*%
X-1410000Y27400000D02*
X-1470000Y27340000D01*
X-15000Y27400000D02*
X-1410000Y27400000D01*
D34*
%TO.N,/USB_D+*%
X-1196000Y31204000D02*
X-1030000Y31370000D01*
X-1030000Y31370000D02*
X-730000Y31370000D01*
X-1995000Y29095000D02*
X-1333000Y29757000D01*
X-1320000Y30650000D02*
X-1196000Y30774000D01*
X-1333000Y29757000D02*
X-1333000Y30715286D01*
X-1196000Y30774000D02*
X-1196000Y31204000D01*
X-583000Y31517000D02*
X-583000Y32315286D01*
X-730000Y31370000D02*
X-583000Y31517000D01*
D33*
%TO.N,Net-(C3-Pad1)*%
X-2956123Y7777966D02*
X-2962123Y7771966D01*
X-600000Y9137966D02*
X-1590000Y8147966D01*
X-600000Y9577966D02*
X-600000Y9137966D01*
X-2962123Y7771966D02*
X-3397877Y7771966D01*
X-3403877Y7777966D02*
X-3890000Y7777966D01*
X-3890000Y7777966D02*
X-5380000Y9267966D01*
X-1960000Y7777966D02*
X-2956123Y7777966D01*
X-3397877Y7771966D02*
X-3403877Y7777966D01*
X-1590000Y8147966D02*
X-1960000Y7777966D01*
%TO.N,Net-(D1-A)*%
X3040000Y12877966D02*
X3030000Y12887966D01*
X3040000Y11947966D02*
X3040000Y12877966D01*
D34*
%TO.N,/USB_D-*%
X-1680000Y31470000D02*
X-1426389Y31470000D01*
X-1426389Y31470000D02*
X-1070000Y31826389D01*
X-1070000Y31826389D02*
X-1070000Y32250000D01*
%TO.N,Net-(1-CC1)*%
X-1918232Y28239000D02*
X-2546000Y28866768D01*
X-2546000Y28866768D02*
X-2546000Y29323232D01*
X-2223232Y29646000D02*
X-2174000Y29646000D01*
X530000Y28550000D02*
X219000Y28239000D01*
X219000Y28239000D02*
X-1918232Y28239000D01*
X-2546000Y29323232D02*
X-2223232Y29646000D01*
X-2174000Y29646000D02*
X-1833000Y29987000D01*
X-1833000Y29987000D02*
X-1833000Y30715286D01*
%TO.N,/USB_D-*%
X-833000Y30715286D02*
X-833000Y29153000D01*
X-833000Y29153000D02*
X-470000Y28790000D01*
%TD*%
%TA.AperFunction,Conductor*%
%TO.N,GND*%
G36*
X-6521709Y10077273D02*
G01*
X-6504136Y10074769D01*
X-6474420Y10055726D01*
X-6323420Y9925229D01*
X-6306756Y9899373D01*
X-6288318Y9874743D01*
X-6287999Y9870269D01*
X-6285569Y9866500D01*
X-6280500Y9831410D01*
X-6280500Y8648214D01*
X-6268869Y8589737D01*
X-6268868Y8589736D01*
X-6224553Y8523414D01*
X-6158231Y8479099D01*
X-6158230Y8479098D01*
X-6099753Y8467467D01*
X-6099750Y8467466D01*
X-6099748Y8467466D01*
X-5020477Y8467466D01*
X-4953438Y8447781D01*
X-4932796Y8431147D01*
X-4261797Y7760147D01*
X-4228312Y7698824D01*
X-4233296Y7629132D01*
X-4275168Y7573199D01*
X-4340632Y7548782D01*
X-4349478Y7548466D01*
X-6555500Y7548466D01*
X-6622539Y7568151D01*
X-6668294Y7620955D01*
X-6679500Y7672466D01*
X-6679500Y9961907D01*
X-6674500Y9978937D01*
X-6674523Y9996686D01*
X-6664860Y10011766D01*
X-6659815Y10028946D01*
X-6646403Y10040568D01*
X-6636825Y10055514D01*
X-6620543Y10062976D01*
X-6607011Y10074701D01*
X-6589445Y10077227D01*
X-6573307Y10084622D01*
X-6555578Y10082097D01*
X-6537853Y10084645D01*
X-6521709Y10077273D01*
G37*
%TD.AperFunction*%
%TA.AperFunction,Conductor*%
G36*
X4638834Y22529316D02*
G01*
X4694767Y22487444D01*
X4719184Y22421980D01*
X4719500Y22413134D01*
X4719500Y7672466D01*
X4699815Y7605427D01*
X4647011Y7559672D01*
X4595500Y7548466D01*
X215808Y7548466D01*
X148769Y7568151D01*
X103014Y7620955D01*
X93070Y7690113D01*
X99901Y7714267D01*
X99856Y7714280D01*
X101696Y7720614D01*
X102007Y7721713D01*
X102032Y7721773D01*
X147144Y7877048D01*
X147145Y7877054D01*
X148790Y7897966D01*
X-506000Y7897966D01*
X-573039Y7917651D01*
X-618794Y7970455D01*
X-630000Y8021966D01*
X-630000Y8273966D01*
X-610315Y8341005D01*
X-557511Y8386760D01*
X-506000Y8397966D01*
X148790Y8397966D01*
X147145Y8418877D01*
X102032Y8574160D01*
X50131Y8661918D01*
X32948Y8729642D01*
X55107Y8795905D01*
X109573Y8839668D01*
X157970Y8847300D01*
X160000Y8849176D01*
X160000Y9503966D01*
X179685Y9571005D01*
X232489Y9616760D01*
X284000Y9627966D01*
X410000Y9627966D01*
X410000Y9753966D01*
X412550Y9762652D01*
X411262Y9771613D01*
X422240Y9795654D01*
X429685Y9821005D01*
X436525Y9826933D01*
X440287Y9835169D01*
X462521Y9849459D01*
X482489Y9866760D01*
X493003Y9869048D01*
X499065Y9872943D01*
X534000Y9877966D01*
X645500Y9877966D01*
X712539Y9858281D01*
X758294Y9805477D01*
X769500Y9753966D01*
X769500Y9501966D01*
X749815Y9434927D01*
X697011Y9389172D01*
X664031Y9381998D01*
X660000Y9377966D01*
X660000Y8849177D01*
X680913Y8850822D01*
X798728Y8885049D01*
X868598Y8884850D01*
X921004Y8853654D01*
X1092040Y8682618D01*
X1147989Y8626669D01*
X1147991Y8626668D01*
X1147995Y8626665D01*
X1192120Y8601190D01*
X1216511Y8587108D01*
X1292938Y8566629D01*
X1292940Y8566629D01*
X2770162Y8566629D01*
X2770164Y8566629D01*
X2846591Y8587108D01*
X2915113Y8626669D01*
X2971062Y8682618D01*
X4080460Y9792016D01*
X4120022Y9860539D01*
X4140500Y9936965D01*
X4140500Y10016089D01*
X4140500Y14557190D01*
X4120021Y14633617D01*
X4104017Y14661337D01*
X4080464Y14702133D01*
X4080458Y14702141D01*
X3599319Y15183280D01*
X3565834Y15244603D01*
X3563000Y15270961D01*
X3563000Y15361018D01*
X3563000Y15361020D01*
X3528892Y15488314D01*
X3463000Y15602442D01*
X3369814Y15695628D01*
X3278901Y15748117D01*
X3255687Y15761520D01*
X3192039Y15778574D01*
X3128392Y15795628D01*
X2996608Y15795628D01*
X2869312Y15761520D01*
X2799571Y15721255D01*
X2755186Y15695628D01*
X2755184Y15695627D01*
X2749321Y15692241D01*
X2733831Y15688091D01*
X2722255Y15680651D01*
X2687320Y15675628D01*
X2629500Y15675628D01*
X2562461Y15695313D01*
X2516706Y15748117D01*
X2505500Y15799628D01*
X2505500Y15849805D01*
X2505499Y15849807D01*
X2490968Y15922861D01*
X2490966Y15922864D01*
X2490966Y15922868D01*
X2490963Y15922872D01*
X2488977Y15927667D01*
X2481504Y15997136D01*
X2488977Y16022589D01*
X2490962Y16027383D01*
X2490966Y16027388D01*
X2505500Y16100454D01*
X2505500Y16249802D01*
X2505500Y16249805D01*
X2505499Y16249807D01*
X2490968Y16322861D01*
X2490966Y16322864D01*
X2490966Y16322868D01*
X2490963Y16322872D01*
X2488977Y16327667D01*
X2481504Y16397136D01*
X2488977Y16422589D01*
X2490962Y16427383D01*
X2490966Y16427388D01*
X2505500Y16500454D01*
X2505500Y16649802D01*
X2505500Y16649805D01*
X2505499Y16649807D01*
X2490968Y16722861D01*
X2490966Y16722864D01*
X2490966Y16722868D01*
X2490963Y16722872D01*
X2488977Y16727667D01*
X2481504Y16797136D01*
X2488977Y16822589D01*
X2490962Y16827383D01*
X2490966Y16827388D01*
X2505500Y16900454D01*
X2505500Y17049802D01*
X2505500Y17049805D01*
X2505499Y17049807D01*
X2490968Y17122861D01*
X2490966Y17122864D01*
X2490966Y17122868D01*
X2490963Y17122872D01*
X2488977Y17127667D01*
X2481504Y17197136D01*
X2488977Y17222589D01*
X2490962Y17227383D01*
X2490966Y17227388D01*
X2505500Y17300454D01*
X2505500Y17449802D01*
X2505500Y17449805D01*
X2505499Y17449807D01*
X2490968Y17522861D01*
X2490966Y17522864D01*
X2490966Y17522868D01*
X2490963Y17522872D01*
X2488977Y17527667D01*
X2481504Y17597136D01*
X2488977Y17622589D01*
X2490962Y17627383D01*
X2490966Y17627388D01*
X2505500Y17700454D01*
X2505500Y17849802D01*
X2505500Y17849805D01*
X2505499Y17849807D01*
X2490968Y17922861D01*
X2490966Y17922864D01*
X2490966Y17922868D01*
X2490963Y17922872D01*
X2488977Y17927667D01*
X2481504Y17997136D01*
X2488977Y18022589D01*
X2490962Y18027383D01*
X2490966Y18027388D01*
X2505500Y18100454D01*
X2505500Y18249802D01*
X2505500Y18249805D01*
X2505499Y18249807D01*
X2490968Y18322861D01*
X2490966Y18322864D01*
X2490966Y18322868D01*
X2490963Y18322872D01*
X2488977Y18327667D01*
X2480363Y18389433D01*
X2483467Y18416167D01*
X2490966Y18427388D01*
X2505500Y18500454D01*
X2505500Y18605872D01*
X2506328Y18613001D01*
X2517283Y18638825D01*
X2525185Y18665735D01*
X2531086Y18671363D01*
X2533615Y18677322D01*
X2546673Y18686226D01*
X2567499Y18706083D01*
X2617011Y18734668D01*
X2672960Y18790617D01*
X2942960Y19060617D01*
X2982522Y19129140D01*
X3003000Y19205566D01*
X3003000Y19284690D01*
X3003000Y20444351D01*
X2982521Y20520778D01*
X2967177Y20547355D01*
X2950704Y20615256D01*
X2973557Y20681283D01*
X2986878Y20697031D01*
X3030500Y20740652D01*
X3096392Y20854780D01*
X3130500Y20982074D01*
X3130500Y21072134D01*
X3150185Y21139173D01*
X3166819Y21159815D01*
X3682464Y21675460D01*
X4507821Y22500817D01*
X4569142Y22534300D01*
X4638834Y22529316D01*
G37*
%TD.AperFunction*%
%TA.AperFunction,Conductor*%
G36*
X-1436961Y10058281D02*
G01*
X-1391206Y10005477D01*
X-1380000Y9953966D01*
X-1380000Y9299177D01*
X-1359090Y9300821D01*
X-1223196Y9340301D01*
X-1196281Y9340224D01*
X-1169604Y9343760D01*
X-1161872Y9340126D01*
X-1153327Y9340101D01*
X-1130729Y9325486D01*
X-1106372Y9314037D01*
X-1100168Y9305722D01*
X-1094657Y9302158D01*
X-1083554Y9287110D01*
X-1079472Y9280601D01*
X-1064065Y9247562D01*
X-1049807Y9233304D01*
X-1042357Y9221426D01*
X-1036533Y9200750D01*
X-1026239Y9181898D01*
X-1027249Y9167789D01*
X-1023413Y9154174D01*
X-1029691Y9133635D01*
X-1031223Y9112206D01*
X-1040789Y9097322D01*
X-1043835Y9087355D01*
X-1051212Y9081105D01*
X-1059724Y9067859D01*
X-1432798Y8694785D01*
X-1494121Y8661300D01*
X-1520479Y8658466D01*
X-1769895Y8658466D01*
X-1786429Y8656290D01*
X-1819487Y8651938D01*
X-1819490Y8651938D01*
X-1819497Y8651936D01*
X-1821312Y8651407D01*
X-1823482Y8651412D01*
X-1828894Y8650699D01*
X-1828990Y8651423D01*
X-1891181Y8651552D01*
X-1949881Y8689448D01*
X-1978774Y8753063D01*
X-1980000Y8770456D01*
X-1980000Y9017966D01*
X-3056000Y9017966D01*
X-3123039Y9037651D01*
X-3168794Y9090455D01*
X-3180000Y9141966D01*
X-3180000Y9393966D01*
X-3160315Y9461005D01*
X-3107511Y9506760D01*
X-3056000Y9517966D01*
X-1880000Y9517966D01*
X-1880000Y9953966D01*
X-1860315Y10021005D01*
X-1807511Y10066760D01*
X-1756000Y10077966D01*
X-1504000Y10077966D01*
X-1436961Y10058281D01*
G37*
%TD.AperFunction*%
%TA.AperFunction,Conductor*%
G36*
X3183039Y11358281D02*
G01*
X3228794Y11305477D01*
X3240000Y11253966D01*
X3240000Y10655956D01*
X3240001Y10655955D01*
X3296627Y10663409D01*
X3368046Y10692992D01*
X3437516Y10700461D01*
X3499995Y10669187D01*
X3535648Y10609098D01*
X3539500Y10578431D01*
X3539500Y10152360D01*
X3519815Y10085321D01*
X3503181Y10064679D01*
X2767784Y9329283D01*
X2706461Y9295798D01*
X2636769Y9300782D01*
X2581454Y9342129D01*
X1494500Y9342129D01*
X1427461Y9361814D01*
X1381706Y9414618D01*
X1370500Y9466129D01*
X1370500Y9718129D01*
X1390185Y9785168D01*
X1442989Y9830923D01*
X1494500Y9842129D01*
X2581229Y9842129D01*
X2538756Y9988325D01*
X2456446Y10127504D01*
X2456439Y10127513D01*
X2342106Y10241846D01*
X2335942Y10246627D01*
X2337458Y10248582D01*
X2298088Y10290751D01*
X2285587Y10359494D01*
X2285951Y10362553D01*
X2287225Y10372228D01*
X2287224Y10732029D01*
X2287072Y10733182D01*
X2287126Y10733527D01*
X2286959Y10736075D01*
X2287529Y10736113D01*
X2297840Y10802215D01*
X2344222Y10854469D01*
X2411492Y10873352D01*
X2478291Y10852869D01*
X2508390Y10824845D01*
X2512075Y10820042D01*
X2637414Y10723866D01*
X2783366Y10663411D01*
X2783372Y10663409D01*
X2839998Y10655955D01*
X2840000Y10655956D01*
X2840000Y11253966D01*
X2842550Y11262652D01*
X2841262Y11271613D01*
X2852240Y11295654D01*
X2859685Y11321005D01*
X2866525Y11326933D01*
X2870287Y11335169D01*
X2892521Y11349459D01*
X2912489Y11366760D01*
X2923003Y11369048D01*
X2929065Y11372943D01*
X2964000Y11377966D01*
X3116000Y11377966D01*
X3183039Y11358281D01*
G37*
%TD.AperFunction*%
%TA.AperFunction,Conductor*%
G36*
X-5736292Y15064877D02*
G01*
X-5702886Y15055216D01*
X-5702712Y15055017D01*
X-5702461Y15054943D01*
X-5679850Y15028848D01*
X-5656917Y15002599D01*
X-5656819Y15002269D01*
X-5656706Y15002139D01*
X-5656507Y15001222D01*
X-5646835Y14968775D01*
X-5645500Y14959752D01*
X-5645500Y14900454D01*
X-5630966Y14827388D01*
X-5624483Y14817684D01*
X-5620871Y14793275D01*
X-5628975Y14727676D01*
X-5630967Y14722869D01*
X-5645500Y14649805D01*
X-5645500Y14649802D01*
X-5645500Y14500454D01*
X-5645500Y14500452D01*
X-5645501Y14500452D01*
X-5630967Y14427388D01*
X-5628975Y14422580D01*
X-5621506Y14353111D01*
X-5628975Y14327676D01*
X-5630967Y14322869D01*
X-5645500Y14249805D01*
X-5645500Y14249802D01*
X-5645500Y14100454D01*
X-5645500Y14100452D01*
X-5645501Y14100452D01*
X-5630967Y14027388D01*
X-5628975Y14022580D01*
X-5621506Y13953111D01*
X-5628975Y13927676D01*
X-5630967Y13922869D01*
X-5645500Y13849805D01*
X-5645500Y13700450D01*
X-5630968Y13627393D01*
X-5630967Y13627389D01*
X-5630966Y13627388D01*
X-5575601Y13544527D01*
X-5494279Y13490190D01*
X-5492740Y13489162D01*
X-5492736Y13489161D01*
X-5419679Y13474629D01*
X-5419676Y13474628D01*
X-4594500Y13474628D01*
X-4527461Y13454943D01*
X-4481706Y13402139D01*
X-4470500Y13350628D01*
X-4470500Y12525450D01*
X-4455968Y12452393D01*
X-4455967Y12452389D01*
X-4437595Y12424893D01*
X-4400601Y12369527D01*
X-4331901Y12323624D01*
X-4317740Y12314162D01*
X-4317736Y12314161D01*
X-4244679Y12299629D01*
X-4244676Y12299628D01*
X-4244674Y12299628D01*
X-4095324Y12299628D01*
X-4095323Y12299629D01*
X-4070971Y12304473D01*
X-4022268Y12314160D01*
X-4022267Y12314161D01*
X-4022260Y12314162D01*
X-4022255Y12314166D01*
X-4017461Y12316151D01*
X-3947992Y12323624D01*
X-3922539Y12316151D01*
X-3917744Y12314165D01*
X-3917740Y12314162D01*
X-3917736Y12314162D01*
X-3917733Y12314160D01*
X-3844679Y12299629D01*
X-3844676Y12299628D01*
X-3844674Y12299628D01*
X-3695324Y12299628D01*
X-3695323Y12299629D01*
X-3670971Y12304473D01*
X-3622268Y12314160D01*
X-3622267Y12314161D01*
X-3622260Y12314162D01*
X-3622255Y12314166D01*
X-3617461Y12316151D01*
X-3547992Y12323624D01*
X-3522539Y12316151D01*
X-3517744Y12314165D01*
X-3517740Y12314162D01*
X-3517736Y12314162D01*
X-3517733Y12314160D01*
X-3444679Y12299629D01*
X-3444676Y12299628D01*
X-3444674Y12299628D01*
X-3295325Y12299628D01*
X-3279507Y12302775D01*
X-3222260Y12314162D01*
X-3222259Y12314164D01*
X-3219348Y12314742D01*
X-3149756Y12308516D01*
X-3096351Y12268051D01*
X-3012565Y12157564D01*
X-2892096Y12066208D01*
X-2766235Y12016575D01*
X-2739522Y11995791D01*
X-2712462Y11975536D01*
X-2712042Y11974409D01*
X-2711091Y11973669D01*
X-2699869Y11941779D01*
X-2688041Y11910073D01*
X-2688298Y11908896D01*
X-2687898Y11907761D01*
X-2695696Y11874876D01*
X-2702889Y11841799D01*
X-2703840Y11840529D01*
X-2704018Y11839777D01*
X-2724039Y11813544D01*
X-2732792Y11804790D01*
X-2794113Y11771301D01*
X-2820478Y11768466D01*
X-3899753Y11768466D01*
X-3958230Y11756835D01*
X-3958231Y11756834D01*
X-4034707Y11705733D01*
X-4037177Y11709430D01*
X-4077756Y11687416D01*
X-4147433Y11692592D01*
X-4203251Y11734617D01*
X-4219962Y11765321D01*
X-4236646Y11810053D01*
X-4236650Y11810060D01*
X-4322810Y11925154D01*
X-4322813Y11925157D01*
X-4437907Y12011317D01*
X-4437914Y12011321D01*
X-4572621Y12061563D01*
X-4572628Y12061565D01*
X-4632156Y12067966D01*
X-5130000Y12067966D01*
X-5130000Y11091966D01*
X-5149685Y11024927D01*
X-5202489Y10979172D01*
X-5254000Y10967966D01*
X-5506000Y10967966D01*
X-5573039Y10987651D01*
X-5618794Y11040455D01*
X-5630000Y11091966D01*
X-5630000Y12067966D01*
X-6127845Y12067966D01*
X-6187373Y12061565D01*
X-6187380Y12061563D01*
X-6322087Y12011321D01*
X-6322094Y12011317D01*
X-6437188Y11925157D01*
X-6456234Y11899714D01*
X-6512168Y11857844D01*
X-6581860Y11852860D01*
X-6643182Y11886346D01*
X-6676667Y11947669D01*
X-6679500Y11974026D01*
X-6679500Y14818524D01*
X-6659815Y14885563D01*
X-6607011Y14931318D01*
X-6539314Y14941463D01*
X-6536989Y14941157D01*
X-6536987Y14941156D01*
X-6487401Y14934628D01*
X-6067600Y14934629D01*
X-6018013Y14941156D01*
X-5909184Y14991904D01*
X-5862779Y15038309D01*
X-5840630Y15050404D01*
X-5836964Y15054669D01*
X-5827835Y15057391D01*
X-5801456Y15071794D01*
X-5775098Y15074628D01*
X-5769500Y15074628D01*
X-5736292Y15064877D01*
G37*
%TD.AperFunction*%
%TA.AperFunction,Conductor*%
G36*
X877461Y19191151D02*
G01*
X882256Y19189165D01*
X882260Y19189162D01*
X882264Y19189162D01*
X882267Y19189160D01*
X955321Y19174629D01*
X955324Y19174628D01*
X1105500Y19174628D01*
X1172539Y19154943D01*
X1218294Y19102139D01*
X1229500Y19050628D01*
X1229500Y19049802D01*
X1229500Y18900454D01*
X1229500Y18900452D01*
X1229499Y18900452D01*
X1244033Y18827388D01*
X1246025Y18822580D01*
X1253494Y18753111D01*
X1246025Y18727676D01*
X1244033Y18722869D01*
X1229500Y18649805D01*
X1229500Y18649802D01*
X1229500Y18500454D01*
X1229500Y18500452D01*
X1229499Y18500452D01*
X1244033Y18427388D01*
X1246025Y18422580D01*
X1253494Y18353111D01*
X1246025Y18327676D01*
X1244033Y18322869D01*
X1229500Y18249805D01*
X1229500Y18249802D01*
X1229500Y18100454D01*
X1229500Y18100452D01*
X1229499Y18100452D01*
X1244033Y18027388D01*
X1246025Y18022580D01*
X1253494Y17953111D01*
X1246025Y17927676D01*
X1244033Y17922869D01*
X1229500Y17849805D01*
X1229500Y17849802D01*
X1229500Y17700454D01*
X1229500Y17700452D01*
X1229499Y17700452D01*
X1244033Y17627388D01*
X1246025Y17622580D01*
X1253494Y17553111D01*
X1246025Y17527676D01*
X1244033Y17522869D01*
X1229500Y17449805D01*
X1229500Y17449802D01*
X1229500Y17300454D01*
X1229500Y17300452D01*
X1229499Y17300452D01*
X1244033Y17227388D01*
X1246025Y17222580D01*
X1253494Y17153111D01*
X1246025Y17127676D01*
X1244033Y17122869D01*
X1229500Y17049805D01*
X1229500Y17049802D01*
X1229500Y16900454D01*
X1229500Y16900452D01*
X1229499Y16900452D01*
X1244033Y16827388D01*
X1246025Y16822580D01*
X1253494Y16753111D01*
X1246025Y16727676D01*
X1244033Y16722869D01*
X1229500Y16649805D01*
X1229500Y16649802D01*
X1229500Y16500454D01*
X1229500Y16500452D01*
X1229499Y16500452D01*
X1244033Y16427388D01*
X1246025Y16422580D01*
X1253494Y16353111D01*
X1246025Y16327676D01*
X1244033Y16322869D01*
X1229500Y16249805D01*
X1229500Y16249802D01*
X1229500Y16100454D01*
X1229500Y16100452D01*
X1229499Y16100452D01*
X1244033Y16027388D01*
X1246025Y16022580D01*
X1253494Y15953111D01*
X1246025Y15927676D01*
X1244033Y15922869D01*
X1229500Y15849805D01*
X1229500Y15849802D01*
X1229500Y15700454D01*
X1229500Y15700452D01*
X1229499Y15700452D01*
X1244033Y15627388D01*
X1246025Y15622580D01*
X1253494Y15553111D01*
X1246025Y15527676D01*
X1244033Y15522869D01*
X1229500Y15449805D01*
X1229500Y15449802D01*
X1229500Y15300454D01*
X1229500Y15300452D01*
X1229499Y15300452D01*
X1244033Y15227388D01*
X1246025Y15222580D01*
X1253494Y15153111D01*
X1246025Y15127676D01*
X1244033Y15122869D01*
X1229500Y15049805D01*
X1229500Y15049802D01*
X1229500Y14900454D01*
X1229500Y14900452D01*
X1229499Y14900452D01*
X1244033Y14827388D01*
X1246025Y14822580D01*
X1253494Y14753111D01*
X1246025Y14727676D01*
X1244033Y14722869D01*
X1229500Y14649805D01*
X1229500Y14649802D01*
X1229500Y14500454D01*
X1229500Y14500452D01*
X1229499Y14500452D01*
X1244033Y14427388D01*
X1246025Y14422580D01*
X1253494Y14353111D01*
X1246025Y14327676D01*
X1244033Y14322869D01*
X1229500Y14249805D01*
X1229500Y14249802D01*
X1229500Y14100454D01*
X1229500Y14100452D01*
X1229499Y14100452D01*
X1244033Y14027388D01*
X1246025Y14022580D01*
X1253494Y13953111D01*
X1246025Y13927676D01*
X1244033Y13922869D01*
X1229500Y13849805D01*
X1229500Y13699628D01*
X1209815Y13632589D01*
X1157011Y13586834D01*
X1105500Y13575628D01*
X955324Y13575628D01*
X882259Y13561095D01*
X877452Y13559103D01*
X807983Y13551634D01*
X782548Y13559103D01*
X777740Y13561095D01*
X704676Y13575628D01*
X704674Y13575628D01*
X555326Y13575628D01*
X555324Y13575628D01*
X482259Y13561095D01*
X477452Y13559103D01*
X407983Y13551634D01*
X382548Y13559103D01*
X377740Y13561095D01*
X304676Y13575628D01*
X304674Y13575628D01*
X155326Y13575628D01*
X155324Y13575628D01*
X82259Y13561095D01*
X77452Y13559103D01*
X7983Y13551634D01*
X-17452Y13559103D01*
X-22260Y13561095D01*
X-95324Y13575628D01*
X-95326Y13575628D01*
X-244674Y13575628D01*
X-244676Y13575628D01*
X-317741Y13561095D01*
X-322548Y13559103D01*
X-392017Y13551634D01*
X-417452Y13559103D01*
X-422260Y13561095D01*
X-495324Y13575628D01*
X-495326Y13575628D01*
X-644674Y13575628D01*
X-644676Y13575628D01*
X-717741Y13561095D01*
X-722548Y13559103D01*
X-792017Y13551634D01*
X-817452Y13559103D01*
X-822260Y13561095D01*
X-895324Y13575628D01*
X-895326Y13575628D01*
X-1044674Y13575628D01*
X-1044676Y13575628D01*
X-1117741Y13561095D01*
X-1122548Y13559103D01*
X-1192017Y13551634D01*
X-1217452Y13559103D01*
X-1222260Y13561095D01*
X-1295324Y13575628D01*
X-1295326Y13575628D01*
X-1444674Y13575628D01*
X-1444676Y13575628D01*
X-1517741Y13561095D01*
X-1522548Y13559103D01*
X-1592017Y13551634D01*
X-1617452Y13559103D01*
X-1622260Y13561095D01*
X-1695324Y13575628D01*
X-1695326Y13575628D01*
X-1844674Y13575628D01*
X-1844677Y13575628D01*
X-1920655Y13560515D01*
X-1990246Y13566742D01*
X-2043650Y13607207D01*
X-2127434Y13717692D01*
X-2247905Y13809049D01*
X-2388557Y13864515D01*
X-2476946Y13875128D01*
X-2663054Y13875128D01*
X-2751444Y13864515D01*
X-2892096Y13809049D01*
X-3012568Y13717691D01*
X-3096352Y13607206D01*
X-3152544Y13565683D01*
X-3219347Y13560515D01*
X-3295324Y13575628D01*
X-3295326Y13575628D01*
X-3444674Y13575628D01*
X-3444676Y13575628D01*
X-3517741Y13561095D01*
X-3522548Y13559103D01*
X-3592017Y13551634D01*
X-3617452Y13559103D01*
X-3622260Y13561095D01*
X-3695324Y13575628D01*
X-3695326Y13575628D01*
X-3844674Y13575628D01*
X-3844676Y13575628D01*
X-3917741Y13561095D01*
X-3922548Y13559103D01*
X-3992017Y13551634D01*
X-4017452Y13559103D01*
X-4022260Y13561095D01*
X-4095324Y13575628D01*
X-4095326Y13575628D01*
X-4244674Y13575628D01*
X-4245500Y13575628D01*
X-4312539Y13595313D01*
X-4358294Y13648117D01*
X-4369500Y13699628D01*
X-4369500Y13849805D01*
X-4369501Y13849807D01*
X-4384032Y13922861D01*
X-4384034Y13922864D01*
X-4384034Y13922868D01*
X-4384037Y13922872D01*
X-4386023Y13927667D01*
X-4393496Y13997136D01*
X-4386023Y14022589D01*
X-4384038Y14027383D01*
X-4384034Y14027388D01*
X-4369500Y14100454D01*
X-4369500Y14249802D01*
X-4369500Y14249805D01*
X-4369501Y14249807D01*
X-4384032Y14322861D01*
X-4384034Y14322864D01*
X-4384034Y14322868D01*
X-4384037Y14322872D01*
X-4386023Y14327667D01*
X-4393496Y14397136D01*
X-4386023Y14422589D01*
X-4384038Y14427383D01*
X-4384034Y14427388D01*
X-4369500Y14500454D01*
X-4369500Y14649802D01*
X-4369500Y14649805D01*
X-4369501Y14649807D01*
X-4384032Y14722861D01*
X-4384034Y14722864D01*
X-4384034Y14722868D01*
X-4384037Y14722872D01*
X-4386023Y14727667D01*
X-4393496Y14797136D01*
X-4386023Y14822589D01*
X-4384038Y14827383D01*
X-4384034Y14827388D01*
X-4383765Y14828736D01*
X-4378721Y14854095D01*
X-3670000Y14854095D01*
X-3667127Y14817586D01*
X-3667126Y14817580D01*
X-3621733Y14661337D01*
X-3621731Y14661332D01*
X-3538906Y14521282D01*
X-3538900Y14521274D01*
X-3423855Y14406229D01*
X-3423847Y14406223D01*
X-3283797Y14323398D01*
X-3283792Y14323396D01*
X-3127549Y14278003D01*
X-3127543Y14278002D01*
X-3091034Y14275129D01*
X-3091022Y14275128D01*
X-1820000Y14275128D01*
X-1320000Y14275128D01*
X-48978Y14275128D01*
X-48967Y14275129D01*
X-12458Y14278002D01*
X-12452Y14278003D01*
X143791Y14323396D01*
X143796Y14323398D01*
X283846Y14406223D01*
X283854Y14406229D01*
X398899Y14521274D01*
X398905Y14521282D01*
X481730Y14661332D01*
X481732Y14661337D01*
X527125Y14817580D01*
X527126Y14817586D01*
X529999Y14854095D01*
X530000Y14854107D01*
X530000Y16125128D01*
X-1320000Y16125128D01*
X-1320000Y14275128D01*
X-1820000Y14275128D01*
X-1820000Y16125128D01*
X-3670000Y16125128D01*
X-3670000Y14854095D01*
X-4378721Y14854095D01*
X-4369501Y14900450D01*
X-4369500Y14900452D01*
X-4369500Y15049805D01*
X-4369501Y15049807D01*
X-4384032Y15122861D01*
X-4384034Y15122864D01*
X-4384034Y15122868D01*
X-4384037Y15122872D01*
X-4386023Y15127667D01*
X-4393496Y15197136D01*
X-4386023Y15222589D01*
X-4384038Y15227383D01*
X-4384034Y15227388D01*
X-4380609Y15244603D01*
X-4369501Y15300450D01*
X-4369500Y15300452D01*
X-4369500Y15449805D01*
X-4369501Y15449807D01*
X-4384032Y15522861D01*
X-4384034Y15522864D01*
X-4384034Y15522868D01*
X-4384037Y15522872D01*
X-4386023Y15527667D01*
X-4393496Y15597136D01*
X-4386023Y15622589D01*
X-4384038Y15627383D01*
X-4384034Y15627388D01*
X-4369500Y15700454D01*
X-4369500Y15849802D01*
X-4369500Y15849805D01*
X-4369501Y15849807D01*
X-4384032Y15922861D01*
X-4384034Y15922864D01*
X-4384034Y15922868D01*
X-4384037Y15922872D01*
X-4386023Y15927667D01*
X-4394447Y15990986D01*
X-4391121Y16016782D01*
X-4384034Y16027388D01*
X-4369500Y16100454D01*
X-4369500Y16249802D01*
X-4384034Y16322868D01*
X-4391064Y16333390D01*
X-4394419Y16359056D01*
X-4391442Y16378036D01*
X-4393496Y16397136D01*
X-4386023Y16422589D01*
X-4384038Y16427383D01*
X-4384034Y16427388D01*
X-4369500Y16500454D01*
X-4369500Y16649802D01*
X-4369500Y16649805D01*
X-4369501Y16649807D01*
X-4384032Y16722861D01*
X-4384034Y16722864D01*
X-4384034Y16722868D01*
X-4384037Y16722872D01*
X-4386023Y16727667D01*
X-4393496Y16797136D01*
X-4386023Y16822589D01*
X-4384038Y16827383D01*
X-4384034Y16827388D01*
X-4369500Y16900454D01*
X-4369500Y17049802D01*
X-4369500Y17049805D01*
X-4369501Y17049807D01*
X-4384032Y17122861D01*
X-4384034Y17122864D01*
X-4384034Y17122868D01*
X-4384037Y17122872D01*
X-4386023Y17127667D01*
X-4393496Y17197136D01*
X-4386023Y17222589D01*
X-4384038Y17227383D01*
X-4384034Y17227388D01*
X-4369500Y17300454D01*
X-4369500Y17449802D01*
X-4369500Y17449805D01*
X-4369501Y17449807D01*
X-4384032Y17522861D01*
X-4384034Y17522864D01*
X-4384034Y17522868D01*
X-4384037Y17522872D01*
X-4386023Y17527667D01*
X-4393496Y17597136D01*
X-4386023Y17622589D01*
X-4384038Y17627383D01*
X-4384034Y17627388D01*
X-4369500Y17700454D01*
X-4369500Y17849802D01*
X-4369500Y17849805D01*
X-4369501Y17849807D01*
X-4373870Y17871775D01*
X-4373875Y17871793D01*
X-4378722Y17896162D01*
X-3670000Y17896162D01*
X-3670000Y16625128D01*
X-1820000Y16625128D01*
X-1320000Y16625128D01*
X530000Y16625128D01*
X530000Y17896150D01*
X529999Y17896162D01*
X527126Y17932671D01*
X527125Y17932677D01*
X481732Y18088920D01*
X481730Y18088925D01*
X398905Y18228975D01*
X398899Y18228983D01*
X283854Y18344028D01*
X283846Y18344034D01*
X143796Y18426859D01*
X143791Y18426861D01*
X-12452Y18472254D01*
X-12458Y18472255D01*
X-48967Y18475128D01*
X-1320000Y18475128D01*
X-1320000Y16625128D01*
X-1820000Y16625128D01*
X-1820000Y18475128D01*
X-3091034Y18475128D01*
X-3127543Y18472255D01*
X-3127549Y18472254D01*
X-3283792Y18426861D01*
X-3283797Y18426859D01*
X-3423847Y18344034D01*
X-3423855Y18344028D01*
X-3538900Y18228983D01*
X-3538906Y18228975D01*
X-3621731Y18088925D01*
X-3621733Y18088920D01*
X-3667126Y17932677D01*
X-3667127Y17932671D01*
X-3670000Y17896162D01*
X-4378722Y17896162D01*
X-4384034Y17922868D01*
X-4387679Y17928323D01*
X-4391925Y17945712D01*
X-4390737Y17971484D01*
X-4393496Y17997136D01*
X-4388819Y18013068D01*
X-4388706Y18015508D01*
X-4387676Y18016960D01*
X-4386023Y18022589D01*
X-4384038Y18027383D01*
X-4384034Y18027388D01*
X-4369500Y18100454D01*
X-4369500Y18249802D01*
X-4369500Y18249805D01*
X-4369501Y18249807D01*
X-4384032Y18322861D01*
X-4384034Y18322864D01*
X-4384034Y18322868D01*
X-4384037Y18322872D01*
X-4386023Y18327667D01*
X-4393496Y18397136D01*
X-4386023Y18422589D01*
X-4384038Y18427383D01*
X-4384034Y18427388D01*
X-4369500Y18500454D01*
X-4369500Y18649802D01*
X-4369500Y18649805D01*
X-4369501Y18649807D01*
X-4384032Y18722861D01*
X-4384034Y18722864D01*
X-4384034Y18722868D01*
X-4384037Y18722872D01*
X-4386023Y18727667D01*
X-4393496Y18797136D01*
X-4386023Y18822589D01*
X-4384038Y18827383D01*
X-4384034Y18827388D01*
X-4369500Y18900454D01*
X-4369500Y19049802D01*
X-4369500Y19050628D01*
X-4349815Y19117667D01*
X-4297011Y19163422D01*
X-4245500Y19174628D01*
X-4095324Y19174628D01*
X-4095323Y19174629D01*
X-4070971Y19179473D01*
X-4022268Y19189160D01*
X-4022267Y19189161D01*
X-4022260Y19189162D01*
X-4022255Y19189166D01*
X-4017461Y19191151D01*
X-3947992Y19198624D01*
X-3922539Y19191151D01*
X-3917744Y19189165D01*
X-3917740Y19189162D01*
X-3917736Y19189162D01*
X-3917733Y19189160D01*
X-3844679Y19174629D01*
X-3844676Y19174628D01*
X-3844674Y19174628D01*
X-3695324Y19174628D01*
X-3695323Y19174629D01*
X-3670971Y19179473D01*
X-3622268Y19189160D01*
X-3622267Y19189161D01*
X-3622260Y19189162D01*
X-3622255Y19189166D01*
X-3617461Y19191151D01*
X-3547992Y19198624D01*
X-3522539Y19191151D01*
X-3517744Y19189165D01*
X-3517740Y19189162D01*
X-3517736Y19189162D01*
X-3517733Y19189160D01*
X-3444679Y19174629D01*
X-3444676Y19174628D01*
X-3444674Y19174628D01*
X-3295324Y19174628D01*
X-3295323Y19174629D01*
X-3270971Y19179473D01*
X-3222268Y19189160D01*
X-3222267Y19189161D01*
X-3222260Y19189162D01*
X-3222255Y19189166D01*
X-3217461Y19191151D01*
X-3147992Y19198624D01*
X-3122539Y19191151D01*
X-3117744Y19189165D01*
X-3117740Y19189162D01*
X-3117736Y19189162D01*
X-3117733Y19189160D01*
X-3044679Y19174629D01*
X-3044676Y19174628D01*
X-3044674Y19174628D01*
X-2895324Y19174628D01*
X-2895323Y19174629D01*
X-2870971Y19179473D01*
X-2822268Y19189160D01*
X-2822267Y19189161D01*
X-2822260Y19189162D01*
X-2822255Y19189166D01*
X-2817461Y19191151D01*
X-2747992Y19198624D01*
X-2722539Y19191151D01*
X-2717744Y19189165D01*
X-2717740Y19189162D01*
X-2717736Y19189162D01*
X-2717733Y19189160D01*
X-2644679Y19174629D01*
X-2644676Y19174628D01*
X-2644674Y19174628D01*
X-2495324Y19174628D01*
X-2495323Y19174629D01*
X-2470971Y19179473D01*
X-2422268Y19189160D01*
X-2422267Y19189161D01*
X-2422260Y19189162D01*
X-2422255Y19189166D01*
X-2417461Y19191151D01*
X-2347992Y19198624D01*
X-2322539Y19191151D01*
X-2317744Y19189165D01*
X-2317740Y19189162D01*
X-2317736Y19189162D01*
X-2317733Y19189160D01*
X-2244679Y19174629D01*
X-2244676Y19174628D01*
X-2244674Y19174628D01*
X-2095324Y19174628D01*
X-2095323Y19174629D01*
X-2070971Y19179473D01*
X-2022268Y19189160D01*
X-2022267Y19189161D01*
X-2022260Y19189162D01*
X-2022255Y19189166D01*
X-2017461Y19191151D01*
X-1947992Y19198624D01*
X-1922539Y19191151D01*
X-1917744Y19189165D01*
X-1917740Y19189162D01*
X-1917736Y19189162D01*
X-1917733Y19189160D01*
X-1844679Y19174629D01*
X-1844676Y19174628D01*
X-1844674Y19174628D01*
X-1695324Y19174628D01*
X-1695323Y19174629D01*
X-1670971Y19179473D01*
X-1622268Y19189160D01*
X-1622267Y19189161D01*
X-1622260Y19189162D01*
X-1622255Y19189166D01*
X-1617461Y19191151D01*
X-1547992Y19198624D01*
X-1522539Y19191151D01*
X-1517744Y19189165D01*
X-1517740Y19189162D01*
X-1517736Y19189162D01*
X-1517733Y19189160D01*
X-1444679Y19174629D01*
X-1444676Y19174628D01*
X-1444674Y19174628D01*
X-1295324Y19174628D01*
X-1295323Y19174629D01*
X-1270971Y19179473D01*
X-1222268Y19189160D01*
X-1222267Y19189161D01*
X-1222260Y19189162D01*
X-1222255Y19189166D01*
X-1217461Y19191151D01*
X-1147992Y19198624D01*
X-1122539Y19191151D01*
X-1117744Y19189165D01*
X-1117740Y19189162D01*
X-1117736Y19189162D01*
X-1117733Y19189160D01*
X-1044679Y19174629D01*
X-1044676Y19174628D01*
X-1044674Y19174628D01*
X-895324Y19174628D01*
X-895323Y19174629D01*
X-870971Y19179473D01*
X-822268Y19189160D01*
X-822267Y19189161D01*
X-822260Y19189162D01*
X-822255Y19189166D01*
X-817461Y19191151D01*
X-747992Y19198624D01*
X-722539Y19191151D01*
X-717744Y19189165D01*
X-717740Y19189162D01*
X-717736Y19189162D01*
X-717733Y19189160D01*
X-644679Y19174629D01*
X-644676Y19174628D01*
X-644674Y19174628D01*
X-495324Y19174628D01*
X-495323Y19174629D01*
X-470971Y19179473D01*
X-422268Y19189160D01*
X-422267Y19189161D01*
X-422260Y19189162D01*
X-422255Y19189166D01*
X-417461Y19191151D01*
X-347992Y19198624D01*
X-322539Y19191151D01*
X-317744Y19189165D01*
X-317740Y19189162D01*
X-317736Y19189162D01*
X-317733Y19189160D01*
X-244679Y19174629D01*
X-244676Y19174628D01*
X-244674Y19174628D01*
X-95324Y19174628D01*
X-95323Y19174629D01*
X-70971Y19179473D01*
X-22268Y19189160D01*
X-22267Y19189161D01*
X-22260Y19189162D01*
X-22255Y19189166D01*
X-17461Y19191151D01*
X52008Y19198624D01*
X77461Y19191151D01*
X82256Y19189165D01*
X82260Y19189162D01*
X82264Y19189162D01*
X82267Y19189160D01*
X155321Y19174629D01*
X155324Y19174628D01*
X155326Y19174628D01*
X304676Y19174628D01*
X304677Y19174629D01*
X329029Y19179473D01*
X377732Y19189160D01*
X377733Y19189161D01*
X377740Y19189162D01*
X377745Y19189166D01*
X382539Y19191151D01*
X452008Y19198624D01*
X477461Y19191151D01*
X482256Y19189165D01*
X482260Y19189162D01*
X482264Y19189162D01*
X482267Y19189160D01*
X555321Y19174629D01*
X555324Y19174628D01*
X555326Y19174628D01*
X704676Y19174628D01*
X704677Y19174629D01*
X729029Y19179473D01*
X777732Y19189160D01*
X777733Y19189161D01*
X777740Y19189162D01*
X777745Y19189166D01*
X782539Y19191151D01*
X852008Y19198624D01*
X877461Y19191151D01*
G37*
%TD.AperFunction*%
%TA.AperFunction,Conductor*%
G36*
X-6084461Y17985443D02*
G01*
X-6038706Y17932639D01*
X-6027500Y17881128D01*
X-6027500Y16499128D01*
X-6047185Y16432089D01*
X-6099989Y16386334D01*
X-6151500Y16375128D01*
X-6403500Y16375128D01*
X-6470539Y16394813D01*
X-6516294Y16447617D01*
X-6527500Y16499128D01*
X-6527500Y17881128D01*
X-6507815Y17948167D01*
X-6455011Y17993922D01*
X-6403500Y18005128D01*
X-6151500Y18005128D01*
X-6084461Y17985443D01*
G37*
%TD.AperFunction*%
%TA.AperFunction,Conductor*%
G36*
X-5774461Y37249815D02*
G01*
X-5728706Y37197011D01*
X-5717500Y37145500D01*
X-5717500Y33006062D01*
X-5717500Y32926938D01*
X-5703848Y32875987D01*
X-5697021Y32850510D01*
X-5697018Y32850505D01*
X-5657465Y32781996D01*
X-5657461Y32781991D01*
X-5657460Y32781989D01*
X-5601511Y32726040D01*
X-5601509Y32726039D01*
X-5601505Y32726036D01*
X-5532996Y32686483D01*
X-5532989Y32686479D01*
X-5456562Y32666000D01*
X-4319000Y32666000D01*
X-4251961Y32646315D01*
X-4206206Y32593511D01*
X-4195000Y32542000D01*
X-4195000Y32375000D01*
X-3694000Y32375000D01*
X-3685315Y32372450D01*
X-3676353Y32373738D01*
X-3652313Y32362760D01*
X-3626961Y32355315D01*
X-3621034Y32348475D01*
X-3612797Y32344713D01*
X-3598508Y32322479D01*
X-3581206Y32302511D01*
X-3578919Y32291997D01*
X-3575023Y32285935D01*
X-3570000Y32251000D01*
X-3570000Y32249000D01*
X-3589685Y32181961D01*
X-3642489Y32136206D01*
X-3694000Y32125000D01*
X-4196047Y32125000D01*
X-4255067Y32092773D01*
X-4324758Y32097759D01*
X-4328874Y32099378D01*
X-4358314Y32111572D01*
X-4358317Y32111573D01*
X-4400000Y32119865D01*
X-4400000Y31199728D01*
X-4438060Y31291614D01*
X-4508386Y31361940D01*
X-4600272Y31400000D01*
X-4699728Y31400000D01*
X-4791614Y31361940D01*
X-4861940Y31291614D01*
X-4900000Y31199728D01*
X-4900000Y32119864D01*
X-4900001Y32119865D01*
X-4941684Y32111573D01*
X-4941692Y32111571D01*
X-5123672Y32036193D01*
X-5123685Y32036186D01*
X-5287463Y31926752D01*
X-5287467Y31926749D01*
X-5426749Y31787467D01*
X-5426752Y31787463D01*
X-5536186Y31623685D01*
X-5536193Y31623672D01*
X-5611570Y31441694D01*
X-5611573Y31441682D01*
X-5650000Y31248496D01*
X-5650000Y31057410D01*
X-5669685Y30990371D01*
X-5722489Y30944616D01*
X-5791647Y30934672D01*
X-5806092Y30937635D01*
X-5854107Y30950500D01*
X-5854108Y30950500D01*
X-5985892Y30950500D01*
X-6113188Y30916392D01*
X-6227314Y30850500D01*
X-6227317Y30850498D01*
X-6320498Y30757317D01*
X-6320500Y30757314D01*
X-6386392Y30643188D01*
X-6420500Y30515892D01*
X-6420500Y30384108D01*
X-6403446Y30320461D01*
X-6386392Y30256813D01*
X-6353446Y30199750D01*
X-6320500Y30142686D01*
X-6227314Y30049500D01*
X-6113186Y29983608D01*
X-5985892Y29949500D01*
X-5985890Y29949500D01*
X-5895833Y29949500D01*
X-5866393Y29940856D01*
X-5836406Y29934332D01*
X-5831391Y29930578D01*
X-5828794Y29929815D01*
X-5808152Y29913181D01*
X-5696819Y29801848D01*
X-5663334Y29740525D01*
X-5660500Y29714167D01*
X-5660500Y28470323D01*
X-5680185Y28403284D01*
X-5732089Y28357944D01*
X-5740402Y28354068D01*
X-5824065Y28270405D01*
X-5874069Y28163172D01*
X-5880500Y28114317D01*
X-5880500Y27765684D01*
X-5874069Y27716827D01*
X-5871495Y27707997D01*
X-5871637Y27638127D01*
X-5909531Y27579426D01*
X-5927418Y27566574D01*
X-5937292Y27560735D01*
X-5937292Y27560734D01*
X-6050732Y27447295D01*
X-6050739Y27447286D01*
X-6132405Y27309195D01*
X-6172844Y27170000D01*
X-4547156Y27170000D01*
X-4587596Y27309195D01*
X-4669262Y27447286D01*
X-4669269Y27447295D01*
X-4782706Y27560732D01*
X-4782717Y27560741D01*
X-4792581Y27566574D01*
X-4840264Y27617643D01*
X-4852767Y27686385D01*
X-4848502Y27708014D01*
X-4845936Y27716819D01*
X-4845932Y27716827D01*
X-4839500Y27765684D01*
X-4839500Y28114316D01*
X-4845932Y28163173D01*
X-4895935Y28270404D01*
X-4979596Y28354065D01*
X-4979599Y28354068D01*
X-4987911Y28357944D01*
X-5040348Y28404119D01*
X-5059500Y28470323D01*
X-5059500Y29060769D01*
X-5039815Y29127808D01*
X-4987011Y29173563D01*
X-4917853Y29183507D01*
X-4911309Y29182386D01*
X-4900000Y29180137D01*
X-4900000Y30100272D01*
X-4861940Y30008386D01*
X-4791614Y29938060D01*
X-4699728Y29900000D01*
X-4600272Y29900000D01*
X-4508386Y29938060D01*
X-4438060Y30008386D01*
X-4400000Y30100272D01*
X-4400000Y29180138D01*
X-4358310Y29188431D01*
X-4358308Y29188431D01*
X-4176329Y29263808D01*
X-4176316Y29263815D01*
X-4012538Y29373249D01*
X-4012534Y29373252D01*
X-3873252Y29512534D01*
X-3872149Y29513877D01*
X-3871394Y29514392D01*
X-3868941Y29516844D01*
X-3868476Y29516379D01*
X-3814404Y29553212D01*
X-3744559Y29555083D01*
X-3684790Y29518896D01*
X-3654074Y29456141D01*
X-3652295Y29435213D01*
X-3652295Y29425494D01*
X-3642545Y29389108D01*
X-3618187Y29298199D01*
X-3594049Y29256392D01*
X-3552295Y29184072D01*
X-3459109Y29090886D01*
X-3365795Y29037011D01*
X-3352109Y29029109D01*
X-3344981Y29024994D01*
X-3217687Y28990886D01*
X-3217685Y28990886D01*
X-3085905Y28990886D01*
X-3085903Y28990886D01*
X-3002592Y29013209D01*
X-2932743Y29011546D01*
X-2874881Y28972383D01*
X-2847377Y28908155D01*
X-2846500Y28893434D01*
X-2846500Y28827206D01*
X-2841438Y28808316D01*
X-2826021Y28750778D01*
X-2826018Y28750773D01*
X-2810623Y28724108D01*
X-2799603Y28705021D01*
X-2786460Y28682257D01*
X-2786458Y28682255D01*
X-2169791Y28065588D01*
X-2136306Y28004265D01*
X-2141290Y27934573D01*
X-2183162Y27878640D01*
X-2248626Y27854223D01*
X-2273655Y27854968D01*
X-2315681Y27860500D01*
X-2315684Y27860500D01*
X-2664316Y27860500D01*
X-2664317Y27860500D01*
X-2713172Y27854069D01*
X-2820405Y27804065D01*
X-2904065Y27720405D01*
X-2904065Y27720404D01*
X-2907940Y27712096D01*
X-2954110Y27659657D01*
X-3020321Y27640500D01*
X-3309562Y27640500D01*
X-3340133Y27632309D01*
X-3385992Y27620021D01*
X-3385993Y27620020D01*
X-3447491Y27584513D01*
X-3447492Y27584512D01*
X-3454515Y27580458D01*
X-4367985Y26666988D01*
X-4429308Y26633503D01*
X-4499000Y26638487D01*
X-4541158Y26670000D01*
X-5110000Y26670000D01*
X-5110000Y26150070D01*
X-5087732Y26129484D01*
X-5051866Y26069522D01*
X-5054112Y25999688D01*
X-5084224Y25950748D01*
X-5444511Y25590460D01*
X-5500459Y25534513D01*
X-5500465Y25534505D01*
X-5540018Y25465996D01*
X-5540021Y25465991D01*
X-5560500Y25389561D01*
X-5560500Y24648677D01*
X-5580185Y24581638D01*
X-5596818Y24560996D01*
X-5660500Y24497314D01*
X-5726392Y24383188D01*
X-5760500Y24255892D01*
X-5760500Y24165834D01*
X-5780185Y24098795D01*
X-5796819Y24078153D01*
X-6462011Y23412960D01*
X-6467819Y23407152D01*
X-6529142Y23373667D01*
X-6598834Y23378651D01*
X-6654767Y23420523D01*
X-6679184Y23485987D01*
X-6679500Y23494833D01*
X-6679500Y26670000D01*
X-6172844Y26670000D01*
X-6132405Y26530806D01*
X-6050739Y26392715D01*
X-6050732Y26392706D01*
X-5937295Y26279269D01*
X-5937286Y26279262D01*
X-5799192Y26197594D01*
X-5799189Y26197593D01*
X-5645129Y26152834D01*
X-5645123Y26152833D01*
X-5610000Y26150069D01*
X-5610000Y26670000D01*
X-6172844Y26670000D01*
X-6679500Y26670000D01*
X-6679500Y37145500D01*
X-6659815Y37212539D01*
X-6607011Y37258294D01*
X-6555500Y37269500D01*
X-5841500Y37269500D01*
X-5774461Y37249815D01*
G37*
%TD.AperFunction*%
%TA.AperFunction,Conductor*%
G36*
X-71961Y26005315D02*
G01*
X-26206Y25952511D01*
X-15000Y25901000D01*
X-15000Y25899000D01*
X-34685Y25831961D01*
X-87489Y25786206D01*
X-139000Y25775000D01*
X-956024Y25775000D01*
X-961852Y25776712D01*
X-950522Y25690660D01*
X-950521Y25690655D01*
X-893846Y25553828D01*
X-893131Y25552590D01*
X-892846Y25551413D01*
X-890733Y25546313D01*
X-891529Y25545984D01*
X-886564Y25525523D01*
X-876832Y25499433D01*
X-878440Y25492043D01*
X-876656Y25484691D01*
X-885764Y25458375D01*
X-891683Y25431160D01*
X-898189Y25422470D01*
X-899506Y25418663D01*
X-912834Y25402906D01*
X-1009918Y25305820D01*
X-1071241Y25272334D01*
X-1097600Y25269500D01*
X-1291200Y25269500D01*
X-1400800Y25269500D01*
X-1400801Y25269500D01*
X-1400806Y25269499D01*
X-1439570Y25253442D01*
X-1509039Y25245973D01*
X-1571518Y25277248D01*
X-1607170Y25337337D01*
X-1604676Y25407163D01*
X-1574707Y25455679D01*
X-1173597Y25856789D01*
X-1161140Y25863591D01*
X-1151714Y25874210D01*
X-1131085Y25880002D01*
X-1112278Y25890271D01*
X-1098115Y25889259D01*
X-1084445Y25893096D01*
X-1074958Y25890188D01*
X-1078762Y25916647D01*
X-1049737Y25980203D01*
X-1043719Y25986667D01*
X-1041703Y25988683D01*
X-980382Y26022166D01*
X-954024Y26025000D01*
X-139000Y26025000D01*
X-71961Y26005315D01*
G37*
%TD.AperFunction*%
%TA.AperFunction,Conductor*%
G36*
X1748039Y30630315D02*
G01*
X1793794Y30577511D01*
X1805000Y30526000D01*
X1805000Y29750000D01*
X1823523Y29731477D01*
X1827478Y29730315D01*
X1870034Y29681203D01*
X1870943Y29681688D01*
X1873082Y29677685D01*
X1873233Y29677511D01*
X1873486Y29676929D01*
X1873812Y29676319D01*
X1983247Y29512539D01*
X2103681Y29392106D01*
X2137166Y29330783D01*
X2140000Y29304424D01*
X2140000Y27635496D01*
X2141789Y27634152D01*
X2183581Y27578158D01*
X2188955Y27510803D01*
X2184500Y27488404D01*
X2184500Y27311602D01*
X2199760Y27234881D01*
X2210446Y27218889D01*
X2231323Y27152212D01*
X2212837Y27084832D01*
X2210446Y27081111D01*
X2199759Y27065118D01*
X2184500Y26988404D01*
X2184500Y26811602D01*
X2199760Y26734881D01*
X2210446Y26718889D01*
X2231323Y26652212D01*
X2212837Y26584832D01*
X2210446Y26581111D01*
X2199759Y26565118D01*
X2184500Y26488404D01*
X2184500Y26311602D01*
X2199760Y26234881D01*
X2210446Y26218889D01*
X2231323Y26152212D01*
X2212837Y26084832D01*
X2210446Y26081111D01*
X2199759Y26065118D01*
X2184500Y25988404D01*
X2184500Y25811602D01*
X2200187Y25732737D01*
X2199479Y25724831D01*
X2202253Y25717394D01*
X2196408Y25690528D01*
X2193958Y25663145D01*
X2188710Y25655139D01*
X2187402Y25649121D01*
X2166252Y25620869D01*
X2097202Y25551818D01*
X2035882Y25518334D01*
X2009523Y25515500D01*
X1759621Y25515500D01*
X1692582Y25535185D01*
X1646827Y25587989D01*
X1636883Y25657147D01*
X1656519Y25708391D01*
X1675014Y25736072D01*
X1698867Y25771769D01*
X1698867Y25771771D01*
X1698868Y25771771D01*
X1710499Y25830248D01*
X1710500Y25830250D01*
X1710500Y27469751D01*
X1710499Y27469753D01*
X1698868Y27528230D01*
X1698867Y27528231D01*
X1660898Y27585056D01*
X1640020Y27651734D01*
X1640000Y27653947D01*
X1640000Y29244506D01*
X1631105Y29251184D01*
X1592800Y29251294D01*
X1534130Y29289236D01*
X1505288Y29352875D01*
X1505138Y29386363D01*
X1505498Y29389105D01*
X1505500Y29389108D01*
X1505500Y29520892D01*
X1485936Y29593907D01*
X1486531Y29618902D01*
X1482973Y29643647D01*
X1487348Y29653228D01*
X1487599Y29663757D01*
X1501611Y29684461D01*
X1511998Y29707203D01*
X1520010Y29712352D01*
X1518681Y29713681D01*
X1555000Y29750000D01*
X1555000Y30526000D01*
X1557550Y30534686D01*
X1556262Y30543647D01*
X1567240Y30567688D01*
X1574685Y30593039D01*
X1581525Y30598967D01*
X1585287Y30607203D01*
X1607521Y30621493D01*
X1627489Y30638794D01*
X1638003Y30641082D01*
X1644065Y30644977D01*
X1679000Y30650000D01*
X1681000Y30650000D01*
X1748039Y30630315D01*
G37*
%TD.AperFunction*%
%TA.AperFunction,Conductor*%
G36*
X4662539Y37249815D02*
G01*
X4708294Y37197011D01*
X4719500Y37145500D01*
X4719500Y26894833D01*
X4699815Y26827794D01*
X4647011Y26782039D01*
X4577853Y26772095D01*
X4514297Y26801120D01*
X4507819Y26807152D01*
X3674510Y27640461D01*
X3657121Y27650500D01*
X3654329Y27652112D01*
X3605991Y27680020D01*
X3605990Y27680021D01*
X3580513Y27686848D01*
X3529562Y27700500D01*
X3529560Y27700500D01*
X3373297Y27700500D01*
X3347191Y27703279D01*
X3329991Y27706984D01*
X3325117Y27710240D01*
X3248401Y27725500D01*
X3244009Y27725500D01*
X3233394Y27727786D01*
X3208659Y27741226D01*
X3182559Y27751764D01*
X3178371Y27757682D01*
X3172001Y27761143D01*
X3158460Y27785820D01*
X3142200Y27808798D01*
X3140607Y27818354D01*
X3138389Y27822397D01*
X3138843Y27828943D01*
X3135500Y27849007D01*
X3135500Y27885244D01*
X3155185Y27952283D01*
X3180807Y27978941D01*
X3180644Y27979104D01*
X3200080Y27998540D01*
X3273224Y28071684D01*
X3323972Y28180513D01*
X3330500Y28230099D01*
X3330499Y28649900D01*
X3323972Y28699487D01*
X3273224Y28808316D01*
X3188316Y28893224D01*
X3079487Y28943972D01*
X3079485Y28943973D01*
X3079486Y28943973D01*
X3067345Y28945571D01*
X3003449Y28973839D01*
X2964979Y29032165D01*
X2964149Y29102030D01*
X3001223Y29161252D01*
X3047545Y29187173D01*
X3051698Y29188433D01*
X3233671Y29263808D01*
X3233684Y29263815D01*
X3397462Y29373249D01*
X3397466Y29373252D01*
X3536748Y29512534D01*
X3536751Y29512538D01*
X3646185Y29676316D01*
X3646192Y29676329D01*
X3721569Y29858307D01*
X3721572Y29858319D01*
X3759999Y30051505D01*
X3760000Y30051508D01*
X3760000Y30400000D01*
X3010000Y30400000D01*
X3010000Y30900000D01*
X3760000Y30900000D01*
X3760000Y31248492D01*
X3759999Y31248496D01*
X3721572Y31441682D01*
X3721569Y31441694D01*
X3646192Y31623672D01*
X3646185Y31623685D01*
X3536751Y31787463D01*
X3536748Y31787467D01*
X3397466Y31926749D01*
X3397462Y31926752D01*
X3233684Y32036186D01*
X3233671Y32036193D01*
X3051691Y32111571D01*
X3051683Y32111573D01*
X3010000Y32119865D01*
X3010000Y31199728D01*
X2971940Y31291614D01*
X2901614Y31361940D01*
X2809728Y31400000D01*
X2710272Y31400000D01*
X2618386Y31361940D01*
X2548060Y31291614D01*
X2510000Y31199728D01*
X2510000Y32125000D01*
X2054000Y32125000D01*
X2045314Y32127551D01*
X2036353Y32126262D01*
X2012312Y32137241D01*
X1986961Y32144685D01*
X1981033Y32151526D01*
X1972797Y32155287D01*
X1958507Y32177522D01*
X1941206Y32197489D01*
X1938918Y32208004D01*
X1935023Y32214065D01*
X1930000Y32249000D01*
X1930000Y32251000D01*
X1949685Y32318039D01*
X2002489Y32363794D01*
X2054000Y32375000D01*
X2555000Y32375000D01*
X2555000Y32542000D01*
X2574685Y32609039D01*
X2627489Y32654794D01*
X2679000Y32666000D01*
X3522560Y32666000D01*
X3522562Y32666000D01*
X3598989Y32686479D01*
X3667511Y32726040D01*
X3723460Y32781989D01*
X3763021Y32850511D01*
X3783500Y32926938D01*
X3783500Y37145500D01*
X3803185Y37212539D01*
X3855989Y37258294D01*
X3907500Y37269500D01*
X4595500Y37269500D01*
X4662539Y37249815D01*
G37*
%TD.AperFunction*%
%TD*%
%TA.AperFunction,NonConductor*%
G36*
X-2801636Y31667928D02*
G01*
X-2797991Y31668320D01*
X-2794706Y31667356D01*
X-2792305Y31667157D01*
X-2776997Y31663650D01*
X-2773231Y31661133D01*
X-2718531Y31650253D01*
X-2716805Y31649857D01*
X-2687826Y31633615D01*
X-2658399Y31618222D01*
X-2657479Y31616607D01*
X-2655855Y31615696D01*
X-2640258Y31586366D01*
X-2623824Y31557507D01*
X-2623924Y31555649D01*
X-2623050Y31554006D01*
X-2620500Y31528989D01*
X-2620500Y31374500D01*
X-2640185Y31307461D01*
X-2692989Y31261706D01*
X-2744500Y31250500D01*
X-2964751Y31250500D01*
X-3035209Y31236485D01*
X-3035903Y31239971D01*
X-3084683Y31234739D01*
X-3147154Y31266030D01*
X-3182791Y31326128D01*
X-3180279Y31395953D01*
X-3154224Y31440354D01*
X-2999180Y31610231D01*
X-2974263Y31625352D01*
X-2950924Y31642822D01*
X-2942124Y31644854D01*
X-2939447Y31646478D01*
X-2935527Y31646377D01*
X-2931047Y31647412D01*
X-2931226Y31648311D01*
X-2854790Y31663515D01*
X-2854536Y31662238D01*
X-2846917Y31663057D01*
X-2827479Y31670063D01*
X-2801636Y31667928D01*
G37*
%TD.AperFunction*%
%TA.AperFunction,NonConductor*%
G36*
X1257110Y31634012D02*
G01*
X1292775Y31573931D01*
X1290297Y31504105D01*
X1250462Y31446704D01*
X1246946Y31443972D01*
X1197811Y31407189D01*
X1116856Y31299049D01*
X1096011Y31283446D01*
X1077720Y31264916D01*
X1066636Y31261457D01*
X1060922Y31257179D01*
X1044732Y31252368D01*
X1036405Y31250500D01*
X1035252Y31250500D01*
X976769Y31238867D01*
X972837Y31236240D01*
X957142Y31232719D01*
X932517Y31234320D01*
X907977Y31231683D01*
X889462Y31237120D01*
X887420Y31237252D01*
X886370Y31238028D01*
X884091Y31238697D01*
X849275Y31245622D01*
X787364Y31278007D01*
X752790Y31338723D01*
X750529Y31383433D01*
X751374Y31389854D01*
X751376Y31389858D01*
X751376Y31501894D01*
X750399Y31509314D01*
X761164Y31578349D01*
X807544Y31630605D01*
X873338Y31649500D01*
X1074750Y31649500D01*
X1074751Y31649501D01*
X1089485Y31652432D01*
X1145210Y31663515D01*
X1145904Y31660024D01*
X1194623Y31665273D01*
X1257110Y31634012D01*
G37*
%TD.AperFunction*%
%TA.AperFunction,NonConductor*%
G36*
X-163004Y30029815D02*
G01*
X-117249Y29977011D01*
X-115481Y29972951D01*
X-113020Y29967009D01*
X-86683Y29921392D01*
X-86682Y29921391D01*
X-73461Y29898490D01*
X506106Y29318923D01*
X529991Y29285362D01*
X535145Y29274737D01*
X538608Y29261814D01*
X556166Y29231402D01*
X558118Y29227379D01*
X563183Y29197153D01*
X570412Y29167359D01*
X568906Y29163009D01*
X569667Y29158470D01*
X557588Y29130307D01*
X547560Y29101332D01*
X543940Y29098486D01*
X542127Y29094257D01*
X516738Y29077094D01*
X492638Y29058141D01*
X486218Y29056462D01*
X484243Y29055126D01*
X480809Y29055047D01*
X471926Y29052723D01*
X471958Y29052603D01*
X464109Y29050500D01*
X464108Y29050500D01*
X415787Y29037553D01*
X336812Y29016392D01*
X222686Y28950500D01*
X202987Y28930801D01*
X141663Y28897317D01*
X71971Y28902303D01*
X16038Y28944176D01*
X529Y28976109D01*
X-500Y28975682D01*
X-3608Y28983186D01*
X-27746Y29024994D01*
X-69500Y29097314D01*
X-162686Y29190500D01*
X-234857Y29232168D01*
X-276813Y29256392D01*
X-384933Y29285362D01*
X-404108Y29290500D01*
X-404109Y29290500D01*
X-408500Y29290500D01*
X-412069Y29291548D01*
X-412168Y29291561D01*
X-412166Y29291577D01*
X-475539Y29310185D01*
X-521294Y29362989D01*
X-532500Y29414500D01*
X-532500Y29925500D01*
X-529950Y29934186D01*
X-531238Y29943147D01*
X-520260Y29967188D01*
X-512815Y29992539D01*
X-505975Y29998467D01*
X-502213Y30006703D01*
X-479979Y30020993D01*
X-460011Y30038294D01*
X-449497Y30040582D01*
X-443435Y30044477D01*
X-408500Y30049500D01*
X-230043Y30049500D01*
X-163004Y30029815D01*
G37*
%TD.AperFunction*%
%TA.AperFunction,NonConductor*%
G36*
X-1214166Y29348350D02*
G01*
X-1158233Y29306478D01*
X-1133816Y29241014D01*
X-1133500Y29232168D01*
X-1133500Y29113438D01*
X-1113021Y29037011D01*
X-1081945Y28983186D01*
X-1073460Y28968489D01*
X-1004169Y28899198D01*
X-1001694Y28896405D01*
X-988360Y28868043D01*
X-973334Y28840526D01*
X-972715Y28834768D01*
X-971966Y28833175D01*
X-972285Y28830768D01*
X-970500Y28814167D01*
X-970500Y28724108D01*
X-962860Y28695592D01*
X-964522Y28625744D01*
X-1003684Y28567881D01*
X-1067913Y28540377D01*
X-1082634Y28539500D01*
X-1543324Y28539500D01*
X-1610363Y28559185D01*
X-1656118Y28611989D01*
X-1666062Y28681147D01*
X-1637037Y28744703D01*
X-1631005Y28751181D01*
X-1594500Y28787686D01*
X-1528608Y28901814D01*
X-1494500Y29029108D01*
X-1494500Y29119168D01*
X-1485856Y29148609D01*
X-1479332Y29178595D01*
X-1475578Y29183611D01*
X-1474815Y29186207D01*
X-1458181Y29206849D01*
X-1345181Y29319849D01*
X-1283858Y29353334D01*
X-1214166Y29348350D01*
G37*
%TD.AperFunction*%
%TA.AperFunction,NonConductor*%
G36*
X-505237Y27918815D02*
G01*
X-459482Y27866011D01*
X-449538Y27796853D01*
X-478563Y27733297D01*
X-503383Y27711399D01*
X-525831Y27696399D01*
X-592508Y27675520D01*
X-594724Y27675500D01*
X-959943Y27675500D01*
X-1026982Y27695185D01*
X-1048429Y27712631D01*
X-1055822Y27720162D01*
X-1055935Y27720404D01*
X-1062779Y27727248D01*
X-1063155Y27727631D01*
X-1079371Y27757990D01*
X-1095835Y27788142D01*
X-1095793Y27788736D01*
X-1096073Y27789260D01*
X-1093306Y27823511D01*
X-1090851Y27857834D01*
X-1090494Y27858312D01*
X-1090446Y27858903D01*
X-1069595Y27886229D01*
X-1048979Y27913767D01*
X-1048423Y27913975D01*
X-1048061Y27914448D01*
X-1015725Y27926171D01*
X-983515Y27938184D01*
X-982483Y27938221D01*
X-982375Y27938260D01*
X-982241Y27938230D01*
X-974669Y27938500D01*
X-572276Y27938500D01*
X-505237Y27918815D01*
G37*
%TD.AperFunction*%
%TA.AperFunction,NonConductor*%
G36*
X1007554Y28249838D02*
G01*
X1037987Y28247661D01*
X1041788Y28244816D01*
X1046488Y28244126D01*
X1069494Y28224075D01*
X1093921Y28205790D01*
X1096570Y28200478D01*
X1099161Y28198220D01*
X1113731Y28166074D01*
X1157969Y28013804D01*
X1240278Y27874626D01*
X1240285Y27874617D01*
X1273266Y27841636D01*
X1306751Y27780313D01*
X1301767Y27710621D01*
X1259895Y27654688D01*
X1233048Y27639398D01*
X1231772Y27638870D01*
X1165447Y27594553D01*
X1121132Y27528231D01*
X1121131Y27528230D01*
X1109500Y27469753D01*
X1109500Y26276499D01*
X1089815Y26209460D01*
X1037011Y26163705D01*
X967853Y26153761D01*
X904297Y26182786D01*
X870939Y26229045D01*
X863842Y26246177D01*
X773679Y26363680D01*
X676912Y26437932D01*
X666083Y26452763D01*
X651614Y26464069D01*
X642530Y26485019D01*
X635710Y26494360D01*
X635345Y26495390D01*
X632476Y26503596D01*
X620240Y26565117D01*
X600801Y26594209D01*
X595602Y26609083D01*
X594597Y26628875D01*
X588676Y26647786D01*
X592864Y26663054D01*
X592062Y26678863D01*
X601917Y26696055D01*
X607160Y26715167D01*
X609517Y26718836D01*
X620240Y26734883D01*
X635500Y26811599D01*
X635499Y26988400D01*
X620240Y27065117D01*
X620239Y27065119D01*
X620238Y27065122D01*
X609555Y27081109D01*
X588676Y27147786D01*
X607160Y27215167D01*
X609517Y27218836D01*
X620240Y27234883D01*
X635500Y27311599D01*
X635499Y27488400D01*
X620240Y27565117D01*
X620239Y27565119D01*
X620238Y27565121D01*
X571456Y27638127D01*
X562112Y27652112D01*
X475117Y27710240D01*
X475115Y27710241D01*
X475112Y27710242D01*
X398404Y27725500D01*
X393365Y27725500D01*
X361176Y27734952D01*
X328749Y27743666D01*
X327749Y27744767D01*
X326326Y27745185D01*
X304362Y27770532D01*
X281789Y27795401D01*
X281543Y27796867D01*
X280571Y27797989D01*
X275793Y27831217D01*
X270253Y27864312D01*
X270838Y27865677D01*
X270627Y27867147D01*
X284569Y27897678D01*
X297804Y27928520D01*
X299190Y27929692D01*
X299652Y27930703D01*
X323938Y27952242D01*
X333197Y27958499D01*
X334989Y27958979D01*
X403511Y27998540D01*
X426557Y28021587D01*
X436406Y28028242D01*
X458822Y28035390D01*
X479472Y28046666D01*
X501674Y28049053D01*
X502973Y28049467D01*
X503702Y28049271D01*
X505833Y28049500D01*
X595890Y28049500D01*
X595892Y28049500D01*
X723186Y28083608D01*
X837314Y28149500D01*
X906976Y28219163D01*
X911141Y28221437D01*
X913720Y28225424D01*
X941511Y28238021D01*
X968295Y28252645D01*
X973031Y28252307D01*
X977358Y28254267D01*
X1007554Y28249838D01*
G37*
%TD.AperFunction*%
%TA.AperFunction,NonConductor*%
G36*
X-1689297Y22278880D02*
G01*
X-1682819Y22272848D01*
X-1052182Y21642211D01*
X-1018697Y21580888D01*
X-1023681Y21511196D01*
X-1065553Y21455263D01*
X-1107769Y21434756D01*
X-1193324Y21411831D01*
X-1193326Y21411831D01*
X-1193326Y21411830D01*
X-1307452Y21345939D01*
X-1307456Y21345936D01*
X-1359813Y21293579D01*
X-1421136Y21260095D01*
X-1490828Y21265080D01*
X-1509490Y21273872D01*
X-1521111Y21280581D01*
X-1521110Y21280581D01*
X-1530506Y21283099D01*
X-1635691Y21311283D01*
X-1754309Y21311283D01*
X-1754316Y21311283D01*
X-1754324Y21311282D01*
X-1754330Y21311283D01*
X-1762436Y21311283D01*
X-1762436Y21312548D01*
X-1823359Y21322053D01*
X-1875611Y21368437D01*
X-1894500Y21434222D01*
X-1894500Y22185167D01*
X-1874815Y22252206D01*
X-1822011Y22297961D01*
X-1752853Y22307905D01*
X-1689297Y22278880D01*
G37*
%TD.AperFunction*%
%TA.AperFunction,NonConductor*%
G36*
X3958834Y25086706D02*
G01*
X4014767Y25044834D01*
X4039184Y24979370D01*
X4039500Y24970524D01*
X4039500Y22933800D01*
X4019815Y22866761D01*
X4003181Y22846119D01*
X2741847Y21584785D01*
X2680524Y21551300D01*
X2654166Y21548466D01*
X2564108Y21548466D01*
X2436812Y21514358D01*
X2322686Y21448466D01*
X2322683Y21448464D01*
X2229502Y21355283D01*
X2229500Y21355280D01*
X2163608Y21241154D01*
X2158331Y21221457D01*
X2145484Y21173516D01*
X2109121Y21113856D01*
X2046275Y21083327D01*
X2025711Y21081610D01*
X1348917Y21081610D01*
X1335881Y21078117D01*
X1266031Y21079782D01*
X1208170Y21118947D01*
X1187746Y21158569D01*
X1187122Y21158310D01*
X1184025Y21165788D01*
X1184016Y21165805D01*
X1184013Y21165816D01*
X1140516Y21241154D01*
X1118122Y21279942D01*
X1024936Y21373128D01*
X967872Y21406074D01*
X910809Y21439020D01*
X847161Y21456074D01*
X783514Y21473128D01*
X651730Y21473128D01*
X546593Y21444957D01*
X476743Y21446620D01*
X418881Y21485783D01*
X391377Y21550012D01*
X390500Y21564732D01*
X390500Y22319561D01*
X390500Y22319562D01*
X370021Y22395989D01*
X360752Y22412044D01*
X330464Y22464505D01*
X330458Y22464513D01*
X-42043Y22837014D01*
X-42051Y22837020D01*
X-110560Y22876573D01*
X-110565Y22876576D01*
X-136042Y22883403D01*
X-186993Y22897055D01*
X-186995Y22897055D01*
X-216482Y22897055D01*
X-283521Y22916740D01*
X-329276Y22969544D01*
X-336257Y22988962D01*
X-371192Y23119341D01*
X-380020Y23134632D01*
X-437083Y23233467D01*
X-530269Y23326653D01*
X-611699Y23373667D01*
X-644396Y23392545D01*
X-720588Y23412960D01*
X-771691Y23426653D01*
X-903475Y23426653D01*
X-1022368Y23394797D01*
X-1092217Y23396459D01*
X-1150079Y23435622D01*
X-1161847Y23452571D01*
X-1174511Y23474506D01*
X-1267697Y23567692D01*
X-1278139Y23573721D01*
X-1294891Y23583393D01*
X-1343105Y23633961D01*
X-1356327Y23702568D01*
X-1330358Y23767432D01*
X-1320588Y23778441D01*
X-1018845Y24080184D01*
X-957524Y24113666D01*
X-931166Y24116500D01*
X-627968Y24116500D01*
X-627967Y24116500D01*
X-526709Y24158443D01*
X-516971Y24168181D01*
X-455648Y24201666D01*
X-429290Y24204500D01*
X2914799Y24204500D01*
X2914800Y24204500D01*
X3016058Y24246443D01*
X3093557Y24323942D01*
X3093556Y24323942D01*
X3152125Y24382511D01*
X3827820Y25058206D01*
X3889142Y25091690D01*
X3958834Y25086706D01*
G37*
%TD.AperFunction*%
%TA.AperFunction,NonConductor*%
G36*
X2239579Y20475701D02*
G01*
X2257001Y20475817D01*
X2272405Y20466063D01*
X2289900Y20460925D01*
X2301309Y20447759D01*
X2316030Y20438436D01*
X2335309Y20408873D01*
X2339849Y20399105D01*
X2349979Y20361300D01*
X2383588Y20303088D01*
X2388137Y20295208D01*
X2390448Y20290236D01*
X2402000Y20237973D01*
X2402000Y19420961D01*
X2382315Y19353922D01*
X2365681Y19333280D01*
X2344348Y19311947D01*
X2283025Y19278462D01*
X2256667Y19275628D01*
X1454500Y19275628D01*
X1387461Y19295313D01*
X1341706Y19348117D01*
X1330500Y19399628D01*
X1330500Y20246795D01*
X1350185Y20313834D01*
X1366819Y20334476D01*
X1476634Y20444291D01*
X1537957Y20477776D01*
X1564315Y20480610D01*
X2222861Y20480610D01*
X2239579Y20475701D01*
G37*
%TD.AperFunction*%
%TA.AperFunction,NonConductor*%
G36*
X-3003677Y27034613D02*
G01*
X-2986330Y27034750D01*
X-2970849Y27024974D01*
X-2953282Y27019815D01*
X-2941719Y27006577D01*
X-2927254Y26997442D01*
X-2907941Y26967907D01*
X-2904065Y26959596D01*
X-2820404Y26875935D01*
X-2713173Y26825932D01*
X-2664317Y26819500D01*
X-2664316Y26819500D01*
X-2659478Y26819500D01*
X-2592439Y26799815D01*
X-2546684Y26747011D01*
X-2536740Y26677853D01*
X-2565765Y26614297D01*
X-2571797Y26607819D01*
X-4326058Y24853557D01*
X-4403556Y24776060D01*
X-4445500Y24674801D01*
X-4445500Y20347801D01*
X-4454938Y20300350D01*
X-4455967Y20297867D01*
X-4470500Y20224805D01*
X-4470500Y19399628D01*
X-4490185Y19332589D01*
X-4542989Y19286834D01*
X-4594500Y19275628D01*
X-5682067Y19275628D01*
X-5703136Y19269982D01*
X-5712802Y19270213D01*
X-5721728Y19266494D01*
X-5747163Y19271031D01*
X-5772986Y19271646D01*
X-5782825Y19277392D01*
X-5790512Y19278763D01*
X-5813502Y19295307D01*
X-5819543Y19298835D01*
X-5824096Y19303057D01*
X-5824276Y19303444D01*
X-5909184Y19388352D01*
X-5923043Y19394815D01*
X-5937316Y19408051D01*
X-5945645Y19422025D01*
X-5957853Y19432777D01*
X-5963323Y19451686D01*
X-5973087Y19468069D01*
X-5972563Y19483631D01*
X-5977000Y19498973D01*
X-5977000Y22996668D01*
X-5957315Y23063707D01*
X-5940685Y23084345D01*
X-5371849Y23653182D01*
X-5310526Y23686666D01*
X-5284168Y23689500D01*
X-5194110Y23689500D01*
X-5194108Y23689500D01*
X-5066814Y23723608D01*
X-4952686Y23789500D01*
X-4859500Y23882686D01*
X-4793608Y23996814D01*
X-4759500Y24124108D01*
X-4759500Y24255892D01*
X-4793608Y24383186D01*
X-4859500Y24497314D01*
X-4923182Y24560996D01*
X-4956666Y24622320D01*
X-4959500Y24648677D01*
X-4959500Y25174167D01*
X-4939815Y25241206D01*
X-4923181Y25261848D01*
X-3181848Y27003181D01*
X-3120525Y27036666D01*
X-3094167Y27039500D01*
X-3020321Y27039500D01*
X-3003677Y27034613D01*
G37*
%TD.AperFunction*%
%TA.AperFunction,NonConductor*%
G36*
X3478773Y13911526D02*
G01*
X3526384Y13860389D01*
X3539500Y13804884D01*
X3539500Y13015373D01*
X3519815Y12948334D01*
X3467011Y12902579D01*
X3397853Y12892635D01*
X3334297Y12921660D01*
X3300939Y12967919D01*
X3298264Y12974377D01*
X3273557Y13034024D01*
X3273557Y13034025D01*
X3273556Y13034026D01*
X3273555Y13034028D01*
X3186057Y13121524D01*
X3186055Y13121526D01*
X3084803Y13163464D01*
X3084801Y13163465D01*
X3084800Y13163465D01*
X2975200Y13163465D01*
X2975198Y13163465D01*
X2975196Y13163464D01*
X2873944Y13121526D01*
X2796440Y13044022D01*
X2754502Y12942770D01*
X2754501Y12942767D01*
X2754501Y12942766D01*
X2754501Y12833166D01*
X2755062Y12831811D01*
X2764500Y12784362D01*
X2764500Y12448799D01*
X2744815Y12381760D01*
X2728181Y12361118D01*
X2687794Y12320732D01*
X2642415Y12217960D01*
X2642415Y12217958D01*
X2639500Y12192835D01*
X2639500Y12094818D01*
X2631001Y12065875D01*
X2624842Y12036334D01*
X2620996Y12031803D01*
X2619815Y12027779D01*
X2603936Y12007898D01*
X2431681Y11832640D01*
X2407527Y11819179D01*
X2385193Y11802871D01*
X2377436Y11802409D01*
X2370649Y11798626D01*
X2343049Y11800361D01*
X2315446Y11798716D01*
X2308563Y11802528D01*
X2300917Y11803008D01*
X2280221Y11818224D01*
X2255564Y11831879D01*
X2229816Y11857627D01*
X2229814Y11857629D01*
X2156921Y11899714D01*
X2115687Y11923521D01*
X2052039Y11940575D01*
X1988392Y11957629D01*
X1856608Y11957629D01*
X1729312Y11923521D01*
X1615186Y11857629D01*
X1615183Y11857627D01*
X1551505Y11793948D01*
X1490182Y11760463D01*
X1463824Y11757629D01*
X202721Y11757629D01*
X135682Y11777314D01*
X115040Y11793948D01*
X-178959Y12087947D01*
X-212444Y12149270D01*
X-207460Y12218962D01*
X-165588Y12274895D01*
X-117237Y12296880D01*
X-104402Y12299628D01*
X-95326Y12299628D01*
X-22260Y12314162D01*
X-15539Y12318654D01*
X4041Y12322845D01*
X28060Y12321048D01*
X52008Y12323624D01*
X71972Y12317763D01*
X73715Y12317632D01*
X74543Y12317008D01*
X77461Y12316151D01*
X82256Y12314165D01*
X82260Y12314162D01*
X82264Y12314162D01*
X82267Y12314160D01*
X155321Y12299629D01*
X155324Y12299628D01*
X155326Y12299628D01*
X304676Y12299628D01*
X304677Y12299629D01*
X329029Y12304473D01*
X377732Y12314160D01*
X377733Y12314161D01*
X377740Y12314162D01*
X377745Y12314166D01*
X382539Y12316151D01*
X452008Y12323624D01*
X477461Y12316151D01*
X482256Y12314165D01*
X482260Y12314162D01*
X482264Y12314162D01*
X482267Y12314160D01*
X555321Y12299629D01*
X555324Y12299628D01*
X555326Y12299628D01*
X704676Y12299628D01*
X704677Y12299629D01*
X729029Y12304473D01*
X777732Y12314160D01*
X777733Y12314161D01*
X777740Y12314162D01*
X777745Y12314166D01*
X782539Y12316151D01*
X852008Y12323624D01*
X877461Y12316151D01*
X882256Y12314165D01*
X882260Y12314162D01*
X882264Y12314162D01*
X882267Y12314160D01*
X955321Y12299629D01*
X955324Y12299628D01*
X955326Y12299628D01*
X1104676Y12299628D01*
X1104677Y12299629D01*
X1177740Y12314162D01*
X1260601Y12369527D01*
X1315966Y12452388D01*
X1330500Y12525454D01*
X1330500Y13349802D01*
X1330500Y13350628D01*
X1350185Y13417667D01*
X1402989Y13463422D01*
X1454500Y13474628D01*
X2279676Y13474628D01*
X2316207Y13481895D01*
X2352740Y13489162D01*
X2352743Y13489165D01*
X2355222Y13490190D01*
X2402673Y13499628D01*
X2927637Y13499628D01*
X2927638Y13499628D01*
X3028896Y13541571D01*
X3106395Y13619070D01*
X3106394Y13619070D01*
X3273558Y13786232D01*
X3300939Y13852338D01*
X3344780Y13906740D01*
X3411074Y13928805D01*
X3478773Y13911526D01*
G37*
%TD.AperFunction*%
%TA.AperFunction,NonConductor*%
G36*
X1357362Y11136944D02*
G01*
X1403117Y11084140D01*
X1413061Y11014982D01*
X1384036Y10951426D01*
X1378004Y10944948D01*
X1323501Y10890446D01*
X1272752Y10781615D01*
X1266225Y10732031D01*
X1266225Y10716074D01*
X1259986Y10694829D01*
X1258407Y10672740D01*
X1250334Y10661957D01*
X1246540Y10649035D01*
X1229806Y10634536D01*
X1216535Y10616807D01*
X1203914Y10612100D01*
X1193736Y10603280D01*
X1171818Y10600129D01*
X1151071Y10592390D01*
X1137910Y10595253D01*
X1124578Y10593336D01*
X1104434Y10602536D01*
X1082798Y10607242D01*
X1065072Y10620511D01*
X1061022Y10622361D01*
X1054544Y10628393D01*
X951086Y10731851D01*
X917601Y10793174D01*
X915830Y10803331D01*
X913972Y10817453D01*
X863224Y10926282D01*
X844558Y10944948D01*
X811073Y11006271D01*
X816057Y11075963D01*
X857929Y11131896D01*
X923393Y11156313D01*
X932239Y11156629D01*
X1290323Y11156629D01*
X1357362Y11136944D01*
G37*
%TD.AperFunction*%
M02*
