%TF.GenerationSoftware,KiCad,Pcbnew,9.0.2*%
%TF.CreationDate,2026-02-14T14:17:21-05:00*%
%TF.ProjectId,RP2040_minimal_r2,52503230-3430-45f6-9d69-6e696d616c5f,REV2*%
%TF.SameCoordinates,Original*%
%TF.FileFunction,Legend,Bot*%
%TF.FilePolarity,Positive*%
%FSLAX46Y46*%
G04 Gerber Fmt 4.6, Leading zero omitted, Abs format (unit mm)*
G04 Created by KiCad (PCBNEW 9.0.2) date 2026-02-14 14:17:21*
%MOMM*%
%LPD*%
G01*
G04 APERTURE LIST*
%ADD10C,0.150000*%
%ADD11C,0.120000*%
%ADD12C,0.200000*%
%ADD13C,0.127000*%
G04 APERTURE END LIST*
D10*
X2324819Y13304633D02*
X1848628Y13637966D01*
X2324819Y13876061D02*
X1324819Y13876061D01*
X1324819Y13876061D02*
X1324819Y13495109D01*
X1324819Y13495109D02*
X1372438Y13399871D01*
X1372438Y13399871D02*
X1420057Y13352252D01*
X1420057Y13352252D02*
X1515295Y13304633D01*
X1515295Y13304633D02*
X1658152Y13304633D01*
X1658152Y13304633D02*
X1753390Y13352252D01*
X1753390Y13352252D02*
X1801009Y13399871D01*
X1801009Y13399871D02*
X1848628Y13495109D01*
X1848628Y13495109D02*
X1848628Y13876061D01*
X1753390Y12733204D02*
X1705771Y12828442D01*
X1705771Y12828442D02*
X1658152Y12876061D01*
X1658152Y12876061D02*
X1562914Y12923680D01*
X1562914Y12923680D02*
X1515295Y12923680D01*
X1515295Y12923680D02*
X1420057Y12876061D01*
X1420057Y12876061D02*
X1372438Y12828442D01*
X1372438Y12828442D02*
X1324819Y12733204D01*
X1324819Y12733204D02*
X1324819Y12542728D01*
X1324819Y12542728D02*
X1372438Y12447490D01*
X1372438Y12447490D02*
X1420057Y12399871D01*
X1420057Y12399871D02*
X1515295Y12352252D01*
X1515295Y12352252D02*
X1562914Y12352252D01*
X1562914Y12352252D02*
X1658152Y12399871D01*
X1658152Y12399871D02*
X1705771Y12447490D01*
X1705771Y12447490D02*
X1753390Y12542728D01*
X1753390Y12542728D02*
X1753390Y12733204D01*
X1753390Y12733204D02*
X1801009Y12828442D01*
X1801009Y12828442D02*
X1848628Y12876061D01*
X1848628Y12876061D02*
X1943866Y12923680D01*
X1943866Y12923680D02*
X2134342Y12923680D01*
X2134342Y12923680D02*
X2229580Y12876061D01*
X2229580Y12876061D02*
X2277200Y12828442D01*
X2277200Y12828442D02*
X2324819Y12733204D01*
X2324819Y12733204D02*
X2324819Y12542728D01*
X2324819Y12542728D02*
X2277200Y12447490D01*
X2277200Y12447490D02*
X2229580Y12399871D01*
X2229580Y12399871D02*
X2134342Y12352252D01*
X2134342Y12352252D02*
X1943866Y12352252D01*
X1943866Y12352252D02*
X1848628Y12399871D01*
X1848628Y12399871D02*
X1801009Y12447490D01*
X1801009Y12447490D02*
X1753390Y12542728D01*
D11*
%TO.C,C9*%
X-207836Y20257966D02*
X7836Y20257966D01*
X-207836Y19537966D02*
X7836Y19537966D01*
D12*
%TO.C,U4*%
X191000Y25040000D02*
G75*
G02*
X-9000Y25040000I-100000J0D01*
G01*
X-9000Y25040000D02*
G75*
G02*
X191000Y25040000I100000J0D01*
G01*
D13*
X3410000Y24440000D02*
X3410000Y24540000D01*
X3410000Y24440000D02*
X1710000Y24440000D01*
X3410000Y27540000D02*
X3410000Y27440000D01*
X3410000Y27540000D02*
X1710000Y27540000D01*
X1710000Y24440000D02*
X1710000Y24540000D01*
X1710000Y27540000D02*
X1710000Y27440000D01*
D11*
%TO.C,C10*%
X3272500Y20312964D02*
X3272500Y20097292D01*
X3992500Y20312964D02*
X3992500Y20097292D01*
%TO.C,C8*%
X-4024664Y19060804D02*
X-4240336Y19060804D01*
X-4024664Y18340804D02*
X-4240336Y18340804D01*
%TO.C,C12*%
X2662500Y16427292D02*
X2662500Y16642964D01*
X3382500Y16427292D02*
X3382500Y16642964D01*
%TO.C,R3*%
X-3950000Y26573641D02*
X-3950000Y26266359D01*
X-3190000Y26573641D02*
X-3190000Y26266359D01*
%TO.C,C1*%
X3012164Y28670000D02*
X3227836Y28670000D01*
X3012164Y27950000D02*
X3227836Y27950000D01*
%TO.C,R4*%
X-2560000Y26523641D02*
X-2560000Y26216359D01*
X-1800000Y26523641D02*
X-1800000Y26216359D01*
%TO.C,C6*%
X-4052164Y20087966D02*
X-4267836Y20087966D01*
X-4052164Y19367966D02*
X-4267836Y19367966D01*
%TO.C,R7*%
X-640000Y26386359D02*
X-640000Y26693641D01*
X120000Y26386359D02*
X120000Y26693641D01*
%TO.C,R8*%
X2670000Y13245802D02*
X2670000Y13030130D01*
X3390000Y13245802D02*
X3390000Y13030130D01*
%TO.C,C4*%
X160000Y24492164D02*
X160000Y24707836D01*
X-560000Y24492164D02*
X-560000Y24707836D01*
%TO.C,C15*%
X2260336Y20255128D02*
X2044664Y20255128D01*
X2260336Y19535128D02*
X2044664Y19535128D01*
%TD*%
%LPC*%
G36*
X3273093Y12974427D02*
G01*
X3335057Y12933023D01*
X3376461Y12871059D01*
X3391000Y12797966D01*
X3391000Y12517966D01*
X3376461Y12444873D01*
X3335057Y12382909D01*
X3273093Y12341505D01*
X3200000Y12326966D01*
X2860000Y12326966D01*
X2786907Y12341505D01*
X2724943Y12382909D01*
X2683539Y12444873D01*
X2669000Y12517966D01*
X2669000Y12797966D01*
X2683539Y12871059D01*
X2724943Y12933023D01*
X2786907Y12974427D01*
X2860000Y12988966D01*
X3200000Y12988966D01*
X3273093Y12974427D01*
G37*
G36*
X3273093Y13934427D02*
G01*
X3335057Y13893023D01*
X3376461Y13831059D01*
X3391000Y13757966D01*
X3391000Y13477966D01*
X3376461Y13404873D01*
X3335057Y13342909D01*
X3273093Y13301505D01*
X3200000Y13286966D01*
X2860000Y13286966D01*
X2786907Y13301505D01*
X2724943Y13342909D01*
X2683539Y13404873D01*
X2669000Y13477966D01*
X2669000Y13757966D01*
X2683539Y13831059D01*
X2724943Y13893023D01*
X2786907Y13934427D01*
X2860000Y13948966D01*
X3200000Y13948966D01*
X3273093Y13934427D01*
G37*
G36*
X3265593Y16371589D02*
G01*
X3327557Y16330185D01*
X3368961Y16268221D01*
X3383500Y16195128D01*
X3383500Y15915128D01*
X3368961Y15842035D01*
X3327557Y15780071D01*
X3265593Y15738667D01*
X3192500Y15724128D01*
X2852500Y15724128D01*
X2779407Y15738667D01*
X2717443Y15780071D01*
X2676039Y15842035D01*
X2661500Y15915128D01*
X2661500Y16195128D01*
X2676039Y16268221D01*
X2717443Y16330185D01*
X2779407Y16371589D01*
X2852500Y16386128D01*
X3192500Y16386128D01*
X3265593Y16371589D01*
G37*
G36*
X3265593Y17331589D02*
G01*
X3327557Y17290185D01*
X3368961Y17228221D01*
X3383500Y17155128D01*
X3383500Y16875128D01*
X3368961Y16802035D01*
X3327557Y16740071D01*
X3265593Y16698667D01*
X3192500Y16684128D01*
X2852500Y16684128D01*
X2779407Y16698667D01*
X2717443Y16740071D01*
X2676039Y16802035D01*
X2661500Y16875128D01*
X2661500Y17155128D01*
X2676039Y17228221D01*
X2717443Y17290185D01*
X2779407Y17331589D01*
X2852500Y17346128D01*
X3192500Y17346128D01*
X3265593Y17331589D01*
G37*
G36*
X-4399407Y19047265D02*
G01*
X-4337443Y19005861D01*
X-4296039Y18943897D01*
X-4281500Y18870804D01*
X-4281500Y18530804D01*
X-4296039Y18457711D01*
X-4337443Y18395747D01*
X-4399407Y18354343D01*
X-4472500Y18339804D01*
X-4752500Y18339804D01*
X-4825593Y18354343D01*
X-4887557Y18395747D01*
X-4928961Y18457711D01*
X-4943500Y18530804D01*
X-4943500Y18870804D01*
X-4928961Y18943897D01*
X-4887557Y19005861D01*
X-4825593Y19047265D01*
X-4752500Y19061804D01*
X-4472500Y19061804D01*
X-4399407Y19047265D01*
G37*
G36*
X-3439407Y19047265D02*
G01*
X-3377443Y19005861D01*
X-3336039Y18943897D01*
X-3321500Y18870804D01*
X-3321500Y18530804D01*
X-3336039Y18457711D01*
X-3377443Y18395747D01*
X-3439407Y18354343D01*
X-3512500Y18339804D01*
X-3792500Y18339804D01*
X-3865593Y18354343D01*
X-3927557Y18395747D01*
X-3968961Y18457711D01*
X-3983500Y18530804D01*
X-3983500Y18870804D01*
X-3968961Y18943897D01*
X-3927557Y19005861D01*
X-3865593Y19047265D01*
X-3792500Y19061804D01*
X-3512500Y19061804D01*
X-3439407Y19047265D01*
G37*
G36*
X-4426907Y20074427D02*
G01*
X-4364943Y20033023D01*
X-4323539Y19971059D01*
X-4309000Y19897966D01*
X-4309000Y19557966D01*
X-4323539Y19484873D01*
X-4364943Y19422909D01*
X-4426907Y19381505D01*
X-4500000Y19366966D01*
X-4780000Y19366966D01*
X-4853093Y19381505D01*
X-4915057Y19422909D01*
X-4956461Y19484873D01*
X-4971000Y19557966D01*
X-4971000Y19897966D01*
X-4956461Y19971059D01*
X-4915057Y20033023D01*
X-4853093Y20074427D01*
X-4780000Y20088966D01*
X-4500000Y20088966D01*
X-4426907Y20074427D01*
G37*
G36*
X-3466907Y20074427D02*
G01*
X-3404943Y20033023D01*
X-3363539Y19971059D01*
X-3349000Y19897966D01*
X-3349000Y19557966D01*
X-3363539Y19484873D01*
X-3404943Y19422909D01*
X-3466907Y19381505D01*
X-3540000Y19366966D01*
X-3820000Y19366966D01*
X-3893093Y19381505D01*
X-3955057Y19422909D01*
X-3996461Y19484873D01*
X-4011000Y19557966D01*
X-4011000Y19897966D01*
X-3996461Y19971059D01*
X-3955057Y20033023D01*
X-3893093Y20074427D01*
X-3820000Y20088966D01*
X-3540000Y20088966D01*
X-3466907Y20074427D01*
G37*
G36*
X3875593Y20041589D02*
G01*
X3937557Y20000185D01*
X3978961Y19938221D01*
X3993500Y19865128D01*
X3993500Y19585128D01*
X3978961Y19512035D01*
X3937557Y19450071D01*
X3875593Y19408667D01*
X3802500Y19394128D01*
X3462500Y19394128D01*
X3389407Y19408667D01*
X3327443Y19450071D01*
X3286039Y19512035D01*
X3271500Y19585128D01*
X3271500Y19865128D01*
X3286039Y19938221D01*
X3327443Y20000185D01*
X3389407Y20041589D01*
X3462500Y20056128D01*
X3802500Y20056128D01*
X3875593Y20041589D01*
G37*
G36*
X1885593Y20241589D02*
G01*
X1947557Y20200185D01*
X1988961Y20138221D01*
X2003500Y20065128D01*
X2003500Y19725128D01*
X1988961Y19652035D01*
X1947557Y19590071D01*
X1885593Y19548667D01*
X1812500Y19534128D01*
X1532500Y19534128D01*
X1459407Y19548667D01*
X1397443Y19590071D01*
X1356039Y19652035D01*
X1341500Y19725128D01*
X1341500Y20065128D01*
X1356039Y20138221D01*
X1397443Y20200185D01*
X1459407Y20241589D01*
X1532500Y20256128D01*
X1812500Y20256128D01*
X1885593Y20241589D01*
G37*
G36*
X2845593Y20241589D02*
G01*
X2907557Y20200185D01*
X2948961Y20138221D01*
X2963500Y20065128D01*
X2963500Y19725128D01*
X2948961Y19652035D01*
X2907557Y19590071D01*
X2845593Y19548667D01*
X2772500Y19534128D01*
X2492500Y19534128D01*
X2419407Y19548667D01*
X2357443Y19590071D01*
X2316039Y19652035D01*
X2301500Y19725128D01*
X2301500Y20065128D01*
X2316039Y20138221D01*
X2357443Y20200185D01*
X2419407Y20241589D01*
X2492500Y20256128D01*
X2772500Y20256128D01*
X2845593Y20241589D01*
G37*
G36*
X-366907Y20244427D02*
G01*
X-304943Y20203023D01*
X-263539Y20141059D01*
X-249000Y20067966D01*
X-249000Y19727966D01*
X-263539Y19654873D01*
X-304943Y19592909D01*
X-366907Y19551505D01*
X-440000Y19536966D01*
X-720000Y19536966D01*
X-793093Y19551505D01*
X-855057Y19592909D01*
X-896461Y19654873D01*
X-911000Y19727966D01*
X-911000Y20067966D01*
X-896461Y20141059D01*
X-855057Y20203023D01*
X-793093Y20244427D01*
X-720000Y20258966D01*
X-440000Y20258966D01*
X-366907Y20244427D01*
G37*
G36*
X593093Y20244427D02*
G01*
X655057Y20203023D01*
X696461Y20141059D01*
X711000Y20067966D01*
X711000Y19727966D01*
X696461Y19654873D01*
X655057Y19592909D01*
X593093Y19551505D01*
X520000Y19536966D01*
X240000Y19536966D01*
X166907Y19551505D01*
X104943Y19592909D01*
X63539Y19654873D01*
X49000Y19727966D01*
X49000Y20067966D01*
X63539Y20141059D01*
X104943Y20203023D01*
X166907Y20244427D01*
X240000Y20258966D01*
X520000Y20258966D01*
X593093Y20244427D01*
G37*
G36*
X3875593Y21001589D02*
G01*
X3937557Y20960185D01*
X3978961Y20898221D01*
X3993500Y20825128D01*
X3993500Y20545128D01*
X3978961Y20472035D01*
X3937557Y20410071D01*
X3875593Y20368667D01*
X3802500Y20354128D01*
X3462500Y20354128D01*
X3389407Y20368667D01*
X3327443Y20410071D01*
X3286039Y20472035D01*
X3271500Y20545128D01*
X3271500Y20825128D01*
X3286039Y20898221D01*
X3327443Y20960185D01*
X3389407Y21001589D01*
X3462500Y21016128D01*
X3802500Y21016128D01*
X3875593Y21001589D01*
G37*
G36*
X43093Y24436461D02*
G01*
X105057Y24395057D01*
X146461Y24333093D01*
X161000Y24260000D01*
X161000Y23980000D01*
X146461Y23906907D01*
X105057Y23844943D01*
X43093Y23803539D01*
X-30000Y23789000D01*
X-370000Y23789000D01*
X-443093Y23803539D01*
X-505057Y23844943D01*
X-546461Y23906907D01*
X-561000Y23980000D01*
X-561000Y24260000D01*
X-546461Y24333093D01*
X-505057Y24395057D01*
X-443093Y24436461D01*
X-370000Y24451000D01*
X-30000Y24451000D01*
X43093Y24436461D01*
G37*
G36*
X2061254Y25430810D02*
G01*
X2108945Y25398945D01*
X2140810Y25351254D01*
X2152000Y25295000D01*
X2152000Y24785000D01*
X2140810Y24728746D01*
X2108945Y24681055D01*
X2061254Y24649190D01*
X2005000Y24638000D01*
X745000Y24638000D01*
X688746Y24649190D01*
X641055Y24681055D01*
X609190Y24728746D01*
X598000Y24785000D01*
X598000Y25295000D01*
X609190Y25351254D01*
X641055Y25398945D01*
X688746Y25430810D01*
X745000Y25442000D01*
X2005000Y25442000D01*
X2061254Y25430810D01*
G37*
G36*
X4431254Y25430810D02*
G01*
X4478945Y25398945D01*
X4510810Y25351254D01*
X4522000Y25295000D01*
X4522000Y24785000D01*
X4510810Y24728746D01*
X4478945Y24681055D01*
X4431254Y24649190D01*
X4375000Y24638000D01*
X3115000Y24638000D01*
X3058746Y24649190D01*
X3011055Y24681055D01*
X2979190Y24728746D01*
X2968000Y24785000D01*
X2968000Y25295000D01*
X2979190Y25351254D01*
X3011055Y25398945D01*
X3058746Y25430810D01*
X3115000Y25442000D01*
X4375000Y25442000D01*
X4431254Y25430810D01*
G37*
G36*
X43093Y25396461D02*
G01*
X105057Y25355057D01*
X146461Y25293093D01*
X161000Y25220000D01*
X161000Y24940000D01*
X146461Y24866907D01*
X105057Y24804943D01*
X43093Y24763539D01*
X-30000Y24749000D01*
X-370000Y24749000D01*
X-443093Y24763539D01*
X-505057Y24804943D01*
X-546461Y24866907D01*
X-561000Y24940000D01*
X-561000Y25220000D01*
X-546461Y25293093D01*
X-505057Y25355057D01*
X-443093Y25396461D01*
X-370000Y25411000D01*
X-30000Y25411000D01*
X43093Y25396461D01*
G37*
G36*
X-1923821Y26166842D02*
G01*
X-1863478Y26126522D01*
X-1823158Y26066179D01*
X-1809000Y25995000D01*
X-1809000Y25725000D01*
X-1823158Y25653821D01*
X-1863478Y25593478D01*
X-1923821Y25553158D01*
X-1995000Y25539000D01*
X-2365000Y25539000D01*
X-2436179Y25553158D01*
X-2496522Y25593478D01*
X-2536842Y25653821D01*
X-2551000Y25725000D01*
X-2551000Y25995000D01*
X-2536842Y26066179D01*
X-2496522Y26126522D01*
X-2436179Y26166842D01*
X-2365000Y26181000D01*
X-1995000Y26181000D01*
X-1923821Y26166842D01*
G37*
G36*
X2061254Y26380810D02*
G01*
X2108945Y26348945D01*
X2140810Y26301254D01*
X2152000Y26245000D01*
X2152000Y25735000D01*
X2140810Y25678746D01*
X2108945Y25631055D01*
X2061254Y25599190D01*
X2005000Y25588000D01*
X745000Y25588000D01*
X688746Y25599190D01*
X641055Y25631055D01*
X609190Y25678746D01*
X598000Y25735000D01*
X598000Y26245000D01*
X609190Y26301254D01*
X641055Y26348945D01*
X688746Y26380810D01*
X745000Y26392000D01*
X2005000Y26392000D01*
X2061254Y26380810D01*
G37*
G36*
X-3313821Y26216842D02*
G01*
X-3253478Y26176522D01*
X-3213158Y26116179D01*
X-3199000Y26045000D01*
X-3199000Y25775000D01*
X-3213158Y25703821D01*
X-3253478Y25643478D01*
X-3313821Y25603158D01*
X-3385000Y25589000D01*
X-3755000Y25589000D01*
X-3826179Y25603158D01*
X-3886522Y25643478D01*
X-3926842Y25703821D01*
X-3941000Y25775000D01*
X-3941000Y26045000D01*
X-3926842Y26116179D01*
X-3886522Y26176522D01*
X-3826179Y26216842D01*
X-3755000Y26231000D01*
X-3385000Y26231000D01*
X-3313821Y26216842D01*
G37*
G36*
X-3821Y26336842D02*
G01*
X56522Y26296522D01*
X96842Y26236179D01*
X111000Y26165000D01*
X111000Y25895000D01*
X96842Y25823821D01*
X56522Y25763478D01*
X-3821Y25723158D01*
X-75000Y25709000D01*
X-445000Y25709000D01*
X-516179Y25723158D01*
X-576522Y25763478D01*
X-616842Y25823821D01*
X-631000Y25895000D01*
X-631000Y26165000D01*
X-616842Y26236179D01*
X-576522Y26296522D01*
X-516179Y26336842D01*
X-445000Y26351000D01*
X-75000Y26351000D01*
X-3821Y26336842D01*
G37*
G36*
X2061254Y27330810D02*
G01*
X2108945Y27298945D01*
X2140810Y27251254D01*
X2152000Y27195000D01*
X2152000Y26685000D01*
X2140810Y26628746D01*
X2108945Y26581055D01*
X2061254Y26549190D01*
X2005000Y26538000D01*
X745000Y26538000D01*
X688746Y26549190D01*
X641055Y26581055D01*
X609190Y26628746D01*
X598000Y26685000D01*
X598000Y27195000D01*
X609190Y27251254D01*
X641055Y27298945D01*
X688746Y27330810D01*
X745000Y27342000D01*
X2005000Y27342000D01*
X2061254Y27330810D01*
G37*
G36*
X4431254Y27330810D02*
G01*
X4478945Y27298945D01*
X4510810Y27251254D01*
X4522000Y27195000D01*
X4522000Y26685000D01*
X4510810Y26628746D01*
X4478945Y26581055D01*
X4431254Y26549190D01*
X4375000Y26538000D01*
X3115000Y26538000D01*
X3058746Y26549190D01*
X3011055Y26581055D01*
X2979190Y26628746D01*
X2968000Y26685000D01*
X2968000Y27195000D01*
X2979190Y27251254D01*
X3011055Y27298945D01*
X3058746Y27330810D01*
X3115000Y27342000D01*
X4375000Y27342000D01*
X4431254Y27330810D01*
G37*
G36*
X-1923821Y27186842D02*
G01*
X-1863478Y27146522D01*
X-1823158Y27086179D01*
X-1809000Y27015000D01*
X-1809000Y26745000D01*
X-1823158Y26673821D01*
X-1863478Y26613478D01*
X-1923821Y26573158D01*
X-1995000Y26559000D01*
X-2365000Y26559000D01*
X-2436179Y26573158D01*
X-2496522Y26613478D01*
X-2536842Y26673821D01*
X-2551000Y26745000D01*
X-2551000Y27015000D01*
X-2536842Y27086179D01*
X-2496522Y27146522D01*
X-2436179Y27186842D01*
X-2365000Y27201000D01*
X-1995000Y27201000D01*
X-1923821Y27186842D01*
G37*
G36*
X-3313821Y27236842D02*
G01*
X-3253478Y27196522D01*
X-3213158Y27136179D01*
X-3199000Y27065000D01*
X-3199000Y26795000D01*
X-3213158Y26723821D01*
X-3253478Y26663478D01*
X-3313821Y26623158D01*
X-3385000Y26609000D01*
X-3755000Y26609000D01*
X-3826179Y26623158D01*
X-3886522Y26663478D01*
X-3926842Y26723821D01*
X-3941000Y26795000D01*
X-3941000Y27065000D01*
X-3926842Y27136179D01*
X-3886522Y27196522D01*
X-3826179Y27236842D01*
X-3755000Y27251000D01*
X-3385000Y27251000D01*
X-3313821Y27236842D01*
G37*
G36*
X-3821Y27356842D02*
G01*
X56522Y27316522D01*
X96842Y27256179D01*
X111000Y27185000D01*
X111000Y26915000D01*
X96842Y26843821D01*
X56522Y26783478D01*
X-3821Y26743158D01*
X-75000Y26729000D01*
X-445000Y26729000D01*
X-516179Y26743158D01*
X-576522Y26783478D01*
X-616842Y26843821D01*
X-631000Y26915000D01*
X-631000Y27185000D01*
X-616842Y27256179D01*
X-576522Y27316522D01*
X-516179Y27356842D01*
X-445000Y27371000D01*
X-75000Y27371000D01*
X-3821Y27356842D01*
G37*
G36*
X2853093Y28656461D02*
G01*
X2915057Y28615057D01*
X2956461Y28553093D01*
X2971000Y28480000D01*
X2971000Y28140000D01*
X2956461Y28066907D01*
X2915057Y28004943D01*
X2853093Y27963539D01*
X2780000Y27949000D01*
X2500000Y27949000D01*
X2426907Y27963539D01*
X2364943Y28004943D01*
X2323539Y28066907D01*
X2309000Y28140000D01*
X2309000Y28480000D01*
X2323539Y28553093D01*
X2364943Y28615057D01*
X2426907Y28656461D01*
X2500000Y28671000D01*
X2780000Y28671000D01*
X2853093Y28656461D01*
G37*
G36*
X3813093Y28656461D02*
G01*
X3875057Y28615057D01*
X3916461Y28553093D01*
X3931000Y28480000D01*
X3931000Y28140000D01*
X3916461Y28066907D01*
X3875057Y28004943D01*
X3813093Y27963539D01*
X3740000Y27949000D01*
X3460000Y27949000D01*
X3386907Y27963539D01*
X3324943Y28004943D01*
X3283539Y28066907D01*
X3269000Y28140000D01*
X3269000Y28480000D01*
X3283539Y28553093D01*
X3324943Y28615057D01*
X3386907Y28656461D01*
X3460000Y28671000D01*
X3740000Y28671000D01*
X3813093Y28656461D01*
G37*
G36*
X-4439141Y31659058D02*
G01*
X-4314572Y31587138D01*
X-4212862Y31485428D01*
X-4140942Y31360859D01*
X-4103714Y31221920D01*
X-4099000Y31150000D01*
X-4099000Y30150000D01*
X-4103714Y30078080D01*
X-4140942Y29939141D01*
X-4212862Y29814572D01*
X-4314572Y29712862D01*
X-4439141Y29640942D01*
X-4578080Y29603714D01*
X-4721920Y29603714D01*
X-4860859Y29640942D01*
X-4985428Y29712862D01*
X-5087138Y29814572D01*
X-5159058Y29939141D01*
X-5196286Y30078080D01*
X-5201000Y30150000D01*
X-5201000Y31150000D01*
X-5196286Y31221920D01*
X-5159058Y31360859D01*
X-5087138Y31485428D01*
X-4985428Y31587138D01*
X-4860859Y31659058D01*
X-4721920Y31696286D01*
X-4578080Y31696286D01*
X-4439141Y31659058D01*
G37*
G36*
X2970859Y31659058D02*
G01*
X3095428Y31587138D01*
X3197138Y31485428D01*
X3269058Y31360859D01*
X3306286Y31221920D01*
X3311000Y31150000D01*
X3311000Y30150000D01*
X3306286Y30078080D01*
X3269058Y29939141D01*
X3197138Y29814572D01*
X3095428Y29712862D01*
X2970859Y29640942D01*
X2831920Y29603714D01*
X2688080Y29603714D01*
X2549141Y29640942D01*
X2424572Y29712862D01*
X2322862Y29814572D01*
X2250942Y29939141D01*
X2213714Y30078080D01*
X2209000Y30150000D01*
X2209000Y31150000D01*
X2213714Y31221920D01*
X2250942Y31360859D01*
X2322862Y31485428D01*
X2424572Y31587138D01*
X2549141Y31659058D01*
X2688080Y31696286D01*
X2831920Y31696286D01*
X2970859Y31659058D01*
G37*
%LPD*%
M02*
