%TF.GenerationSoftware,KiCad,Pcbnew,9.0.2*%
%TF.CreationDate,2026-02-12T21:33:36-08:00*%
%TF.ProjectId,RP2040_minimal_r2,52503230-3430-45f6-9d69-6e696d616c5f,REV2*%
%TF.SameCoordinates,Original*%
%TF.FileFunction,Paste,Top*%
%TF.FilePolarity,Positive*%
%FSLAX46Y46*%
G04 Gerber Fmt 4.6, Leading zero omitted, Abs format (unit mm)*
G04 Created by KiCad (PCBNEW 9.0.2) date 2026-02-12 21:33:36*
%MOMM*%
%LPD*%
G01*
G04 APERTURE LIST*
G04 Aperture macros list*
%AMRoundRect*
0 Rectangle with rounded corners*
0 $1 Rounding radius*
0 $2 $3 $4 $5 $6 $7 $8 $9 X,Y pos of 4 corners*
0 Add a 4 corners polygon primitive as box body*
4,1,4,$2,$3,$4,$5,$6,$7,$8,$9,$2,$3,0*
0 Add four circle primitives for the rounded corners*
1,1,$1+$1,$2,$3*
1,1,$1+$1,$4,$5*
1,1,$1+$1,$6,$7*
1,1,$1+$1,$8,$9*
0 Add four rect primitives between the rounded corners*
20,1,$1+$1,$2,$3,$4,$5,0*
20,1,$1+$1,$4,$5,$6,$7,0*
20,1,$1+$1,$6,$7,$8,$9,0*
20,1,$1+$1,$8,$9,$2,$3,0*%
G04 Aperture macros list end*
%ADD10RoundRect,0.140000X-0.170000X0.140000X-0.170000X-0.140000X0.170000X-0.140000X0.170000X0.140000X0*%
%ADD11R,0.280000X1.200000*%
%ADD12RoundRect,0.140000X0.170000X-0.140000X0.170000X0.140000X-0.170000X0.140000X-0.170000X-0.140000X0*%
%ADD13RoundRect,0.140000X0.140000X0.170000X-0.140000X0.170000X-0.140000X-0.170000X0.140000X-0.170000X0*%
%ADD14RoundRect,0.135000X-0.135000X-0.185000X0.135000X-0.185000X0.135000X0.185000X-0.135000X0.185000X0*%
%ADD15RoundRect,0.040000X-0.040000X-0.605000X0.040000X-0.605000X0.040000X0.605000X-0.040000X0.605000X0*%
%ADD16RoundRect,0.062500X-0.387500X-0.062500X0.387500X-0.062500X0.387500X0.062500X-0.387500X0.062500X0*%
%ADD17RoundRect,0.250000X-0.292217X-0.292217X0.292217X-0.292217X0.292217X0.292217X-0.292217X0.292217X0*%
%ADD18RoundRect,0.050000X-0.387500X-0.050000X0.387500X-0.050000X0.387500X0.050000X-0.387500X0.050000X0*%
%ADD19RoundRect,0.050000X-0.050000X-0.387500X0.050000X-0.387500X0.050000X0.387500X-0.050000X0.387500X0*%
%ADD20RoundRect,0.140000X-0.140000X-0.170000X0.140000X-0.170000X0.140000X0.170000X-0.140000X0.170000X0*%
%ADD21R,1.400000X1.200000*%
%ADD22RoundRect,0.135000X-0.185000X0.135000X-0.185000X-0.135000X0.185000X-0.135000X0.185000X0.135000X0*%
G04 APERTURE END LIST*
D10*
%TO.C,R8*%
X3230000Y9480000D03*
X3230000Y8520000D03*
%TD*%
D11*
%TO.C,1*%
X-3869500Y37660000D03*
X-3369500Y37660000D03*
X-2869500Y37660000D03*
X-2370000Y37660000D03*
X-1869500Y37660000D03*
X-1369500Y37660000D03*
X-869500Y37660000D03*
X-369500Y37660000D03*
X130500Y37660000D03*
X630500Y37660000D03*
X1130500Y37660000D03*
X1630500Y37660000D03*
X1630000Y35560000D03*
X1130000Y35560000D03*
X630000Y35560000D03*
X130000Y35560000D03*
X-370000Y35560000D03*
X-870000Y35560000D03*
X-1370000Y35560000D03*
X-1870000Y35560000D03*
X-2370000Y35560000D03*
X-2870000Y35560000D03*
X-3370000Y35560000D03*
X-3868000Y35560000D03*
%TD*%
D12*
%TO.C,C13*%
X-6217500Y10947162D03*
X-6217500Y11907162D03*
%TD*%
D13*
%TO.C,C5*%
X2850000Y28440000D03*
X1890000Y28440000D03*
%TD*%
D14*
%TO.C,R2*%
X-2490000Y27340000D03*
X-1470000Y27340000D03*
%TD*%
D15*
%TO.C,U2*%
X1410000Y26650000D03*
D16*
X-15000Y27400000D03*
X-15000Y26900000D03*
X-15000Y26400000D03*
X-15000Y25900000D03*
X2835000Y25900000D03*
X2835000Y26400000D03*
X2835000Y26900000D03*
X2835000Y27400000D03*
%TD*%
D10*
%TO.C,C14*%
X470000Y6120000D03*
X470000Y5160000D03*
%TD*%
%TO.C,C7*%
X1836725Y6084163D03*
X1836725Y5124163D03*
%TD*%
%TO.C,C11*%
X-6217500Y14497162D03*
X-6217500Y13537162D03*
%TD*%
D17*
%TO.C,U3*%
X-2147500Y12544662D03*
X-2147500Y11269662D03*
X-872500Y12544662D03*
X-872500Y11269662D03*
D18*
X-4947500Y14507162D03*
X-4947500Y14107162D03*
X-4947500Y13707162D03*
X-4947500Y13307162D03*
X-4947500Y12907162D03*
X-4947500Y12507162D03*
X-4947500Y12107162D03*
X-4947500Y11707162D03*
X-4947500Y11307162D03*
X-4947500Y10907162D03*
X-4947500Y10507162D03*
X-4947500Y10107162D03*
X-4947500Y9707162D03*
X-4947500Y9307162D03*
D19*
X-4110000Y8469662D03*
X-3710000Y8469662D03*
X-3310000Y8469662D03*
X-2910000Y8469662D03*
X-2510000Y8469662D03*
X-2110000Y8469662D03*
X-1710000Y8469662D03*
X-1310000Y8469662D03*
X-910000Y8469662D03*
X-510000Y8469662D03*
X-110000Y8469662D03*
X290000Y8469662D03*
X690000Y8469662D03*
X1090000Y8469662D03*
D18*
X1927500Y9307162D03*
X1927500Y9707162D03*
X1927500Y10107162D03*
X1927500Y10507162D03*
X1927500Y10907162D03*
X1927500Y11307162D03*
X1927500Y11707162D03*
X1927500Y12107162D03*
X1927500Y12507162D03*
X1927500Y12907162D03*
X1927500Y13307162D03*
X1927500Y13707162D03*
X1927500Y14107162D03*
X1927500Y14507162D03*
D19*
X1090000Y15344662D03*
X690000Y15344662D03*
X290000Y15344662D03*
X-110000Y15344662D03*
X-510000Y15344662D03*
X-910000Y15344662D03*
X-1310000Y15344662D03*
X-1710000Y15344662D03*
X-2110000Y15344662D03*
X-2510000Y15344662D03*
X-2910000Y15344662D03*
X-3310000Y15344662D03*
X-3710000Y15344662D03*
X-4110000Y15344662D03*
%TD*%
D10*
%TO.C,C2*%
X-1570000Y6570000D03*
X-1570000Y5610000D03*
%TD*%
D20*
%TO.C,C3*%
X-1530000Y3680000D03*
X-570000Y3680000D03*
%TD*%
D21*
%TO.C,Y1*%
X-3120000Y6500000D03*
X-5320000Y6500000D03*
X-5320000Y4800000D03*
X-3120000Y4800000D03*
%TD*%
D14*
%TO.C,R6*%
X-4700000Y28870000D03*
X-3680000Y28870000D03*
%TD*%
D22*
%TO.C,R5*%
X-540000Y6130000D03*
X-540000Y5110000D03*
%TD*%
M02*
