%TF.GenerationSoftware,KiCad,Pcbnew,9.0.2*%
%TF.CreationDate,2026-02-12T21:33:36-08:00*%
%TF.ProjectId,RP2040_minimal_r2,52503230-3430-45f6-9d69-6e696d616c5f,REV2*%
%TF.SameCoordinates,Original*%
%TF.FileFunction,Profile,NP*%
%FSLAX46Y46*%
G04 Gerber Fmt 4.6, Leading zero omitted, Abs format (unit mm)*
G04 Created by KiCad (PCBNEW 9.0.2) date 2026-02-12 21:33:36*
%MOMM*%
%LPD*%
G01*
G04 APERTURE LIST*
%TA.AperFunction,Profile*%
%ADD10C,0.050000*%
%TD*%
%TA.AperFunction,Profile*%
%ADD11C,0.000000*%
%TD*%
G04 APERTURE END LIST*
D10*
X5020000Y41160000D02*
X-6980000Y41160000D01*
X-6980000Y41160000D02*
X-6980000Y37570000D01*
X5020000Y37570000D02*
X5020000Y41160000D01*
X5020000Y37570000D02*
X5020000Y2780000D01*
X5020000Y2780000D02*
X-6980000Y2780000D01*
X-6980000Y2780000D02*
X-6980000Y37570000D01*
D11*
%TA.AperFunction,Profile*%
%TO.C,1*%
G36*
X-4815195Y35962164D02*
G01*
X-4747372Y35923006D01*
X-4691994Y35867628D01*
X-4652836Y35799805D01*
X-4632567Y35724158D01*
X-4632567Y35645842D01*
X-4652836Y35570195D01*
X-4691994Y35502372D01*
X-4747372Y35446994D01*
X-4815195Y35407836D01*
X-4890842Y35387567D01*
X-4969158Y35387567D01*
X-5044805Y35407836D01*
X-5112628Y35446994D01*
X-5168006Y35502372D01*
X-5207164Y35570195D01*
X-5227433Y35645842D01*
X-5227433Y35724158D01*
X-5207164Y35799805D01*
X-5168006Y35867628D01*
X-5112628Y35923006D01*
X-5044805Y35962164D01*
X-4969158Y35982433D01*
X-4890842Y35982433D01*
X-4815195Y35962164D01*
G37*
%TD.AperFunction*%
%TA.AperFunction,Profile*%
G36*
X2804805Y37812164D02*
G01*
X2872628Y37773006D01*
X2928006Y37717628D01*
X2967164Y37649805D01*
X2987433Y37574158D01*
X2987433Y37495842D01*
X2967164Y37420195D01*
X2928006Y37352372D01*
X2872628Y37296994D01*
X2804805Y37257836D01*
X2729158Y37237567D01*
X2650842Y37237567D01*
X2575195Y37257836D01*
X2507372Y37296994D01*
X2451994Y37352372D01*
X2412836Y37420195D01*
X2392567Y37495842D01*
X2392567Y37574158D01*
X2412836Y37649805D01*
X2451994Y37717628D01*
X2507372Y37773006D01*
X2575195Y37812164D01*
X2650842Y37832433D01*
X2729158Y37832433D01*
X2804805Y37812164D01*
G37*
%TD.AperFunction*%
%TD*%
M02*
