%TF.GenerationSoftware,KiCad,Pcbnew,9.0.2*%
%TF.CreationDate,2026-02-12T21:33:36-08:00*%
%TF.ProjectId,RP2040_minimal_r2,52503230-3430-45f6-9d69-6e696d616c5f,REV2*%
%TF.SameCoordinates,Original*%
%TF.FileFunction,Legend,Top*%
%TF.FilePolarity,Positive*%
%FSLAX46Y46*%
G04 Gerber Fmt 4.6, Leading zero omitted, Abs format (unit mm)*
G04 Created by KiCad (PCBNEW 9.0.2) date 2026-02-12 21:33:36*
%MOMM*%
%LPD*%
G01*
G04 APERTURE LIST*
%ADD10C,0.100000*%
%ADD11C,0.150000*%
%ADD12C,0.120000*%
%ADD13C,0.254000*%
G04 APERTURE END LIST*
D10*
X-19057857Y21365986D02*
X-19143571Y21408843D01*
X-19143571Y21408843D02*
X-19272143Y21408843D01*
X-19272143Y21408843D02*
X-19400714Y21365986D01*
X-19400714Y21365986D02*
X-19486429Y21280272D01*
X-19486429Y21280272D02*
X-19529286Y21194558D01*
X-19529286Y21194558D02*
X-19572143Y21023129D01*
X-19572143Y21023129D02*
X-19572143Y20894558D01*
X-19572143Y20894558D02*
X-19529286Y20723129D01*
X-19529286Y20723129D02*
X-19486429Y20637415D01*
X-19486429Y20637415D02*
X-19400714Y20551700D01*
X-19400714Y20551700D02*
X-19272143Y20508843D01*
X-19272143Y20508843D02*
X-19186429Y20508843D01*
X-19186429Y20508843D02*
X-19057857Y20551700D01*
X-19057857Y20551700D02*
X-19015000Y20594558D01*
X-19015000Y20594558D02*
X-19015000Y20894558D01*
X-19015000Y20894558D02*
X-19186429Y20894558D01*
X-18629286Y20508843D02*
X-18629286Y21408843D01*
X-18629286Y21408843D02*
X-18286429Y21408843D01*
X-18286429Y21408843D02*
X-18200714Y21365986D01*
X-18200714Y21365986D02*
X-18157857Y21323129D01*
X-18157857Y21323129D02*
X-18115000Y21237415D01*
X-18115000Y21237415D02*
X-18115000Y21108843D01*
X-18115000Y21108843D02*
X-18157857Y21023129D01*
X-18157857Y21023129D02*
X-18200714Y20980272D01*
X-18200714Y20980272D02*
X-18286429Y20937415D01*
X-18286429Y20937415D02*
X-18629286Y20937415D01*
X-17257857Y20508843D02*
X-17772143Y20508843D01*
X-17515000Y20508843D02*
X-17515000Y21408843D01*
X-17515000Y21408843D02*
X-17600714Y21280272D01*
X-17600714Y21280272D02*
X-17686429Y21194558D01*
X-17686429Y21194558D02*
X-17772143Y21151700D01*
X-19057857Y18825986D02*
X-19143571Y18868843D01*
X-19143571Y18868843D02*
X-19272143Y18868843D01*
X-19272143Y18868843D02*
X-19400714Y18825986D01*
X-19400714Y18825986D02*
X-19486429Y18740272D01*
X-19486429Y18740272D02*
X-19529286Y18654558D01*
X-19529286Y18654558D02*
X-19572143Y18483129D01*
X-19572143Y18483129D02*
X-19572143Y18354558D01*
X-19572143Y18354558D02*
X-19529286Y18183129D01*
X-19529286Y18183129D02*
X-19486429Y18097415D01*
X-19486429Y18097415D02*
X-19400714Y18011700D01*
X-19400714Y18011700D02*
X-19272143Y17968843D01*
X-19272143Y17968843D02*
X-19186429Y17968843D01*
X-19186429Y17968843D02*
X-19057857Y18011700D01*
X-19057857Y18011700D02*
X-19015000Y18054558D01*
X-19015000Y18054558D02*
X-19015000Y18354558D01*
X-19015000Y18354558D02*
X-19186429Y18354558D01*
X-18629286Y17968843D02*
X-18629286Y18868843D01*
X-18629286Y18868843D02*
X-18286429Y18868843D01*
X-18286429Y18868843D02*
X-18200714Y18825986D01*
X-18200714Y18825986D02*
X-18157857Y18783129D01*
X-18157857Y18783129D02*
X-18115000Y18697415D01*
X-18115000Y18697415D02*
X-18115000Y18568843D01*
X-18115000Y18568843D02*
X-18157857Y18483129D01*
X-18157857Y18483129D02*
X-18200714Y18440272D01*
X-18200714Y18440272D02*
X-18286429Y18397415D01*
X-18286429Y18397415D02*
X-18629286Y18397415D01*
X-17772143Y18783129D02*
X-17729286Y18825986D01*
X-17729286Y18825986D02*
X-17643571Y18868843D01*
X-17643571Y18868843D02*
X-17429286Y18868843D01*
X-17429286Y18868843D02*
X-17343571Y18825986D01*
X-17343571Y18825986D02*
X-17300714Y18783129D01*
X-17300714Y18783129D02*
X-17257857Y18697415D01*
X-17257857Y18697415D02*
X-17257857Y18611700D01*
X-17257857Y18611700D02*
X-17300714Y18483129D01*
X-17300714Y18483129D02*
X-17815000Y17968843D01*
X-17815000Y17968843D02*
X-17257857Y17968843D01*
X-19057857Y16285986D02*
X-19143571Y16328843D01*
X-19143571Y16328843D02*
X-19272143Y16328843D01*
X-19272143Y16328843D02*
X-19400714Y16285986D01*
X-19400714Y16285986D02*
X-19486429Y16200272D01*
X-19486429Y16200272D02*
X-19529286Y16114558D01*
X-19529286Y16114558D02*
X-19572143Y15943129D01*
X-19572143Y15943129D02*
X-19572143Y15814558D01*
X-19572143Y15814558D02*
X-19529286Y15643129D01*
X-19529286Y15643129D02*
X-19486429Y15557415D01*
X-19486429Y15557415D02*
X-19400714Y15471700D01*
X-19400714Y15471700D02*
X-19272143Y15428843D01*
X-19272143Y15428843D02*
X-19186429Y15428843D01*
X-19186429Y15428843D02*
X-19057857Y15471700D01*
X-19057857Y15471700D02*
X-19015000Y15514558D01*
X-19015000Y15514558D02*
X-19015000Y15814558D01*
X-19015000Y15814558D02*
X-19186429Y15814558D01*
X-18629286Y15428843D02*
X-18629286Y16328843D01*
X-18629286Y16328843D02*
X-18286429Y16328843D01*
X-18286429Y16328843D02*
X-18200714Y16285986D01*
X-18200714Y16285986D02*
X-18157857Y16243129D01*
X-18157857Y16243129D02*
X-18115000Y16157415D01*
X-18115000Y16157415D02*
X-18115000Y16028843D01*
X-18115000Y16028843D02*
X-18157857Y15943129D01*
X-18157857Y15943129D02*
X-18200714Y15900272D01*
X-18200714Y15900272D02*
X-18286429Y15857415D01*
X-18286429Y15857415D02*
X-18629286Y15857415D01*
X-17815000Y16328843D02*
X-17257857Y16328843D01*
X-17257857Y16328843D02*
X-17557857Y15985986D01*
X-17557857Y15985986D02*
X-17429286Y15985986D01*
X-17429286Y15985986D02*
X-17343571Y15943129D01*
X-17343571Y15943129D02*
X-17300714Y15900272D01*
X-17300714Y15900272D02*
X-17257857Y15814558D01*
X-17257857Y15814558D02*
X-17257857Y15600272D01*
X-17257857Y15600272D02*
X-17300714Y15514558D01*
X-17300714Y15514558D02*
X-17343571Y15471700D01*
X-17343571Y15471700D02*
X-17429286Y15428843D01*
X-17429286Y15428843D02*
X-17686429Y15428843D01*
X-17686429Y15428843D02*
X-17772143Y15471700D01*
X-17772143Y15471700D02*
X-17815000Y15514558D01*
X-19057857Y13745986D02*
X-19143571Y13788843D01*
X-19143571Y13788843D02*
X-19272143Y13788843D01*
X-19272143Y13788843D02*
X-19400714Y13745986D01*
X-19400714Y13745986D02*
X-19486429Y13660272D01*
X-19486429Y13660272D02*
X-19529286Y13574558D01*
X-19529286Y13574558D02*
X-19572143Y13403129D01*
X-19572143Y13403129D02*
X-19572143Y13274558D01*
X-19572143Y13274558D02*
X-19529286Y13103129D01*
X-19529286Y13103129D02*
X-19486429Y13017415D01*
X-19486429Y13017415D02*
X-19400714Y12931700D01*
X-19400714Y12931700D02*
X-19272143Y12888843D01*
X-19272143Y12888843D02*
X-19186429Y12888843D01*
X-19186429Y12888843D02*
X-19057857Y12931700D01*
X-19057857Y12931700D02*
X-19015000Y12974558D01*
X-19015000Y12974558D02*
X-19015000Y13274558D01*
X-19015000Y13274558D02*
X-19186429Y13274558D01*
X-18629286Y12888843D02*
X-18629286Y13788843D01*
X-18629286Y13788843D02*
X-18286429Y13788843D01*
X-18286429Y13788843D02*
X-18200714Y13745986D01*
X-18200714Y13745986D02*
X-18157857Y13703129D01*
X-18157857Y13703129D02*
X-18115000Y13617415D01*
X-18115000Y13617415D02*
X-18115000Y13488843D01*
X-18115000Y13488843D02*
X-18157857Y13403129D01*
X-18157857Y13403129D02*
X-18200714Y13360272D01*
X-18200714Y13360272D02*
X-18286429Y13317415D01*
X-18286429Y13317415D02*
X-18629286Y13317415D01*
X-17343571Y13488843D02*
X-17343571Y12888843D01*
X-17557857Y13831700D02*
X-17772143Y13188843D01*
X-17772143Y13188843D02*
X-17215000Y13188843D01*
X-19057857Y11205986D02*
X-19143571Y11248843D01*
X-19143571Y11248843D02*
X-19272143Y11248843D01*
X-19272143Y11248843D02*
X-19400714Y11205986D01*
X-19400714Y11205986D02*
X-19486429Y11120272D01*
X-19486429Y11120272D02*
X-19529286Y11034558D01*
X-19529286Y11034558D02*
X-19572143Y10863129D01*
X-19572143Y10863129D02*
X-19572143Y10734558D01*
X-19572143Y10734558D02*
X-19529286Y10563129D01*
X-19529286Y10563129D02*
X-19486429Y10477415D01*
X-19486429Y10477415D02*
X-19400714Y10391700D01*
X-19400714Y10391700D02*
X-19272143Y10348843D01*
X-19272143Y10348843D02*
X-19186429Y10348843D01*
X-19186429Y10348843D02*
X-19057857Y10391700D01*
X-19057857Y10391700D02*
X-19015000Y10434558D01*
X-19015000Y10434558D02*
X-19015000Y10734558D01*
X-19015000Y10734558D02*
X-19186429Y10734558D01*
X-18629286Y10348843D02*
X-18629286Y11248843D01*
X-18629286Y11248843D02*
X-18286429Y11248843D01*
X-18286429Y11248843D02*
X-18200714Y11205986D01*
X-18200714Y11205986D02*
X-18157857Y11163129D01*
X-18157857Y11163129D02*
X-18115000Y11077415D01*
X-18115000Y11077415D02*
X-18115000Y10948843D01*
X-18115000Y10948843D02*
X-18157857Y10863129D01*
X-18157857Y10863129D02*
X-18200714Y10820272D01*
X-18200714Y10820272D02*
X-18286429Y10777415D01*
X-18286429Y10777415D02*
X-18629286Y10777415D01*
X-17300714Y11248843D02*
X-17729286Y11248843D01*
X-17729286Y11248843D02*
X-17772143Y10820272D01*
X-17772143Y10820272D02*
X-17729286Y10863129D01*
X-17729286Y10863129D02*
X-17643571Y10905986D01*
X-17643571Y10905986D02*
X-17429286Y10905986D01*
X-17429286Y10905986D02*
X-17343571Y10863129D01*
X-17343571Y10863129D02*
X-17300714Y10820272D01*
X-17300714Y10820272D02*
X-17257857Y10734558D01*
X-17257857Y10734558D02*
X-17257857Y10520272D01*
X-17257857Y10520272D02*
X-17300714Y10434558D01*
X-17300714Y10434558D02*
X-17343571Y10391700D01*
X-17343571Y10391700D02*
X-17429286Y10348843D01*
X-17429286Y10348843D02*
X-17643571Y10348843D01*
X-17643571Y10348843D02*
X-17729286Y10391700D01*
X-17729286Y10391700D02*
X-17772143Y10434558D01*
X-19057857Y8665986D02*
X-19143571Y8708843D01*
X-19143571Y8708843D02*
X-19272143Y8708843D01*
X-19272143Y8708843D02*
X-19400714Y8665986D01*
X-19400714Y8665986D02*
X-19486429Y8580272D01*
X-19486429Y8580272D02*
X-19529286Y8494558D01*
X-19529286Y8494558D02*
X-19572143Y8323129D01*
X-19572143Y8323129D02*
X-19572143Y8194558D01*
X-19572143Y8194558D02*
X-19529286Y8023129D01*
X-19529286Y8023129D02*
X-19486429Y7937415D01*
X-19486429Y7937415D02*
X-19400714Y7851700D01*
X-19400714Y7851700D02*
X-19272143Y7808843D01*
X-19272143Y7808843D02*
X-19186429Y7808843D01*
X-19186429Y7808843D02*
X-19057857Y7851700D01*
X-19057857Y7851700D02*
X-19015000Y7894558D01*
X-19015000Y7894558D02*
X-19015000Y8194558D01*
X-19015000Y8194558D02*
X-19186429Y8194558D01*
X-18629286Y7808843D02*
X-18629286Y8708843D01*
X-18629286Y8708843D02*
X-18286429Y8708843D01*
X-18286429Y8708843D02*
X-18200714Y8665986D01*
X-18200714Y8665986D02*
X-18157857Y8623129D01*
X-18157857Y8623129D02*
X-18115000Y8537415D01*
X-18115000Y8537415D02*
X-18115000Y8408843D01*
X-18115000Y8408843D02*
X-18157857Y8323129D01*
X-18157857Y8323129D02*
X-18200714Y8280272D01*
X-18200714Y8280272D02*
X-18286429Y8237415D01*
X-18286429Y8237415D02*
X-18629286Y8237415D01*
X-17343571Y8708843D02*
X-17515000Y8708843D01*
X-17515000Y8708843D02*
X-17600714Y8665986D01*
X-17600714Y8665986D02*
X-17643571Y8623129D01*
X-17643571Y8623129D02*
X-17729286Y8494558D01*
X-17729286Y8494558D02*
X-17772143Y8323129D01*
X-17772143Y8323129D02*
X-17772143Y7980272D01*
X-17772143Y7980272D02*
X-17729286Y7894558D01*
X-17729286Y7894558D02*
X-17686429Y7851700D01*
X-17686429Y7851700D02*
X-17600714Y7808843D01*
X-17600714Y7808843D02*
X-17429286Y7808843D01*
X-17429286Y7808843D02*
X-17343571Y7851700D01*
X-17343571Y7851700D02*
X-17300714Y7894558D01*
X-17300714Y7894558D02*
X-17257857Y7980272D01*
X-17257857Y7980272D02*
X-17257857Y8194558D01*
X-17257857Y8194558D02*
X-17300714Y8280272D01*
X-17300714Y8280272D02*
X-17343571Y8323129D01*
X-17343571Y8323129D02*
X-17429286Y8365986D01*
X-17429286Y8365986D02*
X-17600714Y8365986D01*
X-17600714Y8365986D02*
X-17686429Y8323129D01*
X-17686429Y8323129D02*
X-17729286Y8280272D01*
X-17729286Y8280272D02*
X-17772143Y8194558D01*
X-19057857Y6125986D02*
X-19143571Y6168843D01*
X-19143571Y6168843D02*
X-19272143Y6168843D01*
X-19272143Y6168843D02*
X-19400714Y6125986D01*
X-19400714Y6125986D02*
X-19486429Y6040272D01*
X-19486429Y6040272D02*
X-19529286Y5954558D01*
X-19529286Y5954558D02*
X-19572143Y5783129D01*
X-19572143Y5783129D02*
X-19572143Y5654558D01*
X-19572143Y5654558D02*
X-19529286Y5483129D01*
X-19529286Y5483129D02*
X-19486429Y5397415D01*
X-19486429Y5397415D02*
X-19400714Y5311700D01*
X-19400714Y5311700D02*
X-19272143Y5268843D01*
X-19272143Y5268843D02*
X-19186429Y5268843D01*
X-19186429Y5268843D02*
X-19057857Y5311700D01*
X-19057857Y5311700D02*
X-19015000Y5354558D01*
X-19015000Y5354558D02*
X-19015000Y5654558D01*
X-19015000Y5654558D02*
X-19186429Y5654558D01*
X-18629286Y5268843D02*
X-18629286Y6168843D01*
X-18629286Y6168843D02*
X-18286429Y6168843D01*
X-18286429Y6168843D02*
X-18200714Y6125986D01*
X-18200714Y6125986D02*
X-18157857Y6083129D01*
X-18157857Y6083129D02*
X-18115000Y5997415D01*
X-18115000Y5997415D02*
X-18115000Y5868843D01*
X-18115000Y5868843D02*
X-18157857Y5783129D01*
X-18157857Y5783129D02*
X-18200714Y5740272D01*
X-18200714Y5740272D02*
X-18286429Y5697415D01*
X-18286429Y5697415D02*
X-18629286Y5697415D01*
X-17815000Y6168843D02*
X-17215000Y6168843D01*
X-17215000Y6168843D02*
X-17600714Y5268843D01*
X-19057857Y3585986D02*
X-19143571Y3628843D01*
X-19143571Y3628843D02*
X-19272143Y3628843D01*
X-19272143Y3628843D02*
X-19400714Y3585986D01*
X-19400714Y3585986D02*
X-19486429Y3500272D01*
X-19486429Y3500272D02*
X-19529286Y3414558D01*
X-19529286Y3414558D02*
X-19572143Y3243129D01*
X-19572143Y3243129D02*
X-19572143Y3114558D01*
X-19572143Y3114558D02*
X-19529286Y2943129D01*
X-19529286Y2943129D02*
X-19486429Y2857415D01*
X-19486429Y2857415D02*
X-19400714Y2771700D01*
X-19400714Y2771700D02*
X-19272143Y2728843D01*
X-19272143Y2728843D02*
X-19186429Y2728843D01*
X-19186429Y2728843D02*
X-19057857Y2771700D01*
X-19057857Y2771700D02*
X-19015000Y2814558D01*
X-19015000Y2814558D02*
X-19015000Y3114558D01*
X-19015000Y3114558D02*
X-19186429Y3114558D01*
X-18629286Y2728843D02*
X-18629286Y3628843D01*
X-18629286Y3628843D02*
X-18286429Y3628843D01*
X-18286429Y3628843D02*
X-18200714Y3585986D01*
X-18200714Y3585986D02*
X-18157857Y3543129D01*
X-18157857Y3543129D02*
X-18115000Y3457415D01*
X-18115000Y3457415D02*
X-18115000Y3328843D01*
X-18115000Y3328843D02*
X-18157857Y3243129D01*
X-18157857Y3243129D02*
X-18200714Y3200272D01*
X-18200714Y3200272D02*
X-18286429Y3157415D01*
X-18286429Y3157415D02*
X-18629286Y3157415D01*
X-17600714Y3243129D02*
X-17686429Y3285986D01*
X-17686429Y3285986D02*
X-17729286Y3328843D01*
X-17729286Y3328843D02*
X-17772143Y3414558D01*
X-17772143Y3414558D02*
X-17772143Y3457415D01*
X-17772143Y3457415D02*
X-17729286Y3543129D01*
X-17729286Y3543129D02*
X-17686429Y3585986D01*
X-17686429Y3585986D02*
X-17600714Y3628843D01*
X-17600714Y3628843D02*
X-17429286Y3628843D01*
X-17429286Y3628843D02*
X-17343571Y3585986D01*
X-17343571Y3585986D02*
X-17300714Y3543129D01*
X-17300714Y3543129D02*
X-17257857Y3457415D01*
X-17257857Y3457415D02*
X-17257857Y3414558D01*
X-17257857Y3414558D02*
X-17300714Y3328843D01*
X-17300714Y3328843D02*
X-17343571Y3285986D01*
X-17343571Y3285986D02*
X-17429286Y3243129D01*
X-17429286Y3243129D02*
X-17600714Y3243129D01*
X-17600714Y3243129D02*
X-17686429Y3200272D01*
X-17686429Y3200272D02*
X-17729286Y3157415D01*
X-17729286Y3157415D02*
X-17772143Y3071700D01*
X-17772143Y3071700D02*
X-17772143Y2900272D01*
X-17772143Y2900272D02*
X-17729286Y2814558D01*
X-17729286Y2814558D02*
X-17686429Y2771700D01*
X-17686429Y2771700D02*
X-17600714Y2728843D01*
X-17600714Y2728843D02*
X-17429286Y2728843D01*
X-17429286Y2728843D02*
X-17343571Y2771700D01*
X-17343571Y2771700D02*
X-17300714Y2814558D01*
X-17300714Y2814558D02*
X-17257857Y2900272D01*
X-17257857Y2900272D02*
X-17257857Y3071700D01*
X-17257857Y3071700D02*
X-17300714Y3157415D01*
X-17300714Y3157415D02*
X-17343571Y3200272D01*
X-17343571Y3200272D02*
X-17429286Y3243129D01*
X-19057857Y1045986D02*
X-19143571Y1088843D01*
X-19143571Y1088843D02*
X-19272143Y1088843D01*
X-19272143Y1088843D02*
X-19400714Y1045986D01*
X-19400714Y1045986D02*
X-19486429Y960272D01*
X-19486429Y960272D02*
X-19529286Y874558D01*
X-19529286Y874558D02*
X-19572143Y703129D01*
X-19572143Y703129D02*
X-19572143Y574558D01*
X-19572143Y574558D02*
X-19529286Y403129D01*
X-19529286Y403129D02*
X-19486429Y317415D01*
X-19486429Y317415D02*
X-19400714Y231700D01*
X-19400714Y231700D02*
X-19272143Y188843D01*
X-19272143Y188843D02*
X-19186429Y188843D01*
X-19186429Y188843D02*
X-19057857Y231700D01*
X-19057857Y231700D02*
X-19015000Y274558D01*
X-19015000Y274558D02*
X-19015000Y574558D01*
X-19015000Y574558D02*
X-19186429Y574558D01*
X-18629286Y188843D02*
X-18629286Y1088843D01*
X-18629286Y1088843D02*
X-18286429Y1088843D01*
X-18286429Y1088843D02*
X-18200714Y1045986D01*
X-18200714Y1045986D02*
X-18157857Y1003129D01*
X-18157857Y1003129D02*
X-18115000Y917415D01*
X-18115000Y917415D02*
X-18115000Y788843D01*
X-18115000Y788843D02*
X-18157857Y703129D01*
X-18157857Y703129D02*
X-18200714Y660272D01*
X-18200714Y660272D02*
X-18286429Y617415D01*
X-18286429Y617415D02*
X-18629286Y617415D01*
X-17686429Y188843D02*
X-17515000Y188843D01*
X-17515000Y188843D02*
X-17429286Y231700D01*
X-17429286Y231700D02*
X-17386429Y274558D01*
X-17386429Y274558D02*
X-17300714Y403129D01*
X-17300714Y403129D02*
X-17257857Y574558D01*
X-17257857Y574558D02*
X-17257857Y917415D01*
X-17257857Y917415D02*
X-17300714Y1003129D01*
X-17300714Y1003129D02*
X-17343571Y1045986D01*
X-17343571Y1045986D02*
X-17429286Y1088843D01*
X-17429286Y1088843D02*
X-17600714Y1088843D01*
X-17600714Y1088843D02*
X-17686429Y1045986D01*
X-17686429Y1045986D02*
X-17729286Y1003129D01*
X-17729286Y1003129D02*
X-17772143Y917415D01*
X-17772143Y917415D02*
X-17772143Y703129D01*
X-17772143Y703129D02*
X-17729286Y617415D01*
X-17729286Y617415D02*
X-17686429Y574558D01*
X-17686429Y574558D02*
X-17600714Y531700D01*
X-17600714Y531700D02*
X-17429286Y531700D01*
X-17429286Y531700D02*
X-17343571Y574558D01*
X-17343571Y574558D02*
X-17300714Y617415D01*
X-17300714Y617415D02*
X-17257857Y703129D01*
X-19486429Y-4034014D02*
X-19572143Y-3991157D01*
X-19572143Y-3991157D02*
X-19700715Y-3991157D01*
X-19700715Y-3991157D02*
X-19829286Y-4034014D01*
X-19829286Y-4034014D02*
X-19915001Y-4119728D01*
X-19915001Y-4119728D02*
X-19957858Y-4205442D01*
X-19957858Y-4205442D02*
X-20000715Y-4376871D01*
X-20000715Y-4376871D02*
X-20000715Y-4505442D01*
X-20000715Y-4505442D02*
X-19957858Y-4676871D01*
X-19957858Y-4676871D02*
X-19915001Y-4762585D01*
X-19915001Y-4762585D02*
X-19829286Y-4848300D01*
X-19829286Y-4848300D02*
X-19700715Y-4891157D01*
X-19700715Y-4891157D02*
X-19615001Y-4891157D01*
X-19615001Y-4891157D02*
X-19486429Y-4848300D01*
X-19486429Y-4848300D02*
X-19443572Y-4805442D01*
X-19443572Y-4805442D02*
X-19443572Y-4505442D01*
X-19443572Y-4505442D02*
X-19615001Y-4505442D01*
X-19057858Y-4891157D02*
X-19057858Y-3991157D01*
X-19057858Y-3991157D02*
X-18715001Y-3991157D01*
X-18715001Y-3991157D02*
X-18629286Y-4034014D01*
X-18629286Y-4034014D02*
X-18586429Y-4076871D01*
X-18586429Y-4076871D02*
X-18543572Y-4162585D01*
X-18543572Y-4162585D02*
X-18543572Y-4291157D01*
X-18543572Y-4291157D02*
X-18586429Y-4376871D01*
X-18586429Y-4376871D02*
X-18629286Y-4419728D01*
X-18629286Y-4419728D02*
X-18715001Y-4462585D01*
X-18715001Y-4462585D02*
X-19057858Y-4462585D01*
X-17686429Y-4891157D02*
X-18200715Y-4891157D01*
X-17943572Y-4891157D02*
X-17943572Y-3991157D01*
X-17943572Y-3991157D02*
X-18029286Y-4119728D01*
X-18029286Y-4119728D02*
X-18115001Y-4205442D01*
X-18115001Y-4205442D02*
X-18200715Y-4248300D01*
X-16829286Y-4891157D02*
X-17343572Y-4891157D01*
X-17086429Y-4891157D02*
X-17086429Y-3991157D01*
X-17086429Y-3991157D02*
X-17172143Y-4119728D01*
X-17172143Y-4119728D02*
X-17257858Y-4205442D01*
X-17257858Y-4205442D02*
X-17343572Y-4248300D01*
X-19486429Y-1494014D02*
X-19572143Y-1451157D01*
X-19572143Y-1451157D02*
X-19700715Y-1451157D01*
X-19700715Y-1451157D02*
X-19829286Y-1494014D01*
X-19829286Y-1494014D02*
X-19915001Y-1579728D01*
X-19915001Y-1579728D02*
X-19957858Y-1665442D01*
X-19957858Y-1665442D02*
X-20000715Y-1836871D01*
X-20000715Y-1836871D02*
X-20000715Y-1965442D01*
X-20000715Y-1965442D02*
X-19957858Y-2136871D01*
X-19957858Y-2136871D02*
X-19915001Y-2222585D01*
X-19915001Y-2222585D02*
X-19829286Y-2308300D01*
X-19829286Y-2308300D02*
X-19700715Y-2351157D01*
X-19700715Y-2351157D02*
X-19615001Y-2351157D01*
X-19615001Y-2351157D02*
X-19486429Y-2308300D01*
X-19486429Y-2308300D02*
X-19443572Y-2265442D01*
X-19443572Y-2265442D02*
X-19443572Y-1965442D01*
X-19443572Y-1965442D02*
X-19615001Y-1965442D01*
X-19057858Y-2351157D02*
X-19057858Y-1451157D01*
X-19057858Y-1451157D02*
X-18715001Y-1451157D01*
X-18715001Y-1451157D02*
X-18629286Y-1494014D01*
X-18629286Y-1494014D02*
X-18586429Y-1536871D01*
X-18586429Y-1536871D02*
X-18543572Y-1622585D01*
X-18543572Y-1622585D02*
X-18543572Y-1751157D01*
X-18543572Y-1751157D02*
X-18586429Y-1836871D01*
X-18586429Y-1836871D02*
X-18629286Y-1879728D01*
X-18629286Y-1879728D02*
X-18715001Y-1922585D01*
X-18715001Y-1922585D02*
X-19057858Y-1922585D01*
X-17686429Y-2351157D02*
X-18200715Y-2351157D01*
X-17943572Y-2351157D02*
X-17943572Y-1451157D01*
X-17943572Y-1451157D02*
X-18029286Y-1579728D01*
X-18029286Y-1579728D02*
X-18115001Y-1665442D01*
X-18115001Y-1665442D02*
X-18200715Y-1708300D01*
X-17129286Y-1451157D02*
X-17043572Y-1451157D01*
X-17043572Y-1451157D02*
X-16957858Y-1494014D01*
X-16957858Y-1494014D02*
X-16915000Y-1536871D01*
X-16915000Y-1536871D02*
X-16872143Y-1622585D01*
X-16872143Y-1622585D02*
X-16829286Y-1794014D01*
X-16829286Y-1794014D02*
X-16829286Y-2008300D01*
X-16829286Y-2008300D02*
X-16872143Y-2179728D01*
X-16872143Y-2179728D02*
X-16915000Y-2265442D01*
X-16915000Y-2265442D02*
X-16957858Y-2308300D01*
X-16957858Y-2308300D02*
X-17043572Y-2351157D01*
X-17043572Y-2351157D02*
X-17129286Y-2351157D01*
X-17129286Y-2351157D02*
X-17215000Y-2308300D01*
X-17215000Y-2308300D02*
X-17257858Y-2265442D01*
X-17257858Y-2265442D02*
X-17300715Y-2179728D01*
X-17300715Y-2179728D02*
X-17343572Y-2008300D01*
X-17343572Y-2008300D02*
X-17343572Y-1794014D01*
X-17343572Y-1794014D02*
X-17300715Y-1622585D01*
X-17300715Y-1622585D02*
X-17257858Y-1536871D01*
X-17257858Y-1536871D02*
X-17215000Y-1494014D01*
X-17215000Y-1494014D02*
X-17129286Y-1451157D01*
X-19486429Y-6574014D02*
X-19572143Y-6531157D01*
X-19572143Y-6531157D02*
X-19700715Y-6531157D01*
X-19700715Y-6531157D02*
X-19829286Y-6574014D01*
X-19829286Y-6574014D02*
X-19915001Y-6659728D01*
X-19915001Y-6659728D02*
X-19957858Y-6745442D01*
X-19957858Y-6745442D02*
X-20000715Y-6916871D01*
X-20000715Y-6916871D02*
X-20000715Y-7045442D01*
X-20000715Y-7045442D02*
X-19957858Y-7216871D01*
X-19957858Y-7216871D02*
X-19915001Y-7302585D01*
X-19915001Y-7302585D02*
X-19829286Y-7388300D01*
X-19829286Y-7388300D02*
X-19700715Y-7431157D01*
X-19700715Y-7431157D02*
X-19615001Y-7431157D01*
X-19615001Y-7431157D02*
X-19486429Y-7388300D01*
X-19486429Y-7388300D02*
X-19443572Y-7345442D01*
X-19443572Y-7345442D02*
X-19443572Y-7045442D01*
X-19443572Y-7045442D02*
X-19615001Y-7045442D01*
X-19057858Y-7431157D02*
X-19057858Y-6531157D01*
X-19057858Y-6531157D02*
X-18715001Y-6531157D01*
X-18715001Y-6531157D02*
X-18629286Y-6574014D01*
X-18629286Y-6574014D02*
X-18586429Y-6616871D01*
X-18586429Y-6616871D02*
X-18543572Y-6702585D01*
X-18543572Y-6702585D02*
X-18543572Y-6831157D01*
X-18543572Y-6831157D02*
X-18586429Y-6916871D01*
X-18586429Y-6916871D02*
X-18629286Y-6959728D01*
X-18629286Y-6959728D02*
X-18715001Y-7002585D01*
X-18715001Y-7002585D02*
X-19057858Y-7002585D01*
X-17686429Y-7431157D02*
X-18200715Y-7431157D01*
X-17943572Y-7431157D02*
X-17943572Y-6531157D01*
X-17943572Y-6531157D02*
X-18029286Y-6659728D01*
X-18029286Y-6659728D02*
X-18115001Y-6745442D01*
X-18115001Y-6745442D02*
X-18200715Y-6788300D01*
X-17343572Y-6616871D02*
X-17300715Y-6574014D01*
X-17300715Y-6574014D02*
X-17215000Y-6531157D01*
X-17215000Y-6531157D02*
X-17000715Y-6531157D01*
X-17000715Y-6531157D02*
X-16915000Y-6574014D01*
X-16915000Y-6574014D02*
X-16872143Y-6616871D01*
X-16872143Y-6616871D02*
X-16829286Y-6702585D01*
X-16829286Y-6702585D02*
X-16829286Y-6788300D01*
X-16829286Y-6788300D02*
X-16872143Y-6916871D01*
X-16872143Y-6916871D02*
X-17386429Y-7431157D01*
X-17386429Y-7431157D02*
X-16829286Y-7431157D01*
X-19486429Y-9114014D02*
X-19572143Y-9071157D01*
X-19572143Y-9071157D02*
X-19700715Y-9071157D01*
X-19700715Y-9071157D02*
X-19829286Y-9114014D01*
X-19829286Y-9114014D02*
X-19915001Y-9199728D01*
X-19915001Y-9199728D02*
X-19957858Y-9285442D01*
X-19957858Y-9285442D02*
X-20000715Y-9456871D01*
X-20000715Y-9456871D02*
X-20000715Y-9585442D01*
X-20000715Y-9585442D02*
X-19957858Y-9756871D01*
X-19957858Y-9756871D02*
X-19915001Y-9842585D01*
X-19915001Y-9842585D02*
X-19829286Y-9928300D01*
X-19829286Y-9928300D02*
X-19700715Y-9971157D01*
X-19700715Y-9971157D02*
X-19615001Y-9971157D01*
X-19615001Y-9971157D02*
X-19486429Y-9928300D01*
X-19486429Y-9928300D02*
X-19443572Y-9885442D01*
X-19443572Y-9885442D02*
X-19443572Y-9585442D01*
X-19443572Y-9585442D02*
X-19615001Y-9585442D01*
X-19057858Y-9971157D02*
X-19057858Y-9071157D01*
X-19057858Y-9071157D02*
X-18715001Y-9071157D01*
X-18715001Y-9071157D02*
X-18629286Y-9114014D01*
X-18629286Y-9114014D02*
X-18586429Y-9156871D01*
X-18586429Y-9156871D02*
X-18543572Y-9242585D01*
X-18543572Y-9242585D02*
X-18543572Y-9371157D01*
X-18543572Y-9371157D02*
X-18586429Y-9456871D01*
X-18586429Y-9456871D02*
X-18629286Y-9499728D01*
X-18629286Y-9499728D02*
X-18715001Y-9542585D01*
X-18715001Y-9542585D02*
X-19057858Y-9542585D01*
X-17686429Y-9971157D02*
X-18200715Y-9971157D01*
X-17943572Y-9971157D02*
X-17943572Y-9071157D01*
X-17943572Y-9071157D02*
X-18029286Y-9199728D01*
X-18029286Y-9199728D02*
X-18115001Y-9285442D01*
X-18115001Y-9285442D02*
X-18200715Y-9328300D01*
X-17386429Y-9071157D02*
X-16829286Y-9071157D01*
X-16829286Y-9071157D02*
X-17129286Y-9414014D01*
X-17129286Y-9414014D02*
X-17000715Y-9414014D01*
X-17000715Y-9414014D02*
X-16915000Y-9456871D01*
X-16915000Y-9456871D02*
X-16872143Y-9499728D01*
X-16872143Y-9499728D02*
X-16829286Y-9585442D01*
X-16829286Y-9585442D02*
X-16829286Y-9799728D01*
X-16829286Y-9799728D02*
X-16872143Y-9885442D01*
X-16872143Y-9885442D02*
X-16915000Y-9928300D01*
X-16915000Y-9928300D02*
X-17000715Y-9971157D01*
X-17000715Y-9971157D02*
X-17257858Y-9971157D01*
X-17257858Y-9971157D02*
X-17343572Y-9928300D01*
X-17343572Y-9928300D02*
X-17386429Y-9885442D01*
X-19486429Y-14194014D02*
X-19572143Y-14151157D01*
X-19572143Y-14151157D02*
X-19700715Y-14151157D01*
X-19700715Y-14151157D02*
X-19829286Y-14194014D01*
X-19829286Y-14194014D02*
X-19915001Y-14279728D01*
X-19915001Y-14279728D02*
X-19957858Y-14365442D01*
X-19957858Y-14365442D02*
X-20000715Y-14536871D01*
X-20000715Y-14536871D02*
X-20000715Y-14665442D01*
X-20000715Y-14665442D02*
X-19957858Y-14836871D01*
X-19957858Y-14836871D02*
X-19915001Y-14922585D01*
X-19915001Y-14922585D02*
X-19829286Y-15008300D01*
X-19829286Y-15008300D02*
X-19700715Y-15051157D01*
X-19700715Y-15051157D02*
X-19615001Y-15051157D01*
X-19615001Y-15051157D02*
X-19486429Y-15008300D01*
X-19486429Y-15008300D02*
X-19443572Y-14965442D01*
X-19443572Y-14965442D02*
X-19443572Y-14665442D01*
X-19443572Y-14665442D02*
X-19615001Y-14665442D01*
X-19057858Y-15051157D02*
X-19057858Y-14151157D01*
X-19057858Y-14151157D02*
X-18715001Y-14151157D01*
X-18715001Y-14151157D02*
X-18629286Y-14194014D01*
X-18629286Y-14194014D02*
X-18586429Y-14236871D01*
X-18586429Y-14236871D02*
X-18543572Y-14322585D01*
X-18543572Y-14322585D02*
X-18543572Y-14451157D01*
X-18543572Y-14451157D02*
X-18586429Y-14536871D01*
X-18586429Y-14536871D02*
X-18629286Y-14579728D01*
X-18629286Y-14579728D02*
X-18715001Y-14622585D01*
X-18715001Y-14622585D02*
X-19057858Y-14622585D01*
X-17686429Y-15051157D02*
X-18200715Y-15051157D01*
X-17943572Y-15051157D02*
X-17943572Y-14151157D01*
X-17943572Y-14151157D02*
X-18029286Y-14279728D01*
X-18029286Y-14279728D02*
X-18115001Y-14365442D01*
X-18115001Y-14365442D02*
X-18200715Y-14408300D01*
X-16872143Y-14151157D02*
X-17300715Y-14151157D01*
X-17300715Y-14151157D02*
X-17343572Y-14579728D01*
X-17343572Y-14579728D02*
X-17300715Y-14536871D01*
X-17300715Y-14536871D02*
X-17215000Y-14494014D01*
X-17215000Y-14494014D02*
X-17000715Y-14494014D01*
X-17000715Y-14494014D02*
X-16915000Y-14536871D01*
X-16915000Y-14536871D02*
X-16872143Y-14579728D01*
X-16872143Y-14579728D02*
X-16829286Y-14665442D01*
X-16829286Y-14665442D02*
X-16829286Y-14879728D01*
X-16829286Y-14879728D02*
X-16872143Y-14965442D01*
X-16872143Y-14965442D02*
X-16915000Y-15008300D01*
X-16915000Y-15008300D02*
X-17000715Y-15051157D01*
X-17000715Y-15051157D02*
X-17215000Y-15051157D01*
X-17215000Y-15051157D02*
X-17300715Y-15008300D01*
X-17300715Y-15008300D02*
X-17343572Y-14965442D01*
X-19486429Y-11654014D02*
X-19572143Y-11611157D01*
X-19572143Y-11611157D02*
X-19700715Y-11611157D01*
X-19700715Y-11611157D02*
X-19829286Y-11654014D01*
X-19829286Y-11654014D02*
X-19915001Y-11739728D01*
X-19915001Y-11739728D02*
X-19957858Y-11825442D01*
X-19957858Y-11825442D02*
X-20000715Y-11996871D01*
X-20000715Y-11996871D02*
X-20000715Y-12125442D01*
X-20000715Y-12125442D02*
X-19957858Y-12296871D01*
X-19957858Y-12296871D02*
X-19915001Y-12382585D01*
X-19915001Y-12382585D02*
X-19829286Y-12468300D01*
X-19829286Y-12468300D02*
X-19700715Y-12511157D01*
X-19700715Y-12511157D02*
X-19615001Y-12511157D01*
X-19615001Y-12511157D02*
X-19486429Y-12468300D01*
X-19486429Y-12468300D02*
X-19443572Y-12425442D01*
X-19443572Y-12425442D02*
X-19443572Y-12125442D01*
X-19443572Y-12125442D02*
X-19615001Y-12125442D01*
X-19057858Y-12511157D02*
X-19057858Y-11611157D01*
X-19057858Y-11611157D02*
X-18715001Y-11611157D01*
X-18715001Y-11611157D02*
X-18629286Y-11654014D01*
X-18629286Y-11654014D02*
X-18586429Y-11696871D01*
X-18586429Y-11696871D02*
X-18543572Y-11782585D01*
X-18543572Y-11782585D02*
X-18543572Y-11911157D01*
X-18543572Y-11911157D02*
X-18586429Y-11996871D01*
X-18586429Y-11996871D02*
X-18629286Y-12039728D01*
X-18629286Y-12039728D02*
X-18715001Y-12082585D01*
X-18715001Y-12082585D02*
X-19057858Y-12082585D01*
X-17686429Y-12511157D02*
X-18200715Y-12511157D01*
X-17943572Y-12511157D02*
X-17943572Y-11611157D01*
X-17943572Y-11611157D02*
X-18029286Y-11739728D01*
X-18029286Y-11739728D02*
X-18115001Y-11825442D01*
X-18115001Y-11825442D02*
X-18200715Y-11868300D01*
X-16915000Y-11911157D02*
X-16915000Y-12511157D01*
X-17129286Y-11568300D02*
X-17343572Y-12211157D01*
X-17343572Y-12211157D02*
X-16786429Y-12211157D01*
X17343571Y20305986D02*
X17257857Y20348843D01*
X17257857Y20348843D02*
X17129285Y20348843D01*
X17129285Y20348843D02*
X17000714Y20305986D01*
X17000714Y20305986D02*
X16914999Y20220272D01*
X16914999Y20220272D02*
X16872142Y20134558D01*
X16872142Y20134558D02*
X16829285Y19963129D01*
X16829285Y19963129D02*
X16829285Y19834558D01*
X16829285Y19834558D02*
X16872142Y19663129D01*
X16872142Y19663129D02*
X16914999Y19577415D01*
X16914999Y19577415D02*
X17000714Y19491700D01*
X17000714Y19491700D02*
X17129285Y19448843D01*
X17129285Y19448843D02*
X17214999Y19448843D01*
X17214999Y19448843D02*
X17343571Y19491700D01*
X17343571Y19491700D02*
X17386428Y19534558D01*
X17386428Y19534558D02*
X17386428Y19834558D01*
X17386428Y19834558D02*
X17214999Y19834558D01*
X17772142Y19448843D02*
X17772142Y20348843D01*
X17772142Y20348843D02*
X18114999Y20348843D01*
X18114999Y20348843D02*
X18200714Y20305986D01*
X18200714Y20305986D02*
X18243571Y20263129D01*
X18243571Y20263129D02*
X18286428Y20177415D01*
X18286428Y20177415D02*
X18286428Y20048843D01*
X18286428Y20048843D02*
X18243571Y19963129D01*
X18243571Y19963129D02*
X18200714Y19920272D01*
X18200714Y19920272D02*
X18114999Y19877415D01*
X18114999Y19877415D02*
X17772142Y19877415D01*
X18629285Y20263129D02*
X18672142Y20305986D01*
X18672142Y20305986D02*
X18757857Y20348843D01*
X18757857Y20348843D02*
X18972142Y20348843D01*
X18972142Y20348843D02*
X19057857Y20305986D01*
X19057857Y20305986D02*
X19100714Y20263129D01*
X19100714Y20263129D02*
X19143571Y20177415D01*
X19143571Y20177415D02*
X19143571Y20091700D01*
X19143571Y20091700D02*
X19100714Y19963129D01*
X19100714Y19963129D02*
X18586428Y19448843D01*
X18586428Y19448843D02*
X19143571Y19448843D01*
X19657857Y19963129D02*
X19572142Y20005986D01*
X19572142Y20005986D02*
X19529285Y20048843D01*
X19529285Y20048843D02*
X19486428Y20134558D01*
X19486428Y20134558D02*
X19486428Y20177415D01*
X19486428Y20177415D02*
X19529285Y20263129D01*
X19529285Y20263129D02*
X19572142Y20305986D01*
X19572142Y20305986D02*
X19657857Y20348843D01*
X19657857Y20348843D02*
X19829285Y20348843D01*
X19829285Y20348843D02*
X19915000Y20305986D01*
X19915000Y20305986D02*
X19957857Y20263129D01*
X19957857Y20263129D02*
X20000714Y20177415D01*
X20000714Y20177415D02*
X20000714Y20134558D01*
X20000714Y20134558D02*
X19957857Y20048843D01*
X19957857Y20048843D02*
X19915000Y20005986D01*
X19915000Y20005986D02*
X19829285Y19963129D01*
X19829285Y19963129D02*
X19657857Y19963129D01*
X19657857Y19963129D02*
X19572142Y19920272D01*
X19572142Y19920272D02*
X19529285Y19877415D01*
X19529285Y19877415D02*
X19486428Y19791700D01*
X19486428Y19791700D02*
X19486428Y19620272D01*
X19486428Y19620272D02*
X19529285Y19534558D01*
X19529285Y19534558D02*
X19572142Y19491700D01*
X19572142Y19491700D02*
X19657857Y19448843D01*
X19657857Y19448843D02*
X19829285Y19448843D01*
X19829285Y19448843D02*
X19915000Y19491700D01*
X19915000Y19491700D02*
X19957857Y19534558D01*
X19957857Y19534558D02*
X20000714Y19620272D01*
X20000714Y19620272D02*
X20000714Y19791700D01*
X20000714Y19791700D02*
X19957857Y19877415D01*
X19957857Y19877415D02*
X19915000Y19920272D01*
X19915000Y19920272D02*
X19829285Y19963129D01*
X17343571Y21365986D02*
X17257857Y21408843D01*
X17257857Y21408843D02*
X17129285Y21408843D01*
X17129285Y21408843D02*
X17000714Y21365986D01*
X17000714Y21365986D02*
X16914999Y21280272D01*
X16914999Y21280272D02*
X16872142Y21194558D01*
X16872142Y21194558D02*
X16829285Y21023129D01*
X16829285Y21023129D02*
X16829285Y20894558D01*
X16829285Y20894558D02*
X16872142Y20723129D01*
X16872142Y20723129D02*
X16914999Y20637415D01*
X16914999Y20637415D02*
X17000714Y20551700D01*
X17000714Y20551700D02*
X17129285Y20508843D01*
X17129285Y20508843D02*
X17214999Y20508843D01*
X17214999Y20508843D02*
X17343571Y20551700D01*
X17343571Y20551700D02*
X17386428Y20594558D01*
X17386428Y20594558D02*
X17386428Y20894558D01*
X17386428Y20894558D02*
X17214999Y20894558D01*
X17772142Y20508843D02*
X17772142Y21408843D01*
X17772142Y21408843D02*
X18114999Y21408843D01*
X18114999Y21408843D02*
X18200714Y21365986D01*
X18200714Y21365986D02*
X18243571Y21323129D01*
X18243571Y21323129D02*
X18286428Y21237415D01*
X18286428Y21237415D02*
X18286428Y21108843D01*
X18286428Y21108843D02*
X18243571Y21023129D01*
X18243571Y21023129D02*
X18200714Y20980272D01*
X18200714Y20980272D02*
X18114999Y20937415D01*
X18114999Y20937415D02*
X17772142Y20937415D01*
X18629285Y21323129D02*
X18672142Y21365986D01*
X18672142Y21365986D02*
X18757857Y21408843D01*
X18757857Y21408843D02*
X18972142Y21408843D01*
X18972142Y21408843D02*
X19057857Y21365986D01*
X19057857Y21365986D02*
X19100714Y21323129D01*
X19100714Y21323129D02*
X19143571Y21237415D01*
X19143571Y21237415D02*
X19143571Y21151700D01*
X19143571Y21151700D02*
X19100714Y21023129D01*
X19100714Y21023129D02*
X18586428Y20508843D01*
X18586428Y20508843D02*
X19143571Y20508843D01*
X19443571Y21408843D02*
X20043571Y21408843D01*
X20043571Y21408843D02*
X19657857Y20508843D01*
X17343571Y18825986D02*
X17257857Y18868843D01*
X17257857Y18868843D02*
X17129285Y18868843D01*
X17129285Y18868843D02*
X17000714Y18825986D01*
X17000714Y18825986D02*
X16914999Y18740272D01*
X16914999Y18740272D02*
X16872142Y18654558D01*
X16872142Y18654558D02*
X16829285Y18483129D01*
X16829285Y18483129D02*
X16829285Y18354558D01*
X16829285Y18354558D02*
X16872142Y18183129D01*
X16872142Y18183129D02*
X16914999Y18097415D01*
X16914999Y18097415D02*
X17000714Y18011700D01*
X17000714Y18011700D02*
X17129285Y17968843D01*
X17129285Y17968843D02*
X17214999Y17968843D01*
X17214999Y17968843D02*
X17343571Y18011700D01*
X17343571Y18011700D02*
X17386428Y18054558D01*
X17386428Y18054558D02*
X17386428Y18354558D01*
X17386428Y18354558D02*
X17214999Y18354558D01*
X17772142Y17968843D02*
X17772142Y18868843D01*
X17772142Y18868843D02*
X18114999Y18868843D01*
X18114999Y18868843D02*
X18200714Y18825986D01*
X18200714Y18825986D02*
X18243571Y18783129D01*
X18243571Y18783129D02*
X18286428Y18697415D01*
X18286428Y18697415D02*
X18286428Y18568843D01*
X18286428Y18568843D02*
X18243571Y18483129D01*
X18243571Y18483129D02*
X18200714Y18440272D01*
X18200714Y18440272D02*
X18114999Y18397415D01*
X18114999Y18397415D02*
X17772142Y18397415D01*
X18629285Y18783129D02*
X18672142Y18825986D01*
X18672142Y18825986D02*
X18757857Y18868843D01*
X18757857Y18868843D02*
X18972142Y18868843D01*
X18972142Y18868843D02*
X19057857Y18825986D01*
X19057857Y18825986D02*
X19100714Y18783129D01*
X19100714Y18783129D02*
X19143571Y18697415D01*
X19143571Y18697415D02*
X19143571Y18611700D01*
X19143571Y18611700D02*
X19100714Y18483129D01*
X19100714Y18483129D02*
X18586428Y17968843D01*
X18586428Y17968843D02*
X19143571Y17968843D01*
X19915000Y18868843D02*
X19743571Y18868843D01*
X19743571Y18868843D02*
X19657857Y18825986D01*
X19657857Y18825986D02*
X19615000Y18783129D01*
X19615000Y18783129D02*
X19529285Y18654558D01*
X19529285Y18654558D02*
X19486428Y18483129D01*
X19486428Y18483129D02*
X19486428Y18140272D01*
X19486428Y18140272D02*
X19529285Y18054558D01*
X19529285Y18054558D02*
X19572142Y18011700D01*
X19572142Y18011700D02*
X19657857Y17968843D01*
X19657857Y17968843D02*
X19829285Y17968843D01*
X19829285Y17968843D02*
X19915000Y18011700D01*
X19915000Y18011700D02*
X19957857Y18054558D01*
X19957857Y18054558D02*
X20000714Y18140272D01*
X20000714Y18140272D02*
X20000714Y18354558D01*
X20000714Y18354558D02*
X19957857Y18440272D01*
X19957857Y18440272D02*
X19915000Y18483129D01*
X19915000Y18483129D02*
X19829285Y18525986D01*
X19829285Y18525986D02*
X19657857Y18525986D01*
X19657857Y18525986D02*
X19572142Y18483129D01*
X19572142Y18483129D02*
X19529285Y18440272D01*
X19529285Y18440272D02*
X19486428Y18354558D01*
X17343571Y16285986D02*
X17257857Y16328843D01*
X17257857Y16328843D02*
X17129285Y16328843D01*
X17129285Y16328843D02*
X17000714Y16285986D01*
X17000714Y16285986D02*
X16914999Y16200272D01*
X16914999Y16200272D02*
X16872142Y16114558D01*
X16872142Y16114558D02*
X16829285Y15943129D01*
X16829285Y15943129D02*
X16829285Y15814558D01*
X16829285Y15814558D02*
X16872142Y15643129D01*
X16872142Y15643129D02*
X16914999Y15557415D01*
X16914999Y15557415D02*
X17000714Y15471700D01*
X17000714Y15471700D02*
X17129285Y15428843D01*
X17129285Y15428843D02*
X17214999Y15428843D01*
X17214999Y15428843D02*
X17343571Y15471700D01*
X17343571Y15471700D02*
X17386428Y15514558D01*
X17386428Y15514558D02*
X17386428Y15814558D01*
X17386428Y15814558D02*
X17214999Y15814558D01*
X17772142Y15428843D02*
X17772142Y16328843D01*
X17772142Y16328843D02*
X18114999Y16328843D01*
X18114999Y16328843D02*
X18200714Y16285986D01*
X18200714Y16285986D02*
X18243571Y16243129D01*
X18243571Y16243129D02*
X18286428Y16157415D01*
X18286428Y16157415D02*
X18286428Y16028843D01*
X18286428Y16028843D02*
X18243571Y15943129D01*
X18243571Y15943129D02*
X18200714Y15900272D01*
X18200714Y15900272D02*
X18114999Y15857415D01*
X18114999Y15857415D02*
X17772142Y15857415D01*
X18629285Y16243129D02*
X18672142Y16285986D01*
X18672142Y16285986D02*
X18757857Y16328843D01*
X18757857Y16328843D02*
X18972142Y16328843D01*
X18972142Y16328843D02*
X19057857Y16285986D01*
X19057857Y16285986D02*
X19100714Y16243129D01*
X19100714Y16243129D02*
X19143571Y16157415D01*
X19143571Y16157415D02*
X19143571Y16071700D01*
X19143571Y16071700D02*
X19100714Y15943129D01*
X19100714Y15943129D02*
X18586428Y15428843D01*
X18586428Y15428843D02*
X19143571Y15428843D01*
X19957857Y16328843D02*
X19529285Y16328843D01*
X19529285Y16328843D02*
X19486428Y15900272D01*
X19486428Y15900272D02*
X19529285Y15943129D01*
X19529285Y15943129D02*
X19615000Y15985986D01*
X19615000Y15985986D02*
X19829285Y15985986D01*
X19829285Y15985986D02*
X19915000Y15943129D01*
X19915000Y15943129D02*
X19957857Y15900272D01*
X19957857Y15900272D02*
X20000714Y15814558D01*
X20000714Y15814558D02*
X20000714Y15600272D01*
X20000714Y15600272D02*
X19957857Y15514558D01*
X19957857Y15514558D02*
X19915000Y15471700D01*
X19915000Y15471700D02*
X19829285Y15428843D01*
X19829285Y15428843D02*
X19615000Y15428843D01*
X19615000Y15428843D02*
X19529285Y15471700D01*
X19529285Y15471700D02*
X19486428Y15514558D01*
X17343571Y13745986D02*
X17257857Y13788843D01*
X17257857Y13788843D02*
X17129285Y13788843D01*
X17129285Y13788843D02*
X17000714Y13745986D01*
X17000714Y13745986D02*
X16914999Y13660272D01*
X16914999Y13660272D02*
X16872142Y13574558D01*
X16872142Y13574558D02*
X16829285Y13403129D01*
X16829285Y13403129D02*
X16829285Y13274558D01*
X16829285Y13274558D02*
X16872142Y13103129D01*
X16872142Y13103129D02*
X16914999Y13017415D01*
X16914999Y13017415D02*
X17000714Y12931700D01*
X17000714Y12931700D02*
X17129285Y12888843D01*
X17129285Y12888843D02*
X17214999Y12888843D01*
X17214999Y12888843D02*
X17343571Y12931700D01*
X17343571Y12931700D02*
X17386428Y12974558D01*
X17386428Y12974558D02*
X17386428Y13274558D01*
X17386428Y13274558D02*
X17214999Y13274558D01*
X17772142Y12888843D02*
X17772142Y13788843D01*
X17772142Y13788843D02*
X18114999Y13788843D01*
X18114999Y13788843D02*
X18200714Y13745986D01*
X18200714Y13745986D02*
X18243571Y13703129D01*
X18243571Y13703129D02*
X18286428Y13617415D01*
X18286428Y13617415D02*
X18286428Y13488843D01*
X18286428Y13488843D02*
X18243571Y13403129D01*
X18243571Y13403129D02*
X18200714Y13360272D01*
X18200714Y13360272D02*
X18114999Y13317415D01*
X18114999Y13317415D02*
X17772142Y13317415D01*
X18629285Y13703129D02*
X18672142Y13745986D01*
X18672142Y13745986D02*
X18757857Y13788843D01*
X18757857Y13788843D02*
X18972142Y13788843D01*
X18972142Y13788843D02*
X19057857Y13745986D01*
X19057857Y13745986D02*
X19100714Y13703129D01*
X19100714Y13703129D02*
X19143571Y13617415D01*
X19143571Y13617415D02*
X19143571Y13531700D01*
X19143571Y13531700D02*
X19100714Y13403129D01*
X19100714Y13403129D02*
X18586428Y12888843D01*
X18586428Y12888843D02*
X19143571Y12888843D01*
X19915000Y13488843D02*
X19915000Y12888843D01*
X19700714Y13831700D02*
X19486428Y13188843D01*
X19486428Y13188843D02*
X20043571Y13188843D01*
X17343571Y11205986D02*
X17257857Y11248843D01*
X17257857Y11248843D02*
X17129285Y11248843D01*
X17129285Y11248843D02*
X17000714Y11205986D01*
X17000714Y11205986D02*
X16914999Y11120272D01*
X16914999Y11120272D02*
X16872142Y11034558D01*
X16872142Y11034558D02*
X16829285Y10863129D01*
X16829285Y10863129D02*
X16829285Y10734558D01*
X16829285Y10734558D02*
X16872142Y10563129D01*
X16872142Y10563129D02*
X16914999Y10477415D01*
X16914999Y10477415D02*
X17000714Y10391700D01*
X17000714Y10391700D02*
X17129285Y10348843D01*
X17129285Y10348843D02*
X17214999Y10348843D01*
X17214999Y10348843D02*
X17343571Y10391700D01*
X17343571Y10391700D02*
X17386428Y10434558D01*
X17386428Y10434558D02*
X17386428Y10734558D01*
X17386428Y10734558D02*
X17214999Y10734558D01*
X17772142Y10348843D02*
X17772142Y11248843D01*
X17772142Y11248843D02*
X18114999Y11248843D01*
X18114999Y11248843D02*
X18200714Y11205986D01*
X18200714Y11205986D02*
X18243571Y11163129D01*
X18243571Y11163129D02*
X18286428Y11077415D01*
X18286428Y11077415D02*
X18286428Y10948843D01*
X18286428Y10948843D02*
X18243571Y10863129D01*
X18243571Y10863129D02*
X18200714Y10820272D01*
X18200714Y10820272D02*
X18114999Y10777415D01*
X18114999Y10777415D02*
X17772142Y10777415D01*
X18629285Y11163129D02*
X18672142Y11205986D01*
X18672142Y11205986D02*
X18757857Y11248843D01*
X18757857Y11248843D02*
X18972142Y11248843D01*
X18972142Y11248843D02*
X19057857Y11205986D01*
X19057857Y11205986D02*
X19100714Y11163129D01*
X19100714Y11163129D02*
X19143571Y11077415D01*
X19143571Y11077415D02*
X19143571Y10991700D01*
X19143571Y10991700D02*
X19100714Y10863129D01*
X19100714Y10863129D02*
X18586428Y10348843D01*
X18586428Y10348843D02*
X19143571Y10348843D01*
X19443571Y11248843D02*
X20000714Y11248843D01*
X20000714Y11248843D02*
X19700714Y10905986D01*
X19700714Y10905986D02*
X19829285Y10905986D01*
X19829285Y10905986D02*
X19915000Y10863129D01*
X19915000Y10863129D02*
X19957857Y10820272D01*
X19957857Y10820272D02*
X20000714Y10734558D01*
X20000714Y10734558D02*
X20000714Y10520272D01*
X20000714Y10520272D02*
X19957857Y10434558D01*
X19957857Y10434558D02*
X19915000Y10391700D01*
X19915000Y10391700D02*
X19829285Y10348843D01*
X19829285Y10348843D02*
X19572142Y10348843D01*
X19572142Y10348843D02*
X19486428Y10391700D01*
X19486428Y10391700D02*
X19443571Y10434558D01*
X17343571Y6125986D02*
X17257857Y6168843D01*
X17257857Y6168843D02*
X17129285Y6168843D01*
X17129285Y6168843D02*
X17000714Y6125986D01*
X17000714Y6125986D02*
X16914999Y6040272D01*
X16914999Y6040272D02*
X16872142Y5954558D01*
X16872142Y5954558D02*
X16829285Y5783129D01*
X16829285Y5783129D02*
X16829285Y5654558D01*
X16829285Y5654558D02*
X16872142Y5483129D01*
X16872142Y5483129D02*
X16914999Y5397415D01*
X16914999Y5397415D02*
X17000714Y5311700D01*
X17000714Y5311700D02*
X17129285Y5268843D01*
X17129285Y5268843D02*
X17214999Y5268843D01*
X17214999Y5268843D02*
X17343571Y5311700D01*
X17343571Y5311700D02*
X17386428Y5354558D01*
X17386428Y5354558D02*
X17386428Y5654558D01*
X17386428Y5654558D02*
X17214999Y5654558D01*
X17772142Y5268843D02*
X17772142Y6168843D01*
X17772142Y6168843D02*
X18114999Y6168843D01*
X18114999Y6168843D02*
X18200714Y6125986D01*
X18200714Y6125986D02*
X18243571Y6083129D01*
X18243571Y6083129D02*
X18286428Y5997415D01*
X18286428Y5997415D02*
X18286428Y5868843D01*
X18286428Y5868843D02*
X18243571Y5783129D01*
X18243571Y5783129D02*
X18200714Y5740272D01*
X18200714Y5740272D02*
X18114999Y5697415D01*
X18114999Y5697415D02*
X17772142Y5697415D01*
X18629285Y6083129D02*
X18672142Y6125986D01*
X18672142Y6125986D02*
X18757857Y6168843D01*
X18757857Y6168843D02*
X18972142Y6168843D01*
X18972142Y6168843D02*
X19057857Y6125986D01*
X19057857Y6125986D02*
X19100714Y6083129D01*
X19100714Y6083129D02*
X19143571Y5997415D01*
X19143571Y5997415D02*
X19143571Y5911700D01*
X19143571Y5911700D02*
X19100714Y5783129D01*
X19100714Y5783129D02*
X18586428Y5268843D01*
X18586428Y5268843D02*
X19143571Y5268843D01*
X20000714Y5268843D02*
X19486428Y5268843D01*
X19743571Y5268843D02*
X19743571Y6168843D01*
X19743571Y6168843D02*
X19657857Y6040272D01*
X19657857Y6040272D02*
X19572142Y5954558D01*
X19572142Y5954558D02*
X19486428Y5911700D01*
X17343571Y3585986D02*
X17257857Y3628843D01*
X17257857Y3628843D02*
X17129285Y3628843D01*
X17129285Y3628843D02*
X17000714Y3585986D01*
X17000714Y3585986D02*
X16914999Y3500272D01*
X16914999Y3500272D02*
X16872142Y3414558D01*
X16872142Y3414558D02*
X16829285Y3243129D01*
X16829285Y3243129D02*
X16829285Y3114558D01*
X16829285Y3114558D02*
X16872142Y2943129D01*
X16872142Y2943129D02*
X16914999Y2857415D01*
X16914999Y2857415D02*
X17000714Y2771700D01*
X17000714Y2771700D02*
X17129285Y2728843D01*
X17129285Y2728843D02*
X17214999Y2728843D01*
X17214999Y2728843D02*
X17343571Y2771700D01*
X17343571Y2771700D02*
X17386428Y2814558D01*
X17386428Y2814558D02*
X17386428Y3114558D01*
X17386428Y3114558D02*
X17214999Y3114558D01*
X17772142Y2728843D02*
X17772142Y3628843D01*
X17772142Y3628843D02*
X18114999Y3628843D01*
X18114999Y3628843D02*
X18200714Y3585986D01*
X18200714Y3585986D02*
X18243571Y3543129D01*
X18243571Y3543129D02*
X18286428Y3457415D01*
X18286428Y3457415D02*
X18286428Y3328843D01*
X18286428Y3328843D02*
X18243571Y3243129D01*
X18243571Y3243129D02*
X18200714Y3200272D01*
X18200714Y3200272D02*
X18114999Y3157415D01*
X18114999Y3157415D02*
X17772142Y3157415D01*
X18629285Y3543129D02*
X18672142Y3585986D01*
X18672142Y3585986D02*
X18757857Y3628843D01*
X18757857Y3628843D02*
X18972142Y3628843D01*
X18972142Y3628843D02*
X19057857Y3585986D01*
X19057857Y3585986D02*
X19100714Y3543129D01*
X19100714Y3543129D02*
X19143571Y3457415D01*
X19143571Y3457415D02*
X19143571Y3371700D01*
X19143571Y3371700D02*
X19100714Y3243129D01*
X19100714Y3243129D02*
X18586428Y2728843D01*
X18586428Y2728843D02*
X19143571Y2728843D01*
X19700714Y3628843D02*
X19786428Y3628843D01*
X19786428Y3628843D02*
X19872142Y3585986D01*
X19872142Y3585986D02*
X19915000Y3543129D01*
X19915000Y3543129D02*
X19957857Y3457415D01*
X19957857Y3457415D02*
X20000714Y3285986D01*
X20000714Y3285986D02*
X20000714Y3071700D01*
X20000714Y3071700D02*
X19957857Y2900272D01*
X19957857Y2900272D02*
X19915000Y2814558D01*
X19915000Y2814558D02*
X19872142Y2771700D01*
X19872142Y2771700D02*
X19786428Y2728843D01*
X19786428Y2728843D02*
X19700714Y2728843D01*
X19700714Y2728843D02*
X19615000Y2771700D01*
X19615000Y2771700D02*
X19572142Y2814558D01*
X19572142Y2814558D02*
X19529285Y2900272D01*
X19529285Y2900272D02*
X19486428Y3071700D01*
X19486428Y3071700D02*
X19486428Y3285986D01*
X19486428Y3285986D02*
X19529285Y3457415D01*
X19529285Y3457415D02*
X19572142Y3543129D01*
X19572142Y3543129D02*
X19615000Y3585986D01*
X19615000Y3585986D02*
X19700714Y3628843D01*
X17343571Y1045986D02*
X17257857Y1088843D01*
X17257857Y1088843D02*
X17129285Y1088843D01*
X17129285Y1088843D02*
X17000714Y1045986D01*
X17000714Y1045986D02*
X16914999Y960272D01*
X16914999Y960272D02*
X16872142Y874558D01*
X16872142Y874558D02*
X16829285Y703129D01*
X16829285Y703129D02*
X16829285Y574558D01*
X16829285Y574558D02*
X16872142Y403129D01*
X16872142Y403129D02*
X16914999Y317415D01*
X16914999Y317415D02*
X17000714Y231700D01*
X17000714Y231700D02*
X17129285Y188843D01*
X17129285Y188843D02*
X17214999Y188843D01*
X17214999Y188843D02*
X17343571Y231700D01*
X17343571Y231700D02*
X17386428Y274558D01*
X17386428Y274558D02*
X17386428Y574558D01*
X17386428Y574558D02*
X17214999Y574558D01*
X17772142Y188843D02*
X17772142Y1088843D01*
X17772142Y1088843D02*
X18114999Y1088843D01*
X18114999Y1088843D02*
X18200714Y1045986D01*
X18200714Y1045986D02*
X18243571Y1003129D01*
X18243571Y1003129D02*
X18286428Y917415D01*
X18286428Y917415D02*
X18286428Y788843D01*
X18286428Y788843D02*
X18243571Y703129D01*
X18243571Y703129D02*
X18200714Y660272D01*
X18200714Y660272D02*
X18114999Y617415D01*
X18114999Y617415D02*
X17772142Y617415D01*
X19143571Y188843D02*
X18629285Y188843D01*
X18886428Y188843D02*
X18886428Y1088843D01*
X18886428Y1088843D02*
X18800714Y960272D01*
X18800714Y960272D02*
X18714999Y874558D01*
X18714999Y874558D02*
X18629285Y831700D01*
X19572142Y188843D02*
X19743571Y188843D01*
X19743571Y188843D02*
X19829285Y231700D01*
X19829285Y231700D02*
X19872142Y274558D01*
X19872142Y274558D02*
X19957857Y403129D01*
X19957857Y403129D02*
X20000714Y574558D01*
X20000714Y574558D02*
X20000714Y917415D01*
X20000714Y917415D02*
X19957857Y1003129D01*
X19957857Y1003129D02*
X19915000Y1045986D01*
X19915000Y1045986D02*
X19829285Y1088843D01*
X19829285Y1088843D02*
X19657857Y1088843D01*
X19657857Y1088843D02*
X19572142Y1045986D01*
X19572142Y1045986D02*
X19529285Y1003129D01*
X19529285Y1003129D02*
X19486428Y917415D01*
X19486428Y917415D02*
X19486428Y703129D01*
X19486428Y703129D02*
X19529285Y617415D01*
X19529285Y617415D02*
X19572142Y574558D01*
X19572142Y574558D02*
X19657857Y531700D01*
X19657857Y531700D02*
X19829285Y531700D01*
X19829285Y531700D02*
X19915000Y574558D01*
X19915000Y574558D02*
X19957857Y617415D01*
X19957857Y617415D02*
X20000714Y703129D01*
X17343571Y8665986D02*
X17257857Y8708843D01*
X17257857Y8708843D02*
X17129285Y8708843D01*
X17129285Y8708843D02*
X17000714Y8665986D01*
X17000714Y8665986D02*
X16914999Y8580272D01*
X16914999Y8580272D02*
X16872142Y8494558D01*
X16872142Y8494558D02*
X16829285Y8323129D01*
X16829285Y8323129D02*
X16829285Y8194558D01*
X16829285Y8194558D02*
X16872142Y8023129D01*
X16872142Y8023129D02*
X16914999Y7937415D01*
X16914999Y7937415D02*
X17000714Y7851700D01*
X17000714Y7851700D02*
X17129285Y7808843D01*
X17129285Y7808843D02*
X17214999Y7808843D01*
X17214999Y7808843D02*
X17343571Y7851700D01*
X17343571Y7851700D02*
X17386428Y7894558D01*
X17386428Y7894558D02*
X17386428Y8194558D01*
X17386428Y8194558D02*
X17214999Y8194558D01*
X17772142Y7808843D02*
X17772142Y8708843D01*
X17772142Y8708843D02*
X18114999Y8708843D01*
X18114999Y8708843D02*
X18200714Y8665986D01*
X18200714Y8665986D02*
X18243571Y8623129D01*
X18243571Y8623129D02*
X18286428Y8537415D01*
X18286428Y8537415D02*
X18286428Y8408843D01*
X18286428Y8408843D02*
X18243571Y8323129D01*
X18243571Y8323129D02*
X18200714Y8280272D01*
X18200714Y8280272D02*
X18114999Y8237415D01*
X18114999Y8237415D02*
X17772142Y8237415D01*
X18629285Y8623129D02*
X18672142Y8665986D01*
X18672142Y8665986D02*
X18757857Y8708843D01*
X18757857Y8708843D02*
X18972142Y8708843D01*
X18972142Y8708843D02*
X19057857Y8665986D01*
X19057857Y8665986D02*
X19100714Y8623129D01*
X19100714Y8623129D02*
X19143571Y8537415D01*
X19143571Y8537415D02*
X19143571Y8451700D01*
X19143571Y8451700D02*
X19100714Y8323129D01*
X19100714Y8323129D02*
X18586428Y7808843D01*
X18586428Y7808843D02*
X19143571Y7808843D01*
X19486428Y8623129D02*
X19529285Y8665986D01*
X19529285Y8665986D02*
X19615000Y8708843D01*
X19615000Y8708843D02*
X19829285Y8708843D01*
X19829285Y8708843D02*
X19915000Y8665986D01*
X19915000Y8665986D02*
X19957857Y8623129D01*
X19957857Y8623129D02*
X20000714Y8537415D01*
X20000714Y8537415D02*
X20000714Y8451700D01*
X20000714Y8451700D02*
X19957857Y8323129D01*
X19957857Y8323129D02*
X19443571Y7808843D01*
X19443571Y7808843D02*
X20000714Y7808843D01*
X17343571Y-1494014D02*
X17257857Y-1451157D01*
X17257857Y-1451157D02*
X17129285Y-1451157D01*
X17129285Y-1451157D02*
X17000714Y-1494014D01*
X17000714Y-1494014D02*
X16914999Y-1579728D01*
X16914999Y-1579728D02*
X16872142Y-1665442D01*
X16872142Y-1665442D02*
X16829285Y-1836871D01*
X16829285Y-1836871D02*
X16829285Y-1965442D01*
X16829285Y-1965442D02*
X16872142Y-2136871D01*
X16872142Y-2136871D02*
X16914999Y-2222585D01*
X16914999Y-2222585D02*
X17000714Y-2308300D01*
X17000714Y-2308300D02*
X17129285Y-2351157D01*
X17129285Y-2351157D02*
X17214999Y-2351157D01*
X17214999Y-2351157D02*
X17343571Y-2308300D01*
X17343571Y-2308300D02*
X17386428Y-2265442D01*
X17386428Y-2265442D02*
X17386428Y-1965442D01*
X17386428Y-1965442D02*
X17214999Y-1965442D01*
X17772142Y-2351157D02*
X17772142Y-1451157D01*
X17772142Y-1451157D02*
X18114999Y-1451157D01*
X18114999Y-1451157D02*
X18200714Y-1494014D01*
X18200714Y-1494014D02*
X18243571Y-1536871D01*
X18243571Y-1536871D02*
X18286428Y-1622585D01*
X18286428Y-1622585D02*
X18286428Y-1751157D01*
X18286428Y-1751157D02*
X18243571Y-1836871D01*
X18243571Y-1836871D02*
X18200714Y-1879728D01*
X18200714Y-1879728D02*
X18114999Y-1922585D01*
X18114999Y-1922585D02*
X17772142Y-1922585D01*
X19143571Y-2351157D02*
X18629285Y-2351157D01*
X18886428Y-2351157D02*
X18886428Y-1451157D01*
X18886428Y-1451157D02*
X18800714Y-1579728D01*
X18800714Y-1579728D02*
X18714999Y-1665442D01*
X18714999Y-1665442D02*
X18629285Y-1708300D01*
X19657857Y-1836871D02*
X19572142Y-1794014D01*
X19572142Y-1794014D02*
X19529285Y-1751157D01*
X19529285Y-1751157D02*
X19486428Y-1665442D01*
X19486428Y-1665442D02*
X19486428Y-1622585D01*
X19486428Y-1622585D02*
X19529285Y-1536871D01*
X19529285Y-1536871D02*
X19572142Y-1494014D01*
X19572142Y-1494014D02*
X19657857Y-1451157D01*
X19657857Y-1451157D02*
X19829285Y-1451157D01*
X19829285Y-1451157D02*
X19915000Y-1494014D01*
X19915000Y-1494014D02*
X19957857Y-1536871D01*
X19957857Y-1536871D02*
X20000714Y-1622585D01*
X20000714Y-1622585D02*
X20000714Y-1665442D01*
X20000714Y-1665442D02*
X19957857Y-1751157D01*
X19957857Y-1751157D02*
X19915000Y-1794014D01*
X19915000Y-1794014D02*
X19829285Y-1836871D01*
X19829285Y-1836871D02*
X19657857Y-1836871D01*
X19657857Y-1836871D02*
X19572142Y-1879728D01*
X19572142Y-1879728D02*
X19529285Y-1922585D01*
X19529285Y-1922585D02*
X19486428Y-2008300D01*
X19486428Y-2008300D02*
X19486428Y-2179728D01*
X19486428Y-2179728D02*
X19529285Y-2265442D01*
X19529285Y-2265442D02*
X19572142Y-2308300D01*
X19572142Y-2308300D02*
X19657857Y-2351157D01*
X19657857Y-2351157D02*
X19829285Y-2351157D01*
X19829285Y-2351157D02*
X19915000Y-2308300D01*
X19915000Y-2308300D02*
X19957857Y-2265442D01*
X19957857Y-2265442D02*
X20000714Y-2179728D01*
X20000714Y-2179728D02*
X20000714Y-2008300D01*
X20000714Y-2008300D02*
X19957857Y-1922585D01*
X19957857Y-1922585D02*
X19915000Y-1879728D01*
X19915000Y-1879728D02*
X19829285Y-1836871D01*
X15934786Y-15008300D02*
X16063358Y-15051157D01*
X16063358Y-15051157D02*
X16277643Y-15051157D01*
X16277643Y-15051157D02*
X16363358Y-15008300D01*
X16363358Y-15008300D02*
X16406215Y-14965442D01*
X16406215Y-14965442D02*
X16449072Y-14879728D01*
X16449072Y-14879728D02*
X16449072Y-14794014D01*
X16449072Y-14794014D02*
X16406215Y-14708300D01*
X16406215Y-14708300D02*
X16363358Y-14665442D01*
X16363358Y-14665442D02*
X16277643Y-14622585D01*
X16277643Y-14622585D02*
X16106215Y-14579728D01*
X16106215Y-14579728D02*
X16020500Y-14536871D01*
X16020500Y-14536871D02*
X15977643Y-14494014D01*
X15977643Y-14494014D02*
X15934786Y-14408300D01*
X15934786Y-14408300D02*
X15934786Y-14322585D01*
X15934786Y-14322585D02*
X15977643Y-14236871D01*
X15977643Y-14236871D02*
X16020500Y-14194014D01*
X16020500Y-14194014D02*
X16106215Y-14151157D01*
X16106215Y-14151157D02*
X16320500Y-14151157D01*
X16320500Y-14151157D02*
X16449072Y-14194014D01*
X16749072Y-14151157D02*
X16963358Y-15051157D01*
X16963358Y-15051157D02*
X17134786Y-14408300D01*
X17134786Y-14408300D02*
X17306215Y-15051157D01*
X17306215Y-15051157D02*
X17520501Y-14151157D01*
X18377643Y-14965442D02*
X18334786Y-15008300D01*
X18334786Y-15008300D02*
X18206214Y-15051157D01*
X18206214Y-15051157D02*
X18120500Y-15051157D01*
X18120500Y-15051157D02*
X17991929Y-15008300D01*
X17991929Y-15008300D02*
X17906214Y-14922585D01*
X17906214Y-14922585D02*
X17863357Y-14836871D01*
X17863357Y-14836871D02*
X17820500Y-14665442D01*
X17820500Y-14665442D02*
X17820500Y-14536871D01*
X17820500Y-14536871D02*
X17863357Y-14365442D01*
X17863357Y-14365442D02*
X17906214Y-14279728D01*
X17906214Y-14279728D02*
X17991929Y-14194014D01*
X17991929Y-14194014D02*
X18120500Y-14151157D01*
X18120500Y-14151157D02*
X18206214Y-14151157D01*
X18206214Y-14151157D02*
X18334786Y-14194014D01*
X18334786Y-14194014D02*
X18377643Y-14236871D01*
X19191929Y-15051157D02*
X18763357Y-15051157D01*
X18763357Y-15051157D02*
X18763357Y-14151157D01*
X19491928Y-15051157D02*
X19491928Y-14151157D01*
X20006214Y-15051157D02*
X19620500Y-14536871D01*
X20006214Y-14151157D02*
X19491928Y-14665442D01*
X17193571Y-12468300D02*
X17322143Y-12511157D01*
X17322143Y-12511157D02*
X17536428Y-12511157D01*
X17536428Y-12511157D02*
X17622143Y-12468300D01*
X17622143Y-12468300D02*
X17665000Y-12425442D01*
X17665000Y-12425442D02*
X17707857Y-12339728D01*
X17707857Y-12339728D02*
X17707857Y-12254014D01*
X17707857Y-12254014D02*
X17665000Y-12168300D01*
X17665000Y-12168300D02*
X17622143Y-12125442D01*
X17622143Y-12125442D02*
X17536428Y-12082585D01*
X17536428Y-12082585D02*
X17365000Y-12039728D01*
X17365000Y-12039728D02*
X17279285Y-11996871D01*
X17279285Y-11996871D02*
X17236428Y-11954014D01*
X17236428Y-11954014D02*
X17193571Y-11868300D01*
X17193571Y-11868300D02*
X17193571Y-11782585D01*
X17193571Y-11782585D02*
X17236428Y-11696871D01*
X17236428Y-11696871D02*
X17279285Y-11654014D01*
X17279285Y-11654014D02*
X17365000Y-11611157D01*
X17365000Y-11611157D02*
X17579285Y-11611157D01*
X17579285Y-11611157D02*
X17707857Y-11654014D01*
X18007857Y-11611157D02*
X18222143Y-12511157D01*
X18222143Y-12511157D02*
X18393571Y-11868300D01*
X18393571Y-11868300D02*
X18565000Y-12511157D01*
X18565000Y-12511157D02*
X18779286Y-11611157D01*
X19122142Y-12511157D02*
X19122142Y-11611157D01*
X19122142Y-11611157D02*
X19336428Y-11611157D01*
X19336428Y-11611157D02*
X19464999Y-11654014D01*
X19464999Y-11654014D02*
X19550714Y-11739728D01*
X19550714Y-11739728D02*
X19593571Y-11825442D01*
X19593571Y-11825442D02*
X19636428Y-11996871D01*
X19636428Y-11996871D02*
X19636428Y-12125442D01*
X19636428Y-12125442D02*
X19593571Y-12296871D01*
X19593571Y-12296871D02*
X19550714Y-12382585D01*
X19550714Y-12382585D02*
X19464999Y-12468300D01*
X19464999Y-12468300D02*
X19336428Y-12511157D01*
X19336428Y-12511157D02*
X19122142Y-12511157D01*
X17343571Y-6574014D02*
X17257857Y-6531157D01*
X17257857Y-6531157D02*
X17129285Y-6531157D01*
X17129285Y-6531157D02*
X17000714Y-6574014D01*
X17000714Y-6574014D02*
X16914999Y-6659728D01*
X16914999Y-6659728D02*
X16872142Y-6745442D01*
X16872142Y-6745442D02*
X16829285Y-6916871D01*
X16829285Y-6916871D02*
X16829285Y-7045442D01*
X16829285Y-7045442D02*
X16872142Y-7216871D01*
X16872142Y-7216871D02*
X16914999Y-7302585D01*
X16914999Y-7302585D02*
X17000714Y-7388300D01*
X17000714Y-7388300D02*
X17129285Y-7431157D01*
X17129285Y-7431157D02*
X17214999Y-7431157D01*
X17214999Y-7431157D02*
X17343571Y-7388300D01*
X17343571Y-7388300D02*
X17386428Y-7345442D01*
X17386428Y-7345442D02*
X17386428Y-7045442D01*
X17386428Y-7045442D02*
X17214999Y-7045442D01*
X17772142Y-7431157D02*
X17772142Y-6531157D01*
X17772142Y-6531157D02*
X18114999Y-6531157D01*
X18114999Y-6531157D02*
X18200714Y-6574014D01*
X18200714Y-6574014D02*
X18243571Y-6616871D01*
X18243571Y-6616871D02*
X18286428Y-6702585D01*
X18286428Y-6702585D02*
X18286428Y-6831157D01*
X18286428Y-6831157D02*
X18243571Y-6916871D01*
X18243571Y-6916871D02*
X18200714Y-6959728D01*
X18200714Y-6959728D02*
X18114999Y-7002585D01*
X18114999Y-7002585D02*
X17772142Y-7002585D01*
X19143571Y-7431157D02*
X18629285Y-7431157D01*
X18886428Y-7431157D02*
X18886428Y-6531157D01*
X18886428Y-6531157D02*
X18800714Y-6659728D01*
X18800714Y-6659728D02*
X18714999Y-6745442D01*
X18714999Y-6745442D02*
X18629285Y-6788300D01*
X19915000Y-6531157D02*
X19743571Y-6531157D01*
X19743571Y-6531157D02*
X19657857Y-6574014D01*
X19657857Y-6574014D02*
X19615000Y-6616871D01*
X19615000Y-6616871D02*
X19529285Y-6745442D01*
X19529285Y-6745442D02*
X19486428Y-6916871D01*
X19486428Y-6916871D02*
X19486428Y-7259728D01*
X19486428Y-7259728D02*
X19529285Y-7345442D01*
X19529285Y-7345442D02*
X19572142Y-7388300D01*
X19572142Y-7388300D02*
X19657857Y-7431157D01*
X19657857Y-7431157D02*
X19829285Y-7431157D01*
X19829285Y-7431157D02*
X19915000Y-7388300D01*
X19915000Y-7388300D02*
X19957857Y-7345442D01*
X19957857Y-7345442D02*
X20000714Y-7259728D01*
X20000714Y-7259728D02*
X20000714Y-7045442D01*
X20000714Y-7045442D02*
X19957857Y-6959728D01*
X19957857Y-6959728D02*
X19915000Y-6916871D01*
X19915000Y-6916871D02*
X19829285Y-6874014D01*
X19829285Y-6874014D02*
X19657857Y-6874014D01*
X19657857Y-6874014D02*
X19572142Y-6916871D01*
X19572142Y-6916871D02*
X19529285Y-6959728D01*
X19529285Y-6959728D02*
X19486428Y-7045442D01*
X17750714Y-9971157D02*
X17450714Y-9542585D01*
X17236428Y-9971157D02*
X17236428Y-9071157D01*
X17236428Y-9071157D02*
X17579285Y-9071157D01*
X17579285Y-9071157D02*
X17665000Y-9114014D01*
X17665000Y-9114014D02*
X17707857Y-9156871D01*
X17707857Y-9156871D02*
X17750714Y-9242585D01*
X17750714Y-9242585D02*
X17750714Y-9371157D01*
X17750714Y-9371157D02*
X17707857Y-9456871D01*
X17707857Y-9456871D02*
X17665000Y-9499728D01*
X17665000Y-9499728D02*
X17579285Y-9542585D01*
X17579285Y-9542585D02*
X17236428Y-9542585D01*
X18136428Y-9071157D02*
X18136428Y-9799728D01*
X18136428Y-9799728D02*
X18179285Y-9885442D01*
X18179285Y-9885442D02*
X18222143Y-9928300D01*
X18222143Y-9928300D02*
X18307857Y-9971157D01*
X18307857Y-9971157D02*
X18479285Y-9971157D01*
X18479285Y-9971157D02*
X18565000Y-9928300D01*
X18565000Y-9928300D02*
X18607857Y-9885442D01*
X18607857Y-9885442D02*
X18650714Y-9799728D01*
X18650714Y-9799728D02*
X18650714Y-9071157D01*
X19079285Y-9971157D02*
X19079285Y-9071157D01*
X19079285Y-9071157D02*
X19593571Y-9971157D01*
X19593571Y-9971157D02*
X19593571Y-9071157D01*
X-19100714Y-16734014D02*
X-19186428Y-16691157D01*
X-19186428Y-16691157D02*
X-19315000Y-16691157D01*
X-19315000Y-16691157D02*
X-19443571Y-16734014D01*
X-19443571Y-16734014D02*
X-19529286Y-16819728D01*
X-19529286Y-16819728D02*
X-19572143Y-16905442D01*
X-19572143Y-16905442D02*
X-19615000Y-17076871D01*
X-19615000Y-17076871D02*
X-19615000Y-17205442D01*
X-19615000Y-17205442D02*
X-19572143Y-17376871D01*
X-19572143Y-17376871D02*
X-19529286Y-17462585D01*
X-19529286Y-17462585D02*
X-19443571Y-17548300D01*
X-19443571Y-17548300D02*
X-19315000Y-17591157D01*
X-19315000Y-17591157D02*
X-19229286Y-17591157D01*
X-19229286Y-17591157D02*
X-19100714Y-17548300D01*
X-19100714Y-17548300D02*
X-19057857Y-17505442D01*
X-19057857Y-17505442D02*
X-19057857Y-17205442D01*
X-19057857Y-17205442D02*
X-19229286Y-17205442D01*
X-18672143Y-17591157D02*
X-18672143Y-16691157D01*
X-18672143Y-16691157D02*
X-18157857Y-17591157D01*
X-18157857Y-17591157D02*
X-18157857Y-16691157D01*
X-17729286Y-17591157D02*
X-17729286Y-16691157D01*
X-17729286Y-16691157D02*
X-17515000Y-16691157D01*
X-17515000Y-16691157D02*
X-17386429Y-16734014D01*
X-17386429Y-16734014D02*
X-17300714Y-16819728D01*
X-17300714Y-16819728D02*
X-17257857Y-16905442D01*
X-17257857Y-16905442D02*
X-17215000Y-17076871D01*
X-17215000Y-17076871D02*
X-17215000Y-17205442D01*
X-17215000Y-17205442D02*
X-17257857Y-17376871D01*
X-17257857Y-17376871D02*
X-17300714Y-17462585D01*
X-17300714Y-17462585D02*
X-17386429Y-17548300D01*
X-17386429Y-17548300D02*
X-17515000Y-17591157D01*
X-17515000Y-17591157D02*
X-17729286Y-17591157D01*
X17729286Y-16734014D02*
X17643572Y-16691157D01*
X17643572Y-16691157D02*
X17515000Y-16691157D01*
X17515000Y-16691157D02*
X17386429Y-16734014D01*
X17386429Y-16734014D02*
X17300714Y-16819728D01*
X17300714Y-16819728D02*
X17257857Y-16905442D01*
X17257857Y-16905442D02*
X17215000Y-17076871D01*
X17215000Y-17076871D02*
X17215000Y-17205442D01*
X17215000Y-17205442D02*
X17257857Y-17376871D01*
X17257857Y-17376871D02*
X17300714Y-17462585D01*
X17300714Y-17462585D02*
X17386429Y-17548300D01*
X17386429Y-17548300D02*
X17515000Y-17591157D01*
X17515000Y-17591157D02*
X17600714Y-17591157D01*
X17600714Y-17591157D02*
X17729286Y-17548300D01*
X17729286Y-17548300D02*
X17772143Y-17505442D01*
X17772143Y-17505442D02*
X17772143Y-17205442D01*
X17772143Y-17205442D02*
X17600714Y-17205442D01*
X18157857Y-17591157D02*
X18157857Y-16691157D01*
X18157857Y-16691157D02*
X18672143Y-17591157D01*
X18672143Y-17591157D02*
X18672143Y-16691157D01*
X19100714Y-17591157D02*
X19100714Y-16691157D01*
X19100714Y-16691157D02*
X19315000Y-16691157D01*
X19315000Y-16691157D02*
X19443571Y-16734014D01*
X19443571Y-16734014D02*
X19529286Y-16819728D01*
X19529286Y-16819728D02*
X19572143Y-16905442D01*
X19572143Y-16905442D02*
X19615000Y-17076871D01*
X19615000Y-17076871D02*
X19615000Y-17205442D01*
X19615000Y-17205442D02*
X19572143Y-17376871D01*
X19572143Y-17376871D02*
X19529286Y-17462585D01*
X19529286Y-17462585D02*
X19443571Y-17548300D01*
X19443571Y-17548300D02*
X19315000Y-17591157D01*
X19315000Y-17591157D02*
X19100714Y-17591157D01*
X17343571Y22845986D02*
X17257857Y22888843D01*
X17257857Y22888843D02*
X17129285Y22888843D01*
X17129285Y22888843D02*
X17000714Y22845986D01*
X17000714Y22845986D02*
X16914999Y22760272D01*
X16914999Y22760272D02*
X16872142Y22674558D01*
X16872142Y22674558D02*
X16829285Y22503129D01*
X16829285Y22503129D02*
X16829285Y22374558D01*
X16829285Y22374558D02*
X16872142Y22203129D01*
X16872142Y22203129D02*
X16914999Y22117415D01*
X16914999Y22117415D02*
X17000714Y22031700D01*
X17000714Y22031700D02*
X17129285Y21988843D01*
X17129285Y21988843D02*
X17214999Y21988843D01*
X17214999Y21988843D02*
X17343571Y22031700D01*
X17343571Y22031700D02*
X17386428Y22074558D01*
X17386428Y22074558D02*
X17386428Y22374558D01*
X17386428Y22374558D02*
X17214999Y22374558D01*
X17772142Y21988843D02*
X17772142Y22888843D01*
X17772142Y22888843D02*
X18114999Y22888843D01*
X18114999Y22888843D02*
X18200714Y22845986D01*
X18200714Y22845986D02*
X18243571Y22803129D01*
X18243571Y22803129D02*
X18286428Y22717415D01*
X18286428Y22717415D02*
X18286428Y22588843D01*
X18286428Y22588843D02*
X18243571Y22503129D01*
X18243571Y22503129D02*
X18200714Y22460272D01*
X18200714Y22460272D02*
X18114999Y22417415D01*
X18114999Y22417415D02*
X17772142Y22417415D01*
X18629285Y22803129D02*
X18672142Y22845986D01*
X18672142Y22845986D02*
X18757857Y22888843D01*
X18757857Y22888843D02*
X18972142Y22888843D01*
X18972142Y22888843D02*
X19057857Y22845986D01*
X19057857Y22845986D02*
X19100714Y22803129D01*
X19100714Y22803129D02*
X19143571Y22717415D01*
X19143571Y22717415D02*
X19143571Y22631700D01*
X19143571Y22631700D02*
X19100714Y22503129D01*
X19100714Y22503129D02*
X18586428Y21988843D01*
X18586428Y21988843D02*
X19143571Y21988843D01*
X19572142Y21988843D02*
X19743571Y21988843D01*
X19743571Y21988843D02*
X19829285Y22031700D01*
X19829285Y22031700D02*
X19872142Y22074558D01*
X19872142Y22074558D02*
X19957857Y22203129D01*
X19957857Y22203129D02*
X20000714Y22374558D01*
X20000714Y22374558D02*
X20000714Y22717415D01*
X20000714Y22717415D02*
X19957857Y22803129D01*
X19957857Y22803129D02*
X19915000Y22845986D01*
X19915000Y22845986D02*
X19829285Y22888843D01*
X19829285Y22888843D02*
X19657857Y22888843D01*
X19657857Y22888843D02*
X19572142Y22845986D01*
X19572142Y22845986D02*
X19529285Y22803129D01*
X19529285Y22803129D02*
X19486428Y22717415D01*
X19486428Y22717415D02*
X19486428Y22503129D01*
X19486428Y22503129D02*
X19529285Y22417415D01*
X19529285Y22417415D02*
X19572142Y22374558D01*
X19572142Y22374558D02*
X19657857Y22331700D01*
X19657857Y22331700D02*
X19829285Y22331700D01*
X19829285Y22331700D02*
X19915000Y22374558D01*
X19915000Y22374558D02*
X19957857Y22417415D01*
X19957857Y22417415D02*
X20000714Y22503129D01*
D11*
X-14694820Y9743334D02*
X-14694820Y9552858D01*
X-14694820Y9552858D02*
X-14742439Y9457620D01*
X-14742439Y9457620D02*
X-14837677Y9362382D01*
X-14837677Y9362382D02*
X-15028153Y9314763D01*
X-15028153Y9314763D02*
X-15361486Y9314763D01*
X-15361486Y9314763D02*
X-15551962Y9362382D01*
X-15551962Y9362382D02*
X-15647200Y9457620D01*
X-15647200Y9457620D02*
X-15694820Y9552858D01*
X-15694820Y9552858D02*
X-15694820Y9743334D01*
X-15694820Y9743334D02*
X-15647200Y9838572D01*
X-15647200Y9838572D02*
X-15551962Y9933810D01*
X-15551962Y9933810D02*
X-15361486Y9981429D01*
X-15361486Y9981429D02*
X-15028153Y9981429D01*
X-15028153Y9981429D02*
X-14837677Y9933810D01*
X-14837677Y9933810D02*
X-14742439Y9838572D01*
X-14742439Y9838572D02*
X-14694820Y9743334D01*
X-15028153Y8457620D02*
X-15694820Y8457620D01*
X-15028153Y8886191D02*
X-15551962Y8886191D01*
X-15551962Y8886191D02*
X-15647200Y8838572D01*
X-15647200Y8838572D02*
X-15694820Y8743334D01*
X-15694820Y8743334D02*
X-15694820Y8600477D01*
X-15694820Y8600477D02*
X-15647200Y8505239D01*
X-15647200Y8505239D02*
X-15599581Y8457620D01*
X-15028153Y8124286D02*
X-15028153Y7743334D01*
X-14694820Y7981429D02*
X-15551962Y7981429D01*
X-15551962Y7981429D02*
X-15647200Y7933810D01*
X-15647200Y7933810D02*
X-15694820Y7838572D01*
X-15694820Y7838572D02*
X-15694820Y7743334D01*
X-15647200Y7029048D02*
X-15694820Y7124286D01*
X-15694820Y7124286D02*
X-15694820Y7314762D01*
X-15694820Y7314762D02*
X-15647200Y7410000D01*
X-15647200Y7410000D02*
X-15551962Y7457619D01*
X-15551962Y7457619D02*
X-15171010Y7457619D01*
X-15171010Y7457619D02*
X-15075772Y7410000D01*
X-15075772Y7410000D02*
X-15028153Y7314762D01*
X-15028153Y7314762D02*
X-15028153Y7124286D01*
X-15028153Y7124286D02*
X-15075772Y7029048D01*
X-15075772Y7029048D02*
X-15171010Y6981429D01*
X-15171010Y6981429D02*
X-15266248Y6981429D01*
X-15266248Y6981429D02*
X-15361486Y7457619D01*
X-15694820Y6552857D02*
X-15028153Y6552857D01*
X-15218629Y6552857D02*
X-15123391Y6505238D01*
X-15123391Y6505238D02*
X-15075772Y6457619D01*
X-15075772Y6457619D02*
X-15028153Y6362381D01*
X-15028153Y6362381D02*
X-15028153Y6267143D01*
X-15694820Y4600476D02*
X-15218629Y4933809D01*
X-15694820Y5171904D02*
X-14694820Y5171904D01*
X-14694820Y5171904D02*
X-14694820Y4790952D01*
X-14694820Y4790952D02*
X-14742439Y4695714D01*
X-14742439Y4695714D02*
X-14790058Y4648095D01*
X-14790058Y4648095D02*
X-14885296Y4600476D01*
X-14885296Y4600476D02*
X-15028153Y4600476D01*
X-15028153Y4600476D02*
X-15123391Y4648095D01*
X-15123391Y4648095D02*
X-15171010Y4695714D01*
X-15171010Y4695714D02*
X-15218629Y4790952D01*
X-15218629Y4790952D02*
X-15218629Y5171904D01*
X-15694820Y4029047D02*
X-15647200Y4124285D01*
X-15647200Y4124285D02*
X-15599581Y4171904D01*
X-15599581Y4171904D02*
X-15504343Y4219523D01*
X-15504343Y4219523D02*
X-15218629Y4219523D01*
X-15218629Y4219523D02*
X-15123391Y4171904D01*
X-15123391Y4171904D02*
X-15075772Y4124285D01*
X-15075772Y4124285D02*
X-15028153Y4029047D01*
X-15028153Y4029047D02*
X-15028153Y3886190D01*
X-15028153Y3886190D02*
X-15075772Y3790952D01*
X-15075772Y3790952D02*
X-15123391Y3743333D01*
X-15123391Y3743333D02*
X-15218629Y3695714D01*
X-15218629Y3695714D02*
X-15504343Y3695714D01*
X-15504343Y3695714D02*
X-15599581Y3743333D01*
X-15599581Y3743333D02*
X-15647200Y3790952D01*
X-15647200Y3790952D02*
X-15694820Y3886190D01*
X-15694820Y3886190D02*
X-15694820Y4029047D01*
X-15028153Y3362380D02*
X-15694820Y3171904D01*
X-15694820Y3171904D02*
X-15218629Y2981428D01*
X-15218629Y2981428D02*
X-15694820Y2790952D01*
X-15694820Y2790952D02*
X-15028153Y2600476D01*
X-14742439Y933809D02*
X-14694820Y1029047D01*
X-14694820Y1029047D02*
X-14694820Y1171904D01*
X-14694820Y1171904D02*
X-14742439Y1314761D01*
X-14742439Y1314761D02*
X-14837677Y1409999D01*
X-14837677Y1409999D02*
X-14932915Y1457618D01*
X-14932915Y1457618D02*
X-15123391Y1505237D01*
X-15123391Y1505237D02*
X-15266248Y1505237D01*
X-15266248Y1505237D02*
X-15456724Y1457618D01*
X-15456724Y1457618D02*
X-15551962Y1409999D01*
X-15551962Y1409999D02*
X-15647200Y1314761D01*
X-15647200Y1314761D02*
X-15694820Y1171904D01*
X-15694820Y1171904D02*
X-15694820Y1076666D01*
X-15694820Y1076666D02*
X-15647200Y933809D01*
X-15647200Y933809D02*
X-15599581Y886190D01*
X-15599581Y886190D02*
X-15266248Y886190D01*
X-15266248Y886190D02*
X-15266248Y1076666D01*
X-15694820Y457618D02*
X-14694820Y457618D01*
X-14694820Y457618D02*
X-15694820Y-113810D01*
X-15694820Y-113810D02*
X-14694820Y-113810D01*
X-15694820Y-590001D02*
X-14694820Y-590001D01*
X-14694820Y-590001D02*
X-14694820Y-828096D01*
X-14694820Y-828096D02*
X-14742439Y-970953D01*
X-14742439Y-970953D02*
X-14837677Y-1066191D01*
X-14837677Y-1066191D02*
X-14932915Y-1113810D01*
X-14932915Y-1113810D02*
X-15123391Y-1161429D01*
X-15123391Y-1161429D02*
X-15266248Y-1161429D01*
X-15266248Y-1161429D02*
X-15456724Y-1113810D01*
X-15456724Y-1113810D02*
X-15551962Y-1066191D01*
X-15551962Y-1066191D02*
X-15647200Y-970953D01*
X-15647200Y-970953D02*
X-15694820Y-828096D01*
X-15694820Y-828096D02*
X-15694820Y-590001D01*
X14694819Y-923333D02*
X14694819Y-732857D01*
X14694819Y-732857D02*
X14742438Y-637619D01*
X14742438Y-637619D02*
X14837676Y-542381D01*
X14837676Y-542381D02*
X15028152Y-494762D01*
X15028152Y-494762D02*
X15361485Y-494762D01*
X15361485Y-494762D02*
X15551961Y-542381D01*
X15551961Y-542381D02*
X15647200Y-637619D01*
X15647200Y-637619D02*
X15694819Y-732857D01*
X15694819Y-732857D02*
X15694819Y-923333D01*
X15694819Y-923333D02*
X15647200Y-1018571D01*
X15647200Y-1018571D02*
X15551961Y-1113809D01*
X15551961Y-1113809D02*
X15361485Y-1161428D01*
X15361485Y-1161428D02*
X15028152Y-1161428D01*
X15028152Y-1161428D02*
X14837676Y-1113809D01*
X14837676Y-1113809D02*
X14742438Y-1018571D01*
X14742438Y-1018571D02*
X14694819Y-923333D01*
X15028152Y362381D02*
X15694819Y362381D01*
X15028152Y-66190D02*
X15551961Y-66190D01*
X15551961Y-66190D02*
X15647200Y-18571D01*
X15647200Y-18571D02*
X15694819Y76667D01*
X15694819Y76667D02*
X15694819Y219524D01*
X15694819Y219524D02*
X15647200Y314762D01*
X15647200Y314762D02*
X15599580Y362381D01*
X15028152Y695715D02*
X15028152Y1076667D01*
X14694819Y838572D02*
X15551961Y838572D01*
X15551961Y838572D02*
X15647200Y886191D01*
X15647200Y886191D02*
X15694819Y981429D01*
X15694819Y981429D02*
X15694819Y1076667D01*
X15647200Y1790953D02*
X15694819Y1695715D01*
X15694819Y1695715D02*
X15694819Y1505239D01*
X15694819Y1505239D02*
X15647200Y1410001D01*
X15647200Y1410001D02*
X15551961Y1362382D01*
X15551961Y1362382D02*
X15171009Y1362382D01*
X15171009Y1362382D02*
X15075771Y1410001D01*
X15075771Y1410001D02*
X15028152Y1505239D01*
X15028152Y1505239D02*
X15028152Y1695715D01*
X15028152Y1695715D02*
X15075771Y1790953D01*
X15075771Y1790953D02*
X15171009Y1838572D01*
X15171009Y1838572D02*
X15266247Y1838572D01*
X15266247Y1838572D02*
X15361485Y1362382D01*
X15694819Y2267144D02*
X15028152Y2267144D01*
X15218628Y2267144D02*
X15123390Y2314763D01*
X15123390Y2314763D02*
X15075771Y2362382D01*
X15075771Y2362382D02*
X15028152Y2457620D01*
X15028152Y2457620D02*
X15028152Y2552858D01*
X15694819Y4219525D02*
X15218628Y3886192D01*
X15694819Y3648097D02*
X14694819Y3648097D01*
X14694819Y3648097D02*
X14694819Y4029049D01*
X14694819Y4029049D02*
X14742438Y4124287D01*
X14742438Y4124287D02*
X14790057Y4171906D01*
X14790057Y4171906D02*
X14885295Y4219525D01*
X14885295Y4219525D02*
X15028152Y4219525D01*
X15028152Y4219525D02*
X15123390Y4171906D01*
X15123390Y4171906D02*
X15171009Y4124287D01*
X15171009Y4124287D02*
X15218628Y4029049D01*
X15218628Y4029049D02*
X15218628Y3648097D01*
X15694819Y4790954D02*
X15647200Y4695716D01*
X15647200Y4695716D02*
X15599580Y4648097D01*
X15599580Y4648097D02*
X15504342Y4600478D01*
X15504342Y4600478D02*
X15218628Y4600478D01*
X15218628Y4600478D02*
X15123390Y4648097D01*
X15123390Y4648097D02*
X15075771Y4695716D01*
X15075771Y4695716D02*
X15028152Y4790954D01*
X15028152Y4790954D02*
X15028152Y4933811D01*
X15028152Y4933811D02*
X15075771Y5029049D01*
X15075771Y5029049D02*
X15123390Y5076668D01*
X15123390Y5076668D02*
X15218628Y5124287D01*
X15218628Y5124287D02*
X15504342Y5124287D01*
X15504342Y5124287D02*
X15599580Y5076668D01*
X15599580Y5076668D02*
X15647200Y5029049D01*
X15647200Y5029049D02*
X15694819Y4933811D01*
X15694819Y4933811D02*
X15694819Y4790954D01*
X15028152Y5457621D02*
X15694819Y5648097D01*
X15694819Y5648097D02*
X15218628Y5838573D01*
X15218628Y5838573D02*
X15694819Y6029049D01*
X15694819Y6029049D02*
X15028152Y6219525D01*
X14742438Y7886192D02*
X14694819Y7790954D01*
X14694819Y7790954D02*
X14694819Y7648097D01*
X14694819Y7648097D02*
X14742438Y7505240D01*
X14742438Y7505240D02*
X14837676Y7410002D01*
X14837676Y7410002D02*
X14932914Y7362383D01*
X14932914Y7362383D02*
X15123390Y7314764D01*
X15123390Y7314764D02*
X15266247Y7314764D01*
X15266247Y7314764D02*
X15456723Y7362383D01*
X15456723Y7362383D02*
X15551961Y7410002D01*
X15551961Y7410002D02*
X15647200Y7505240D01*
X15647200Y7505240D02*
X15694819Y7648097D01*
X15694819Y7648097D02*
X15694819Y7743335D01*
X15694819Y7743335D02*
X15647200Y7886192D01*
X15647200Y7886192D02*
X15599580Y7933811D01*
X15599580Y7933811D02*
X15266247Y7933811D01*
X15266247Y7933811D02*
X15266247Y7743335D01*
X15694819Y8362383D02*
X14694819Y8362383D01*
X14694819Y8362383D02*
X15694819Y8933811D01*
X15694819Y8933811D02*
X14694819Y8933811D01*
X15694819Y9410002D02*
X14694819Y9410002D01*
X14694819Y9410002D02*
X14694819Y9648097D01*
X14694819Y9648097D02*
X14742438Y9790954D01*
X14742438Y9790954D02*
X14837676Y9886192D01*
X14837676Y9886192D02*
X14932914Y9933811D01*
X14932914Y9933811D02*
X15123390Y9981430D01*
X15123390Y9981430D02*
X15266247Y9981430D01*
X15266247Y9981430D02*
X15456723Y9933811D01*
X15456723Y9933811D02*
X15551961Y9886192D01*
X15551961Y9886192D02*
X15647200Y9790954D01*
X15647200Y9790954D02*
X15694819Y9648097D01*
X15694819Y9648097D02*
X15694819Y9410002D01*
X-7285716Y-17354819D02*
X-7619049Y-16878628D01*
X-7857144Y-17354819D02*
X-7857144Y-16354819D01*
X-7857144Y-16354819D02*
X-7476192Y-16354819D01*
X-7476192Y-16354819D02*
X-7380954Y-16402438D01*
X-7380954Y-16402438D02*
X-7333335Y-16450057D01*
X-7333335Y-16450057D02*
X-7285716Y-16545295D01*
X-7285716Y-16545295D02*
X-7285716Y-16688152D01*
X-7285716Y-16688152D02*
X-7333335Y-16783390D01*
X-7333335Y-16783390D02*
X-7380954Y-16831009D01*
X-7380954Y-16831009D02*
X-7476192Y-16878628D01*
X-7476192Y-16878628D02*
X-7857144Y-16878628D01*
X-6428573Y-17354819D02*
X-6428573Y-16831009D01*
X-6428573Y-16831009D02*
X-6476192Y-16735771D01*
X-6476192Y-16735771D02*
X-6571430Y-16688152D01*
X-6571430Y-16688152D02*
X-6761906Y-16688152D01*
X-6761906Y-16688152D02*
X-6857144Y-16735771D01*
X-6428573Y-17307200D02*
X-6523811Y-17354819D01*
X-6523811Y-17354819D02*
X-6761906Y-17354819D01*
X-6761906Y-17354819D02*
X-6857144Y-17307200D01*
X-6857144Y-17307200D02*
X-6904763Y-17211961D01*
X-6904763Y-17211961D02*
X-6904763Y-17116723D01*
X-6904763Y-17116723D02*
X-6857144Y-17021485D01*
X-6857144Y-17021485D02*
X-6761906Y-16973866D01*
X-6761906Y-16973866D02*
X-6523811Y-16973866D01*
X-6523811Y-16973866D02*
X-6428573Y-16926247D01*
X-6000001Y-17307200D02*
X-5904763Y-17354819D01*
X-5904763Y-17354819D02*
X-5714287Y-17354819D01*
X-5714287Y-17354819D02*
X-5619049Y-17307200D01*
X-5619049Y-17307200D02*
X-5571430Y-17211961D01*
X-5571430Y-17211961D02*
X-5571430Y-17164342D01*
X-5571430Y-17164342D02*
X-5619049Y-17069104D01*
X-5619049Y-17069104D02*
X-5714287Y-17021485D01*
X-5714287Y-17021485D02*
X-5857144Y-17021485D01*
X-5857144Y-17021485D02*
X-5952382Y-16973866D01*
X-5952382Y-16973866D02*
X-6000001Y-16878628D01*
X-6000001Y-16878628D02*
X-6000001Y-16831009D01*
X-6000001Y-16831009D02*
X-5952382Y-16735771D01*
X-5952382Y-16735771D02*
X-5857144Y-16688152D01*
X-5857144Y-16688152D02*
X-5714287Y-16688152D01*
X-5714287Y-16688152D02*
X-5619049Y-16735771D01*
X-5142858Y-16688152D02*
X-5142858Y-17688152D01*
X-5142858Y-16735771D02*
X-5047620Y-16688152D01*
X-5047620Y-16688152D02*
X-4857144Y-16688152D01*
X-4857144Y-16688152D02*
X-4761906Y-16735771D01*
X-4761906Y-16735771D02*
X-4714287Y-16783390D01*
X-4714287Y-16783390D02*
X-4666668Y-16878628D01*
X-4666668Y-16878628D02*
X-4666668Y-17164342D01*
X-4666668Y-17164342D02*
X-4714287Y-17259580D01*
X-4714287Y-17259580D02*
X-4761906Y-17307200D01*
X-4761906Y-17307200D02*
X-4857144Y-17354819D01*
X-4857144Y-17354819D02*
X-5047620Y-17354819D01*
X-5047620Y-17354819D02*
X-5142858Y-17307200D01*
X-4238096Y-17354819D02*
X-4238096Y-16354819D01*
X-4238096Y-16735771D02*
X-4142858Y-16688152D01*
X-4142858Y-16688152D02*
X-3952382Y-16688152D01*
X-3952382Y-16688152D02*
X-3857144Y-16735771D01*
X-3857144Y-16735771D02*
X-3809525Y-16783390D01*
X-3809525Y-16783390D02*
X-3761906Y-16878628D01*
X-3761906Y-16878628D02*
X-3761906Y-17164342D01*
X-3761906Y-17164342D02*
X-3809525Y-17259580D01*
X-3809525Y-17259580D02*
X-3857144Y-17307200D01*
X-3857144Y-17307200D02*
X-3952382Y-17354819D01*
X-3952382Y-17354819D02*
X-4142858Y-17354819D01*
X-4142858Y-17354819D02*
X-4238096Y-17307200D01*
X-2952382Y-17307200D02*
X-3047620Y-17354819D01*
X-3047620Y-17354819D02*
X-3238096Y-17354819D01*
X-3238096Y-17354819D02*
X-3333334Y-17307200D01*
X-3333334Y-17307200D02*
X-3380953Y-17211961D01*
X-3380953Y-17211961D02*
X-3380953Y-16831009D01*
X-3380953Y-16831009D02*
X-3333334Y-16735771D01*
X-3333334Y-16735771D02*
X-3238096Y-16688152D01*
X-3238096Y-16688152D02*
X-3047620Y-16688152D01*
X-3047620Y-16688152D02*
X-2952382Y-16735771D01*
X-2952382Y-16735771D02*
X-2904763Y-16831009D01*
X-2904763Y-16831009D02*
X-2904763Y-16926247D01*
X-2904763Y-16926247D02*
X-3380953Y-17021485D01*
X-2476191Y-17354819D02*
X-2476191Y-16688152D01*
X-2476191Y-16878628D02*
X-2428572Y-16783390D01*
X-2428572Y-16783390D02*
X-2380953Y-16735771D01*
X-2380953Y-16735771D02*
X-2285715Y-16688152D01*
X-2285715Y-16688152D02*
X-2190477Y-16688152D01*
X-1857143Y-17354819D02*
X-1857143Y-16688152D01*
X-1857143Y-16878628D02*
X-1809524Y-16783390D01*
X-1809524Y-16783390D02*
X-1761905Y-16735771D01*
X-1761905Y-16735771D02*
X-1666667Y-16688152D01*
X-1666667Y-16688152D02*
X-1571429Y-16688152D01*
X-1333333Y-16688152D02*
X-1095238Y-17354819D01*
X-857143Y-16688152D02*
X-1095238Y-17354819D01*
X-1095238Y-17354819D02*
X-1190476Y-17592914D01*
X-1190476Y-17592914D02*
X-1238095Y-17640533D01*
X-1238095Y-17640533D02*
X-1333333Y-17688152D01*
X285715Y-17354819D02*
X285715Y-16354819D01*
X285715Y-16354819D02*
X666667Y-16354819D01*
X666667Y-16354819D02*
X761905Y-16402438D01*
X761905Y-16402438D02*
X809524Y-16450057D01*
X809524Y-16450057D02*
X857143Y-16545295D01*
X857143Y-16545295D02*
X857143Y-16688152D01*
X857143Y-16688152D02*
X809524Y-16783390D01*
X809524Y-16783390D02*
X761905Y-16831009D01*
X761905Y-16831009D02*
X666667Y-16878628D01*
X666667Y-16878628D02*
X285715Y-16878628D01*
X1285715Y-17354819D02*
X1285715Y-16688152D01*
X1285715Y-16354819D02*
X1238096Y-16402438D01*
X1238096Y-16402438D02*
X1285715Y-16450057D01*
X1285715Y-16450057D02*
X1333334Y-16402438D01*
X1333334Y-16402438D02*
X1285715Y-16354819D01*
X1285715Y-16354819D02*
X1285715Y-16450057D01*
X3095238Y-17354819D02*
X2761905Y-16878628D01*
X2523810Y-17354819D02*
X2523810Y-16354819D01*
X2523810Y-16354819D02*
X2904762Y-16354819D01*
X2904762Y-16354819D02*
X3000000Y-16402438D01*
X3000000Y-16402438D02*
X3047619Y-16450057D01*
X3047619Y-16450057D02*
X3095238Y-16545295D01*
X3095238Y-16545295D02*
X3095238Y-16688152D01*
X3095238Y-16688152D02*
X3047619Y-16783390D01*
X3047619Y-16783390D02*
X3000000Y-16831009D01*
X3000000Y-16831009D02*
X2904762Y-16878628D01*
X2904762Y-16878628D02*
X2523810Y-16878628D01*
X3523810Y-17354819D02*
X3523810Y-16354819D01*
X3523810Y-16354819D02*
X3904762Y-16354819D01*
X3904762Y-16354819D02*
X4000000Y-16402438D01*
X4000000Y-16402438D02*
X4047619Y-16450057D01*
X4047619Y-16450057D02*
X4095238Y-16545295D01*
X4095238Y-16545295D02*
X4095238Y-16688152D01*
X4095238Y-16688152D02*
X4047619Y-16783390D01*
X4047619Y-16783390D02*
X4000000Y-16831009D01*
X4000000Y-16831009D02*
X3904762Y-16878628D01*
X3904762Y-16878628D02*
X3523810Y-16878628D01*
X4476191Y-16450057D02*
X4523810Y-16402438D01*
X4523810Y-16402438D02*
X4619048Y-16354819D01*
X4619048Y-16354819D02*
X4857143Y-16354819D01*
X4857143Y-16354819D02*
X4952381Y-16402438D01*
X4952381Y-16402438D02*
X5000000Y-16450057D01*
X5000000Y-16450057D02*
X5047619Y-16545295D01*
X5047619Y-16545295D02*
X5047619Y-16640533D01*
X5047619Y-16640533D02*
X5000000Y-16783390D01*
X5000000Y-16783390D02*
X4428572Y-17354819D01*
X4428572Y-17354819D02*
X5047619Y-17354819D01*
X5666667Y-16354819D02*
X5761905Y-16354819D01*
X5761905Y-16354819D02*
X5857143Y-16402438D01*
X5857143Y-16402438D02*
X5904762Y-16450057D01*
X5904762Y-16450057D02*
X5952381Y-16545295D01*
X5952381Y-16545295D02*
X6000000Y-16735771D01*
X6000000Y-16735771D02*
X6000000Y-16973866D01*
X6000000Y-16973866D02*
X5952381Y-17164342D01*
X5952381Y-17164342D02*
X5904762Y-17259580D01*
X5904762Y-17259580D02*
X5857143Y-17307200D01*
X5857143Y-17307200D02*
X5761905Y-17354819D01*
X5761905Y-17354819D02*
X5666667Y-17354819D01*
X5666667Y-17354819D02*
X5571429Y-17307200D01*
X5571429Y-17307200D02*
X5523810Y-17259580D01*
X5523810Y-17259580D02*
X5476191Y-17164342D01*
X5476191Y-17164342D02*
X5428572Y-16973866D01*
X5428572Y-16973866D02*
X5428572Y-16735771D01*
X5428572Y-16735771D02*
X5476191Y-16545295D01*
X5476191Y-16545295D02*
X5523810Y-16450057D01*
X5523810Y-16450057D02*
X5571429Y-16402438D01*
X5571429Y-16402438D02*
X5666667Y-16354819D01*
X6857143Y-16688152D02*
X6857143Y-17354819D01*
X6619048Y-16307200D02*
X6380953Y-17021485D01*
X6380953Y-17021485D02*
X7000000Y-17021485D01*
X7571429Y-16354819D02*
X7666667Y-16354819D01*
X7666667Y-16354819D02*
X7761905Y-16402438D01*
X7761905Y-16402438D02*
X7809524Y-16450057D01*
X7809524Y-16450057D02*
X7857143Y-16545295D01*
X7857143Y-16545295D02*
X7904762Y-16735771D01*
X7904762Y-16735771D02*
X7904762Y-16973866D01*
X7904762Y-16973866D02*
X7857143Y-17164342D01*
X7857143Y-17164342D02*
X7809524Y-17259580D01*
X7809524Y-17259580D02*
X7761905Y-17307200D01*
X7761905Y-17307200D02*
X7666667Y-17354819D01*
X7666667Y-17354819D02*
X7571429Y-17354819D01*
X7571429Y-17354819D02*
X7476191Y-17307200D01*
X7476191Y-17307200D02*
X7428572Y-17259580D01*
X7428572Y-17259580D02*
X7380953Y-17164342D01*
X7380953Y-17164342D02*
X7333334Y-16973866D01*
X7333334Y-16973866D02*
X7333334Y-16735771D01*
X7333334Y-16735771D02*
X7380953Y-16545295D01*
X7380953Y-16545295D02*
X7428572Y-16450057D01*
X7428572Y-16450057D02*
X7476191Y-16402438D01*
X7476191Y-16402438D02*
X7571429Y-16354819D01*
X-11619048Y-19254819D02*
X-11619048Y-18254819D01*
X-11619048Y-18254819D02*
X-11285715Y-18969104D01*
X-11285715Y-18969104D02*
X-10952382Y-18254819D01*
X-10952382Y-18254819D02*
X-10952382Y-19254819D01*
X-10476191Y-19254819D02*
X-10476191Y-18588152D01*
X-10476191Y-18254819D02*
X-10523810Y-18302438D01*
X-10523810Y-18302438D02*
X-10476191Y-18350057D01*
X-10476191Y-18350057D02*
X-10428572Y-18302438D01*
X-10428572Y-18302438D02*
X-10476191Y-18254819D01*
X-10476191Y-18254819D02*
X-10476191Y-18350057D01*
X-10000001Y-18588152D02*
X-10000001Y-19254819D01*
X-10000001Y-18683390D02*
X-9952382Y-18635771D01*
X-9952382Y-18635771D02*
X-9857144Y-18588152D01*
X-9857144Y-18588152D02*
X-9714287Y-18588152D01*
X-9714287Y-18588152D02*
X-9619049Y-18635771D01*
X-9619049Y-18635771D02*
X-9571430Y-18731009D01*
X-9571430Y-18731009D02*
X-9571430Y-19254819D01*
X-9095239Y-19254819D02*
X-9095239Y-18588152D01*
X-9095239Y-18254819D02*
X-9142858Y-18302438D01*
X-9142858Y-18302438D02*
X-9095239Y-18350057D01*
X-9095239Y-18350057D02*
X-9047620Y-18302438D01*
X-9047620Y-18302438D02*
X-9095239Y-18254819D01*
X-9095239Y-18254819D02*
X-9095239Y-18350057D01*
X-8619049Y-19254819D02*
X-8619049Y-18588152D01*
X-8619049Y-18683390D02*
X-8571430Y-18635771D01*
X-8571430Y-18635771D02*
X-8476192Y-18588152D01*
X-8476192Y-18588152D02*
X-8333335Y-18588152D01*
X-8333335Y-18588152D02*
X-8238097Y-18635771D01*
X-8238097Y-18635771D02*
X-8190478Y-18731009D01*
X-8190478Y-18731009D02*
X-8190478Y-19254819D01*
X-8190478Y-18731009D02*
X-8142859Y-18635771D01*
X-8142859Y-18635771D02*
X-8047621Y-18588152D01*
X-8047621Y-18588152D02*
X-7904764Y-18588152D01*
X-7904764Y-18588152D02*
X-7809525Y-18635771D01*
X-7809525Y-18635771D02*
X-7761906Y-18731009D01*
X-7761906Y-18731009D02*
X-7761906Y-19254819D01*
X-6857145Y-19254819D02*
X-6857145Y-18731009D01*
X-6857145Y-18731009D02*
X-6904764Y-18635771D01*
X-6904764Y-18635771D02*
X-7000002Y-18588152D01*
X-7000002Y-18588152D02*
X-7190478Y-18588152D01*
X-7190478Y-18588152D02*
X-7285716Y-18635771D01*
X-6857145Y-19207200D02*
X-6952383Y-19254819D01*
X-6952383Y-19254819D02*
X-7190478Y-19254819D01*
X-7190478Y-19254819D02*
X-7285716Y-19207200D01*
X-7285716Y-19207200D02*
X-7333335Y-19111961D01*
X-7333335Y-19111961D02*
X-7333335Y-19016723D01*
X-7333335Y-19016723D02*
X-7285716Y-18921485D01*
X-7285716Y-18921485D02*
X-7190478Y-18873866D01*
X-7190478Y-18873866D02*
X-6952383Y-18873866D01*
X-6952383Y-18873866D02*
X-6857145Y-18826247D01*
X-6238097Y-19254819D02*
X-6333335Y-19207200D01*
X-6333335Y-19207200D02*
X-6380954Y-19111961D01*
X-6380954Y-19111961D02*
X-6380954Y-18254819D01*
X-5095239Y-19254819D02*
X-5095239Y-18254819D01*
X-5095239Y-18254819D02*
X-4857144Y-18254819D01*
X-4857144Y-18254819D02*
X-4714287Y-18302438D01*
X-4714287Y-18302438D02*
X-4619049Y-18397676D01*
X-4619049Y-18397676D02*
X-4571430Y-18492914D01*
X-4571430Y-18492914D02*
X-4523811Y-18683390D01*
X-4523811Y-18683390D02*
X-4523811Y-18826247D01*
X-4523811Y-18826247D02*
X-4571430Y-19016723D01*
X-4571430Y-19016723D02*
X-4619049Y-19111961D01*
X-4619049Y-19111961D02*
X-4714287Y-19207200D01*
X-4714287Y-19207200D02*
X-4857144Y-19254819D01*
X-4857144Y-19254819D02*
X-5095239Y-19254819D01*
X-3714287Y-19207200D02*
X-3809525Y-19254819D01*
X-3809525Y-19254819D02*
X-4000001Y-19254819D01*
X-4000001Y-19254819D02*
X-4095239Y-19207200D01*
X-4095239Y-19207200D02*
X-4142858Y-19111961D01*
X-4142858Y-19111961D02*
X-4142858Y-18731009D01*
X-4142858Y-18731009D02*
X-4095239Y-18635771D01*
X-4095239Y-18635771D02*
X-4000001Y-18588152D01*
X-4000001Y-18588152D02*
X-3809525Y-18588152D01*
X-3809525Y-18588152D02*
X-3714287Y-18635771D01*
X-3714287Y-18635771D02*
X-3666668Y-18731009D01*
X-3666668Y-18731009D02*
X-3666668Y-18826247D01*
X-3666668Y-18826247D02*
X-4142858Y-18921485D01*
X-3285715Y-19207200D02*
X-3190477Y-19254819D01*
X-3190477Y-19254819D02*
X-3000001Y-19254819D01*
X-3000001Y-19254819D02*
X-2904763Y-19207200D01*
X-2904763Y-19207200D02*
X-2857144Y-19111961D01*
X-2857144Y-19111961D02*
X-2857144Y-19064342D01*
X-2857144Y-19064342D02*
X-2904763Y-18969104D01*
X-2904763Y-18969104D02*
X-3000001Y-18921485D01*
X-3000001Y-18921485D02*
X-3142858Y-18921485D01*
X-3142858Y-18921485D02*
X-3238096Y-18873866D01*
X-3238096Y-18873866D02*
X-3285715Y-18778628D01*
X-3285715Y-18778628D02*
X-3285715Y-18731009D01*
X-3285715Y-18731009D02*
X-3238096Y-18635771D01*
X-3238096Y-18635771D02*
X-3142858Y-18588152D01*
X-3142858Y-18588152D02*
X-3000001Y-18588152D01*
X-3000001Y-18588152D02*
X-2904763Y-18635771D01*
X-2428572Y-19254819D02*
X-2428572Y-18588152D01*
X-2428572Y-18254819D02*
X-2476191Y-18302438D01*
X-2476191Y-18302438D02*
X-2428572Y-18350057D01*
X-2428572Y-18350057D02*
X-2380953Y-18302438D01*
X-2380953Y-18302438D02*
X-2428572Y-18254819D01*
X-2428572Y-18254819D02*
X-2428572Y-18350057D01*
X-1523811Y-18588152D02*
X-1523811Y-19397676D01*
X-1523811Y-19397676D02*
X-1571430Y-19492914D01*
X-1571430Y-19492914D02*
X-1619049Y-19540533D01*
X-1619049Y-19540533D02*
X-1714287Y-19588152D01*
X-1714287Y-19588152D02*
X-1857144Y-19588152D01*
X-1857144Y-19588152D02*
X-1952382Y-19540533D01*
X-1523811Y-19207200D02*
X-1619049Y-19254819D01*
X-1619049Y-19254819D02*
X-1809525Y-19254819D01*
X-1809525Y-19254819D02*
X-1904763Y-19207200D01*
X-1904763Y-19207200D02*
X-1952382Y-19159580D01*
X-1952382Y-19159580D02*
X-2000001Y-19064342D01*
X-2000001Y-19064342D02*
X-2000001Y-18778628D01*
X-2000001Y-18778628D02*
X-1952382Y-18683390D01*
X-1952382Y-18683390D02*
X-1904763Y-18635771D01*
X-1904763Y-18635771D02*
X-1809525Y-18588152D01*
X-1809525Y-18588152D02*
X-1619049Y-18588152D01*
X-1619049Y-18588152D02*
X-1523811Y-18635771D01*
X-1047620Y-18588152D02*
X-1047620Y-19254819D01*
X-1047620Y-18683390D02*
X-1000001Y-18635771D01*
X-1000001Y-18635771D02*
X-904763Y-18588152D01*
X-904763Y-18588152D02*
X-761906Y-18588152D01*
X-761906Y-18588152D02*
X-666668Y-18635771D01*
X-666668Y-18635771D02*
X-619049Y-18731009D01*
X-619049Y-18731009D02*
X-619049Y-19254819D01*
X619047Y-18731009D02*
X952380Y-18731009D01*
X1095237Y-19254819D02*
X619047Y-19254819D01*
X619047Y-19254819D02*
X619047Y-18254819D01*
X619047Y-18254819D02*
X1095237Y-18254819D01*
X1428571Y-19254819D02*
X1952380Y-18588152D01*
X1428571Y-18588152D02*
X1952380Y-19254819D01*
X2761904Y-19254819D02*
X2761904Y-18731009D01*
X2761904Y-18731009D02*
X2714285Y-18635771D01*
X2714285Y-18635771D02*
X2619047Y-18588152D01*
X2619047Y-18588152D02*
X2428571Y-18588152D01*
X2428571Y-18588152D02*
X2333333Y-18635771D01*
X2761904Y-19207200D02*
X2666666Y-19254819D01*
X2666666Y-19254819D02*
X2428571Y-19254819D01*
X2428571Y-19254819D02*
X2333333Y-19207200D01*
X2333333Y-19207200D02*
X2285714Y-19111961D01*
X2285714Y-19111961D02*
X2285714Y-19016723D01*
X2285714Y-19016723D02*
X2333333Y-18921485D01*
X2333333Y-18921485D02*
X2428571Y-18873866D01*
X2428571Y-18873866D02*
X2666666Y-18873866D01*
X2666666Y-18873866D02*
X2761904Y-18826247D01*
X3238095Y-19254819D02*
X3238095Y-18588152D01*
X3238095Y-18683390D02*
X3285714Y-18635771D01*
X3285714Y-18635771D02*
X3380952Y-18588152D01*
X3380952Y-18588152D02*
X3523809Y-18588152D01*
X3523809Y-18588152D02*
X3619047Y-18635771D01*
X3619047Y-18635771D02*
X3666666Y-18731009D01*
X3666666Y-18731009D02*
X3666666Y-19254819D01*
X3666666Y-18731009D02*
X3714285Y-18635771D01*
X3714285Y-18635771D02*
X3809523Y-18588152D01*
X3809523Y-18588152D02*
X3952380Y-18588152D01*
X3952380Y-18588152D02*
X4047619Y-18635771D01*
X4047619Y-18635771D02*
X4095238Y-18731009D01*
X4095238Y-18731009D02*
X4095238Y-19254819D01*
X4571428Y-18588152D02*
X4571428Y-19588152D01*
X4571428Y-18635771D02*
X4666666Y-18588152D01*
X4666666Y-18588152D02*
X4857142Y-18588152D01*
X4857142Y-18588152D02*
X4952380Y-18635771D01*
X4952380Y-18635771D02*
X4999999Y-18683390D01*
X4999999Y-18683390D02*
X5047618Y-18778628D01*
X5047618Y-18778628D02*
X5047618Y-19064342D01*
X5047618Y-19064342D02*
X4999999Y-19159580D01*
X4999999Y-19159580D02*
X4952380Y-19207200D01*
X4952380Y-19207200D02*
X4857142Y-19254819D01*
X4857142Y-19254819D02*
X4666666Y-19254819D01*
X4666666Y-19254819D02*
X4571428Y-19207200D01*
X5619047Y-19254819D02*
X5523809Y-19207200D01*
X5523809Y-19207200D02*
X5476190Y-19111961D01*
X5476190Y-19111961D02*
X5476190Y-18254819D01*
X6380952Y-19207200D02*
X6285714Y-19254819D01*
X6285714Y-19254819D02*
X6095238Y-19254819D01*
X6095238Y-19254819D02*
X6000000Y-19207200D01*
X6000000Y-19207200D02*
X5952381Y-19111961D01*
X5952381Y-19111961D02*
X5952381Y-18731009D01*
X5952381Y-18731009D02*
X6000000Y-18635771D01*
X6000000Y-18635771D02*
X6095238Y-18588152D01*
X6095238Y-18588152D02*
X6285714Y-18588152D01*
X6285714Y-18588152D02*
X6380952Y-18635771D01*
X6380952Y-18635771D02*
X6428571Y-18731009D01*
X6428571Y-18731009D02*
X6428571Y-18826247D01*
X6428571Y-18826247D02*
X5952381Y-18921485D01*
X8952381Y-19254819D02*
X8619048Y-18778628D01*
X8380953Y-19254819D02*
X8380953Y-18254819D01*
X8380953Y-18254819D02*
X8761905Y-18254819D01*
X8761905Y-18254819D02*
X8857143Y-18302438D01*
X8857143Y-18302438D02*
X8904762Y-18350057D01*
X8904762Y-18350057D02*
X8952381Y-18445295D01*
X8952381Y-18445295D02*
X8952381Y-18588152D01*
X8952381Y-18588152D02*
X8904762Y-18683390D01*
X8904762Y-18683390D02*
X8857143Y-18731009D01*
X8857143Y-18731009D02*
X8761905Y-18778628D01*
X8761905Y-18778628D02*
X8380953Y-18778628D01*
X9380953Y-18731009D02*
X9714286Y-18731009D01*
X9857143Y-19254819D02*
X9380953Y-19254819D01*
X9380953Y-19254819D02*
X9380953Y-18254819D01*
X9380953Y-18254819D02*
X9857143Y-18254819D01*
X10142858Y-18254819D02*
X10476191Y-19254819D01*
X10476191Y-19254819D02*
X10809524Y-18254819D01*
X11095239Y-18350057D02*
X11142858Y-18302438D01*
X11142858Y-18302438D02*
X11238096Y-18254819D01*
X11238096Y-18254819D02*
X11476191Y-18254819D01*
X11476191Y-18254819D02*
X11571429Y-18302438D01*
X11571429Y-18302438D02*
X11619048Y-18350057D01*
X11619048Y-18350057D02*
X11666667Y-18445295D01*
X11666667Y-18445295D02*
X11666667Y-18540533D01*
X11666667Y-18540533D02*
X11619048Y-18683390D01*
X11619048Y-18683390D02*
X11047620Y-19254819D01*
X11047620Y-19254819D02*
X11666667Y-19254819D01*
D10*
X-19057857Y23905986D02*
X-19143571Y23948843D01*
X-19143571Y23948843D02*
X-19272143Y23948843D01*
X-19272143Y23948843D02*
X-19400714Y23905986D01*
X-19400714Y23905986D02*
X-19486429Y23820272D01*
X-19486429Y23820272D02*
X-19529286Y23734558D01*
X-19529286Y23734558D02*
X-19572143Y23563129D01*
X-19572143Y23563129D02*
X-19572143Y23434558D01*
X-19572143Y23434558D02*
X-19529286Y23263129D01*
X-19529286Y23263129D02*
X-19486429Y23177415D01*
X-19486429Y23177415D02*
X-19400714Y23091700D01*
X-19400714Y23091700D02*
X-19272143Y23048843D01*
X-19272143Y23048843D02*
X-19186429Y23048843D01*
X-19186429Y23048843D02*
X-19057857Y23091700D01*
X-19057857Y23091700D02*
X-19015000Y23134558D01*
X-19015000Y23134558D02*
X-19015000Y23434558D01*
X-19015000Y23434558D02*
X-19186429Y23434558D01*
X-18629286Y23048843D02*
X-18629286Y23948843D01*
X-18629286Y23948843D02*
X-18286429Y23948843D01*
X-18286429Y23948843D02*
X-18200714Y23905986D01*
X-18200714Y23905986D02*
X-18157857Y23863129D01*
X-18157857Y23863129D02*
X-18115000Y23777415D01*
X-18115000Y23777415D02*
X-18115000Y23648843D01*
X-18115000Y23648843D02*
X-18157857Y23563129D01*
X-18157857Y23563129D02*
X-18200714Y23520272D01*
X-18200714Y23520272D02*
X-18286429Y23477415D01*
X-18286429Y23477415D02*
X-18629286Y23477415D01*
X-17557857Y23948843D02*
X-17472143Y23948843D01*
X-17472143Y23948843D02*
X-17386429Y23905986D01*
X-17386429Y23905986D02*
X-17343571Y23863129D01*
X-17343571Y23863129D02*
X-17300714Y23777415D01*
X-17300714Y23777415D02*
X-17257857Y23605986D01*
X-17257857Y23605986D02*
X-17257857Y23391700D01*
X-17257857Y23391700D02*
X-17300714Y23220272D01*
X-17300714Y23220272D02*
X-17343571Y23134558D01*
X-17343571Y23134558D02*
X-17386429Y23091700D01*
X-17386429Y23091700D02*
X-17472143Y23048843D01*
X-17472143Y23048843D02*
X-17557857Y23048843D01*
X-17557857Y23048843D02*
X-17643571Y23091700D01*
X-17643571Y23091700D02*
X-17686429Y23134558D01*
X-17686429Y23134558D02*
X-17729286Y23220272D01*
X-17729286Y23220272D02*
X-17772143Y23391700D01*
X-17772143Y23391700D02*
X-17772143Y23605986D01*
X-17772143Y23605986D02*
X-17729286Y23777415D01*
X-17729286Y23777415D02*
X-17686429Y23863129D01*
X-17686429Y23863129D02*
X-17643571Y23905986D01*
X-17643571Y23905986D02*
X-17557857Y23948843D01*
X-19529286Y26488843D02*
X-18972143Y26488843D01*
X-18972143Y26488843D02*
X-19272143Y26145986D01*
X-19272143Y26145986D02*
X-19143572Y26145986D01*
X-19143572Y26145986D02*
X-19057857Y26103129D01*
X-19057857Y26103129D02*
X-19015000Y26060272D01*
X-19015000Y26060272D02*
X-18972143Y25974558D01*
X-18972143Y25974558D02*
X-18972143Y25760272D01*
X-18972143Y25760272D02*
X-19015000Y25674558D01*
X-19015000Y25674558D02*
X-19057857Y25631700D01*
X-19057857Y25631700D02*
X-19143572Y25588843D01*
X-19143572Y25588843D02*
X-19400715Y25588843D01*
X-19400715Y25588843D02*
X-19486429Y25631700D01*
X-19486429Y25631700D02*
X-19529286Y25674558D01*
X-18715000Y26488843D02*
X-18415000Y25588843D01*
X-18415000Y25588843D02*
X-18115000Y26488843D01*
X-17900714Y26488843D02*
X-17343571Y26488843D01*
X-17343571Y26488843D02*
X-17643571Y26145986D01*
X-17643571Y26145986D02*
X-17515000Y26145986D01*
X-17515000Y26145986D02*
X-17429285Y26103129D01*
X-17429285Y26103129D02*
X-17386428Y26060272D01*
X-17386428Y26060272D02*
X-17343571Y25974558D01*
X-17343571Y25974558D02*
X-17343571Y25760272D01*
X-17343571Y25760272D02*
X-17386428Y25674558D01*
X-17386428Y25674558D02*
X-17429285Y25631700D01*
X-17429285Y25631700D02*
X-17515000Y25588843D01*
X-17515000Y25588843D02*
X-17772143Y25588843D01*
X-17772143Y25588843D02*
X-17857857Y25631700D01*
X-17857857Y25631700D02*
X-17900714Y25674558D01*
D11*
X4844819Y8833334D02*
X4368628Y8500001D01*
X4844819Y8261906D02*
X3844819Y8261906D01*
X3844819Y8261906D02*
X3844819Y8642858D01*
X3844819Y8642858D02*
X3892438Y8738096D01*
X3892438Y8738096D02*
X3940057Y8785715D01*
X3940057Y8785715D02*
X4035295Y8833334D01*
X4035295Y8833334D02*
X4178152Y8833334D01*
X4178152Y8833334D02*
X4273390Y8785715D01*
X4273390Y8785715D02*
X4321009Y8738096D01*
X4321009Y8738096D02*
X4368628Y8642858D01*
X4368628Y8642858D02*
X4368628Y8261906D01*
X4273390Y9404763D02*
X4225771Y9309525D01*
X4225771Y9309525D02*
X4178152Y9261906D01*
X4178152Y9261906D02*
X4082914Y9214287D01*
X4082914Y9214287D02*
X4035295Y9214287D01*
X4035295Y9214287D02*
X3940057Y9261906D01*
X3940057Y9261906D02*
X3892438Y9309525D01*
X3892438Y9309525D02*
X3844819Y9404763D01*
X3844819Y9404763D02*
X3844819Y9595239D01*
X3844819Y9595239D02*
X3892438Y9690477D01*
X3892438Y9690477D02*
X3940057Y9738096D01*
X3940057Y9738096D02*
X4035295Y9785715D01*
X4035295Y9785715D02*
X4082914Y9785715D01*
X4082914Y9785715D02*
X4178152Y9738096D01*
X4178152Y9738096D02*
X4225771Y9690477D01*
X4225771Y9690477D02*
X4273390Y9595239D01*
X4273390Y9595239D02*
X4273390Y9404763D01*
X4273390Y9404763D02*
X4321009Y9309525D01*
X4321009Y9309525D02*
X4368628Y9261906D01*
X4368628Y9261906D02*
X4463866Y9214287D01*
X4463866Y9214287D02*
X4654342Y9214287D01*
X4654342Y9214287D02*
X4749580Y9261906D01*
X4749580Y9261906D02*
X4797200Y9309525D01*
X4797200Y9309525D02*
X4844819Y9404763D01*
X4844819Y9404763D02*
X4844819Y9595239D01*
X4844819Y9595239D02*
X4797200Y9690477D01*
X4797200Y9690477D02*
X4749580Y9738096D01*
X4749580Y9738096D02*
X4654342Y9785715D01*
X4654342Y9785715D02*
X4463866Y9785715D01*
X4463866Y9785715D02*
X4368628Y9738096D01*
X4368628Y9738096D02*
X4321009Y9690477D01*
X4321009Y9690477D02*
X4273390Y9595239D01*
X-834286Y32255181D02*
X-1405714Y32255181D01*
X-1120000Y32255181D02*
X-1120000Y33255181D01*
X-1120000Y33255181D02*
X-1215238Y33112324D01*
X-1215238Y33112324D02*
X-1310476Y33017086D01*
X-1310476Y33017086D02*
X-1405714Y32969467D01*
X-4356667Y29585181D02*
X-4690000Y30061372D01*
X-4928095Y29585181D02*
X-4928095Y30585181D01*
X-4928095Y30585181D02*
X-4547143Y30585181D01*
X-4547143Y30585181D02*
X-4451905Y30537562D01*
X-4451905Y30537562D02*
X-4404286Y30489943D01*
X-4404286Y30489943D02*
X-4356667Y30394705D01*
X-4356667Y30394705D02*
X-4356667Y30251848D01*
X-4356667Y30251848D02*
X-4404286Y30156610D01*
X-4404286Y30156610D02*
X-4451905Y30108991D01*
X-4451905Y30108991D02*
X-4547143Y30061372D01*
X-4547143Y30061372D02*
X-4928095Y30061372D01*
X-3499524Y30585181D02*
X-3690000Y30585181D01*
X-3690000Y30585181D02*
X-3785238Y30537562D01*
X-3785238Y30537562D02*
X-3832857Y30489943D01*
X-3832857Y30489943D02*
X-3928095Y30347086D01*
X-3928095Y30347086D02*
X-3975714Y30156610D01*
X-3975714Y30156610D02*
X-3975714Y29775658D01*
X-3975714Y29775658D02*
X-3928095Y29680420D01*
X-3928095Y29680420D02*
X-3880476Y29632800D01*
X-3880476Y29632800D02*
X-3785238Y29585181D01*
X-3785238Y29585181D02*
X-3594762Y29585181D01*
X-3594762Y29585181D02*
X-3499524Y29632800D01*
X-3499524Y29632800D02*
X-3451905Y29680420D01*
X-3451905Y29680420D02*
X-3404286Y29775658D01*
X-3404286Y29775658D02*
X-3404286Y30013753D01*
X-3404286Y30013753D02*
X-3451905Y30108991D01*
X-3451905Y30108991D02*
X-3499524Y30156610D01*
X-3499524Y30156610D02*
X-3594762Y30204229D01*
X-3594762Y30204229D02*
X-3785238Y30204229D01*
X-3785238Y30204229D02*
X-3880476Y30156610D01*
X-3880476Y30156610D02*
X-3928095Y30108991D01*
X-3928095Y30108991D02*
X-3975714Y30013753D01*
D12*
%TO.C,R8*%
X3590000Y9107836D02*
X3590000Y8892164D01*
X2870000Y9107836D02*
X2870000Y8892164D01*
D13*
%TO.C,1*%
X-5445000Y38010000D02*
X-5445000Y37287000D01*
X-5445000Y38010000D02*
X-4240500Y38010000D01*
X-5445000Y35933000D02*
X-5445000Y35210000D01*
X-5054500Y35210000D02*
X-5445000Y35210000D01*
X-4239000Y35210000D02*
X-4805500Y35210000D01*
X2001500Y38010000D02*
X2565500Y38010000D01*
X2814500Y38010000D02*
X3205000Y38010000D01*
X3205000Y37287000D02*
X3205000Y38010000D01*
X3205000Y35210000D02*
X2001000Y35210000D01*
X3205000Y35210000D02*
X3205000Y35933000D01*
D12*
%TO.C,C13*%
X-6577500Y11319326D02*
X-6577500Y11534998D01*
X-5857500Y11319326D02*
X-5857500Y11534998D01*
%TO.C,C5*%
X2477836Y28800000D02*
X2262164Y28800000D01*
X2477836Y28080000D02*
X2262164Y28080000D01*
%TO.C,R2*%
X-2133641Y27720000D02*
X-1826359Y27720000D01*
X-2133641Y26960000D02*
X-1826359Y26960000D01*
%TO.C,U2*%
X-90000Y27785000D02*
X2910000Y27785000D01*
X-90000Y25515000D02*
X2910000Y25515000D01*
X-640000Y27700000D02*
X-920000Y27700000D01*
X-640000Y27980000D01*
X-640000Y27700000D01*
G36*
X-640000Y27700000D02*
G01*
X-920000Y27700000D01*
X-640000Y27980000D01*
X-640000Y27700000D01*
G37*
%TO.C,C14*%
X110000Y5747836D02*
X110000Y5532164D01*
X830000Y5747836D02*
X830000Y5532164D01*
%TO.C,C7*%
X1476725Y5711999D02*
X1476725Y5496327D01*
X2196725Y5711999D02*
X2196725Y5496327D01*
%TO.C,C11*%
X-6577500Y14124998D02*
X-6577500Y13909326D01*
X-5857500Y14124998D02*
X-5857500Y13909326D01*
%TO.C,U3*%
X-5120000Y8297162D02*
X-5120000Y8947162D01*
X-4470000Y15517162D02*
X-5120000Y15517162D01*
X-4470000Y8297162D02*
X-5120000Y8297162D01*
X1450000Y15517162D02*
X2100000Y15517162D01*
X1450000Y8297162D02*
X2100000Y8297162D01*
X2100000Y15517162D02*
X2100000Y14867162D01*
X2100000Y8297162D02*
X2100000Y8947162D01*
%TO.C,C2*%
X-1930000Y6197836D02*
X-1930000Y5982164D01*
X-1210000Y6197836D02*
X-1210000Y5982164D01*
%TO.C,C3*%
X-1157836Y4040000D02*
X-942164Y4040000D01*
X-1157836Y3320000D02*
X-942164Y3320000D01*
%TO.C,Y1*%
X-2220000Y7300000D02*
X-6220000Y7300000D01*
X-2220000Y4000000D02*
X-2220000Y7300000D01*
%TO.C,R6*%
X-4343641Y29250000D02*
X-4036359Y29250000D01*
X-4343641Y28490000D02*
X-4036359Y28490000D01*
%TO.C,R5*%
X-920000Y5773641D02*
X-920000Y5466359D01*
X-160000Y5773641D02*
X-160000Y5466359D01*
%TD*%
%LPC*%
G36*
X-1316907Y4026461D02*
G01*
X-1254943Y3985057D01*
X-1213539Y3923093D01*
X-1199000Y3850000D01*
X-1199000Y3510000D01*
X-1213539Y3436907D01*
X-1254943Y3374943D01*
X-1316907Y3333539D01*
X-1390000Y3319000D01*
X-1670000Y3319000D01*
X-1743093Y3333539D01*
X-1805057Y3374943D01*
X-1846461Y3436907D01*
X-1861000Y3510000D01*
X-1861000Y3850000D01*
X-1846461Y3923093D01*
X-1805057Y3985057D01*
X-1743093Y4026461D01*
X-1670000Y4041000D01*
X-1390000Y4041000D01*
X-1316907Y4026461D01*
G37*
G36*
X-356907Y4026461D02*
G01*
X-294943Y3985057D01*
X-253539Y3923093D01*
X-239000Y3850000D01*
X-239000Y3510000D01*
X-253539Y3436907D01*
X-294943Y3374943D01*
X-356907Y3333539D01*
X-430000Y3319000D01*
X-710000Y3319000D01*
X-783093Y3333539D01*
X-845057Y3374943D01*
X-886461Y3436907D01*
X-901000Y3510000D01*
X-901000Y3850000D01*
X-886461Y3923093D01*
X-845057Y3985057D01*
X-783093Y4026461D01*
X-710000Y4041000D01*
X-430000Y4041000D01*
X-356907Y4026461D01*
G37*
G36*
X-4600483Y5447118D02*
G01*
X-4583938Y5436062D01*
X-4572882Y5419517D01*
X-4569000Y5400000D01*
X-4569000Y4200000D01*
X-4572882Y4180483D01*
X-4583938Y4163938D01*
X-4600483Y4152882D01*
X-4620000Y4149000D01*
X-6020000Y4149000D01*
X-6039517Y4152882D01*
X-6056062Y4163938D01*
X-6067118Y4180483D01*
X-6071000Y4200000D01*
X-6071000Y5400000D01*
X-6067118Y5419517D01*
X-6056062Y5436062D01*
X-6039517Y5447118D01*
X-6020000Y5451000D01*
X-4620000Y5451000D01*
X-4600483Y5447118D01*
G37*
G36*
X-2400483Y5447118D02*
G01*
X-2383938Y5436062D01*
X-2372882Y5419517D01*
X-2369000Y5400000D01*
X-2369000Y4200000D01*
X-2372882Y4180483D01*
X-2383938Y4163938D01*
X-2400483Y4152882D01*
X-2420000Y4149000D01*
X-3820000Y4149000D01*
X-3839517Y4152882D01*
X-3856062Y4163938D01*
X-3867118Y4180483D01*
X-3871000Y4200000D01*
X-3871000Y5400000D01*
X-3867118Y5419517D01*
X-3856062Y5436062D01*
X-3839517Y5447118D01*
X-3820000Y5451000D01*
X-2420000Y5451000D01*
X-2400483Y5447118D01*
G37*
G36*
X-283821Y5416842D02*
G01*
X-223478Y5376522D01*
X-183158Y5316179D01*
X-169000Y5245000D01*
X-169000Y4975000D01*
X-183158Y4903821D01*
X-223478Y4843478D01*
X-283821Y4803158D01*
X-355000Y4789000D01*
X-725000Y4789000D01*
X-796179Y4803158D01*
X-856522Y4843478D01*
X-896842Y4903821D01*
X-911000Y4975000D01*
X-911000Y5245000D01*
X-896842Y5316179D01*
X-856522Y5376522D01*
X-796179Y5416842D01*
X-725000Y5431000D01*
X-355000Y5431000D01*
X-283821Y5416842D01*
G37*
G36*
X2079818Y5440624D02*
G01*
X2141782Y5399220D01*
X2183186Y5337256D01*
X2197725Y5264163D01*
X2197725Y4984163D01*
X2183186Y4911070D01*
X2141782Y4849106D01*
X2079818Y4807702D01*
X2006725Y4793163D01*
X1666725Y4793163D01*
X1593632Y4807702D01*
X1531668Y4849106D01*
X1490264Y4911070D01*
X1475725Y4984163D01*
X1475725Y5264163D01*
X1490264Y5337256D01*
X1531668Y5399220D01*
X1593632Y5440624D01*
X1666725Y5455163D01*
X2006725Y5455163D01*
X2079818Y5440624D01*
G37*
G36*
X713093Y5476461D02*
G01*
X775057Y5435057D01*
X816461Y5373093D01*
X831000Y5300000D01*
X831000Y5020000D01*
X816461Y4946907D01*
X775057Y4884943D01*
X713093Y4843539D01*
X640000Y4829000D01*
X300000Y4829000D01*
X226907Y4843539D01*
X164943Y4884943D01*
X123539Y4946907D01*
X109000Y5020000D01*
X109000Y5300000D01*
X123539Y5373093D01*
X164943Y5435057D01*
X226907Y5476461D01*
X300000Y5491000D01*
X640000Y5491000D01*
X713093Y5476461D01*
G37*
G36*
X-1326907Y5926461D02*
G01*
X-1264943Y5885057D01*
X-1223539Y5823093D01*
X-1209000Y5750000D01*
X-1209000Y5470000D01*
X-1223539Y5396907D01*
X-1264943Y5334943D01*
X-1326907Y5293539D01*
X-1400000Y5279000D01*
X-1740000Y5279000D01*
X-1813093Y5293539D01*
X-1875057Y5334943D01*
X-1916461Y5396907D01*
X-1931000Y5470000D01*
X-1931000Y5750000D01*
X-1916461Y5823093D01*
X-1875057Y5885057D01*
X-1813093Y5926461D01*
X-1740000Y5941000D01*
X-1400000Y5941000D01*
X-1326907Y5926461D01*
G37*
G36*
X2079818Y6400624D02*
G01*
X2141782Y6359220D01*
X2183186Y6297256D01*
X2197725Y6224163D01*
X2197725Y5944163D01*
X2183186Y5871070D01*
X2141782Y5809106D01*
X2079818Y5767702D01*
X2006725Y5753163D01*
X1666725Y5753163D01*
X1593632Y5767702D01*
X1531668Y5809106D01*
X1490264Y5871070D01*
X1475725Y5944163D01*
X1475725Y6224163D01*
X1490264Y6297256D01*
X1531668Y6359220D01*
X1593632Y6400624D01*
X1666725Y6415163D01*
X2006725Y6415163D01*
X2079818Y6400624D01*
G37*
G36*
X713093Y6436461D02*
G01*
X775057Y6395057D01*
X816461Y6333093D01*
X831000Y6260000D01*
X831000Y5980000D01*
X816461Y5906907D01*
X775057Y5844943D01*
X713093Y5803539D01*
X640000Y5789000D01*
X300000Y5789000D01*
X226907Y5803539D01*
X164943Y5844943D01*
X123539Y5906907D01*
X109000Y5980000D01*
X109000Y6260000D01*
X123539Y6333093D01*
X164943Y6395057D01*
X226907Y6436461D01*
X300000Y6451000D01*
X640000Y6451000D01*
X713093Y6436461D01*
G37*
G36*
X-283821Y6436842D02*
G01*
X-223478Y6396522D01*
X-183158Y6336179D01*
X-169000Y6265000D01*
X-169000Y5995000D01*
X-183158Y5923821D01*
X-223478Y5863478D01*
X-283821Y5823158D01*
X-355000Y5809000D01*
X-725000Y5809000D01*
X-796179Y5823158D01*
X-856522Y5863478D01*
X-896842Y5923821D01*
X-911000Y5995000D01*
X-911000Y6265000D01*
X-896842Y6336179D01*
X-856522Y6396522D01*
X-796179Y6436842D01*
X-725000Y6451000D01*
X-355000Y6451000D01*
X-283821Y6436842D01*
G37*
G36*
X-4600483Y7147118D02*
G01*
X-4583938Y7136062D01*
X-4572882Y7119517D01*
X-4569000Y7100000D01*
X-4569000Y5900000D01*
X-4572882Y5880483D01*
X-4583938Y5863938D01*
X-4600483Y5852882D01*
X-4620000Y5849000D01*
X-6020000Y5849000D01*
X-6039517Y5852882D01*
X-6056062Y5863938D01*
X-6067118Y5880483D01*
X-6071000Y5900000D01*
X-6071000Y7100000D01*
X-6067118Y7119517D01*
X-6056062Y7136062D01*
X-6039517Y7147118D01*
X-6020000Y7151000D01*
X-4620000Y7151000D01*
X-4600483Y7147118D01*
G37*
G36*
X-2400483Y7147118D02*
G01*
X-2383938Y7136062D01*
X-2372882Y7119517D01*
X-2369000Y7100000D01*
X-2369000Y5900000D01*
X-2372882Y5880483D01*
X-2383938Y5863938D01*
X-2400483Y5852882D01*
X-2420000Y5849000D01*
X-3820000Y5849000D01*
X-3839517Y5852882D01*
X-3856062Y5863938D01*
X-3867118Y5880483D01*
X-3871000Y5900000D01*
X-3871000Y7100000D01*
X-3867118Y7119517D01*
X-3856062Y7136062D01*
X-3839517Y7147118D01*
X-3820000Y7151000D01*
X-2420000Y7151000D01*
X-2400483Y7147118D01*
G37*
G36*
X-1326907Y6886461D02*
G01*
X-1264943Y6845057D01*
X-1223539Y6783093D01*
X-1209000Y6710000D01*
X-1209000Y6430000D01*
X-1223539Y6356907D01*
X-1264943Y6294943D01*
X-1326907Y6253539D01*
X-1400000Y6239000D01*
X-1740000Y6239000D01*
X-1813093Y6253539D01*
X-1875057Y6294943D01*
X-1916461Y6356907D01*
X-1931000Y6430000D01*
X-1931000Y6710000D01*
X-1916461Y6783093D01*
X-1875057Y6845057D01*
X-1813093Y6886461D01*
X-1740000Y6901000D01*
X-1400000Y6901000D01*
X-1326907Y6886461D01*
G37*
G36*
X-4021349Y8950474D02*
G01*
X-3988582Y8928580D01*
X-3966688Y8895813D01*
X-3959000Y8857162D01*
X-3959000Y8082162D01*
X-3966688Y8043511D01*
X-3988582Y8010744D01*
X-4021349Y7988850D01*
X-4060000Y7981162D01*
X-4160000Y7981162D01*
X-4198651Y7988850D01*
X-4231418Y8010744D01*
X-4253312Y8043511D01*
X-4261000Y8082162D01*
X-4261000Y8857162D01*
X-4253312Y8895813D01*
X-4231418Y8928580D01*
X-4198651Y8950474D01*
X-4160000Y8958162D01*
X-4060000Y8958162D01*
X-4021349Y8950474D01*
G37*
G36*
X-3621349Y8950474D02*
G01*
X-3588582Y8928580D01*
X-3566688Y8895813D01*
X-3559000Y8857162D01*
X-3559000Y8082162D01*
X-3566688Y8043511D01*
X-3588582Y8010744D01*
X-3621349Y7988850D01*
X-3660000Y7981162D01*
X-3760000Y7981162D01*
X-3798651Y7988850D01*
X-3831418Y8010744D01*
X-3853312Y8043511D01*
X-3861000Y8082162D01*
X-3861000Y8857162D01*
X-3853312Y8895813D01*
X-3831418Y8928580D01*
X-3798651Y8950474D01*
X-3760000Y8958162D01*
X-3660000Y8958162D01*
X-3621349Y8950474D01*
G37*
G36*
X-3221349Y8950474D02*
G01*
X-3188582Y8928580D01*
X-3166688Y8895813D01*
X-3159000Y8857162D01*
X-3159000Y8082162D01*
X-3166688Y8043511D01*
X-3188582Y8010744D01*
X-3221349Y7988850D01*
X-3260000Y7981162D01*
X-3360000Y7981162D01*
X-3398651Y7988850D01*
X-3431418Y8010744D01*
X-3453312Y8043511D01*
X-3461000Y8082162D01*
X-3461000Y8857162D01*
X-3453312Y8895813D01*
X-3431418Y8928580D01*
X-3398651Y8950474D01*
X-3360000Y8958162D01*
X-3260000Y8958162D01*
X-3221349Y8950474D01*
G37*
G36*
X-2821349Y8950474D02*
G01*
X-2788582Y8928580D01*
X-2766688Y8895813D01*
X-2759000Y8857162D01*
X-2759000Y8082162D01*
X-2766688Y8043511D01*
X-2788582Y8010744D01*
X-2821349Y7988850D01*
X-2860000Y7981162D01*
X-2960000Y7981162D01*
X-2998651Y7988850D01*
X-3031418Y8010744D01*
X-3053312Y8043511D01*
X-3061000Y8082162D01*
X-3061000Y8857162D01*
X-3053312Y8895813D01*
X-3031418Y8928580D01*
X-2998651Y8950474D01*
X-2960000Y8958162D01*
X-2860000Y8958162D01*
X-2821349Y8950474D01*
G37*
G36*
X-2421349Y8950474D02*
G01*
X-2388582Y8928580D01*
X-2366688Y8895813D01*
X-2359000Y8857162D01*
X-2359000Y8082162D01*
X-2366688Y8043511D01*
X-2388582Y8010744D01*
X-2421349Y7988850D01*
X-2460000Y7981162D01*
X-2560000Y7981162D01*
X-2598651Y7988850D01*
X-2631418Y8010744D01*
X-2653312Y8043511D01*
X-2661000Y8082162D01*
X-2661000Y8857162D01*
X-2653312Y8895813D01*
X-2631418Y8928580D01*
X-2598651Y8950474D01*
X-2560000Y8958162D01*
X-2460000Y8958162D01*
X-2421349Y8950474D01*
G37*
G36*
X-2021349Y8950474D02*
G01*
X-1988582Y8928580D01*
X-1966688Y8895813D01*
X-1959000Y8857162D01*
X-1959000Y8082162D01*
X-1966688Y8043511D01*
X-1988582Y8010744D01*
X-2021349Y7988850D01*
X-2060000Y7981162D01*
X-2160000Y7981162D01*
X-2198651Y7988850D01*
X-2231418Y8010744D01*
X-2253312Y8043511D01*
X-2261000Y8082162D01*
X-2261000Y8857162D01*
X-2253312Y8895813D01*
X-2231418Y8928580D01*
X-2198651Y8950474D01*
X-2160000Y8958162D01*
X-2060000Y8958162D01*
X-2021349Y8950474D01*
G37*
G36*
X-1621349Y8950474D02*
G01*
X-1588582Y8928580D01*
X-1566688Y8895813D01*
X-1559000Y8857162D01*
X-1559000Y8082162D01*
X-1566688Y8043511D01*
X-1588582Y8010744D01*
X-1621349Y7988850D01*
X-1660000Y7981162D01*
X-1760000Y7981162D01*
X-1798651Y7988850D01*
X-1831418Y8010744D01*
X-1853312Y8043511D01*
X-1861000Y8082162D01*
X-1861000Y8857162D01*
X-1853312Y8895813D01*
X-1831418Y8928580D01*
X-1798651Y8950474D01*
X-1760000Y8958162D01*
X-1660000Y8958162D01*
X-1621349Y8950474D01*
G37*
G36*
X-1221349Y8950474D02*
G01*
X-1188582Y8928580D01*
X-1166688Y8895813D01*
X-1159000Y8857162D01*
X-1159000Y8082162D01*
X-1166688Y8043511D01*
X-1188582Y8010744D01*
X-1221349Y7988850D01*
X-1260000Y7981162D01*
X-1360000Y7981162D01*
X-1398651Y7988850D01*
X-1431418Y8010744D01*
X-1453312Y8043511D01*
X-1461000Y8082162D01*
X-1461000Y8857162D01*
X-1453312Y8895813D01*
X-1431418Y8928580D01*
X-1398651Y8950474D01*
X-1360000Y8958162D01*
X-1260000Y8958162D01*
X-1221349Y8950474D01*
G37*
G36*
X-821349Y8950474D02*
G01*
X-788582Y8928580D01*
X-766688Y8895813D01*
X-759000Y8857162D01*
X-759000Y8082162D01*
X-766688Y8043511D01*
X-788582Y8010744D01*
X-821349Y7988850D01*
X-860000Y7981162D01*
X-960000Y7981162D01*
X-998651Y7988850D01*
X-1031418Y8010744D01*
X-1053312Y8043511D01*
X-1061000Y8082162D01*
X-1061000Y8857162D01*
X-1053312Y8895813D01*
X-1031418Y8928580D01*
X-998651Y8950474D01*
X-960000Y8958162D01*
X-860000Y8958162D01*
X-821349Y8950474D01*
G37*
G36*
X-421349Y8950474D02*
G01*
X-388582Y8928580D01*
X-366688Y8895813D01*
X-359000Y8857162D01*
X-359000Y8082162D01*
X-366688Y8043511D01*
X-388582Y8010744D01*
X-421349Y7988850D01*
X-460000Y7981162D01*
X-560000Y7981162D01*
X-598651Y7988850D01*
X-631418Y8010744D01*
X-653312Y8043511D01*
X-661000Y8082162D01*
X-661000Y8857162D01*
X-653312Y8895813D01*
X-631418Y8928580D01*
X-598651Y8950474D01*
X-560000Y8958162D01*
X-460000Y8958162D01*
X-421349Y8950474D01*
G37*
G36*
X-21349Y8950474D02*
G01*
X11418Y8928580D01*
X33312Y8895813D01*
X41000Y8857162D01*
X41000Y8082162D01*
X33312Y8043511D01*
X11418Y8010744D01*
X-21349Y7988850D01*
X-60000Y7981162D01*
X-160000Y7981162D01*
X-198651Y7988850D01*
X-231418Y8010744D01*
X-253312Y8043511D01*
X-261000Y8082162D01*
X-261000Y8857162D01*
X-253312Y8895813D01*
X-231418Y8928580D01*
X-198651Y8950474D01*
X-160000Y8958162D01*
X-60000Y8958162D01*
X-21349Y8950474D01*
G37*
G36*
X378651Y8950474D02*
G01*
X411418Y8928580D01*
X433312Y8895813D01*
X441000Y8857162D01*
X441000Y8082162D01*
X433312Y8043511D01*
X411418Y8010744D01*
X378651Y7988850D01*
X340000Y7981162D01*
X240000Y7981162D01*
X201349Y7988850D01*
X168582Y8010744D01*
X146688Y8043511D01*
X139000Y8082162D01*
X139000Y8857162D01*
X146688Y8895813D01*
X168582Y8928580D01*
X201349Y8950474D01*
X240000Y8958162D01*
X340000Y8958162D01*
X378651Y8950474D01*
G37*
G36*
X778651Y8950474D02*
G01*
X811418Y8928580D01*
X833312Y8895813D01*
X841000Y8857162D01*
X841000Y8082162D01*
X833312Y8043511D01*
X811418Y8010744D01*
X778651Y7988850D01*
X740000Y7981162D01*
X640000Y7981162D01*
X601349Y7988850D01*
X568582Y8010744D01*
X546688Y8043511D01*
X539000Y8082162D01*
X539000Y8857162D01*
X546688Y8895813D01*
X568582Y8928580D01*
X601349Y8950474D01*
X640000Y8958162D01*
X740000Y8958162D01*
X778651Y8950474D01*
G37*
G36*
X1178651Y8950474D02*
G01*
X1211418Y8928580D01*
X1233312Y8895813D01*
X1241000Y8857162D01*
X1241000Y8082162D01*
X1233312Y8043511D01*
X1211418Y8010744D01*
X1178651Y7988850D01*
X1140000Y7981162D01*
X1040000Y7981162D01*
X1001349Y7988850D01*
X968582Y8010744D01*
X946688Y8043511D01*
X939000Y8082162D01*
X939000Y8857162D01*
X946688Y8895813D01*
X968582Y8928580D01*
X1001349Y8950474D01*
X1040000Y8958162D01*
X1140000Y8958162D01*
X1178651Y8950474D01*
G37*
G36*
X3429893Y8848796D02*
G01*
X3474524Y8839919D01*
X3495487Y8825912D01*
X3537703Y8797703D01*
X3579918Y8734525D01*
X3591000Y8678812D01*
X3591000Y8361188D01*
X3579918Y8305475D01*
X3537703Y8242297D01*
X3474525Y8200082D01*
X3418812Y8189000D01*
X3041188Y8189000D01*
X2985475Y8200082D01*
X2922297Y8242297D01*
X2880082Y8305475D01*
X2869000Y8361188D01*
X2869000Y8678812D01*
X2880081Y8734525D01*
X2922297Y8797703D01*
X2985473Y8839917D01*
X2985473Y8839918D01*
X2985475Y8839918D01*
X3041188Y8851000D01*
X3418812Y8851000D01*
X3429893Y8848796D01*
G37*
G36*
X3429893Y9808796D02*
G01*
X3474524Y9799919D01*
X3481176Y9795474D01*
X3537703Y9757703D01*
X3579918Y9694525D01*
X3591000Y9638812D01*
X3591000Y9321188D01*
X3579918Y9265475D01*
X3537703Y9202297D01*
X3474525Y9160082D01*
X3418812Y9149000D01*
X3041188Y9149000D01*
X2985475Y9160082D01*
X2922297Y9202297D01*
X2880082Y9265475D01*
X2869000Y9321188D01*
X2869000Y9638812D01*
X2873531Y9661593D01*
X2880081Y9694525D01*
X2922297Y9757703D01*
X2985473Y9799917D01*
X2985473Y9799918D01*
X2985475Y9799918D01*
X3041188Y9811000D01*
X3418812Y9811000D01*
X3429893Y9808796D01*
G37*
G36*
X-4521349Y9450474D02*
G01*
X-4488582Y9428580D01*
X-4466688Y9395813D01*
X-4459000Y9357162D01*
X-4459000Y9257162D01*
X-4466688Y9218511D01*
X-4488582Y9185744D01*
X-4521349Y9163850D01*
X-4560000Y9156162D01*
X-5335000Y9156162D01*
X-5373651Y9163850D01*
X-5406418Y9185744D01*
X-5428312Y9218511D01*
X-5436000Y9257162D01*
X-5436000Y9357162D01*
X-5428312Y9395813D01*
X-5406418Y9428580D01*
X-5373651Y9450474D01*
X-5335000Y9458162D01*
X-4560000Y9458162D01*
X-4521349Y9450474D01*
G37*
G36*
X2353651Y9450474D02*
G01*
X2386418Y9428580D01*
X2408312Y9395813D01*
X2416000Y9357162D01*
X2416000Y9257162D01*
X2408312Y9218511D01*
X2386418Y9185744D01*
X2353651Y9163850D01*
X2315000Y9156162D01*
X1540000Y9156162D01*
X1501349Y9163850D01*
X1468582Y9185744D01*
X1446688Y9218511D01*
X1439000Y9257162D01*
X1439000Y9357162D01*
X1446688Y9395813D01*
X1468582Y9428580D01*
X1501349Y9450474D01*
X1540000Y9458162D01*
X2315000Y9458162D01*
X2353651Y9450474D01*
G37*
G36*
X-4521349Y9850474D02*
G01*
X-4488582Y9828580D01*
X-4466688Y9795813D01*
X-4459000Y9757162D01*
X-4459000Y9657162D01*
X-4466688Y9618511D01*
X-4488582Y9585744D01*
X-4521349Y9563850D01*
X-4560000Y9556162D01*
X-5335000Y9556162D01*
X-5373651Y9563850D01*
X-5406418Y9585744D01*
X-5428312Y9618511D01*
X-5436000Y9657162D01*
X-5436000Y9757162D01*
X-5428312Y9795813D01*
X-5406418Y9828580D01*
X-5373651Y9850474D01*
X-5335000Y9858162D01*
X-4560000Y9858162D01*
X-4521349Y9850474D01*
G37*
G36*
X2353651Y9850474D02*
G01*
X2386418Y9828580D01*
X2408312Y9795813D01*
X2416000Y9757162D01*
X2416000Y9657162D01*
X2408312Y9618511D01*
X2386418Y9585744D01*
X2353651Y9563850D01*
X2315000Y9556162D01*
X1540000Y9556162D01*
X1501349Y9563850D01*
X1468582Y9585744D01*
X1446688Y9618511D01*
X1439000Y9657162D01*
X1439000Y9757162D01*
X1446688Y9795813D01*
X1468582Y9828580D01*
X1501349Y9850474D01*
X1540000Y9858162D01*
X2315000Y9858162D01*
X2353651Y9850474D01*
G37*
G36*
X-4521349Y10250474D02*
G01*
X-4488582Y10228580D01*
X-4466688Y10195813D01*
X-4459000Y10157162D01*
X-4459000Y10057162D01*
X-4466688Y10018511D01*
X-4488582Y9985744D01*
X-4521349Y9963850D01*
X-4560000Y9956162D01*
X-5335000Y9956162D01*
X-5373651Y9963850D01*
X-5406418Y9985744D01*
X-5428312Y10018511D01*
X-5436000Y10057162D01*
X-5436000Y10157162D01*
X-5428312Y10195813D01*
X-5406418Y10228580D01*
X-5373651Y10250474D01*
X-5335000Y10258162D01*
X-4560000Y10258162D01*
X-4521349Y10250474D01*
G37*
G36*
X2353651Y10250474D02*
G01*
X2386418Y10228580D01*
X2408312Y10195813D01*
X2416000Y10157162D01*
X2416000Y10057162D01*
X2408312Y10018511D01*
X2386418Y9985744D01*
X2353651Y9963850D01*
X2315000Y9956162D01*
X1540000Y9956162D01*
X1501349Y9963850D01*
X1468582Y9985744D01*
X1446688Y10018511D01*
X1439000Y10057162D01*
X1439000Y10157162D01*
X1446688Y10195813D01*
X1468582Y10228580D01*
X1501349Y10250474D01*
X1540000Y10258162D01*
X2315000Y10258162D01*
X2353651Y10250474D01*
G37*
G36*
X20623Y13543319D02*
G01*
X83886Y13501048D01*
X126157Y13437785D01*
X141000Y13363162D01*
X141000Y10451162D01*
X126157Y10376539D01*
X83886Y10313276D01*
X20623Y10271005D01*
X-54000Y10256162D01*
X-2966000Y10256162D01*
X-3040623Y10271005D01*
X-3103886Y10313276D01*
X-3146157Y10376539D01*
X-3161000Y10451162D01*
X-3161000Y13363162D01*
X-3146157Y13437785D01*
X-3103886Y13501048D01*
X-3040623Y13543319D01*
X-2966000Y13558162D01*
X-54000Y13558162D01*
X20623Y13543319D01*
G37*
G36*
X-4521349Y10650474D02*
G01*
X-4488582Y10628580D01*
X-4466688Y10595813D01*
X-4459000Y10557162D01*
X-4459000Y10457162D01*
X-4466688Y10418511D01*
X-4488582Y10385744D01*
X-4521349Y10363850D01*
X-4560000Y10356162D01*
X-5335000Y10356162D01*
X-5373651Y10363850D01*
X-5406418Y10385744D01*
X-5428312Y10418511D01*
X-5436000Y10457162D01*
X-5436000Y10557162D01*
X-5428312Y10595813D01*
X-5406418Y10628580D01*
X-5373651Y10650474D01*
X-5335000Y10658162D01*
X-4560000Y10658162D01*
X-4521349Y10650474D01*
G37*
G36*
X2353651Y10650474D02*
G01*
X2386418Y10628580D01*
X2408312Y10595813D01*
X2416000Y10557162D01*
X2416000Y10457162D01*
X2408312Y10418511D01*
X2386418Y10385744D01*
X2353651Y10363850D01*
X2315000Y10356162D01*
X1540000Y10356162D01*
X1501349Y10363850D01*
X1468582Y10385744D01*
X1446688Y10418511D01*
X1439000Y10457162D01*
X1439000Y10557162D01*
X1446688Y10595813D01*
X1468582Y10628580D01*
X1501349Y10650474D01*
X1540000Y10658162D01*
X2315000Y10658162D01*
X2353651Y10650474D01*
G37*
G36*
X-5974407Y11263623D02*
G01*
X-5912443Y11222219D01*
X-5871039Y11160255D01*
X-5856500Y11087162D01*
X-5856500Y10807162D01*
X-5871039Y10734069D01*
X-5912443Y10672105D01*
X-5974407Y10630701D01*
X-6047500Y10616162D01*
X-6387500Y10616162D01*
X-6460593Y10630701D01*
X-6522557Y10672105D01*
X-6563961Y10734069D01*
X-6578500Y10807162D01*
X-6578500Y11087162D01*
X-6563961Y11160255D01*
X-6522557Y11222219D01*
X-6460593Y11263623D01*
X-6387500Y11278162D01*
X-6047500Y11278162D01*
X-5974407Y11263623D01*
G37*
G36*
X-4521349Y11050474D02*
G01*
X-4488582Y11028580D01*
X-4466688Y10995813D01*
X-4459000Y10957162D01*
X-4459000Y10857162D01*
X-4466688Y10818511D01*
X-4488582Y10785744D01*
X-4521349Y10763850D01*
X-4560000Y10756162D01*
X-5335000Y10756162D01*
X-5373651Y10763850D01*
X-5406418Y10785744D01*
X-5428312Y10818511D01*
X-5436000Y10857162D01*
X-5436000Y10957162D01*
X-5428312Y10995813D01*
X-5406418Y11028580D01*
X-5373651Y11050474D01*
X-5335000Y11058162D01*
X-4560000Y11058162D01*
X-4521349Y11050474D01*
G37*
G36*
X2353651Y11050474D02*
G01*
X2386418Y11028580D01*
X2408312Y10995813D01*
X2416000Y10957162D01*
X2416000Y10857162D01*
X2408312Y10818511D01*
X2386418Y10785744D01*
X2353651Y10763850D01*
X2315000Y10756162D01*
X1540000Y10756162D01*
X1501349Y10763850D01*
X1468582Y10785744D01*
X1446688Y10818511D01*
X1439000Y10857162D01*
X1439000Y10957162D01*
X1446688Y10995813D01*
X1468582Y11028580D01*
X1501349Y11050474D01*
X1540000Y11058162D01*
X2315000Y11058162D01*
X2353651Y11050474D01*
G37*
G36*
X-4521349Y11450474D02*
G01*
X-4488582Y11428580D01*
X-4466688Y11395813D01*
X-4459000Y11357162D01*
X-4459000Y11257162D01*
X-4466688Y11218511D01*
X-4488582Y11185744D01*
X-4521349Y11163850D01*
X-4560000Y11156162D01*
X-5335000Y11156162D01*
X-5373651Y11163850D01*
X-5406418Y11185744D01*
X-5428312Y11218511D01*
X-5436000Y11257162D01*
X-5436000Y11357162D01*
X-5428312Y11395813D01*
X-5406418Y11428580D01*
X-5373651Y11450474D01*
X-5335000Y11458162D01*
X-4560000Y11458162D01*
X-4521349Y11450474D01*
G37*
G36*
X2353651Y11450474D02*
G01*
X2386418Y11428580D01*
X2408312Y11395813D01*
X2416000Y11357162D01*
X2416000Y11257162D01*
X2408312Y11218511D01*
X2386418Y11185744D01*
X2353651Y11163850D01*
X2315000Y11156162D01*
X1540000Y11156162D01*
X1501349Y11163850D01*
X1468582Y11185744D01*
X1446688Y11218511D01*
X1439000Y11257162D01*
X1439000Y11357162D01*
X1446688Y11395813D01*
X1468582Y11428580D01*
X1501349Y11450474D01*
X1540000Y11458162D01*
X2315000Y11458162D01*
X2353651Y11450474D01*
G37*
G36*
X-4521349Y11850474D02*
G01*
X-4488582Y11828580D01*
X-4466688Y11795813D01*
X-4459000Y11757162D01*
X-4459000Y11657162D01*
X-4466688Y11618511D01*
X-4488582Y11585744D01*
X-4521349Y11563850D01*
X-4560000Y11556162D01*
X-5335000Y11556162D01*
X-5373651Y11563850D01*
X-5406418Y11585744D01*
X-5428312Y11618511D01*
X-5436000Y11657162D01*
X-5436000Y11757162D01*
X-5428312Y11795813D01*
X-5406418Y11828580D01*
X-5373651Y11850474D01*
X-5335000Y11858162D01*
X-4560000Y11858162D01*
X-4521349Y11850474D01*
G37*
G36*
X2353651Y11850474D02*
G01*
X2386418Y11828580D01*
X2408312Y11795813D01*
X2416000Y11757162D01*
X2416000Y11657162D01*
X2408312Y11618511D01*
X2386418Y11585744D01*
X2353651Y11563850D01*
X2315000Y11556162D01*
X1540000Y11556162D01*
X1501349Y11563850D01*
X1468582Y11585744D01*
X1446688Y11618511D01*
X1439000Y11657162D01*
X1439000Y11757162D01*
X1446688Y11795813D01*
X1468582Y11828580D01*
X1501349Y11850474D01*
X1540000Y11858162D01*
X2315000Y11858162D01*
X2353651Y11850474D01*
G37*
G36*
X-5974407Y12223623D02*
G01*
X-5912443Y12182219D01*
X-5871039Y12120255D01*
X-5856500Y12047162D01*
X-5856500Y11767162D01*
X-5871039Y11694069D01*
X-5912443Y11632105D01*
X-5974407Y11590701D01*
X-6047500Y11576162D01*
X-6387500Y11576162D01*
X-6460593Y11590701D01*
X-6522557Y11632105D01*
X-6563961Y11694069D01*
X-6578500Y11767162D01*
X-6578500Y12047162D01*
X-6563961Y12120255D01*
X-6522557Y12182219D01*
X-6460593Y12223623D01*
X-6387500Y12238162D01*
X-6047500Y12238162D01*
X-5974407Y12223623D01*
G37*
G36*
X-4521349Y12250474D02*
G01*
X-4488582Y12228580D01*
X-4466688Y12195813D01*
X-4459000Y12157162D01*
X-4459000Y12057162D01*
X-4466688Y12018511D01*
X-4488582Y11985744D01*
X-4521349Y11963850D01*
X-4560000Y11956162D01*
X-5335000Y11956162D01*
X-5373651Y11963850D01*
X-5406418Y11985744D01*
X-5428312Y12018511D01*
X-5436000Y12057162D01*
X-5436000Y12157162D01*
X-5428312Y12195813D01*
X-5406418Y12228580D01*
X-5373651Y12250474D01*
X-5335000Y12258162D01*
X-4560000Y12258162D01*
X-4521349Y12250474D01*
G37*
G36*
X2353651Y12250474D02*
G01*
X2386418Y12228580D01*
X2408312Y12195813D01*
X2416000Y12157162D01*
X2416000Y12057162D01*
X2408312Y12018511D01*
X2386418Y11985744D01*
X2353651Y11963850D01*
X2315000Y11956162D01*
X1540000Y11956162D01*
X1501349Y11963850D01*
X1468582Y11985744D01*
X1446688Y12018511D01*
X1439000Y12057162D01*
X1439000Y12157162D01*
X1446688Y12195813D01*
X1468582Y12228580D01*
X1501349Y12250474D01*
X1540000Y12258162D01*
X2315000Y12258162D01*
X2353651Y12250474D01*
G37*
G36*
X-4521349Y12650474D02*
G01*
X-4488582Y12628580D01*
X-4466688Y12595813D01*
X-4459000Y12557162D01*
X-4459000Y12457162D01*
X-4466688Y12418511D01*
X-4488582Y12385744D01*
X-4521349Y12363850D01*
X-4560000Y12356162D01*
X-5335000Y12356162D01*
X-5373651Y12363850D01*
X-5406418Y12385744D01*
X-5428312Y12418511D01*
X-5436000Y12457162D01*
X-5436000Y12557162D01*
X-5428312Y12595813D01*
X-5406418Y12628580D01*
X-5373651Y12650474D01*
X-5335000Y12658162D01*
X-4560000Y12658162D01*
X-4521349Y12650474D01*
G37*
G36*
X2353651Y12650474D02*
G01*
X2386418Y12628580D01*
X2408312Y12595813D01*
X2416000Y12557162D01*
X2416000Y12457162D01*
X2408312Y12418511D01*
X2386418Y12385744D01*
X2353651Y12363850D01*
X2315000Y12356162D01*
X1540000Y12356162D01*
X1501349Y12363850D01*
X1468582Y12385744D01*
X1446688Y12418511D01*
X1439000Y12457162D01*
X1439000Y12557162D01*
X1446688Y12595813D01*
X1468582Y12628580D01*
X1501349Y12650474D01*
X1540000Y12658162D01*
X2315000Y12658162D01*
X2353651Y12650474D01*
G37*
G36*
X-4521349Y13050474D02*
G01*
X-4488582Y13028580D01*
X-4466688Y12995813D01*
X-4459000Y12957162D01*
X-4459000Y12857162D01*
X-4466688Y12818511D01*
X-4488582Y12785744D01*
X-4521349Y12763850D01*
X-4560000Y12756162D01*
X-5335000Y12756162D01*
X-5373651Y12763850D01*
X-5406418Y12785744D01*
X-5428312Y12818511D01*
X-5436000Y12857162D01*
X-5436000Y12957162D01*
X-5428312Y12995813D01*
X-5406418Y13028580D01*
X-5373651Y13050474D01*
X-5335000Y13058162D01*
X-4560000Y13058162D01*
X-4521349Y13050474D01*
G37*
G36*
X2353651Y13050474D02*
G01*
X2386418Y13028580D01*
X2408312Y12995813D01*
X2416000Y12957162D01*
X2416000Y12857162D01*
X2408312Y12818511D01*
X2386418Y12785744D01*
X2353651Y12763850D01*
X2315000Y12756162D01*
X1540000Y12756162D01*
X1501349Y12763850D01*
X1468582Y12785744D01*
X1446688Y12818511D01*
X1439000Y12857162D01*
X1439000Y12957162D01*
X1446688Y12995813D01*
X1468582Y13028580D01*
X1501349Y13050474D01*
X1540000Y13058162D01*
X2315000Y13058162D01*
X2353651Y13050474D01*
G37*
G36*
X-4521349Y13450474D02*
G01*
X-4488582Y13428580D01*
X-4466688Y13395813D01*
X-4459000Y13357162D01*
X-4459000Y13257162D01*
X-4466688Y13218511D01*
X-4488582Y13185744D01*
X-4521349Y13163850D01*
X-4560000Y13156162D01*
X-5335000Y13156162D01*
X-5373651Y13163850D01*
X-5406418Y13185744D01*
X-5428312Y13218511D01*
X-5436000Y13257162D01*
X-5436000Y13357162D01*
X-5428312Y13395813D01*
X-5406418Y13428580D01*
X-5373651Y13450474D01*
X-5335000Y13458162D01*
X-4560000Y13458162D01*
X-4521349Y13450474D01*
G37*
G36*
X2353651Y13450474D02*
G01*
X2386418Y13428580D01*
X2408312Y13395813D01*
X2416000Y13357162D01*
X2416000Y13257162D01*
X2408312Y13218511D01*
X2386418Y13185744D01*
X2353651Y13163850D01*
X2315000Y13156162D01*
X1540000Y13156162D01*
X1501349Y13163850D01*
X1468582Y13185744D01*
X1446688Y13218511D01*
X1439000Y13257162D01*
X1439000Y13357162D01*
X1446688Y13395813D01*
X1468582Y13428580D01*
X1501349Y13450474D01*
X1540000Y13458162D01*
X2315000Y13458162D01*
X2353651Y13450474D01*
G37*
G36*
X-5974407Y13853623D02*
G01*
X-5912443Y13812219D01*
X-5871039Y13750255D01*
X-5856500Y13677162D01*
X-5856500Y13397162D01*
X-5871039Y13324069D01*
X-5912443Y13262105D01*
X-5974407Y13220701D01*
X-6047500Y13206162D01*
X-6387500Y13206162D01*
X-6460593Y13220701D01*
X-6522557Y13262105D01*
X-6563961Y13324069D01*
X-6578500Y13397162D01*
X-6578500Y13677162D01*
X-6563961Y13750255D01*
X-6522557Y13812219D01*
X-6460593Y13853623D01*
X-6387500Y13868162D01*
X-6047500Y13868162D01*
X-5974407Y13853623D01*
G37*
G36*
X-4521349Y13850474D02*
G01*
X-4488582Y13828580D01*
X-4466688Y13795813D01*
X-4459000Y13757162D01*
X-4459000Y13657162D01*
X-4466688Y13618511D01*
X-4488582Y13585744D01*
X-4521349Y13563850D01*
X-4560000Y13556162D01*
X-5335000Y13556162D01*
X-5373651Y13563850D01*
X-5406418Y13585744D01*
X-5428312Y13618511D01*
X-5436000Y13657162D01*
X-5436000Y13757162D01*
X-5428312Y13795813D01*
X-5406418Y13828580D01*
X-5373651Y13850474D01*
X-5335000Y13858162D01*
X-4560000Y13858162D01*
X-4521349Y13850474D01*
G37*
G36*
X2353651Y13850474D02*
G01*
X2386418Y13828580D01*
X2408312Y13795813D01*
X2416000Y13757162D01*
X2416000Y13657162D01*
X2408312Y13618511D01*
X2386418Y13585744D01*
X2353651Y13563850D01*
X2315000Y13556162D01*
X1540000Y13556162D01*
X1501349Y13563850D01*
X1468582Y13585744D01*
X1446688Y13618511D01*
X1439000Y13657162D01*
X1439000Y13757162D01*
X1446688Y13795813D01*
X1468582Y13828580D01*
X1501349Y13850474D01*
X1540000Y13858162D01*
X2315000Y13858162D01*
X2353651Y13850474D01*
G37*
G36*
X-4521349Y14250474D02*
G01*
X-4488582Y14228580D01*
X-4466688Y14195813D01*
X-4459000Y14157162D01*
X-4459000Y14057162D01*
X-4466688Y14018511D01*
X-4488582Y13985744D01*
X-4521349Y13963850D01*
X-4560000Y13956162D01*
X-5335000Y13956162D01*
X-5373651Y13963850D01*
X-5406418Y13985744D01*
X-5428312Y14018511D01*
X-5436000Y14057162D01*
X-5436000Y14157162D01*
X-5428312Y14195813D01*
X-5406418Y14228580D01*
X-5373651Y14250474D01*
X-5335000Y14258162D01*
X-4560000Y14258162D01*
X-4521349Y14250474D01*
G37*
G36*
X2353651Y14250474D02*
G01*
X2386418Y14228580D01*
X2408312Y14195813D01*
X2416000Y14157162D01*
X2416000Y14057162D01*
X2408312Y14018511D01*
X2386418Y13985744D01*
X2353651Y13963850D01*
X2315000Y13956162D01*
X1540000Y13956162D01*
X1501349Y13963850D01*
X1468582Y13985744D01*
X1446688Y14018511D01*
X1439000Y14057162D01*
X1439000Y14157162D01*
X1446688Y14195813D01*
X1468582Y14228580D01*
X1501349Y14250474D01*
X1540000Y14258162D01*
X2315000Y14258162D01*
X2353651Y14250474D01*
G37*
G36*
X-5974407Y14813623D02*
G01*
X-5912443Y14772219D01*
X-5871039Y14710255D01*
X-5856500Y14637162D01*
X-5856500Y14357162D01*
X-5871039Y14284069D01*
X-5912443Y14222105D01*
X-5974407Y14180701D01*
X-6047500Y14166162D01*
X-6387500Y14166162D01*
X-6460593Y14180701D01*
X-6522557Y14222105D01*
X-6563961Y14284069D01*
X-6578500Y14357162D01*
X-6578500Y14637162D01*
X-6563961Y14710255D01*
X-6522557Y14772219D01*
X-6460593Y14813623D01*
X-6387500Y14828162D01*
X-6047500Y14828162D01*
X-5974407Y14813623D01*
G37*
G36*
X-4521349Y14650474D02*
G01*
X-4488582Y14628580D01*
X-4466688Y14595813D01*
X-4459000Y14557162D01*
X-4459000Y14457162D01*
X-4466688Y14418511D01*
X-4488582Y14385744D01*
X-4521349Y14363850D01*
X-4560000Y14356162D01*
X-5335000Y14356162D01*
X-5373651Y14363850D01*
X-5406418Y14385744D01*
X-5428312Y14418511D01*
X-5436000Y14457162D01*
X-5436000Y14557162D01*
X-5428312Y14595813D01*
X-5406418Y14628580D01*
X-5373651Y14650474D01*
X-5335000Y14658162D01*
X-4560000Y14658162D01*
X-4521349Y14650474D01*
G37*
G36*
X2353651Y14650474D02*
G01*
X2386418Y14628580D01*
X2408312Y14595813D01*
X2416000Y14557162D01*
X2416000Y14457162D01*
X2408312Y14418511D01*
X2386418Y14385744D01*
X2353651Y14363850D01*
X2315000Y14356162D01*
X1540000Y14356162D01*
X1501349Y14363850D01*
X1468582Y14385744D01*
X1446688Y14418511D01*
X1439000Y14457162D01*
X1439000Y14557162D01*
X1446688Y14595813D01*
X1468582Y14628580D01*
X1501349Y14650474D01*
X1540000Y14658162D01*
X2315000Y14658162D01*
X2353651Y14650474D01*
G37*
G36*
X-4021349Y15825474D02*
G01*
X-3988582Y15803580D01*
X-3966688Y15770813D01*
X-3959000Y15732162D01*
X-3959000Y14957162D01*
X-3966688Y14918511D01*
X-3988582Y14885744D01*
X-4021349Y14863850D01*
X-4060000Y14856162D01*
X-4160000Y14856162D01*
X-4198651Y14863850D01*
X-4231418Y14885744D01*
X-4253312Y14918511D01*
X-4261000Y14957162D01*
X-4261000Y15732162D01*
X-4253312Y15770813D01*
X-4231418Y15803580D01*
X-4198651Y15825474D01*
X-4160000Y15833162D01*
X-4060000Y15833162D01*
X-4021349Y15825474D01*
G37*
G36*
X-3621349Y15825474D02*
G01*
X-3588582Y15803580D01*
X-3566688Y15770813D01*
X-3559000Y15732162D01*
X-3559000Y14957162D01*
X-3566688Y14918511D01*
X-3588582Y14885744D01*
X-3621349Y14863850D01*
X-3660000Y14856162D01*
X-3760000Y14856162D01*
X-3798651Y14863850D01*
X-3831418Y14885744D01*
X-3853312Y14918511D01*
X-3861000Y14957162D01*
X-3861000Y15732162D01*
X-3853312Y15770813D01*
X-3831418Y15803580D01*
X-3798651Y15825474D01*
X-3760000Y15833162D01*
X-3660000Y15833162D01*
X-3621349Y15825474D01*
G37*
G36*
X-3221349Y15825474D02*
G01*
X-3188582Y15803580D01*
X-3166688Y15770813D01*
X-3159000Y15732162D01*
X-3159000Y14957162D01*
X-3166688Y14918511D01*
X-3188582Y14885744D01*
X-3221349Y14863850D01*
X-3260000Y14856162D01*
X-3360000Y14856162D01*
X-3398651Y14863850D01*
X-3431418Y14885744D01*
X-3453312Y14918511D01*
X-3461000Y14957162D01*
X-3461000Y15732162D01*
X-3453312Y15770813D01*
X-3431418Y15803580D01*
X-3398651Y15825474D01*
X-3360000Y15833162D01*
X-3260000Y15833162D01*
X-3221349Y15825474D01*
G37*
G36*
X-2821349Y15825474D02*
G01*
X-2788582Y15803580D01*
X-2766688Y15770813D01*
X-2759000Y15732162D01*
X-2759000Y14957162D01*
X-2766688Y14918511D01*
X-2788582Y14885744D01*
X-2821349Y14863850D01*
X-2860000Y14856162D01*
X-2960000Y14856162D01*
X-2998651Y14863850D01*
X-3031418Y14885744D01*
X-3053312Y14918511D01*
X-3061000Y14957162D01*
X-3061000Y15732162D01*
X-3053312Y15770813D01*
X-3031418Y15803580D01*
X-2998651Y15825474D01*
X-2960000Y15833162D01*
X-2860000Y15833162D01*
X-2821349Y15825474D01*
G37*
G36*
X-2421349Y15825474D02*
G01*
X-2388582Y15803580D01*
X-2366688Y15770813D01*
X-2359000Y15732162D01*
X-2359000Y14957162D01*
X-2366688Y14918511D01*
X-2388582Y14885744D01*
X-2421349Y14863850D01*
X-2460000Y14856162D01*
X-2560000Y14856162D01*
X-2598651Y14863850D01*
X-2631418Y14885744D01*
X-2653312Y14918511D01*
X-2661000Y14957162D01*
X-2661000Y15732162D01*
X-2653312Y15770813D01*
X-2631418Y15803580D01*
X-2598651Y15825474D01*
X-2560000Y15833162D01*
X-2460000Y15833162D01*
X-2421349Y15825474D01*
G37*
G36*
X-2021349Y15825474D02*
G01*
X-1988582Y15803580D01*
X-1966688Y15770813D01*
X-1959000Y15732162D01*
X-1959000Y14957162D01*
X-1966688Y14918511D01*
X-1988582Y14885744D01*
X-2021349Y14863850D01*
X-2060000Y14856162D01*
X-2160000Y14856162D01*
X-2198651Y14863850D01*
X-2231418Y14885744D01*
X-2253312Y14918511D01*
X-2261000Y14957162D01*
X-2261000Y15732162D01*
X-2253312Y15770813D01*
X-2231418Y15803580D01*
X-2198651Y15825474D01*
X-2160000Y15833162D01*
X-2060000Y15833162D01*
X-2021349Y15825474D01*
G37*
G36*
X-1621349Y15825474D02*
G01*
X-1588582Y15803580D01*
X-1566688Y15770813D01*
X-1559000Y15732162D01*
X-1559000Y14957162D01*
X-1566688Y14918511D01*
X-1588582Y14885744D01*
X-1621349Y14863850D01*
X-1660000Y14856162D01*
X-1760000Y14856162D01*
X-1798651Y14863850D01*
X-1831418Y14885744D01*
X-1853312Y14918511D01*
X-1861000Y14957162D01*
X-1861000Y15732162D01*
X-1853312Y15770813D01*
X-1831418Y15803580D01*
X-1798651Y15825474D01*
X-1760000Y15833162D01*
X-1660000Y15833162D01*
X-1621349Y15825474D01*
G37*
G36*
X-1221349Y15825474D02*
G01*
X-1188582Y15803580D01*
X-1166688Y15770813D01*
X-1159000Y15732162D01*
X-1159000Y14957162D01*
X-1166688Y14918511D01*
X-1188582Y14885744D01*
X-1221349Y14863850D01*
X-1260000Y14856162D01*
X-1360000Y14856162D01*
X-1398651Y14863850D01*
X-1431418Y14885744D01*
X-1453312Y14918511D01*
X-1461000Y14957162D01*
X-1461000Y15732162D01*
X-1453312Y15770813D01*
X-1431418Y15803580D01*
X-1398651Y15825474D01*
X-1360000Y15833162D01*
X-1260000Y15833162D01*
X-1221349Y15825474D01*
G37*
G36*
X-821349Y15825474D02*
G01*
X-788582Y15803580D01*
X-766688Y15770813D01*
X-759000Y15732162D01*
X-759000Y14957162D01*
X-766688Y14918511D01*
X-788582Y14885744D01*
X-821349Y14863850D01*
X-860000Y14856162D01*
X-960000Y14856162D01*
X-998651Y14863850D01*
X-1031418Y14885744D01*
X-1053312Y14918511D01*
X-1061000Y14957162D01*
X-1061000Y15732162D01*
X-1053312Y15770813D01*
X-1031418Y15803580D01*
X-998651Y15825474D01*
X-960000Y15833162D01*
X-860000Y15833162D01*
X-821349Y15825474D01*
G37*
G36*
X-421349Y15825474D02*
G01*
X-388582Y15803580D01*
X-366688Y15770813D01*
X-359000Y15732162D01*
X-359000Y14957162D01*
X-366688Y14918511D01*
X-388582Y14885744D01*
X-421349Y14863850D01*
X-460000Y14856162D01*
X-560000Y14856162D01*
X-598651Y14863850D01*
X-631418Y14885744D01*
X-653312Y14918511D01*
X-661000Y14957162D01*
X-661000Y15732162D01*
X-653312Y15770813D01*
X-631418Y15803580D01*
X-598651Y15825474D01*
X-560000Y15833162D01*
X-460000Y15833162D01*
X-421349Y15825474D01*
G37*
G36*
X-21349Y15825474D02*
G01*
X11418Y15803580D01*
X33312Y15770813D01*
X41000Y15732162D01*
X41000Y14957162D01*
X33312Y14918511D01*
X11418Y14885744D01*
X-21349Y14863850D01*
X-60000Y14856162D01*
X-160000Y14856162D01*
X-198651Y14863850D01*
X-231418Y14885744D01*
X-253312Y14918511D01*
X-261000Y14957162D01*
X-261000Y15732162D01*
X-253312Y15770813D01*
X-231418Y15803580D01*
X-198651Y15825474D01*
X-160000Y15833162D01*
X-60000Y15833162D01*
X-21349Y15825474D01*
G37*
G36*
X378651Y15825474D02*
G01*
X411418Y15803580D01*
X433312Y15770813D01*
X441000Y15732162D01*
X441000Y14957162D01*
X433312Y14918511D01*
X411418Y14885744D01*
X378651Y14863850D01*
X340000Y14856162D01*
X240000Y14856162D01*
X201349Y14863850D01*
X168582Y14885744D01*
X146688Y14918511D01*
X139000Y14957162D01*
X139000Y15732162D01*
X146688Y15770813D01*
X168582Y15803580D01*
X201349Y15825474D01*
X240000Y15833162D01*
X340000Y15833162D01*
X378651Y15825474D01*
G37*
G36*
X778651Y15825474D02*
G01*
X811418Y15803580D01*
X833312Y15770813D01*
X841000Y15732162D01*
X841000Y14957162D01*
X833312Y14918511D01*
X811418Y14885744D01*
X778651Y14863850D01*
X740000Y14856162D01*
X640000Y14856162D01*
X601349Y14863850D01*
X568582Y14885744D01*
X546688Y14918511D01*
X539000Y14957162D01*
X539000Y15732162D01*
X546688Y15770813D01*
X568582Y15803580D01*
X601349Y15825474D01*
X640000Y15833162D01*
X740000Y15833162D01*
X778651Y15825474D01*
G37*
G36*
X1178651Y15825474D02*
G01*
X1211418Y15803580D01*
X1233312Y15770813D01*
X1241000Y15732162D01*
X1241000Y14957162D01*
X1233312Y14918511D01*
X1211418Y14885744D01*
X1178651Y14863850D01*
X1140000Y14856162D01*
X1040000Y14856162D01*
X1001349Y14863850D01*
X968582Y14885744D01*
X946688Y14918511D01*
X939000Y14957162D01*
X939000Y15732162D01*
X946688Y15770813D01*
X968582Y15803580D01*
X1001349Y15825474D01*
X1040000Y15833162D01*
X1140000Y15833162D01*
X1178651Y15825474D01*
G37*
G36*
X415935Y26067360D02*
G01*
X452757Y26042757D01*
X477360Y26005935D01*
X486000Y25962500D01*
X486000Y25837500D01*
X477360Y25794065D01*
X452757Y25757243D01*
X415935Y25732640D01*
X372500Y25724000D01*
X-402500Y25724000D01*
X-445935Y25732640D01*
X-482757Y25757243D01*
X-507360Y25794065D01*
X-516000Y25837500D01*
X-516000Y25962500D01*
X-507360Y26005935D01*
X-482757Y26042757D01*
X-445935Y26067360D01*
X-402500Y26076000D01*
X372500Y26076000D01*
X415935Y26067360D01*
G37*
G36*
X3265935Y26067360D02*
G01*
X3302757Y26042757D01*
X3327360Y26005935D01*
X3336000Y25962500D01*
X3336000Y25837500D01*
X3327360Y25794065D01*
X3302757Y25757243D01*
X3265935Y25732640D01*
X3222500Y25724000D01*
X2447500Y25724000D01*
X2404065Y25732640D01*
X2367243Y25757243D01*
X2342640Y25794065D01*
X2334000Y25837500D01*
X2334000Y25962500D01*
X2342640Y26005935D01*
X2367243Y26042757D01*
X2404065Y26067360D01*
X2447500Y26076000D01*
X3222500Y26076000D01*
X3265935Y26067360D01*
G37*
G36*
X1529517Y27497118D02*
G01*
X1546062Y27486062D01*
X1557118Y27469517D01*
X1561000Y27450000D01*
X1561000Y25850000D01*
X1557118Y25830483D01*
X1546062Y25813938D01*
X1529517Y25802882D01*
X1510000Y25799000D01*
X1310000Y25799000D01*
X1290483Y25802882D01*
X1273938Y25813938D01*
X1262882Y25830483D01*
X1259000Y25850000D01*
X1259000Y27450000D01*
X1262882Y27469517D01*
X1273938Y27486062D01*
X1290483Y27497118D01*
X1310000Y27501000D01*
X1510000Y27501000D01*
X1529517Y27497118D01*
G37*
G36*
X415935Y26567360D02*
G01*
X452757Y26542757D01*
X477360Y26505935D01*
X486000Y26462500D01*
X486000Y26337500D01*
X477360Y26294065D01*
X452757Y26257243D01*
X415935Y26232640D01*
X372500Y26224000D01*
X-402500Y26224000D01*
X-445935Y26232640D01*
X-482757Y26257243D01*
X-507360Y26294065D01*
X-516000Y26337500D01*
X-516000Y26462500D01*
X-507360Y26505935D01*
X-482757Y26542757D01*
X-445935Y26567360D01*
X-402500Y26576000D01*
X372500Y26576000D01*
X415935Y26567360D01*
G37*
G36*
X3265935Y26567360D02*
G01*
X3302757Y26542757D01*
X3327360Y26505935D01*
X3336000Y26462500D01*
X3336000Y26337500D01*
X3327360Y26294065D01*
X3302757Y26257243D01*
X3265935Y26232640D01*
X3222500Y26224000D01*
X2447500Y26224000D01*
X2404065Y26232640D01*
X2367243Y26257243D01*
X2342640Y26294065D01*
X2334000Y26337500D01*
X2334000Y26462500D01*
X2342640Y26505935D01*
X2367243Y26542757D01*
X2404065Y26567360D01*
X2447500Y26576000D01*
X3222500Y26576000D01*
X3265935Y26567360D01*
G37*
G36*
X415935Y27067360D02*
G01*
X452757Y27042757D01*
X477360Y27005935D01*
X486000Y26962500D01*
X486000Y26837500D01*
X477360Y26794065D01*
X452757Y26757243D01*
X415935Y26732640D01*
X372500Y26724000D01*
X-402500Y26724000D01*
X-445935Y26732640D01*
X-482757Y26757243D01*
X-507360Y26794065D01*
X-516000Y26837500D01*
X-516000Y26962500D01*
X-507360Y27005935D01*
X-482757Y27042757D01*
X-445935Y27067360D01*
X-402500Y27076000D01*
X372500Y27076000D01*
X415935Y27067360D01*
G37*
G36*
X3265935Y27067360D02*
G01*
X3302757Y27042757D01*
X3327360Y27005935D01*
X3336000Y26962500D01*
X3336000Y26837500D01*
X3327360Y26794065D01*
X3302757Y26757243D01*
X3265935Y26732640D01*
X3222500Y26724000D01*
X2447500Y26724000D01*
X2404065Y26732640D01*
X2367243Y26757243D01*
X2342640Y26794065D01*
X2334000Y26837500D01*
X2334000Y26962500D01*
X2342640Y27005935D01*
X2367243Y27042757D01*
X2404065Y27067360D01*
X2447500Y27076000D01*
X3222500Y27076000D01*
X3265935Y27067360D01*
G37*
G36*
X-2283821Y27696842D02*
G01*
X-2223478Y27656522D01*
X-2183158Y27596179D01*
X-2169000Y27525000D01*
X-2169000Y27155000D01*
X-2183158Y27083821D01*
X-2223478Y27023478D01*
X-2283821Y26983158D01*
X-2355000Y26969000D01*
X-2625000Y26969000D01*
X-2696179Y26983158D01*
X-2756522Y27023478D01*
X-2796842Y27083821D01*
X-2811000Y27155000D01*
X-2811000Y27525000D01*
X-2796842Y27596179D01*
X-2756522Y27656522D01*
X-2696179Y27696842D01*
X-2625000Y27711000D01*
X-2355000Y27711000D01*
X-2283821Y27696842D01*
G37*
G36*
X-1263821Y27696842D02*
G01*
X-1203478Y27656522D01*
X-1163158Y27596179D01*
X-1149000Y27525000D01*
X-1149000Y27155000D01*
X-1163158Y27083821D01*
X-1203478Y27023478D01*
X-1263821Y26983158D01*
X-1335000Y26969000D01*
X-1605000Y26969000D01*
X-1676179Y26983158D01*
X-1736522Y27023478D01*
X-1776842Y27083821D01*
X-1791000Y27155000D01*
X-1791000Y27525000D01*
X-1776842Y27596179D01*
X-1736522Y27656522D01*
X-1676179Y27696842D01*
X-1605000Y27711000D01*
X-1335000Y27711000D01*
X-1263821Y27696842D01*
G37*
G36*
X415935Y27567360D02*
G01*
X452757Y27542757D01*
X477360Y27505935D01*
X486000Y27462500D01*
X486000Y27337500D01*
X477360Y27294065D01*
X452757Y27257243D01*
X415935Y27232640D01*
X372500Y27224000D01*
X-402500Y27224000D01*
X-445935Y27232640D01*
X-482757Y27257243D01*
X-507360Y27294065D01*
X-516000Y27337500D01*
X-516000Y27462500D01*
X-507360Y27505935D01*
X-482757Y27542757D01*
X-445935Y27567360D01*
X-402500Y27576000D01*
X372500Y27576000D01*
X415935Y27567360D01*
G37*
G36*
X3265935Y27567360D02*
G01*
X3302757Y27542757D01*
X3327360Y27505935D01*
X3336000Y27462500D01*
X3336000Y27337500D01*
X3327360Y27294065D01*
X3302757Y27257243D01*
X3265935Y27232640D01*
X3222500Y27224000D01*
X2447500Y27224000D01*
X2404065Y27232640D01*
X2367243Y27257243D01*
X2342640Y27294065D01*
X2334000Y27337500D01*
X2334000Y27462500D01*
X2342640Y27505935D01*
X2367243Y27542757D01*
X2404065Y27567360D01*
X2447500Y27576000D01*
X3222500Y27576000D01*
X3265935Y27567360D01*
G37*
G36*
X2103093Y28786461D02*
G01*
X2165057Y28745057D01*
X2206461Y28683093D01*
X2221000Y28610000D01*
X2221000Y28270000D01*
X2206461Y28196907D01*
X2165057Y28134943D01*
X2103093Y28093539D01*
X2030000Y28079000D01*
X1750000Y28079000D01*
X1676907Y28093539D01*
X1614943Y28134943D01*
X1573539Y28196907D01*
X1559000Y28270000D01*
X1559000Y28610000D01*
X1573539Y28683093D01*
X1614943Y28745057D01*
X1676907Y28786461D01*
X1750000Y28801000D01*
X2030000Y28801000D01*
X2103093Y28786461D01*
G37*
G36*
X3063093Y28786461D02*
G01*
X3125057Y28745057D01*
X3166461Y28683093D01*
X3181000Y28610000D01*
X3181000Y28270000D01*
X3166461Y28196907D01*
X3125057Y28134943D01*
X3063093Y28093539D01*
X2990000Y28079000D01*
X2710000Y28079000D01*
X2636907Y28093539D01*
X2574943Y28134943D01*
X2533539Y28196907D01*
X2519000Y28270000D01*
X2519000Y28610000D01*
X2533539Y28683093D01*
X2574943Y28745057D01*
X2636907Y28786461D01*
X2710000Y28801000D01*
X2990000Y28801000D01*
X3063093Y28786461D01*
G37*
G36*
X-4493821Y29226842D02*
G01*
X-4433478Y29186522D01*
X-4393158Y29126179D01*
X-4379000Y29055000D01*
X-4379000Y28685000D01*
X-4393158Y28613821D01*
X-4433478Y28553478D01*
X-4493821Y28513158D01*
X-4565000Y28499000D01*
X-4835000Y28499000D01*
X-4906179Y28513158D01*
X-4966522Y28553478D01*
X-5006842Y28613821D01*
X-5021000Y28685000D01*
X-5021000Y29055000D01*
X-5006842Y29126179D01*
X-4966522Y29186522D01*
X-4906179Y29226842D01*
X-4835000Y29241000D01*
X-4565000Y29241000D01*
X-4493821Y29226842D01*
G37*
G36*
X-3473821Y29226842D02*
G01*
X-3413478Y29186522D01*
X-3373158Y29126179D01*
X-3359000Y29055000D01*
X-3359000Y28685000D01*
X-3373158Y28613821D01*
X-3413478Y28553478D01*
X-3473821Y28513158D01*
X-3545000Y28499000D01*
X-3815000Y28499000D01*
X-3886179Y28513158D01*
X-3946522Y28553478D01*
X-3986842Y28613821D01*
X-4001000Y28685000D01*
X-4001000Y29055000D01*
X-3986842Y29126179D01*
X-3946522Y29186522D01*
X-3886179Y29226842D01*
X-3815000Y29241000D01*
X-3545000Y29241000D01*
X-3473821Y29226842D01*
G37*
G36*
X-2272390Y34250755D02*
G01*
X-2195918Y34230265D01*
X-2093080Y34170891D01*
X-2009110Y34086921D01*
X-1949736Y33984083D01*
X-1949736Y33984081D01*
X-1949735Y33984080D01*
X-1919000Y33869375D01*
X-1919000Y33750625D01*
X-1949735Y33635920D01*
X-2009110Y33533079D01*
X-2093079Y33449110D01*
X-2195920Y33389735D01*
X-2310625Y33359000D01*
X-2310626Y33359000D01*
X-3429374Y33359000D01*
X-3429375Y33359000D01*
X-3544080Y33389735D01*
X-3544081Y33389736D01*
X-3544083Y33389736D01*
X-3646921Y33449110D01*
X-3730891Y33533080D01*
X-3790265Y33635918D01*
X-3821000Y33750626D01*
X-3821000Y33869375D01*
X-3790265Y33984083D01*
X-3730891Y34086921D01*
X-3646921Y34170891D01*
X-3544083Y34230265D01*
X-3458052Y34253317D01*
X-3429375Y34261000D01*
X-2310625Y34261000D01*
X-2272390Y34250755D01*
G37*
G36*
X1227610Y34250755D02*
G01*
X1304082Y34230265D01*
X1406920Y34170891D01*
X1490890Y34086921D01*
X1550264Y33984083D01*
X1550264Y33984081D01*
X1550265Y33984080D01*
X1581000Y33869375D01*
X1581000Y33750625D01*
X1550265Y33635920D01*
X1490890Y33533079D01*
X1406921Y33449110D01*
X1304080Y33389735D01*
X1189375Y33359000D01*
X1189374Y33359000D01*
X70626Y33359000D01*
X70625Y33359000D01*
X-44080Y33389735D01*
X-44081Y33389736D01*
X-44083Y33389736D01*
X-146921Y33449110D01*
X-230891Y33533080D01*
X-290265Y33635918D01*
X-321000Y33750626D01*
X-321000Y33869375D01*
X-290265Y33984083D01*
X-230891Y34086921D01*
X-146921Y34170891D01*
X-44083Y34230265D01*
X41948Y34253317D01*
X70625Y34261000D01*
X1189375Y34261000D01*
X1227610Y34250755D01*
G37*
G36*
X-3708102Y36208042D02*
G01*
X-3691231Y36196770D01*
X-3679961Y36179902D01*
X-3679959Y36179899D01*
X-3677001Y36165022D01*
X-3677000Y34954977D01*
X-3679959Y34940101D01*
X-3691231Y34923231D01*
X-3708101Y34911959D01*
X-3722978Y34909001D01*
X-4013023Y34909000D01*
X-4027899Y34911959D01*
X-4027902Y34911961D01*
X-4044770Y34923231D01*
X-4056040Y34940099D01*
X-4056041Y34940100D01*
X-4056041Y34940101D01*
X-4057153Y34945693D01*
X-4059000Y34954978D01*
X-4059000Y36165026D01*
X-4056042Y36179899D01*
X-4044770Y36196770D01*
X-4027902Y36208040D01*
X-4027900Y36208041D01*
X-4027899Y36208041D01*
X-4024156Y36208786D01*
X-4013023Y36211000D01*
X-3722975Y36211000D01*
X-3708102Y36208042D01*
G37*
G36*
X-3210102Y36208042D02*
G01*
X-3193231Y36196770D01*
X-3181961Y36179902D01*
X-3181959Y36179899D01*
X-3179001Y36165022D01*
X-3179000Y34954977D01*
X-3181959Y34940101D01*
X-3193231Y34923231D01*
X-3210101Y34911959D01*
X-3224978Y34909001D01*
X-3515023Y34909000D01*
X-3529899Y34911959D01*
X-3529902Y34911961D01*
X-3546770Y34923231D01*
X-3558040Y34940099D01*
X-3558041Y34940100D01*
X-3558041Y34940101D01*
X-3559153Y34945693D01*
X-3561000Y34954978D01*
X-3561000Y36165026D01*
X-3558042Y36179899D01*
X-3546770Y36196770D01*
X-3529902Y36208040D01*
X-3529900Y36208041D01*
X-3529899Y36208041D01*
X-3526156Y36208786D01*
X-3515023Y36211000D01*
X-3224975Y36211000D01*
X-3210102Y36208042D01*
G37*
G36*
X-2710102Y36208042D02*
G01*
X-2693231Y36196770D01*
X-2681961Y36179902D01*
X-2681959Y36179899D01*
X-2679001Y36165022D01*
X-2679000Y34954977D01*
X-2681959Y34940101D01*
X-2693231Y34923231D01*
X-2710101Y34911959D01*
X-2724978Y34909001D01*
X-3015023Y34909000D01*
X-3029899Y34911959D01*
X-3029902Y34911961D01*
X-3046770Y34923231D01*
X-3058040Y34940099D01*
X-3058041Y34940100D01*
X-3058041Y34940101D01*
X-3059153Y34945693D01*
X-3061000Y34954978D01*
X-3061000Y36165026D01*
X-3058042Y36179899D01*
X-3046770Y36196770D01*
X-3029902Y36208040D01*
X-3029900Y36208041D01*
X-3029899Y36208041D01*
X-3026156Y36208786D01*
X-3015023Y36211000D01*
X-2724975Y36211000D01*
X-2710102Y36208042D01*
G37*
G36*
X-2210102Y36208042D02*
G01*
X-2193231Y36196770D01*
X-2181961Y36179902D01*
X-2181959Y36179899D01*
X-2179001Y36165022D01*
X-2179000Y34954977D01*
X-2181959Y34940101D01*
X-2193231Y34923231D01*
X-2210101Y34911959D01*
X-2224978Y34909001D01*
X-2515023Y34909000D01*
X-2529899Y34911959D01*
X-2529902Y34911961D01*
X-2546770Y34923231D01*
X-2558040Y34940099D01*
X-2558041Y34940100D01*
X-2558041Y34940101D01*
X-2559153Y34945693D01*
X-2561000Y34954978D01*
X-2561000Y36165026D01*
X-2558042Y36179899D01*
X-2546770Y36196770D01*
X-2529902Y36208040D01*
X-2529900Y36208041D01*
X-2529899Y36208041D01*
X-2526156Y36208786D01*
X-2515023Y36211000D01*
X-2224975Y36211000D01*
X-2210102Y36208042D01*
G37*
G36*
X-1710102Y36208042D02*
G01*
X-1693231Y36196770D01*
X-1681961Y36179902D01*
X-1681959Y36179899D01*
X-1679001Y36165022D01*
X-1679000Y34954977D01*
X-1681959Y34940101D01*
X-1693231Y34923231D01*
X-1710101Y34911959D01*
X-1724978Y34909001D01*
X-2015023Y34909000D01*
X-2029899Y34911959D01*
X-2029902Y34911961D01*
X-2046770Y34923231D01*
X-2058040Y34940099D01*
X-2058041Y34940100D01*
X-2058041Y34940101D01*
X-2059153Y34945693D01*
X-2061000Y34954978D01*
X-2061000Y36165026D01*
X-2058042Y36179899D01*
X-2046770Y36196770D01*
X-2029902Y36208040D01*
X-2029900Y36208041D01*
X-2029899Y36208041D01*
X-2026156Y36208786D01*
X-2015023Y36211000D01*
X-1724975Y36211000D01*
X-1710102Y36208042D01*
G37*
G36*
X-1210102Y36208042D02*
G01*
X-1193231Y36196770D01*
X-1181961Y36179902D01*
X-1181959Y36179899D01*
X-1179001Y36165022D01*
X-1179000Y34954977D01*
X-1181959Y34940101D01*
X-1193231Y34923231D01*
X-1210101Y34911959D01*
X-1224978Y34909001D01*
X-1515023Y34909000D01*
X-1529899Y34911959D01*
X-1529902Y34911961D01*
X-1546770Y34923231D01*
X-1558040Y34940099D01*
X-1558041Y34940100D01*
X-1558041Y34940101D01*
X-1559153Y34945693D01*
X-1561000Y34954978D01*
X-1561000Y36165026D01*
X-1558042Y36179899D01*
X-1546770Y36196770D01*
X-1529902Y36208040D01*
X-1529900Y36208041D01*
X-1529899Y36208041D01*
X-1526156Y36208786D01*
X-1515023Y36211000D01*
X-1224975Y36211000D01*
X-1210102Y36208042D01*
G37*
G36*
X-710102Y36208042D02*
G01*
X-693231Y36196770D01*
X-681961Y36179902D01*
X-681959Y36179899D01*
X-679001Y36165022D01*
X-679000Y34954977D01*
X-681959Y34940101D01*
X-693231Y34923231D01*
X-710101Y34911959D01*
X-724978Y34909001D01*
X-1015023Y34909000D01*
X-1029899Y34911959D01*
X-1029902Y34911961D01*
X-1046770Y34923231D01*
X-1058040Y34940099D01*
X-1058041Y34940100D01*
X-1058041Y34940101D01*
X-1059153Y34945693D01*
X-1061000Y34954978D01*
X-1061000Y36165026D01*
X-1058042Y36179899D01*
X-1046770Y36196770D01*
X-1029902Y36208040D01*
X-1029900Y36208041D01*
X-1029899Y36208041D01*
X-1026156Y36208786D01*
X-1015023Y36211000D01*
X-724975Y36211000D01*
X-710102Y36208042D01*
G37*
G36*
X-210102Y36208042D02*
G01*
X-193231Y36196770D01*
X-181961Y36179902D01*
X-181959Y36179899D01*
X-179001Y36165022D01*
X-179000Y34954977D01*
X-181959Y34940101D01*
X-193231Y34923231D01*
X-210101Y34911959D01*
X-224978Y34909001D01*
X-515023Y34909000D01*
X-529899Y34911959D01*
X-529902Y34911961D01*
X-546770Y34923231D01*
X-558040Y34940099D01*
X-558041Y34940100D01*
X-558041Y34940101D01*
X-559153Y34945693D01*
X-561000Y34954978D01*
X-561000Y36165026D01*
X-558042Y36179899D01*
X-546770Y36196770D01*
X-529902Y36208040D01*
X-529900Y36208041D01*
X-529899Y36208041D01*
X-526156Y36208786D01*
X-515023Y36211000D01*
X-224975Y36211000D01*
X-210102Y36208042D01*
G37*
G36*
X289898Y36208042D02*
G01*
X306769Y36196770D01*
X318039Y36179902D01*
X318041Y36179899D01*
X320999Y36165022D01*
X321000Y34954977D01*
X318041Y34940101D01*
X306769Y34923231D01*
X289899Y34911959D01*
X275022Y34909001D01*
X-15023Y34909000D01*
X-29899Y34911959D01*
X-29902Y34911961D01*
X-46770Y34923231D01*
X-58040Y34940099D01*
X-58041Y34940100D01*
X-58041Y34940101D01*
X-59153Y34945693D01*
X-61000Y34954978D01*
X-61000Y36165026D01*
X-58042Y36179899D01*
X-46770Y36196770D01*
X-29902Y36208040D01*
X-29900Y36208041D01*
X-29899Y36208041D01*
X-26156Y36208786D01*
X-15023Y36211000D01*
X275025Y36211000D01*
X289898Y36208042D01*
G37*
G36*
X789898Y36208042D02*
G01*
X806769Y36196770D01*
X818039Y36179902D01*
X818041Y36179899D01*
X820999Y36165022D01*
X821000Y34954977D01*
X818041Y34940101D01*
X806769Y34923231D01*
X789899Y34911959D01*
X775022Y34909001D01*
X484977Y34909000D01*
X470101Y34911959D01*
X470098Y34911961D01*
X453230Y34923231D01*
X441960Y34940099D01*
X441959Y34940100D01*
X441959Y34940101D01*
X440847Y34945693D01*
X439000Y34954978D01*
X439000Y36165026D01*
X441958Y36179899D01*
X453230Y36196770D01*
X470098Y36208040D01*
X470100Y36208041D01*
X470101Y36208041D01*
X473844Y36208786D01*
X484977Y36211000D01*
X775025Y36211000D01*
X789898Y36208042D01*
G37*
G36*
X1289898Y36208042D02*
G01*
X1306769Y36196770D01*
X1318039Y36179902D01*
X1318041Y36179899D01*
X1320999Y36165022D01*
X1321000Y34954977D01*
X1318041Y34940101D01*
X1306769Y34923231D01*
X1289899Y34911959D01*
X1275022Y34909001D01*
X984977Y34909000D01*
X970101Y34911959D01*
X970098Y34911961D01*
X953230Y34923231D01*
X941960Y34940099D01*
X941959Y34940100D01*
X941959Y34940101D01*
X940847Y34945693D01*
X939000Y34954978D01*
X939000Y36165026D01*
X941958Y36179899D01*
X953230Y36196770D01*
X970098Y36208040D01*
X970100Y36208041D01*
X970101Y36208041D01*
X973844Y36208786D01*
X984977Y36211000D01*
X1275025Y36211000D01*
X1289898Y36208042D01*
G37*
G36*
X1789898Y36208042D02*
G01*
X1806769Y36196770D01*
X1818039Y36179902D01*
X1818041Y36179899D01*
X1820999Y36165022D01*
X1821000Y34954977D01*
X1818041Y34940101D01*
X1806769Y34923231D01*
X1789899Y34911959D01*
X1775022Y34909001D01*
X1484977Y34909000D01*
X1470101Y34911959D01*
X1470098Y34911961D01*
X1453230Y34923231D01*
X1441960Y34940099D01*
X1441959Y34940100D01*
X1441959Y34940101D01*
X1440847Y34945693D01*
X1439000Y34954978D01*
X1439000Y36165026D01*
X1441958Y36179899D01*
X1453230Y36196770D01*
X1470098Y36208040D01*
X1470100Y36208041D01*
X1470101Y36208041D01*
X1473844Y36208786D01*
X1484977Y36211000D01*
X1775025Y36211000D01*
X1789898Y36208042D01*
G37*
G36*
X-4676621Y37076858D02*
G01*
X-4562379Y37010900D01*
X-4469100Y36917621D01*
X-4403142Y36803379D01*
X-4369000Y36675958D01*
X-4369000Y36544042D01*
X-4403142Y36416621D01*
X-4469100Y36302379D01*
X-4562379Y36209100D01*
X-4676621Y36143142D01*
X-4804042Y36109000D01*
X-4804044Y36109000D01*
X-5435956Y36109000D01*
X-5435958Y36109000D01*
X-5563379Y36143142D01*
X-5677621Y36209100D01*
X-5770900Y36302379D01*
X-5836858Y36416621D01*
X-5871000Y36544042D01*
X-5871000Y36675958D01*
X-5836858Y36803379D01*
X-5836857Y36803381D01*
X-5770900Y36917622D01*
X-5677622Y37010900D01*
X-5563381Y37076857D01*
X-5563381Y37076858D01*
X-5563379Y37076858D01*
X-5435958Y37111000D01*
X-4804042Y37111000D01*
X-4676621Y37076858D01*
G37*
G36*
X3323379Y37076858D02*
G01*
X3437621Y37010900D01*
X3530900Y36917621D01*
X3596858Y36803379D01*
X3631000Y36675958D01*
X3631000Y36544042D01*
X3596858Y36416621D01*
X3530900Y36302379D01*
X3437621Y36209100D01*
X3323379Y36143142D01*
X3195958Y36109000D01*
X3195956Y36109000D01*
X2564044Y36109000D01*
X2564042Y36109000D01*
X2436621Y36143142D01*
X2322379Y36209100D01*
X2229100Y36302379D01*
X2163142Y36416621D01*
X2129000Y36544042D01*
X2129000Y36675958D01*
X2163142Y36803379D01*
X2163143Y36803381D01*
X2229100Y36917622D01*
X2322378Y37010900D01*
X2436619Y37076857D01*
X2436619Y37076858D01*
X2436621Y37076858D01*
X2564042Y37111000D01*
X3195958Y37111000D01*
X3323379Y37076858D01*
G37*
G36*
X-3709602Y38308042D02*
G01*
X-3692731Y38296770D01*
X-3681461Y38279902D01*
X-3681459Y38279899D01*
X-3678501Y38265022D01*
X-3678500Y37054977D01*
X-3681459Y37040101D01*
X-3692731Y37023231D01*
X-3709601Y37011959D01*
X-3724478Y37009001D01*
X-4014523Y37009000D01*
X-4029399Y37011959D01*
X-4029402Y37011961D01*
X-4046270Y37023231D01*
X-4057540Y37040099D01*
X-4057541Y37040100D01*
X-4057541Y37040101D01*
X-4058653Y37045693D01*
X-4060500Y37054978D01*
X-4060500Y38265026D01*
X-4057542Y38279899D01*
X-4046270Y38296770D01*
X-4029402Y38308040D01*
X-4029400Y38308041D01*
X-4029399Y38308041D01*
X-4025656Y38308786D01*
X-4014523Y38311000D01*
X-3724475Y38311000D01*
X-3709602Y38308042D01*
G37*
G36*
X-3209602Y38308042D02*
G01*
X-3192731Y38296770D01*
X-3181461Y38279902D01*
X-3181459Y38279899D01*
X-3178501Y38265022D01*
X-3178500Y37054977D01*
X-3181459Y37040101D01*
X-3192731Y37023231D01*
X-3209601Y37011959D01*
X-3224478Y37009001D01*
X-3514523Y37009000D01*
X-3529399Y37011959D01*
X-3529402Y37011961D01*
X-3546270Y37023231D01*
X-3557540Y37040099D01*
X-3557541Y37040100D01*
X-3557541Y37040101D01*
X-3558653Y37045693D01*
X-3560500Y37054978D01*
X-3560500Y38265026D01*
X-3557542Y38279899D01*
X-3546270Y38296770D01*
X-3529402Y38308040D01*
X-3529400Y38308041D01*
X-3529399Y38308041D01*
X-3525656Y38308786D01*
X-3514523Y38311000D01*
X-3224475Y38311000D01*
X-3209602Y38308042D01*
G37*
G36*
X-2709602Y38308042D02*
G01*
X-2692731Y38296770D01*
X-2681461Y38279902D01*
X-2681459Y38279899D01*
X-2678501Y38265022D01*
X-2678500Y37054977D01*
X-2681459Y37040101D01*
X-2692731Y37023231D01*
X-2709601Y37011959D01*
X-2724478Y37009001D01*
X-3014523Y37009000D01*
X-3029399Y37011959D01*
X-3029402Y37011961D01*
X-3046270Y37023231D01*
X-3057540Y37040099D01*
X-3057541Y37040100D01*
X-3057541Y37040101D01*
X-3058653Y37045693D01*
X-3060500Y37054978D01*
X-3060500Y38265026D01*
X-3057542Y38279899D01*
X-3046270Y38296770D01*
X-3029402Y38308040D01*
X-3029400Y38308041D01*
X-3029399Y38308041D01*
X-3025656Y38308786D01*
X-3014523Y38311000D01*
X-2724475Y38311000D01*
X-2709602Y38308042D01*
G37*
G36*
X-2210102Y38308042D02*
G01*
X-2193231Y38296770D01*
X-2181961Y38279902D01*
X-2181959Y38279899D01*
X-2179001Y38265022D01*
X-2179000Y37054977D01*
X-2181959Y37040101D01*
X-2193231Y37023231D01*
X-2210101Y37011959D01*
X-2224978Y37009001D01*
X-2515023Y37009000D01*
X-2529899Y37011959D01*
X-2529902Y37011961D01*
X-2546770Y37023231D01*
X-2558040Y37040099D01*
X-2558041Y37040100D01*
X-2558041Y37040101D01*
X-2559153Y37045693D01*
X-2561000Y37054978D01*
X-2561000Y38265026D01*
X-2558042Y38279899D01*
X-2546770Y38296770D01*
X-2529902Y38308040D01*
X-2529900Y38308041D01*
X-2529899Y38308041D01*
X-2526156Y38308786D01*
X-2515023Y38311000D01*
X-2224975Y38311000D01*
X-2210102Y38308042D01*
G37*
G36*
X-1709602Y38308042D02*
G01*
X-1692731Y38296770D01*
X-1681461Y38279902D01*
X-1681459Y38279899D01*
X-1678501Y38265022D01*
X-1678500Y37054977D01*
X-1681459Y37040101D01*
X-1692731Y37023231D01*
X-1709601Y37011959D01*
X-1724478Y37009001D01*
X-2014523Y37009000D01*
X-2029399Y37011959D01*
X-2029402Y37011961D01*
X-2046270Y37023231D01*
X-2057540Y37040099D01*
X-2057541Y37040100D01*
X-2057541Y37040101D01*
X-2058653Y37045693D01*
X-2060500Y37054978D01*
X-2060500Y38265026D01*
X-2057542Y38279899D01*
X-2046270Y38296770D01*
X-2029402Y38308040D01*
X-2029400Y38308041D01*
X-2029399Y38308041D01*
X-2025656Y38308786D01*
X-2014523Y38311000D01*
X-1724475Y38311000D01*
X-1709602Y38308042D01*
G37*
G36*
X-1209602Y38308042D02*
G01*
X-1192731Y38296770D01*
X-1181461Y38279902D01*
X-1181459Y38279899D01*
X-1178501Y38265022D01*
X-1178500Y37054977D01*
X-1181459Y37040101D01*
X-1192731Y37023231D01*
X-1209601Y37011959D01*
X-1224478Y37009001D01*
X-1514523Y37009000D01*
X-1529399Y37011959D01*
X-1529402Y37011961D01*
X-1546270Y37023231D01*
X-1557540Y37040099D01*
X-1557541Y37040100D01*
X-1557541Y37040101D01*
X-1558653Y37045693D01*
X-1560500Y37054978D01*
X-1560500Y38265026D01*
X-1557542Y38279899D01*
X-1546270Y38296770D01*
X-1529402Y38308040D01*
X-1529400Y38308041D01*
X-1529399Y38308041D01*
X-1525656Y38308786D01*
X-1514523Y38311000D01*
X-1224475Y38311000D01*
X-1209602Y38308042D01*
G37*
G36*
X-709602Y38308042D02*
G01*
X-692731Y38296770D01*
X-681461Y38279902D01*
X-681459Y38279899D01*
X-678501Y38265022D01*
X-678500Y37054977D01*
X-681459Y37040101D01*
X-692731Y37023231D01*
X-709601Y37011959D01*
X-724478Y37009001D01*
X-1014523Y37009000D01*
X-1029399Y37011959D01*
X-1029402Y37011961D01*
X-1046270Y37023231D01*
X-1057540Y37040099D01*
X-1057541Y37040100D01*
X-1057541Y37040101D01*
X-1058653Y37045693D01*
X-1060500Y37054978D01*
X-1060500Y38265026D01*
X-1057542Y38279899D01*
X-1046270Y38296770D01*
X-1029402Y38308040D01*
X-1029400Y38308041D01*
X-1029399Y38308041D01*
X-1025656Y38308786D01*
X-1014523Y38311000D01*
X-724475Y38311000D01*
X-709602Y38308042D01*
G37*
G36*
X-209602Y38308042D02*
G01*
X-192731Y38296770D01*
X-181461Y38279902D01*
X-181459Y38279899D01*
X-178501Y38265022D01*
X-178500Y37054977D01*
X-181459Y37040101D01*
X-192731Y37023231D01*
X-209601Y37011959D01*
X-224478Y37009001D01*
X-514523Y37009000D01*
X-529399Y37011959D01*
X-529402Y37011961D01*
X-546270Y37023231D01*
X-557540Y37040099D01*
X-557541Y37040100D01*
X-557541Y37040101D01*
X-558653Y37045693D01*
X-560500Y37054978D01*
X-560500Y38265026D01*
X-557542Y38279899D01*
X-546270Y38296770D01*
X-529402Y38308040D01*
X-529400Y38308041D01*
X-529399Y38308041D01*
X-525656Y38308786D01*
X-514523Y38311000D01*
X-224475Y38311000D01*
X-209602Y38308042D01*
G37*
G36*
X290398Y38308042D02*
G01*
X307269Y38296770D01*
X318539Y38279902D01*
X318541Y38279899D01*
X321499Y38265022D01*
X321500Y37054977D01*
X318541Y37040101D01*
X307269Y37023231D01*
X290399Y37011959D01*
X275522Y37009001D01*
X-14523Y37009000D01*
X-29399Y37011959D01*
X-29402Y37011961D01*
X-46270Y37023231D01*
X-57540Y37040099D01*
X-57541Y37040100D01*
X-57541Y37040101D01*
X-58653Y37045693D01*
X-60500Y37054978D01*
X-60500Y38265026D01*
X-57542Y38279899D01*
X-46270Y38296770D01*
X-29402Y38308040D01*
X-29400Y38308041D01*
X-29399Y38308041D01*
X-25656Y38308786D01*
X-14523Y38311000D01*
X275525Y38311000D01*
X290398Y38308042D01*
G37*
G36*
X790398Y38308042D02*
G01*
X807269Y38296770D01*
X818539Y38279902D01*
X818541Y38279899D01*
X821499Y38265022D01*
X821500Y37054977D01*
X818541Y37040101D01*
X807269Y37023231D01*
X790399Y37011959D01*
X775522Y37009001D01*
X485477Y37009000D01*
X470601Y37011959D01*
X470598Y37011961D01*
X453730Y37023231D01*
X442460Y37040099D01*
X442459Y37040100D01*
X442459Y37040101D01*
X441347Y37045693D01*
X439500Y37054978D01*
X439500Y38265026D01*
X442458Y38279899D01*
X453730Y38296770D01*
X470598Y38308040D01*
X470600Y38308041D01*
X470601Y38308041D01*
X474344Y38308786D01*
X485477Y38311000D01*
X775525Y38311000D01*
X790398Y38308042D01*
G37*
G36*
X1290398Y38308042D02*
G01*
X1307269Y38296770D01*
X1318539Y38279902D01*
X1318541Y38279899D01*
X1321499Y38265022D01*
X1321500Y37054977D01*
X1318541Y37040101D01*
X1307269Y37023231D01*
X1290399Y37011959D01*
X1275522Y37009001D01*
X985477Y37009000D01*
X970601Y37011959D01*
X970598Y37011961D01*
X953730Y37023231D01*
X942460Y37040099D01*
X942459Y37040100D01*
X942459Y37040101D01*
X941347Y37045693D01*
X939500Y37054978D01*
X939500Y38265026D01*
X942458Y38279899D01*
X953730Y38296770D01*
X970598Y38308040D01*
X970600Y38308041D01*
X970601Y38308041D01*
X974344Y38308786D01*
X985477Y38311000D01*
X1275525Y38311000D01*
X1290398Y38308042D01*
G37*
G36*
X1790398Y38308042D02*
G01*
X1807269Y38296770D01*
X1818539Y38279902D01*
X1818541Y38279899D01*
X1821499Y38265022D01*
X1821500Y37054977D01*
X1818541Y37040101D01*
X1807269Y37023231D01*
X1790399Y37011959D01*
X1775522Y37009001D01*
X1485477Y37009000D01*
X1470601Y37011959D01*
X1470598Y37011961D01*
X1453730Y37023231D01*
X1442460Y37040099D01*
X1442459Y37040100D01*
X1442459Y37040101D01*
X1441347Y37045693D01*
X1439500Y37054978D01*
X1439500Y38265026D01*
X1442458Y38279899D01*
X1453730Y38296770D01*
X1470598Y38308040D01*
X1470600Y38308041D01*
X1470601Y38308041D01*
X1474344Y38308786D01*
X1485477Y38311000D01*
X1775525Y38311000D01*
X1790398Y38308042D01*
G37*
G36*
X-322390Y39850755D02*
G01*
X-245918Y39830265D01*
X-143080Y39770891D01*
X-59110Y39686921D01*
X264Y39584083D01*
X264Y39584081D01*
X265Y39584080D01*
X31000Y39469375D01*
X31000Y39350625D01*
X265Y39235920D01*
X-59110Y39133079D01*
X-143079Y39049110D01*
X-245920Y38989735D01*
X-360625Y38959000D01*
X-360626Y38959000D01*
X-1879374Y38959000D01*
X-1879375Y38959000D01*
X-1994080Y38989735D01*
X-1994081Y38989736D01*
X-1994083Y38989736D01*
X-2096921Y39049110D01*
X-2180891Y39133080D01*
X-2240265Y39235918D01*
X-2271000Y39350626D01*
X-2271000Y39469375D01*
X-2240265Y39584083D01*
X-2180891Y39686921D01*
X-2096921Y39770891D01*
X-1994083Y39830265D01*
X-1908052Y39853317D01*
X-1879375Y39861000D01*
X-360625Y39861000D01*
X-322390Y39850755D01*
G37*
%LPD*%
M02*
