M48
; DRILL file {KiCad 9.0.2} date 2026-02-12T21:33:36-0800
; FORMAT={-:-/ absolute / inch / decimal}
; #@! TF.CreationDate,2026-02-12T21:33:36-08:00
; #@! TF.GenerationSoftware,Kicad,Pcbnew,9.0.2
; #@! TF.FileFunction,Plated,1,2,PTH
FMAT,2
INCH
; #@! TA.AperFunction,Plated,PTH,ViaDrill
T1C0.0079
; #@! TA.AperFunction,Plated,PTH,ViaDrill
T2C0.0138
; #@! TA.AperFunction,Plated,PTH,ComponentDrill
T3C0.0138
; #@! TA.AperFunction,Plated,PTH,ComponentDrill
T4C0.0157
; #@! TA.AperFunction,Plated,PTH,ViaDrill
T5C0.0197
; #@! TA.AperFunction,Plated,PTH,ComponentDrill
T6C0.0197
%
G90
G05
T1
X-0.1161Y1.4413
X-0.074Y1.4417
X-0.015Y1.4417
X0.0189Y1.4406
T2
X-0.2448Y0.5007
X-0.2331Y1.1988
X-0.2248Y0.3197
X-0.2087Y0.1331
X-0.2071Y0.85
X-0.1957Y0.7469
X-0.1898Y0.7138
X-0.1854Y0.6642
X-0.1241Y1.1611
X-0.1228Y0.1508
X-0.098Y0.8386
X-0.0785Y1.1455
X-0.0621Y0.6589
X-0.0614Y0.1858
X-0.0437Y0.7677
X-0.0414Y0.6818
X-0.0185Y1.1335
X-0.0047Y0.8059
X0.0185Y0.1677
X0.0209Y1.124
X0.0222Y1.2474
X0.0327Y0.8138
X0.0396Y1.1596
X0.0539Y0.1449
X0.0615Y0.6664
X0.0669Y0.7539
X0.0781Y0.2752
X0.0939Y0.6422
X0.1004Y0.1374
X0.122Y0.2972
X0.1229Y0.4263
X0.1693Y1.1429
X0.172Y1.0953
T3
X-0.1096Y0.519
X-0.1096Y0.4688
X-0.1096Y0.4186
X-0.0594Y0.519
X-0.0594Y0.4688
X-0.0594Y0.4186
X-0.0093Y0.519
X-0.0093Y0.4688
X-0.0093Y0.4186
T5
X-0.2437Y1.3232
X-0.2244Y0.9709
X-0.2189Y1.115
X0.0492Y0.8886
X0.1453Y0.6961
X0.1559Y0.1469
X0.1661Y1.2713
T4
G00X-0.0972Y1.3311
M15
G01X-0.1287Y1.3311
M16
G05
G00X-0.0205Y1.5516
M15
G01X-0.0677Y1.5516
M16
G05
G00X0.0406Y1.3311
M15
G01X0.0091Y1.3311
M16
G05
T6
G00X-0.1957Y1.4413
M15
G01X-0.2075Y1.4413
M16
G05
G00X0.1193Y1.4413
M15
G01X0.1075Y1.4413
M16
G05
M30
