%TF.GenerationSoftware,KiCad,Pcbnew,9.0.2*%
%TF.CreationDate,2026-02-12T21:33:35-08:00*%
%TF.ProjectId,RP2040_minimal_r2,52503230-3430-45f6-9d69-6e696d616c5f,REV2*%
%TF.SameCoordinates,Original*%
%TF.FileFunction,Copper,L1,Top*%
%TF.FilePolarity,Positive*%
%FSLAX46Y46*%
G04 Gerber Fmt 4.6, Leading zero omitted, Abs format (unit mm)*
G04 Created by KiCad (PCBNEW 9.0.2) date 2026-02-12 21:33:35*
%MOMM*%
%LPD*%
G01*
G04 APERTURE LIST*
G04 Aperture macros list*
%AMRoundRect*
0 Rectangle with rounded corners*
0 $1 Rounding radius*
0 $2 $3 $4 $5 $6 $7 $8 $9 X,Y pos of 4 corners*
0 Add a 4 corners polygon primitive as box body*
4,1,4,$2,$3,$4,$5,$6,$7,$8,$9,$2,$3,0*
0 Add four circle primitives for the rounded corners*
1,1,$1+$1,$2,$3*
1,1,$1+$1,$4,$5*
1,1,$1+$1,$6,$7*
1,1,$1+$1,$8,$9*
0 Add four rect primitives between the rounded corners*
20,1,$1+$1,$2,$3,$4,$5,0*
20,1,$1+$1,$4,$5,$6,$7,0*
20,1,$1+$1,$6,$7,$8,$9,0*
20,1,$1+$1,$8,$9,$2,$3,0*%
G04 Aperture macros list end*
%TA.AperFunction,SMDPad,CuDef*%
%ADD10RoundRect,0.140000X-0.170000X0.140000X-0.170000X-0.140000X0.170000X-0.140000X0.170000X0.140000X0*%
%TD*%
%TA.AperFunction,SMDPad,CuDef*%
%ADD11R,0.280000X1.200000*%
%TD*%
%TA.AperFunction,ComponentPad*%
%ADD12O,1.400000X0.900000*%
%TD*%
%TA.AperFunction,ComponentPad*%
%ADD13O,2.200000X0.800000*%
%TD*%
%TA.AperFunction,ComponentPad*%
%ADD14O,1.800000X0.800000*%
%TD*%
%TA.AperFunction,SMDPad,CuDef*%
%ADD15RoundRect,0.140000X0.170000X-0.140000X0.170000X0.140000X-0.170000X0.140000X-0.170000X-0.140000X0*%
%TD*%
%TA.AperFunction,SMDPad,CuDef*%
%ADD16RoundRect,0.140000X0.140000X0.170000X-0.140000X0.170000X-0.140000X-0.170000X0.140000X-0.170000X0*%
%TD*%
%TA.AperFunction,SMDPad,CuDef*%
%ADD17RoundRect,0.135000X-0.135000X-0.185000X0.135000X-0.185000X0.135000X0.185000X-0.135000X0.185000X0*%
%TD*%
%TA.AperFunction,SMDPad,CuDef*%
%ADD18RoundRect,0.062500X-0.387500X-0.062500X0.387500X-0.062500X0.387500X0.062500X-0.387500X0.062500X0*%
%TD*%
%TA.AperFunction,HeatsinkPad*%
%ADD19R,0.200000X1.600000*%
%TD*%
%TA.AperFunction,SMDPad,CuDef*%
%ADD20RoundRect,0.050000X-0.387500X-0.050000X0.387500X-0.050000X0.387500X0.050000X-0.387500X0.050000X0*%
%TD*%
%TA.AperFunction,SMDPad,CuDef*%
%ADD21RoundRect,0.050000X-0.050000X-0.387500X0.050000X-0.387500X0.050000X0.387500X-0.050000X0.387500X0*%
%TD*%
%TA.AperFunction,ComponentPad*%
%ADD22C,0.600000*%
%TD*%
%TA.AperFunction,SMDPad,CuDef*%
%ADD23RoundRect,0.144000X-1.456000X-1.456000X1.456000X-1.456000X1.456000X1.456000X-1.456000X1.456000X0*%
%TD*%
%TA.AperFunction,SMDPad,CuDef*%
%ADD24RoundRect,0.140000X-0.140000X-0.170000X0.140000X-0.170000X0.140000X0.170000X-0.140000X0.170000X0*%
%TD*%
%TA.AperFunction,SMDPad,CuDef*%
%ADD25R,1.400000X1.200000*%
%TD*%
%TA.AperFunction,SMDPad,CuDef*%
%ADD26RoundRect,0.135000X-0.185000X0.135000X-0.185000X-0.135000X0.185000X-0.135000X0.185000X0.135000X0*%
%TD*%
%TA.AperFunction,ViaPad*%
%ADD27C,0.600000*%
%TD*%
%TA.AperFunction,ViaPad*%
%ADD28C,0.450000*%
%TD*%
%TA.AperFunction,ViaPad*%
%ADD29C,0.800000*%
%TD*%
%TA.AperFunction,Conductor*%
%ADD30C,0.200000*%
%TD*%
%TA.AperFunction,Conductor*%
%ADD31C,0.150000*%
%TD*%
%TA.AperFunction,Conductor*%
%ADD32C,0.250000*%
%TD*%
G04 APERTURE END LIST*
D10*
%TO.P,R8,1*%
%TO.N,/GPIO18*%
X3230000Y9480000D03*
%TO.P,R8,2*%
%TO.N,Net-(D1-A)*%
X3230000Y8520000D03*
%TD*%
D11*
%TO.P,1,B12,GND*%
%TO.N,GND*%
X-3869500Y37660000D03*
%TO.P,1,B11,SSRXP1*%
%TO.N,unconnected-(1-SSRXP1-PadB11)*%
X-3369500Y37660000D03*
%TO.P,1,B10,SSRXN1*%
%TO.N,unconnected-(1-SSRXN1-PadB10)*%
X-2869500Y37660000D03*
%TO.P,1,B9,VBUS*%
%TO.N,VBUS*%
X-2370000Y37660000D03*
%TO.P,1,B8,SBU2*%
%TO.N,unconnected-(1-SBU2-PadB8)*%
X-1869500Y37660000D03*
%TO.P,1,B7,DN2*%
%TO.N,/USB_D-*%
X-1369500Y37660000D03*
%TO.P,1,B6,DP2*%
%TO.N,/USB_D+*%
X-869500Y37660000D03*
%TO.P,1,B5,CC2*%
%TO.N,Net-(1-CC2)*%
X-369500Y37660000D03*
%TO.P,1,B4,VBUS*%
%TO.N,unconnected-(1-VBUS-PadB4)*%
X130500Y37660000D03*
%TO.P,1,B3,SSTXN2*%
%TO.N,unconnected-(1-SSTXN2-PadB3)*%
X630500Y37660000D03*
%TO.P,1,B2,SSTXP2*%
%TO.N,unconnected-(1-SSTXP2-PadB2)*%
X1130500Y37660000D03*
%TO.P,1,B1,GND*%
%TO.N,GND*%
X1630500Y37660000D03*
%TO.P,1,A12,GND*%
X1630000Y35560000D03*
%TO.P,1,A11,SSRXP2*%
%TO.N,unconnected-(1-SSRXP2-PadA11)*%
X1130000Y35560000D03*
%TO.P,1,A10,SSRXN2*%
%TO.N,unconnected-(1-SSRXN2-PadA10)*%
X630000Y35560000D03*
%TO.P,1,A9,VBUS*%
%TO.N,VBUS*%
X130000Y35560000D03*
%TO.P,1,A8,SBU1*%
%TO.N,unconnected-(1-SBU1-PadA8)*%
X-370000Y35560000D03*
%TO.P,1,A7,DN1*%
%TO.N,/USB_D-*%
X-870000Y35560000D03*
%TO.P,1,A6,DP1*%
%TO.N,/USB_D+*%
X-1370000Y35560000D03*
%TO.P,1,A5,CC1*%
%TO.N,Net-(1-CC1)*%
X-1870000Y35560000D03*
%TO.P,1,A4,VBUS*%
%TO.N,VBUS*%
X-2370000Y35560000D03*
%TO.P,1,A3,SSTXN1*%
%TO.N,unconnected-(1-SSTXN1-PadA3)*%
X-2870000Y35560000D03*
%TO.P,1,A2,SSTXP1*%
%TO.N,unconnected-(1-SSTXP1-PadA2)*%
X-3370000Y35560000D03*
%TO.P,1,A1,GND*%
%TO.N,GND*%
X-3868000Y35560000D03*
D12*
%TO.P,1,5,5*%
%TO.N,unconnected-(1-Pad5)*%
X2880000Y36610000D03*
%TO.P,1,4,4*%
%TO.N,unconnected-(1-Pad4)*%
X-5120000Y36610000D03*
D13*
%TO.P,1,3,3*%
%TO.N,unconnected-(1-Pad3)*%
X-1120000Y39410000D03*
D14*
%TO.P,1,2,2*%
%TO.N,unconnected-(1-Pad2)*%
X-2870000Y33810000D03*
%TO.P,1,1,1*%
%TO.N,unconnected-(1-Pad1)*%
X630000Y33810000D03*
%TD*%
D15*
%TO.P,C13,1*%
%TO.N,+3V3*%
X-6217500Y10947162D03*
%TO.P,C13,2*%
%TO.N,GND*%
X-6217500Y11907162D03*
%TD*%
D16*
%TO.P,C5,1*%
%TO.N,+3V3*%
X2850000Y28440000D03*
%TO.P,C5,2*%
%TO.N,GND*%
X1890000Y28440000D03*
%TD*%
D17*
%TO.P,R2,1*%
%TO.N,+3V3*%
X-2490000Y27340000D03*
%TO.P,R2,2*%
%TO.N,/QSPI_SS*%
X-1470000Y27340000D03*
%TD*%
D18*
%TO.P,U2,1,~{CS}*%
%TO.N,/QSPI_SS*%
X-15000Y27400000D03*
%TO.P,U2,2,DO(IO1)*%
%TO.N,/QSPI_SD1*%
X-15000Y26900000D03*
%TO.P,U2,3,IO2*%
%TO.N,/QSPI_SD2*%
X-15000Y26400000D03*
%TO.P,U2,4,GND*%
%TO.N,GND*%
X-15000Y25900000D03*
%TO.P,U2,5,DI(IO0)*%
%TO.N,/QSPI_SD0*%
X2835000Y25900000D03*
%TO.P,U2,6,CLK*%
%TO.N,/QSPI_SCLK*%
X2835000Y26400000D03*
%TO.P,U2,7,IO3*%
%TO.N,/QSPI_SD3*%
X2835000Y26900000D03*
%TO.P,U2,8,VCC*%
%TO.N,+3V3*%
X2835000Y27400000D03*
D19*
%TO.P,U2,9*%
%TO.N,N/C*%
X1410000Y26650000D03*
%TD*%
D10*
%TO.P,C14,1*%
%TO.N,+3V3*%
X470000Y6120000D03*
%TO.P,C14,2*%
%TO.N,GND*%
X470000Y5160000D03*
%TD*%
%TO.P,C7,1*%
%TO.N,+1V1*%
X1836725Y6084163D03*
%TO.P,C7,2*%
%TO.N,GND*%
X1836725Y5124163D03*
%TD*%
%TO.P,C11,1*%
%TO.N,+3V3*%
X-6217500Y14497162D03*
%TO.P,C11,2*%
%TO.N,GND*%
X-6217500Y13537162D03*
%TD*%
D20*
%TO.P,U3,1,IOVDD*%
%TO.N,+3V3*%
X-4947500Y14507162D03*
%TO.P,U3,2,GPIO0*%
%TO.N,/GPIO0*%
X-4947500Y14107162D03*
%TO.P,U3,3,GPIO1*%
%TO.N,/GPIO1*%
X-4947500Y13707162D03*
%TO.P,U3,4,GPIO2*%
%TO.N,/GPIO2*%
X-4947500Y13307162D03*
%TO.P,U3,5,GPIO3*%
%TO.N,/GPIO3*%
X-4947500Y12907162D03*
%TO.P,U3,6,GPIO4*%
%TO.N,/GPIO4*%
X-4947500Y12507162D03*
%TO.P,U3,7,GPIO5*%
%TO.N,/GPIO5*%
X-4947500Y12107162D03*
%TO.P,U3,8,GPIO6*%
%TO.N,/GPIO6*%
X-4947500Y11707162D03*
%TO.P,U3,9,GPIO7*%
%TO.N,/GPIO7*%
X-4947500Y11307162D03*
%TO.P,U3,10,IOVDD*%
%TO.N,+3V3*%
X-4947500Y10907162D03*
%TO.P,U3,11,GPIO8*%
%TO.N,/GPIO8*%
X-4947500Y10507162D03*
%TO.P,U3,12,GPIO9*%
%TO.N,/GPIO9*%
X-4947500Y10107162D03*
%TO.P,U3,13,GPIO10*%
%TO.N,/GPIO10*%
X-4947500Y9707162D03*
%TO.P,U3,14,GPIO11*%
%TO.N,/GPIO11*%
X-4947500Y9307162D03*
D21*
%TO.P,U3,15,GPIO12*%
%TO.N,/GPIO12*%
X-4110000Y8469662D03*
%TO.P,U3,16,GPIO13*%
%TO.N,/GPIO13*%
X-3710000Y8469662D03*
%TO.P,U3,17,GPIO14*%
%TO.N,/GPIO14*%
X-3310000Y8469662D03*
%TO.P,U3,18,GPIO15*%
%TO.N,/GPIO15*%
X-2910000Y8469662D03*
%TO.P,U3,19,TESTEN*%
%TO.N,GND*%
X-2510000Y8469662D03*
%TO.P,U3,20,XIN*%
%TO.N,/XIN*%
X-2110000Y8469662D03*
%TO.P,U3,21,XOUT*%
%TO.N,/XOUT*%
X-1710000Y8469662D03*
%TO.P,U3,22,IOVDD*%
%TO.N,+3V3*%
X-1310000Y8469662D03*
%TO.P,U3,23,DVDD*%
%TO.N,+1V1*%
X-910000Y8469662D03*
%TO.P,U3,24,SWCLK*%
%TO.N,/SWCLK*%
X-510000Y8469662D03*
%TO.P,U3,25,SWD*%
%TO.N,/SWD*%
X-110000Y8469662D03*
%TO.P,U3,26,RUN*%
%TO.N,/RUN*%
X290000Y8469662D03*
%TO.P,U3,27,GPIO16*%
%TO.N,/GPIO16*%
X690000Y8469662D03*
%TO.P,U3,28,GPIO17*%
%TO.N,/GPIO17*%
X1090000Y8469662D03*
D20*
%TO.P,U3,29,GPIO18*%
%TO.N,/GPIO18*%
X1927500Y9307162D03*
%TO.P,U3,30,GPIO19*%
%TO.N,/GPIO19*%
X1927500Y9707162D03*
%TO.P,U3,31,GPIO20*%
%TO.N,/GPIO20*%
X1927500Y10107162D03*
%TO.P,U3,32,GPIO21*%
%TO.N,/GPIO21*%
X1927500Y10507162D03*
%TO.P,U3,33,IOVDD*%
%TO.N,+3V3*%
X1927500Y10907162D03*
%TO.P,U3,34,GPIO22*%
%TO.N,/GPIO22*%
X1927500Y11307162D03*
%TO.P,U3,35,GPIO23*%
%TO.N,/GPIO23*%
X1927500Y11707162D03*
%TO.P,U3,36,GPIO24*%
%TO.N,/GPIO24*%
X1927500Y12107162D03*
%TO.P,U3,37,GPIO25*%
%TO.N,/GPIO25*%
X1927500Y12507162D03*
%TO.P,U3,38,GPIO26_ADC0*%
%TO.N,/GPIO26_ADC0*%
X1927500Y12907162D03*
%TO.P,U3,39,GPIO27_ADC1*%
%TO.N,/GPIO27_ADC1*%
X1927500Y13307162D03*
%TO.P,U3,40,GPIO28_ADC2*%
%TO.N,/GPIO28_ADC2*%
X1927500Y13707162D03*
%TO.P,U3,41,GPIO29_ADC3*%
%TO.N,/GPIO29_ADC3*%
X1927500Y14107162D03*
%TO.P,U3,42,IOVDD*%
%TO.N,+3V3*%
X1927500Y14507162D03*
D21*
%TO.P,U3,43,ADC_AVDD*%
X1090000Y15344662D03*
%TO.P,U3,44,VREG_IN*%
X690000Y15344662D03*
%TO.P,U3,45,VREG_VOUT*%
%TO.N,+1V1*%
X290000Y15344662D03*
%TO.P,U3,46,USB_DM*%
%TO.N,Net-(U3-USB_DM)*%
X-110000Y15344662D03*
%TO.P,U3,47,USB_DP*%
%TO.N,Net-(U3-USB_DP)*%
X-510000Y15344662D03*
%TO.P,U3,48,USB_VDD*%
%TO.N,+3V3*%
X-910000Y15344662D03*
%TO.P,U3,49,IOVDD*%
X-1310000Y15344662D03*
%TO.P,U3,50,DVDD*%
%TO.N,+1V1*%
X-1710000Y15344662D03*
%TO.P,U3,51,QSPI_SD3*%
%TO.N,/QSPI_SD3*%
X-2110000Y15344662D03*
%TO.P,U3,52,QSPI_SCLK*%
%TO.N,/QSPI_SCLK*%
X-2510000Y15344662D03*
%TO.P,U3,53,QSPI_SD0*%
%TO.N,/QSPI_SD0*%
X-2910000Y15344662D03*
%TO.P,U3,54,QSPI_SD2*%
%TO.N,/QSPI_SD2*%
X-3310000Y15344662D03*
%TO.P,U3,55,QSPI_SD1*%
%TO.N,/QSPI_SD1*%
X-3710000Y15344662D03*
%TO.P,U3,56,QSPI_SS*%
%TO.N,/QSPI_SS*%
X-4110000Y15344662D03*
D22*
%TO.P,U3,57,GND*%
%TO.N,GND*%
X-2785000Y13182162D03*
X-2785000Y11907162D03*
X-2785000Y10632162D03*
X-1510000Y13182162D03*
X-1510000Y11907162D03*
D23*
X-1510000Y11907162D03*
D22*
X-1510000Y10632162D03*
X-235000Y13182162D03*
X-235000Y11907162D03*
X-235000Y10632162D03*
%TD*%
D10*
%TO.P,C2,1*%
%TO.N,/XIN*%
X-1570000Y6570000D03*
%TO.P,C2,2*%
%TO.N,GND*%
X-1570000Y5610000D03*
%TD*%
D24*
%TO.P,C3,1*%
%TO.N,Net-(C3-Pad1)*%
X-1530000Y3680000D03*
%TO.P,C3,2*%
%TO.N,GND*%
X-570000Y3680000D03*
%TD*%
D25*
%TO.P,Y1,1,1*%
%TO.N,/XIN*%
X-3120000Y6500000D03*
%TO.P,Y1,2,2*%
%TO.N,GND*%
X-5320000Y6500000D03*
%TO.P,Y1,3,3*%
%TO.N,Net-(C3-Pad1)*%
X-5320000Y4800000D03*
%TO.P,Y1,4,4*%
%TO.N,GND*%
X-3120000Y4800000D03*
%TD*%
D17*
%TO.P,R6,1*%
%TO.N,Net-(1-CC2)*%
X-4700000Y28870000D03*
%TO.P,R6,2*%
%TO.N,GND*%
X-3680000Y28870000D03*
%TD*%
D26*
%TO.P,R5,1*%
%TO.N,/XOUT*%
X-540000Y6130000D03*
%TO.P,R5,2*%
%TO.N,Net-(C3-Pad1)*%
X-540000Y5110000D03*
%TD*%
D27*
%TO.N,Net-(1-CC2)*%
X565000Y31685000D03*
%TO.N,Net-(D1-A)*%
X3100000Y7550000D03*
D28*
%TO.N,VBUS*%
X-2950000Y36610000D03*
X480000Y36590000D03*
%TO.N,/USB_D-*%
X-380000Y36620000D03*
X-1880000Y36620000D03*
D27*
%TO.N,GND*%
X-5710000Y8120000D03*
X-5300000Y3380000D03*
X2550000Y3490000D03*
D29*
X-6190000Y33610000D03*
X-5700000Y24660000D03*
D27*
X4300000Y29030000D03*
X-6217500Y12717162D03*
X-1110000Y19500000D03*
D29*
X3960000Y3730000D03*
D27*
X1370000Y3680000D03*
X-3120000Y3830000D03*
D29*
X1250000Y22570000D03*
D27*
X-2490000Y21300000D03*
X4370000Y27820000D03*
X470000Y4260000D03*
X-4820000Y18130000D03*
X-1560000Y4720000D03*
X-4970000Y18970000D03*
D29*
X3690000Y17680000D03*
X4220000Y32290000D03*
X-5560000Y28320000D03*
D27*
%TO.N,VBUS*%
X-3151795Y29491386D03*
X1005000Y29455000D03*
%TO.N,+3V3*%
X3122500Y10827162D03*
X2386179Y16313144D03*
X-5260000Y21590000D03*
X-4710000Y16870000D03*
X-1051500Y17317162D03*
X1700000Y19150000D03*
%TO.N,+1V1*%
X-1577500Y16737162D03*
X1982500Y6989163D03*
X1562500Y16927162D03*
%TO.N,Net-(U3-USB_DP)*%
X-120000Y20470000D03*
%TO.N,Net-(U3-USB_DM)*%
X830000Y20670000D03*
%TO.N,/USB_D+*%
X-1995000Y29095000D03*
%TO.N,/USB_D-*%
X-470000Y28790000D03*
%TO.N,Net-(1-CC2)*%
X-5920000Y30450000D03*
%TO.N,Net-(1-CC1)*%
X530000Y28550000D03*
%TD*%
D30*
%TO.N,Net-(1-CC2)*%
X565000Y31685000D02*
X3831000Y34951000D01*
X3831000Y34951000D02*
X3831000Y37381734D01*
X-260500Y38511000D02*
X-369500Y38402000D01*
X3831000Y37381734D02*
X2701734Y38511000D01*
X2701734Y38511000D02*
X-260500Y38511000D01*
X-369500Y38402000D02*
X-369500Y37660000D01*
D31*
%TO.N,VBUS*%
X480000Y36590000D02*
X130000Y36240000D01*
X130000Y36240000D02*
X130000Y35560000D01*
%TO.N,Net-(D1-A)*%
X3230000Y8520000D02*
X3230000Y7680000D01*
X3230000Y7680000D02*
X3100000Y7550000D01*
%TO.N,/GPIO18*%
X1927500Y9307162D02*
X3057162Y9307162D01*
X3057162Y9307162D02*
X3230000Y9480000D01*
%TO.N,VBUS*%
X-2950000Y36610000D02*
X-2728000Y36610000D01*
X-2728000Y36610000D02*
X-2370000Y36252000D01*
X-2370000Y36252000D02*
X-2370000Y35560000D01*
D30*
%TO.N,/USB_D-*%
X-1880000Y36620000D02*
X-1667500Y36620000D01*
X-1667500Y36620000D02*
X-1369500Y36918000D01*
X-1369500Y36918000D02*
X-1369500Y37660000D01*
X-870000Y35560000D02*
X-870000Y36360000D01*
X-870000Y36360000D02*
X-610000Y36620000D01*
X-610000Y36620000D02*
X-380000Y36620000D01*
D31*
%TO.N,GND*%
X1630000Y35560000D02*
X1630000Y37659500D01*
X1630000Y37659500D02*
X1630500Y37660000D01*
X-3868000Y35560000D02*
X-3868000Y37658500D01*
X-3868000Y37658500D02*
X-3869500Y37660000D01*
D30*
%TO.N,VBUS*%
X-3151795Y29491386D02*
X-2878614Y29491386D01*
X-4021000Y34079653D02*
X-3391653Y34709000D01*
X-2878614Y29491386D02*
X-2320000Y30050000D01*
X-2320000Y31599000D02*
X-2070000Y31849000D01*
X-2070000Y32250000D02*
X-2730653Y32250000D01*
X-2479000Y34709000D02*
X-2370000Y34818000D01*
X-2320000Y30050000D02*
X-2320000Y31599000D01*
X-2070000Y31849000D02*
X-2070000Y32250000D01*
X-2730653Y32250000D02*
X-4021000Y33540347D01*
X-4021000Y33540347D02*
X-4021000Y34079653D01*
X-3391653Y34709000D02*
X-2479000Y34709000D01*
X-2370000Y34818000D02*
X-2370000Y35560000D01*
D31*
X-2370000Y35560000D02*
X-2370000Y37660000D01*
%TO.N,Net-(1-CC1)*%
X-1870000Y35560000D02*
X-1744000Y35434000D01*
X-1744000Y35434000D02*
X-1744000Y30804286D01*
X-1744000Y30804286D02*
X-1833000Y30715286D01*
D30*
%TO.N,/USB_D-*%
X-470000Y28790000D02*
X-232000Y29028000D01*
X-870000Y33889347D02*
X-870000Y35560000D01*
X-232000Y29028000D02*
X-232000Y33251347D01*
X-232000Y33251347D02*
X-870000Y33889347D01*
%TO.N,/USB_D+*%
X-1370000Y35560000D02*
X-1370000Y36417500D01*
X-1370000Y36417500D02*
X-869500Y36918000D01*
X-869500Y36918000D02*
X-869500Y37660000D01*
X-583000Y32315286D02*
X-1370000Y33102286D01*
X-1370000Y33102286D02*
X-1370000Y35560000D01*
%TO.N,GND*%
X2760000Y31980000D02*
X2490000Y32250000D01*
D31*
X2360000Y3680000D02*
X2550000Y3490000D01*
D30*
X-6217500Y12717162D02*
X-6217500Y13537162D01*
X-6217500Y11907162D02*
X-6217500Y12717162D01*
D32*
X-1640000Y4800000D02*
X-3120000Y4800000D01*
D30*
X1836725Y5124163D02*
X2621725Y5124163D01*
X2006179Y5145145D02*
X2081179Y5070145D01*
D31*
X-3833000Y30715286D02*
X-3833000Y32065286D01*
D30*
X-5190000Y27950000D02*
X-5560000Y28320000D01*
X-4650000Y30650000D02*
X-4650000Y29840000D01*
D31*
X470000Y4260000D02*
X470000Y5160000D01*
D30*
X-3680000Y28870000D02*
X-3680000Y28490000D01*
D31*
X-2490000Y21300000D02*
X-15000Y23775000D01*
D30*
X-3570000Y32250000D02*
X-3648286Y32250000D01*
X1680000Y29990000D02*
X1890000Y29780000D01*
X-3680000Y28490000D02*
X-4220000Y27950000D01*
D31*
X-5320000Y7410000D02*
X-5320000Y6500000D01*
D30*
X1930000Y30900000D02*
X1930000Y32250000D01*
X1890000Y29780000D02*
X2760000Y30650000D01*
X1680000Y30650000D02*
X1680000Y29990000D01*
X-3648286Y32250000D02*
X-3833000Y32065286D01*
D32*
X-3120000Y3830000D02*
X-3120000Y4800000D01*
X-1560000Y4720000D02*
X-1560000Y5600000D01*
D31*
X-15000Y23775000D02*
X-15000Y25900000D01*
X-2510000Y7830000D02*
X-2730000Y7610000D01*
D32*
X-1560000Y4720000D02*
X-1640000Y4800000D01*
D30*
X1890000Y28440000D02*
X1890000Y29780000D01*
D31*
X-570000Y3680000D02*
X2360000Y3680000D01*
D30*
X2490000Y32250000D02*
X1930000Y32250000D01*
X2760000Y30650000D02*
X2760000Y31980000D01*
D31*
X-4663000Y30715286D02*
X-3833000Y30715286D01*
D30*
X-4650000Y29840000D02*
X-3680000Y28870000D01*
D31*
X-2730000Y7610000D02*
X-5200000Y7610000D01*
X-5200000Y7530000D02*
X-5320000Y7410000D01*
D32*
X-1560000Y5600000D02*
X-1570000Y5610000D01*
D30*
X-4220000Y27950000D02*
X-5190000Y27950000D01*
D31*
X-5200000Y7610000D02*
X-5710000Y8120000D01*
X-2510000Y8469662D02*
X-2510000Y7830000D01*
X-5200000Y7610000D02*
X-5200000Y7530000D01*
D30*
X1680000Y30650000D02*
X1930000Y30900000D01*
%TO.N,VBUS*%
X795000Y29455000D02*
X167000Y30083000D01*
X167000Y30083000D02*
X167000Y30715286D01*
X1005000Y29455000D02*
X795000Y29455000D01*
D31*
%TO.N,/XIN*%
X-2110000Y7510000D02*
X-3120000Y6500000D01*
X-2110000Y7510000D02*
X-2110000Y7480000D01*
X-1570000Y6940000D02*
X-1570000Y6570000D01*
X-2110000Y7480000D02*
X-1570000Y6940000D01*
X-2110000Y8469662D02*
X-2110000Y7510000D01*
%TO.N,/XOUT*%
X-540000Y6658628D02*
X-540000Y6130000D01*
X-1710000Y8469662D02*
X-1710000Y7828628D01*
X-1710000Y7828628D02*
X-540000Y6658628D01*
D30*
%TO.N,+3V3*%
X1448482Y16313144D02*
X2386179Y16313144D01*
X-910000Y15344662D02*
X-910000Y16251662D01*
X730000Y6120000D02*
X470000Y6120000D01*
X3042500Y10907162D02*
X3122500Y10827162D01*
X-910000Y16251662D02*
X-910000Y17175662D01*
X-4947500Y10907162D02*
X-5647500Y10907162D01*
X3490000Y27400000D02*
X2835000Y27400000D01*
X-1051500Y17317162D02*
X-1051500Y17341162D01*
X2386179Y16313144D02*
X2762500Y15936823D01*
X-5647500Y10907162D02*
X-6177500Y10907162D01*
X470000Y6120000D02*
X459662Y6120000D01*
X-5647500Y14442162D02*
X-5592500Y14497162D01*
X-6217500Y14497162D02*
X-5592500Y14497162D01*
X-5260000Y21860000D02*
X-2490000Y24630000D01*
D31*
X690000Y15904662D02*
X740000Y15954662D01*
D30*
X1927500Y10907162D02*
X3042500Y10907162D01*
X1130000Y5720000D02*
X730000Y6120000D01*
X-2490000Y24630000D02*
X-2490000Y27340000D01*
X-1310000Y7889662D02*
X-1310000Y8469662D01*
X3900000Y5508561D02*
X2790602Y4399163D01*
X4340000Y20670000D02*
X4340000Y26550000D01*
X2762500Y14777162D02*
X2492500Y14507162D01*
X2835000Y28425000D02*
X2850000Y28440000D01*
X3900000Y10049662D02*
X3900000Y5508561D01*
X1090000Y15344662D02*
X1090000Y15954662D01*
X1700000Y19150000D02*
X2820000Y19150000D01*
X3122500Y10827162D02*
X3900000Y10049662D01*
X-948338Y16251662D02*
X-910000Y16251662D01*
X2820000Y19150000D02*
X4340000Y20670000D01*
X-5647500Y10907162D02*
X-5647500Y14442162D01*
X-5260000Y21590000D02*
X-5260000Y21860000D01*
X-910000Y17175662D02*
X-1051500Y17317162D01*
X459662Y6120000D02*
X-1310000Y7889662D01*
X1090000Y15954662D02*
X740000Y15954662D01*
X2790602Y4399163D02*
X1392500Y4399163D01*
X-1310000Y15890000D02*
X-948338Y16251662D01*
X-5582500Y14507162D02*
X-5592500Y14497162D01*
X1392500Y4399163D02*
X1130000Y4661663D01*
X-4947500Y14507162D02*
X-5582500Y14507162D01*
X-6217500Y15362500D02*
X-4710000Y16870000D01*
X2762500Y15936823D02*
X2762500Y14777162D01*
X-6217500Y14497162D02*
X-6217500Y15362500D01*
X1090000Y15954662D02*
X1448482Y16313144D01*
X4340000Y26550000D02*
X3490000Y27400000D01*
X-6177500Y10907162D02*
X-6217500Y10947162D01*
X2492500Y14507162D02*
X1927500Y14507162D01*
X-1310000Y15344662D02*
X-1310000Y15890000D01*
D31*
X690000Y15344662D02*
X690000Y15904662D01*
D30*
X2835000Y27400000D02*
X2835000Y28425000D01*
X1130000Y4661663D02*
X1130000Y5720000D01*
D31*
%TO.N,+1V1*%
X290000Y16030340D02*
X1186822Y16927162D01*
D30*
X1982500Y6989163D02*
X86888Y6989163D01*
D31*
X290000Y15344662D02*
X290000Y16030340D01*
D30*
X1836725Y6084163D02*
X1836725Y6843388D01*
X-910000Y7986051D02*
X-910000Y8469662D01*
D31*
X-1710000Y16604662D02*
X-1710000Y15344662D01*
D30*
X86888Y6989163D02*
X-910000Y7986051D01*
D31*
X-1577500Y16737162D02*
X-1710000Y16604662D01*
X1186822Y16927162D02*
X1562500Y16927162D01*
%TO.N,/QSPI_SS*%
X-1410000Y27400000D02*
X-1470000Y27340000D01*
X-4110000Y21410000D02*
X-1470000Y24050000D01*
X-15000Y27400000D02*
X-1410000Y27400000D01*
X-4110000Y21410000D02*
X-4110000Y15344662D01*
X-1470000Y24050000D02*
X-1470000Y27340000D01*
D30*
%TO.N,Net-(U3-USB_DP)*%
X-510000Y15344662D02*
X-510000Y16234662D01*
X410000Y17154662D02*
X410000Y18770000D01*
X-120000Y19300000D02*
X-120000Y20470000D01*
X-510000Y16234662D02*
X410000Y17154662D01*
X410000Y18770000D02*
X-120000Y19300000D01*
%TO.N,Net-(U3-USB_DM)*%
X1060000Y17274662D02*
X1060000Y20440000D01*
X-110000Y16104662D02*
X1060000Y17274662D01*
X1060000Y20440000D02*
X830000Y20670000D01*
X-110000Y15344662D02*
X-110000Y16104662D01*
D31*
%TO.N,/QSPI_SD3*%
X-462000Y21318000D02*
X3029356Y21318000D01*
X3812000Y22100644D02*
X3812000Y26372999D01*
X-2110000Y15344662D02*
X-2110000Y19670000D01*
X3029356Y21318000D02*
X3812000Y22100644D01*
X3812000Y26372999D02*
X3284999Y26900000D01*
X3284999Y26900000D02*
X2835000Y26900000D01*
X-2110000Y19670000D02*
X-462000Y21318000D01*
%TO.N,/QSPI_SCLK*%
X-2510000Y15344662D02*
X-2510000Y19830000D01*
X2904678Y21619000D02*
X3511000Y22225322D01*
X3511000Y22225322D02*
X3511000Y26173999D01*
X3284999Y26400000D02*
X2835000Y26400000D01*
X-721000Y21619000D02*
X2904678Y21619000D01*
X-2510000Y19830000D02*
X-721000Y21619000D01*
X3511000Y26173999D02*
X3284999Y26400000D01*
%TO.N,/QSPI_SD0*%
X-2910000Y20060000D02*
X2835000Y25805000D01*
X-2910000Y20060000D02*
X-2910000Y15344662D01*
X2835000Y25805000D02*
X2835000Y25900000D01*
%TO.N,/QSPI_SD2*%
X-860000Y23680000D02*
X-860000Y26150000D01*
X-3310000Y21230000D02*
X-860000Y23680000D01*
X-860000Y26150000D02*
X-610000Y26400000D01*
X-3310000Y15344662D02*
X-3310000Y21230000D01*
X-610000Y26400000D02*
X-15000Y26400000D01*
%TO.N,/QSPI_SD1*%
X-1169000Y26431000D02*
X-700000Y26900000D01*
X-3710000Y15344662D02*
X-3710000Y21290000D01*
X-700000Y26900000D02*
X-15000Y26900000D01*
X-1169000Y23831000D02*
X-1169000Y26431000D01*
X-3710000Y21290000D02*
X-1169000Y23831000D01*
D30*
%TO.N,/USB_D+*%
X-1196000Y31204000D02*
X-1030000Y31370000D01*
X-1030000Y31370000D02*
X-730000Y31370000D01*
X-1995000Y29095000D02*
X-1333000Y29757000D01*
X-1320000Y30650000D02*
X-1196000Y30774000D01*
X-1333000Y29757000D02*
X-1333000Y30715286D01*
X-1196000Y30774000D02*
X-1196000Y31204000D01*
X-583000Y31517000D02*
X-583000Y32315286D01*
X-730000Y31370000D02*
X-583000Y31517000D01*
D31*
%TO.N,Net-(C3-Pad1)*%
X-2896123Y3310000D02*
X-2902123Y3304000D01*
X-540000Y4670000D02*
X-1530000Y3680000D01*
X-540000Y5110000D02*
X-540000Y4670000D01*
X-2902123Y3304000D02*
X-3337877Y3304000D01*
X-3343877Y3310000D02*
X-3830000Y3310000D01*
X-3830000Y3310000D02*
X-5320000Y4800000D01*
X-1900000Y3310000D02*
X-2896123Y3310000D01*
X-3337877Y3304000D02*
X-3343877Y3310000D01*
X-1530000Y3680000D02*
X-1900000Y3310000D01*
D30*
%TO.N,Net-(1-CC2)*%
X-5189346Y28870000D02*
X-4700000Y28870000D01*
X-5920000Y30450000D02*
X-5920000Y29600654D01*
X-5920000Y29600654D02*
X-5189346Y28870000D01*
%TO.N,Net-(1-CC1)*%
X-1833000Y29987000D02*
X-1833000Y30715286D01*
X530000Y28550000D02*
X219000Y28239000D01*
X219000Y28239000D02*
X-1918232Y28239000D01*
X-2546000Y28866768D02*
X-2546000Y29323232D01*
X-1918232Y28239000D02*
X-2546000Y28866768D01*
X-2223232Y29646000D02*
X-2174000Y29646000D01*
X-2546000Y29323232D02*
X-2223232Y29646000D01*
X-2174000Y29646000D02*
X-1833000Y29987000D01*
%TD*%
%TA.AperFunction,Conductor*%
%TO.N,GND*%
G36*
X-6474297Y5667803D02*
G01*
X-6456233Y5648401D01*
X-6377187Y5542810D01*
X-6270189Y5462710D01*
X-6228318Y5406777D01*
X-6220500Y5363444D01*
X-6220500Y4180248D01*
X-6208869Y4121771D01*
X-6208868Y4121770D01*
X-6164553Y4055448D01*
X-6098231Y4011133D01*
X-6098230Y4011132D01*
X-6039753Y3999501D01*
X-6039750Y3999500D01*
X-6039748Y3999500D01*
X-4960477Y3999500D01*
X-4893438Y3979815D01*
X-4872796Y3963181D01*
X-4201797Y3292181D01*
X-4168312Y3230858D01*
X-4173296Y3161166D01*
X-4215168Y3105233D01*
X-4280632Y3080816D01*
X-4289478Y3080500D01*
X-6555500Y3080500D01*
X-6622539Y3100185D01*
X-6668294Y3152989D01*
X-6679500Y3204500D01*
X-6679500Y5574090D01*
X-6659815Y5641129D01*
X-6607011Y5686884D01*
X-6537853Y5696828D01*
X-6474297Y5667803D01*
G37*
%TD.AperFunction*%
%TA.AperFunction,Conductor*%
G36*
X4638834Y20441349D02*
G01*
X4694767Y20399477D01*
X4719184Y20334013D01*
X4719500Y20325167D01*
X4719500Y3204500D01*
X4699815Y3137461D01*
X4647011Y3091706D01*
X4595500Y3080500D01*
X275808Y3080500D01*
X208769Y3100185D01*
X163014Y3152989D01*
X153070Y3222147D01*
X159901Y3246301D01*
X159856Y3246314D01*
X161696Y3252648D01*
X162007Y3253747D01*
X162032Y3253807D01*
X207144Y3409082D01*
X207145Y3409088D01*
X208790Y3430000D01*
X-446000Y3430000D01*
X-513039Y3449685D01*
X-558794Y3502489D01*
X-570000Y3554000D01*
X-570000Y3806000D01*
X-550315Y3873039D01*
X-497511Y3918794D01*
X-446000Y3930000D01*
X208790Y3930000D01*
X207145Y3950911D01*
X162032Y4106194D01*
X110131Y4193952D01*
X92948Y4261676D01*
X115107Y4327939D01*
X169573Y4371702D01*
X217970Y4379334D01*
X220000Y4381210D01*
X220000Y5036000D01*
X239685Y5103039D01*
X292489Y5148794D01*
X344000Y5160000D01*
X470000Y5160000D01*
X470000Y5286000D01*
X472550Y5294686D01*
X471262Y5303647D01*
X482240Y5327688D01*
X489685Y5353039D01*
X496525Y5358967D01*
X500287Y5367203D01*
X522521Y5381493D01*
X542489Y5398794D01*
X553003Y5401082D01*
X559065Y5404977D01*
X594000Y5410000D01*
X705500Y5410000D01*
X772539Y5390315D01*
X818294Y5337511D01*
X829500Y5286000D01*
X829500Y5034000D01*
X809815Y4966961D01*
X757011Y4921206D01*
X724031Y4914032D01*
X720000Y4910000D01*
X720000Y4381211D01*
X740913Y4382856D01*
X858728Y4417083D01*
X928598Y4416884D01*
X981004Y4385688D01*
X1152040Y4214652D01*
X1207989Y4158703D01*
X1207991Y4158702D01*
X1207995Y4158699D01*
X1252120Y4133224D01*
X1276511Y4119142D01*
X1352938Y4098663D01*
X1352940Y4098663D01*
X2830162Y4098663D01*
X2830164Y4098663D01*
X2906591Y4119142D01*
X2975113Y4158703D01*
X3031062Y4214652D01*
X4140460Y5324050D01*
X4180022Y5392573D01*
X4200500Y5468999D01*
X4200500Y5548123D01*
X4200500Y10089224D01*
X4180021Y10165651D01*
X4164017Y10193371D01*
X4140464Y10234167D01*
X4140458Y10234175D01*
X3659319Y10715314D01*
X3625834Y10776637D01*
X3623000Y10802995D01*
X3623000Y10893052D01*
X3623000Y10893054D01*
X3588892Y11020348D01*
X3523000Y11134476D01*
X3429814Y11227662D01*
X3338901Y11280151D01*
X3315687Y11293554D01*
X3252039Y11310608D01*
X3188392Y11327662D01*
X3056608Y11327662D01*
X2929312Y11293554D01*
X2859571Y11253289D01*
X2815186Y11227662D01*
X2815184Y11227661D01*
X2809321Y11224275D01*
X2793831Y11220125D01*
X2782255Y11212685D01*
X2747320Y11207662D01*
X2689500Y11207662D01*
X2622461Y11227347D01*
X2576706Y11280151D01*
X2565500Y11331662D01*
X2565500Y11381839D01*
X2565499Y11381841D01*
X2550968Y11454895D01*
X2550966Y11454898D01*
X2550966Y11454902D01*
X2550963Y11454906D01*
X2548977Y11459701D01*
X2541504Y11529170D01*
X2548977Y11554623D01*
X2550962Y11559417D01*
X2550966Y11559422D01*
X2565500Y11632488D01*
X2565500Y11781836D01*
X2565500Y11781839D01*
X2565499Y11781841D01*
X2550968Y11854895D01*
X2550966Y11854898D01*
X2550966Y11854902D01*
X2550963Y11854906D01*
X2548977Y11859701D01*
X2541504Y11929170D01*
X2548977Y11954623D01*
X2550962Y11959417D01*
X2550966Y11959422D01*
X2565500Y12032488D01*
X2565500Y12181836D01*
X2565500Y12181839D01*
X2565499Y12181841D01*
X2550968Y12254895D01*
X2550966Y12254898D01*
X2550966Y12254902D01*
X2550963Y12254906D01*
X2548977Y12259701D01*
X2541504Y12329170D01*
X2548977Y12354623D01*
X2550962Y12359417D01*
X2550966Y12359422D01*
X2565500Y12432488D01*
X2565500Y12581836D01*
X2565500Y12581839D01*
X2565499Y12581841D01*
X2550968Y12654895D01*
X2550966Y12654898D01*
X2550966Y12654902D01*
X2550963Y12654906D01*
X2548977Y12659701D01*
X2541504Y12729170D01*
X2548977Y12754623D01*
X2550962Y12759417D01*
X2550966Y12759422D01*
X2565500Y12832488D01*
X2565500Y12981836D01*
X2565500Y12981839D01*
X2565499Y12981841D01*
X2550968Y13054895D01*
X2550966Y13054898D01*
X2550966Y13054902D01*
X2550963Y13054906D01*
X2548977Y13059701D01*
X2541504Y13129170D01*
X2548977Y13154623D01*
X2550962Y13159417D01*
X2550966Y13159422D01*
X2565500Y13232488D01*
X2565500Y13381836D01*
X2565500Y13381839D01*
X2565499Y13381841D01*
X2550968Y13454895D01*
X2550966Y13454898D01*
X2550966Y13454902D01*
X2550963Y13454906D01*
X2548977Y13459701D01*
X2541504Y13529170D01*
X2548977Y13554623D01*
X2550962Y13559417D01*
X2550966Y13559422D01*
X2565500Y13632488D01*
X2565500Y13781836D01*
X2565500Y13781839D01*
X2565499Y13781841D01*
X2550968Y13854895D01*
X2550966Y13854898D01*
X2550966Y13854902D01*
X2550963Y13854906D01*
X2548977Y13859701D01*
X2540363Y13921467D01*
X2543467Y13948201D01*
X2550966Y13959422D01*
X2565500Y14032488D01*
X2565500Y14137906D01*
X2566328Y14145035D01*
X2577283Y14170859D01*
X2585185Y14197769D01*
X2591086Y14203397D01*
X2593615Y14209356D01*
X2606673Y14218260D01*
X2627499Y14238117D01*
X2677011Y14266702D01*
X2732960Y14322651D01*
X3002960Y14592651D01*
X3042522Y14661174D01*
X3063000Y14737600D01*
X3063000Y14816724D01*
X3063000Y15976385D01*
X3042521Y16052812D01*
X3042517Y16052819D01*
X3002964Y16121328D01*
X3002958Y16121336D01*
X2922998Y16201296D01*
X2889513Y16262619D01*
X2886679Y16288977D01*
X2886679Y16379034D01*
X2886679Y16379036D01*
X2852571Y16506330D01*
X2786679Y16620458D01*
X2693493Y16713644D01*
X2619119Y16756584D01*
X2579366Y16779536D01*
X2487660Y16804108D01*
X2452071Y16813644D01*
X2320287Y16813644D01*
X2320285Y16813644D01*
X2219092Y16786530D01*
X2149242Y16788193D01*
X2091380Y16827356D01*
X2063877Y16891585D01*
X2063000Y16906305D01*
X2063000Y16993052D01*
X2063000Y16993054D01*
X2028892Y17120348D01*
X1963000Y17234476D01*
X1869814Y17327662D01*
X1795617Y17370500D01*
X1755687Y17393554D01*
X1692039Y17410608D01*
X1628392Y17427662D01*
X1496608Y17427662D01*
X1488481Y17427662D01*
X1488481Y17430102D01*
X1431647Y17438966D01*
X1379392Y17485347D01*
X1360500Y17551138D01*
X1360500Y18561214D01*
X1380185Y18628253D01*
X1432989Y18674008D01*
X1502147Y18683952D01*
X1516569Y18680994D01*
X1634108Y18649500D01*
X1634111Y18649500D01*
X1765890Y18649500D01*
X1765892Y18649500D01*
X1893186Y18683608D01*
X2007314Y18749500D01*
X2070995Y18813181D01*
X2132318Y18846666D01*
X2158676Y18849500D01*
X2859560Y18849500D01*
X2859562Y18849500D01*
X2935989Y18869979D01*
X3004511Y18909540D01*
X3060460Y18965489D01*
X4507819Y20412848D01*
X4569142Y20446333D01*
X4638834Y20441349D01*
G37*
%TD.AperFunction*%
%TA.AperFunction,Conductor*%
G36*
X-1376961Y5590315D02*
G01*
X-1331206Y5537511D01*
X-1320000Y5486000D01*
X-1320000Y4831211D01*
X-1299090Y4832855D01*
X-1163196Y4872335D01*
X-1136281Y4872258D01*
X-1109604Y4875794D01*
X-1101872Y4872160D01*
X-1093327Y4872135D01*
X-1070729Y4857520D01*
X-1046372Y4846071D01*
X-1040168Y4837756D01*
X-1034657Y4834192D01*
X-1023554Y4819144D01*
X-1019472Y4812635D01*
X-1004065Y4779596D01*
X-989807Y4765338D01*
X-982357Y4753460D01*
X-976533Y4732784D01*
X-966239Y4713932D01*
X-967249Y4699823D01*
X-963413Y4686208D01*
X-969691Y4665669D01*
X-971223Y4644240D01*
X-980789Y4629356D01*
X-983835Y4619389D01*
X-991212Y4613139D01*
X-999724Y4599893D01*
X-1372798Y4226819D01*
X-1434121Y4193334D01*
X-1460479Y4190500D01*
X-1709895Y4190500D01*
X-1726429Y4188324D01*
X-1759487Y4183972D01*
X-1759490Y4183972D01*
X-1759497Y4183970D01*
X-1761312Y4183441D01*
X-1763482Y4183446D01*
X-1768894Y4182733D01*
X-1768990Y4183457D01*
X-1831181Y4183586D01*
X-1889881Y4221482D01*
X-1918774Y4285097D01*
X-1920000Y4302490D01*
X-1920000Y4550000D01*
X-2996000Y4550000D01*
X-3063039Y4569685D01*
X-3108794Y4622489D01*
X-3120000Y4674000D01*
X-3120000Y4926000D01*
X-3100315Y4993039D01*
X-3047511Y5038794D01*
X-2996000Y5050000D01*
X-1820000Y5050000D01*
X-1820000Y5486000D01*
X-1800315Y5553039D01*
X-1747511Y5598794D01*
X-1696000Y5610000D01*
X-1444000Y5610000D01*
X-1376961Y5590315D01*
G37*
%TD.AperFunction*%
%TA.AperFunction,Conductor*%
G36*
X2730007Y9011977D02*
G01*
X2775762Y8959173D01*
X2785706Y8890015D01*
X2775350Y8855257D01*
X2726027Y8749486D01*
X2719500Y8699903D01*
X2719500Y8340106D01*
X2719501Y8340100D01*
X2726028Y8290513D01*
X2726029Y8290511D01*
X2726029Y8290510D01*
X2776776Y8181684D01*
X2814896Y8143563D01*
X2848380Y8082240D01*
X2843395Y8012548D01*
X2801523Y7956615D01*
X2795344Y7952540D01*
X2792683Y7950498D01*
X2699502Y7857317D01*
X2699500Y7857314D01*
X2633608Y7743188D01*
X2619249Y7689598D01*
X2599500Y7615892D01*
X2599500Y7484108D01*
X2611374Y7439795D01*
X2633609Y7356811D01*
X2634379Y7354952D01*
X2634560Y7353260D01*
X2635712Y7348963D01*
X2635041Y7348784D01*
X2637381Y7327006D01*
X2648254Y7321400D01*
X2655725Y7311900D01*
X2659239Y7309460D01*
X2670070Y7293659D01*
X2699500Y7242686D01*
X2792686Y7149500D01*
X2906814Y7083608D01*
X3034108Y7049500D01*
X3034110Y7049500D01*
X3165890Y7049500D01*
X3165892Y7049500D01*
X3293186Y7083608D01*
X3407314Y7149500D01*
X3407316Y7149503D01*
X3413499Y7153072D01*
X3481399Y7169545D01*
X3547426Y7146693D01*
X3590617Y7091772D01*
X3599500Y7045685D01*
X3599500Y5684394D01*
X3579815Y5617355D01*
X3563181Y5596713D01*
X2827784Y4861317D01*
X2766461Y4827832D01*
X2696769Y4832816D01*
X2641454Y4874163D01*
X1554500Y4874163D01*
X1487461Y4893848D01*
X1441706Y4946652D01*
X1430500Y4998163D01*
X1430500Y5250163D01*
X1450185Y5317202D01*
X1502989Y5362957D01*
X1554500Y5374163D01*
X2641229Y5374163D01*
X2598756Y5520359D01*
X2516446Y5659538D01*
X2516439Y5659547D01*
X2402106Y5773880D01*
X2395942Y5778661D01*
X2397458Y5780616D01*
X2358088Y5822785D01*
X2345587Y5891528D01*
X2345951Y5894587D01*
X2347225Y5904262D01*
X2347224Y6264063D01*
X2340697Y6313650D01*
X2289949Y6422479D01*
X2289948Y6422480D01*
X2289948Y6422481D01*
X2283727Y6431365D01*
X2286202Y6433099D01*
X2260985Y6479281D01*
X2265969Y6548973D01*
X2294466Y6593316D01*
X2383000Y6681849D01*
X2448892Y6795977D01*
X2483000Y6923271D01*
X2483000Y7055055D01*
X2448892Y7182349D01*
X2448890Y7182353D01*
X2448123Y7184206D01*
X2447941Y7185896D01*
X2446788Y7190200D01*
X2447459Y7190380D01*
X2445223Y7211181D01*
X2444268Y7215118D01*
X2423256Y7229709D01*
X2412427Y7245508D01*
X2400220Y7266651D01*
X2383000Y7296477D01*
X2289814Y7389663D01*
X2227031Y7425911D01*
X2175687Y7455555D01*
X2112039Y7472609D01*
X2048392Y7489663D01*
X1916608Y7489663D01*
X1789312Y7455555D01*
X1675186Y7389663D01*
X1675183Y7389661D01*
X1611505Y7325982D01*
X1550182Y7292497D01*
X1523824Y7289663D01*
X262721Y7289663D01*
X195682Y7309348D01*
X175040Y7325982D01*
X-118959Y7619981D01*
X-152444Y7681304D01*
X-147460Y7750996D01*
X-105588Y7806929D01*
X-57237Y7828914D01*
X-44402Y7831662D01*
X-35326Y7831662D01*
X37740Y7846196D01*
X44461Y7850688D01*
X64041Y7854879D01*
X88060Y7853082D01*
X112008Y7855658D01*
X131972Y7849797D01*
X133715Y7849666D01*
X134543Y7849042D01*
X137461Y7848185D01*
X142256Y7846199D01*
X142260Y7846196D01*
X142264Y7846196D01*
X142267Y7846194D01*
X215321Y7831663D01*
X215324Y7831662D01*
X215326Y7831662D01*
X364676Y7831662D01*
X364677Y7831663D01*
X389029Y7836507D01*
X437732Y7846194D01*
X437733Y7846195D01*
X437740Y7846196D01*
X437745Y7846200D01*
X442539Y7848185D01*
X512008Y7855658D01*
X537461Y7848185D01*
X542256Y7846199D01*
X542260Y7846196D01*
X542264Y7846196D01*
X542267Y7846194D01*
X615321Y7831663D01*
X615324Y7831662D01*
X615326Y7831662D01*
X764676Y7831662D01*
X764677Y7831663D01*
X789029Y7836507D01*
X837732Y7846194D01*
X837733Y7846195D01*
X837740Y7846196D01*
X837745Y7846200D01*
X842539Y7848185D01*
X912008Y7855658D01*
X937461Y7848185D01*
X942256Y7846199D01*
X942260Y7846196D01*
X942264Y7846196D01*
X942267Y7846194D01*
X1015321Y7831663D01*
X1015324Y7831662D01*
X1015326Y7831662D01*
X1164676Y7831662D01*
X1164677Y7831663D01*
X1237740Y7846196D01*
X1320601Y7901561D01*
X1375966Y7984422D01*
X1390500Y8057488D01*
X1390500Y8881836D01*
X1390500Y8882662D01*
X1410185Y8949701D01*
X1462989Y8995456D01*
X1514500Y9006662D01*
X2339676Y9006662D01*
X2376207Y9013929D01*
X2412740Y9021196D01*
X2412743Y9021199D01*
X2415222Y9022224D01*
X2423398Y9023851D01*
X2427738Y9026639D01*
X2462673Y9031662D01*
X2662968Y9031662D01*
X2730007Y9011977D01*
G37*
%TD.AperFunction*%
%TA.AperFunction,Conductor*%
G36*
X-5676292Y10596911D02*
G01*
X-5642886Y10587250D01*
X-5642712Y10587051D01*
X-5642461Y10586977D01*
X-5619850Y10560882D01*
X-5596917Y10534633D01*
X-5596819Y10534303D01*
X-5596706Y10534173D01*
X-5596507Y10533256D01*
X-5586835Y10500809D01*
X-5585500Y10491786D01*
X-5585500Y10432488D01*
X-5570966Y10359422D01*
X-5564483Y10349718D01*
X-5560871Y10325309D01*
X-5568975Y10259710D01*
X-5570967Y10254903D01*
X-5585500Y10181839D01*
X-5585500Y10181836D01*
X-5585500Y10032488D01*
X-5585500Y10032486D01*
X-5585501Y10032486D01*
X-5570967Y9959422D01*
X-5568975Y9954614D01*
X-5561506Y9885145D01*
X-5568975Y9859710D01*
X-5570967Y9854903D01*
X-5585500Y9781839D01*
X-5585500Y9781836D01*
X-5585500Y9632488D01*
X-5585500Y9632486D01*
X-5585501Y9632486D01*
X-5570967Y9559422D01*
X-5568975Y9554614D01*
X-5561506Y9485145D01*
X-5568975Y9459710D01*
X-5570967Y9454903D01*
X-5585500Y9381839D01*
X-5585500Y9232484D01*
X-5570968Y9159427D01*
X-5570967Y9159423D01*
X-5570966Y9159422D01*
X-5515601Y9076561D01*
X-5434279Y9022224D01*
X-5432740Y9021196D01*
X-5432736Y9021195D01*
X-5359679Y9006663D01*
X-5359676Y9006662D01*
X-4534500Y9006662D01*
X-4467461Y8986977D01*
X-4421706Y8934173D01*
X-4410500Y8882662D01*
X-4410500Y8057484D01*
X-4395968Y7984427D01*
X-4395967Y7984423D01*
X-4377595Y7956927D01*
X-4340601Y7901561D01*
X-4271901Y7855658D01*
X-4257740Y7846196D01*
X-4257736Y7846195D01*
X-4184679Y7831663D01*
X-4184676Y7831662D01*
X-4184674Y7831662D01*
X-4035324Y7831662D01*
X-4035323Y7831663D01*
X-4010971Y7836507D01*
X-3962268Y7846194D01*
X-3962267Y7846195D01*
X-3962260Y7846196D01*
X-3962255Y7846200D01*
X-3957461Y7848185D01*
X-3887992Y7855658D01*
X-3862539Y7848185D01*
X-3857744Y7846199D01*
X-3857740Y7846196D01*
X-3857736Y7846196D01*
X-3857733Y7846194D01*
X-3784679Y7831663D01*
X-3784676Y7831662D01*
X-3784674Y7831662D01*
X-3635324Y7831662D01*
X-3635323Y7831663D01*
X-3610971Y7836507D01*
X-3562268Y7846194D01*
X-3562267Y7846195D01*
X-3562260Y7846196D01*
X-3562255Y7846200D01*
X-3557461Y7848185D01*
X-3487992Y7855658D01*
X-3462539Y7848185D01*
X-3457744Y7846199D01*
X-3457740Y7846196D01*
X-3457736Y7846196D01*
X-3457733Y7846194D01*
X-3384679Y7831663D01*
X-3384676Y7831662D01*
X-3384674Y7831662D01*
X-3235325Y7831662D01*
X-3219507Y7834809D01*
X-3162260Y7846196D01*
X-3162259Y7846198D01*
X-3159348Y7846776D01*
X-3089756Y7840550D01*
X-3036351Y7800085D01*
X-2952565Y7689598D01*
X-2832096Y7598242D01*
X-2706235Y7548609D01*
X-2679522Y7527825D01*
X-2652462Y7507570D01*
X-2652042Y7506443D01*
X-2651091Y7505703D01*
X-2639869Y7473813D01*
X-2628041Y7442107D01*
X-2628298Y7440930D01*
X-2627898Y7439795D01*
X-2635696Y7406910D01*
X-2642889Y7373833D01*
X-2643840Y7372563D01*
X-2644018Y7371811D01*
X-2664039Y7345578D01*
X-2672792Y7336824D01*
X-2734113Y7303335D01*
X-2760478Y7300500D01*
X-3839753Y7300500D01*
X-3898230Y7288869D01*
X-3898231Y7288868D01*
X-3974707Y7237767D01*
X-3977177Y7241464D01*
X-4017756Y7219450D01*
X-4087433Y7224626D01*
X-4143251Y7266651D01*
X-4159962Y7297355D01*
X-4176646Y7342087D01*
X-4176650Y7342094D01*
X-4262810Y7457188D01*
X-4262813Y7457191D01*
X-4377907Y7543351D01*
X-4377914Y7543355D01*
X-4512621Y7593597D01*
X-4512628Y7593599D01*
X-4572156Y7600000D01*
X-5070000Y7600000D01*
X-5070000Y6624000D01*
X-5089685Y6556961D01*
X-5142489Y6511206D01*
X-5194000Y6500000D01*
X-5446000Y6500000D01*
X-5513039Y6519685D01*
X-5558794Y6572489D01*
X-5570000Y6624000D01*
X-5570000Y7600000D01*
X-6067845Y7600000D01*
X-6127373Y7593599D01*
X-6127380Y7593597D01*
X-6262087Y7543355D01*
X-6262094Y7543351D01*
X-6377188Y7457191D01*
X-6377191Y7457188D01*
X-6456234Y7351600D01*
X-6512168Y7309729D01*
X-6581859Y7304745D01*
X-6643182Y7338231D01*
X-6676666Y7399554D01*
X-6679500Y7425911D01*
X-6679500Y10372983D01*
X-6659815Y10440022D01*
X-6607011Y10485777D01*
X-6537853Y10495721D01*
X-6503101Y10485367D01*
X-6476987Y10473190D01*
X-6427401Y10466662D01*
X-6007600Y10466663D01*
X-5958013Y10473190D01*
X-5849184Y10523938D01*
X-5802779Y10570343D01*
X-5780630Y10582438D01*
X-5776964Y10586703D01*
X-5767835Y10589425D01*
X-5741456Y10603828D01*
X-5715098Y10606662D01*
X-5709500Y10606662D01*
X-5676292Y10596911D01*
G37*
%TD.AperFunction*%
%TA.AperFunction,Conductor*%
G36*
X937461Y14723185D02*
G01*
X942256Y14721199D01*
X942260Y14721196D01*
X942264Y14721196D01*
X942267Y14721194D01*
X1015321Y14706663D01*
X1015324Y14706662D01*
X1165500Y14706662D01*
X1232539Y14686977D01*
X1278294Y14634173D01*
X1289500Y14582662D01*
X1289500Y14581836D01*
X1289500Y14432488D01*
X1289500Y14432486D01*
X1289499Y14432486D01*
X1304033Y14359422D01*
X1306025Y14354614D01*
X1313494Y14285145D01*
X1306025Y14259710D01*
X1304033Y14254903D01*
X1289500Y14181839D01*
X1289500Y14181836D01*
X1289500Y14032488D01*
X1289500Y14032486D01*
X1289499Y14032486D01*
X1304033Y13959422D01*
X1306025Y13954614D01*
X1313494Y13885145D01*
X1306025Y13859710D01*
X1304033Y13854903D01*
X1289500Y13781839D01*
X1289500Y13781836D01*
X1289500Y13632488D01*
X1289500Y13632486D01*
X1289499Y13632486D01*
X1304033Y13559422D01*
X1306025Y13554614D01*
X1313494Y13485145D01*
X1306025Y13459710D01*
X1304033Y13454903D01*
X1289500Y13381839D01*
X1289500Y13381836D01*
X1289500Y13232488D01*
X1289500Y13232486D01*
X1289499Y13232486D01*
X1304033Y13159422D01*
X1306025Y13154614D01*
X1313494Y13085145D01*
X1306025Y13059710D01*
X1304033Y13054903D01*
X1289500Y12981839D01*
X1289500Y12981836D01*
X1289500Y12832488D01*
X1289500Y12832486D01*
X1289499Y12832486D01*
X1304033Y12759422D01*
X1306025Y12754614D01*
X1313494Y12685145D01*
X1306025Y12659710D01*
X1304033Y12654903D01*
X1289500Y12581839D01*
X1289500Y12581836D01*
X1289500Y12432488D01*
X1289500Y12432486D01*
X1289499Y12432486D01*
X1304033Y12359422D01*
X1306025Y12354614D01*
X1313494Y12285145D01*
X1306025Y12259710D01*
X1304033Y12254903D01*
X1289500Y12181839D01*
X1289500Y12181836D01*
X1289500Y12032488D01*
X1289500Y12032486D01*
X1289499Y12032486D01*
X1304033Y11959422D01*
X1306025Y11954614D01*
X1313494Y11885145D01*
X1306025Y11859710D01*
X1304033Y11854903D01*
X1289500Y11781839D01*
X1289500Y11781836D01*
X1289500Y11632488D01*
X1289500Y11632486D01*
X1289499Y11632486D01*
X1304033Y11559422D01*
X1306025Y11554614D01*
X1313494Y11485145D01*
X1306025Y11459710D01*
X1304033Y11454903D01*
X1289500Y11381839D01*
X1289500Y11381836D01*
X1289500Y11232488D01*
X1289500Y11232486D01*
X1289499Y11232486D01*
X1304033Y11159422D01*
X1306025Y11154614D01*
X1313494Y11085145D01*
X1306025Y11059710D01*
X1304033Y11054903D01*
X1289500Y10981839D01*
X1289500Y10981836D01*
X1289500Y10832488D01*
X1289500Y10832486D01*
X1289499Y10832486D01*
X1304033Y10759422D01*
X1306025Y10754614D01*
X1313494Y10685145D01*
X1306025Y10659710D01*
X1304033Y10654903D01*
X1289500Y10581839D01*
X1289500Y10581836D01*
X1289500Y10432488D01*
X1289500Y10432486D01*
X1289499Y10432486D01*
X1304033Y10359422D01*
X1306025Y10354614D01*
X1313494Y10285145D01*
X1306025Y10259710D01*
X1304033Y10254903D01*
X1289500Y10181839D01*
X1289500Y10181836D01*
X1289500Y10032488D01*
X1289500Y10032486D01*
X1289499Y10032486D01*
X1304033Y9959422D01*
X1306025Y9954614D01*
X1313494Y9885145D01*
X1306025Y9859710D01*
X1304033Y9854903D01*
X1289500Y9781839D01*
X1289500Y9781836D01*
X1289500Y9632488D01*
X1289500Y9632486D01*
X1289499Y9632486D01*
X1304033Y9559422D01*
X1306025Y9554614D01*
X1313494Y9485145D01*
X1306025Y9459710D01*
X1304033Y9454903D01*
X1289500Y9381839D01*
X1289500Y9231662D01*
X1269815Y9164623D01*
X1217011Y9118868D01*
X1165500Y9107662D01*
X1015324Y9107662D01*
X942259Y9093129D01*
X937452Y9091137D01*
X867983Y9083668D01*
X842548Y9091137D01*
X837740Y9093129D01*
X764676Y9107662D01*
X764674Y9107662D01*
X615326Y9107662D01*
X615324Y9107662D01*
X542259Y9093129D01*
X537452Y9091137D01*
X467983Y9083668D01*
X442548Y9091137D01*
X437740Y9093129D01*
X364676Y9107662D01*
X364674Y9107662D01*
X215326Y9107662D01*
X215324Y9107662D01*
X142259Y9093129D01*
X137452Y9091137D01*
X67983Y9083668D01*
X42548Y9091137D01*
X37740Y9093129D01*
X-35324Y9107662D01*
X-35326Y9107662D01*
X-184674Y9107662D01*
X-184676Y9107662D01*
X-257741Y9093129D01*
X-262548Y9091137D01*
X-332017Y9083668D01*
X-357452Y9091137D01*
X-362260Y9093129D01*
X-435324Y9107662D01*
X-435326Y9107662D01*
X-584674Y9107662D01*
X-584676Y9107662D01*
X-657741Y9093129D01*
X-662548Y9091137D01*
X-732017Y9083668D01*
X-757452Y9091137D01*
X-762260Y9093129D01*
X-835324Y9107662D01*
X-835326Y9107662D01*
X-984674Y9107662D01*
X-984676Y9107662D01*
X-1057741Y9093129D01*
X-1062548Y9091137D01*
X-1132017Y9083668D01*
X-1157452Y9091137D01*
X-1162260Y9093129D01*
X-1235324Y9107662D01*
X-1235326Y9107662D01*
X-1384674Y9107662D01*
X-1384676Y9107662D01*
X-1457741Y9093129D01*
X-1462548Y9091137D01*
X-1532017Y9083668D01*
X-1557452Y9091137D01*
X-1562260Y9093129D01*
X-1635324Y9107662D01*
X-1635326Y9107662D01*
X-1784674Y9107662D01*
X-1784677Y9107662D01*
X-1860655Y9092549D01*
X-1930246Y9098776D01*
X-1983650Y9139241D01*
X-2067434Y9249726D01*
X-2187905Y9341083D01*
X-2328557Y9396549D01*
X-2416946Y9407162D01*
X-2603054Y9407162D01*
X-2691444Y9396549D01*
X-2832096Y9341083D01*
X-2952568Y9249725D01*
X-3036352Y9139240D01*
X-3092544Y9097717D01*
X-3159347Y9092549D01*
X-3235324Y9107662D01*
X-3235326Y9107662D01*
X-3384674Y9107662D01*
X-3384676Y9107662D01*
X-3457741Y9093129D01*
X-3462548Y9091137D01*
X-3532017Y9083668D01*
X-3557452Y9091137D01*
X-3562260Y9093129D01*
X-3635324Y9107662D01*
X-3635326Y9107662D01*
X-3784674Y9107662D01*
X-3784676Y9107662D01*
X-3857741Y9093129D01*
X-3862548Y9091137D01*
X-3932017Y9083668D01*
X-3957452Y9091137D01*
X-3962260Y9093129D01*
X-4035324Y9107662D01*
X-4035326Y9107662D01*
X-4184674Y9107662D01*
X-4185500Y9107662D01*
X-4252539Y9127347D01*
X-4298294Y9180151D01*
X-4309500Y9231662D01*
X-4309500Y9381839D01*
X-4309501Y9381841D01*
X-4324032Y9454895D01*
X-4324034Y9454898D01*
X-4324034Y9454902D01*
X-4324037Y9454906D01*
X-4326023Y9459701D01*
X-4333496Y9529170D01*
X-4326023Y9554623D01*
X-4324038Y9559417D01*
X-4324034Y9559422D01*
X-4309500Y9632488D01*
X-4309500Y9781836D01*
X-4309500Y9781839D01*
X-4309501Y9781841D01*
X-4324032Y9854895D01*
X-4324034Y9854898D01*
X-4324034Y9854902D01*
X-4324037Y9854906D01*
X-4326023Y9859701D01*
X-4333496Y9929170D01*
X-4326023Y9954623D01*
X-4324038Y9959417D01*
X-4324034Y9959422D01*
X-4323819Y9960499D01*
X-4309501Y10032484D01*
X-4309500Y10032486D01*
X-4309500Y10181839D01*
X-4309501Y10181841D01*
X-4324032Y10254895D01*
X-4324034Y10254898D01*
X-4324034Y10254902D01*
X-4324037Y10254906D01*
X-4326023Y10259701D01*
X-4333496Y10329170D01*
X-4326023Y10354623D01*
X-4324038Y10359417D01*
X-4324034Y10359422D01*
X-4323765Y10360770D01*
X-4318721Y10386129D01*
X-3610000Y10386129D01*
X-3607127Y10349620D01*
X-3607126Y10349614D01*
X-3561733Y10193371D01*
X-3561731Y10193366D01*
X-3478906Y10053316D01*
X-3478900Y10053308D01*
X-3363855Y9938263D01*
X-3363847Y9938257D01*
X-3223797Y9855432D01*
X-3223792Y9855430D01*
X-3067549Y9810037D01*
X-3067543Y9810036D01*
X-3031034Y9807163D01*
X-3031022Y9807162D01*
X-1760000Y9807162D01*
X-1260000Y9807162D01*
X11022Y9807162D01*
X11033Y9807163D01*
X47542Y9810036D01*
X47548Y9810037D01*
X203791Y9855430D01*
X203796Y9855432D01*
X343846Y9938257D01*
X343854Y9938263D01*
X458899Y10053308D01*
X458905Y10053316D01*
X541730Y10193366D01*
X541732Y10193371D01*
X587125Y10349614D01*
X587126Y10349620D01*
X589999Y10386129D01*
X590000Y10386141D01*
X590000Y11657162D01*
X-1260000Y11657162D01*
X-1260000Y9807162D01*
X-1760000Y9807162D01*
X-1760000Y11657162D01*
X-3610000Y11657162D01*
X-3610000Y10386129D01*
X-4318721Y10386129D01*
X-4309501Y10432484D01*
X-4309500Y10432486D01*
X-4309500Y10581839D01*
X-4309501Y10581841D01*
X-4324032Y10654895D01*
X-4324034Y10654898D01*
X-4324034Y10654902D01*
X-4324037Y10654906D01*
X-4326023Y10659701D01*
X-4333496Y10729170D01*
X-4326023Y10754623D01*
X-4324038Y10759417D01*
X-4324034Y10759422D01*
X-4320609Y10776637D01*
X-4309501Y10832484D01*
X-4309500Y10832486D01*
X-4309500Y10981839D01*
X-4309501Y10981841D01*
X-4324032Y11054895D01*
X-4324034Y11054898D01*
X-4324034Y11054902D01*
X-4324037Y11054906D01*
X-4326023Y11059701D01*
X-4333496Y11129170D01*
X-4326023Y11154623D01*
X-4324038Y11159417D01*
X-4324034Y11159422D01*
X-4309500Y11232488D01*
X-4309500Y11381836D01*
X-4309500Y11381839D01*
X-4309501Y11381841D01*
X-4324032Y11454895D01*
X-4324034Y11454898D01*
X-4324034Y11454902D01*
X-4324037Y11454906D01*
X-4326023Y11459701D01*
X-4334447Y11523020D01*
X-4331121Y11548816D01*
X-4324034Y11559422D01*
X-4309500Y11632488D01*
X-4309500Y11781836D01*
X-4324034Y11854902D01*
X-4331064Y11865424D01*
X-4334419Y11891090D01*
X-4331442Y11910070D01*
X-4333496Y11929170D01*
X-4326023Y11954623D01*
X-4324038Y11959417D01*
X-4324034Y11959422D01*
X-4309500Y12032488D01*
X-4309500Y12181836D01*
X-4309500Y12181839D01*
X-4309501Y12181841D01*
X-4324032Y12254895D01*
X-4324034Y12254898D01*
X-4324034Y12254902D01*
X-4324037Y12254906D01*
X-4326023Y12259701D01*
X-4333496Y12329170D01*
X-4326023Y12354623D01*
X-4324038Y12359417D01*
X-4324034Y12359422D01*
X-4309500Y12432488D01*
X-4309500Y12581836D01*
X-4309500Y12581839D01*
X-4309501Y12581841D01*
X-4324032Y12654895D01*
X-4324034Y12654898D01*
X-4324034Y12654902D01*
X-4324037Y12654906D01*
X-4326023Y12659701D01*
X-4333496Y12729170D01*
X-4326023Y12754623D01*
X-4324038Y12759417D01*
X-4324034Y12759422D01*
X-4309500Y12832488D01*
X-4309500Y12981836D01*
X-4309500Y12981839D01*
X-4309501Y12981841D01*
X-4324032Y13054895D01*
X-4324034Y13054898D01*
X-4324034Y13054902D01*
X-4324037Y13054906D01*
X-4326023Y13059701D01*
X-4333496Y13129170D01*
X-4326023Y13154623D01*
X-4324038Y13159417D01*
X-4324034Y13159422D01*
X-4309500Y13232488D01*
X-4309500Y13381836D01*
X-4309500Y13381839D01*
X-4309501Y13381841D01*
X-4313870Y13403809D01*
X-4313875Y13403827D01*
X-4318722Y13428196D01*
X-3610000Y13428196D01*
X-3610000Y12157162D01*
X-1760000Y12157162D01*
X-1260000Y12157162D01*
X590000Y12157162D01*
X590000Y13428184D01*
X589999Y13428196D01*
X587126Y13464705D01*
X587125Y13464711D01*
X541732Y13620954D01*
X541730Y13620959D01*
X458905Y13761009D01*
X458899Y13761017D01*
X343854Y13876062D01*
X343846Y13876068D01*
X203796Y13958893D01*
X203791Y13958895D01*
X47548Y14004288D01*
X47542Y14004289D01*
X11033Y14007162D01*
X-1260000Y14007162D01*
X-1260000Y12157162D01*
X-1760000Y12157162D01*
X-1760000Y14007162D01*
X-3031034Y14007162D01*
X-3067543Y14004289D01*
X-3067549Y14004288D01*
X-3223792Y13958895D01*
X-3223797Y13958893D01*
X-3363847Y13876068D01*
X-3363855Y13876062D01*
X-3478900Y13761017D01*
X-3478906Y13761009D01*
X-3561731Y13620959D01*
X-3561733Y13620954D01*
X-3607126Y13464711D01*
X-3607127Y13464705D01*
X-3610000Y13428196D01*
X-4318722Y13428196D01*
X-4324034Y13454902D01*
X-4327679Y13460357D01*
X-4331925Y13477746D01*
X-4330737Y13503518D01*
X-4333496Y13529170D01*
X-4328819Y13545102D01*
X-4328706Y13547542D01*
X-4327676Y13548994D01*
X-4326023Y13554623D01*
X-4324038Y13559417D01*
X-4324034Y13559422D01*
X-4309500Y13632488D01*
X-4309500Y13781836D01*
X-4309500Y13781839D01*
X-4309501Y13781841D01*
X-4324032Y13854895D01*
X-4324034Y13854898D01*
X-4324034Y13854902D01*
X-4324037Y13854906D01*
X-4326023Y13859701D01*
X-4333496Y13929170D01*
X-4326023Y13954623D01*
X-4324038Y13959417D01*
X-4324034Y13959422D01*
X-4309500Y14032488D01*
X-4309500Y14181836D01*
X-4309500Y14181839D01*
X-4309501Y14181841D01*
X-4324032Y14254895D01*
X-4324034Y14254898D01*
X-4324034Y14254902D01*
X-4324037Y14254906D01*
X-4326023Y14259701D01*
X-4333496Y14329170D01*
X-4326023Y14354623D01*
X-4324038Y14359417D01*
X-4324034Y14359422D01*
X-4309500Y14432488D01*
X-4309500Y14581836D01*
X-4309500Y14582662D01*
X-4289815Y14649701D01*
X-4237011Y14695456D01*
X-4185500Y14706662D01*
X-4035324Y14706662D01*
X-4035323Y14706663D01*
X-4010971Y14711507D01*
X-3962268Y14721194D01*
X-3962267Y14721195D01*
X-3962260Y14721196D01*
X-3962255Y14721200D01*
X-3957461Y14723185D01*
X-3887992Y14730658D01*
X-3862539Y14723185D01*
X-3857744Y14721199D01*
X-3857740Y14721196D01*
X-3857736Y14721196D01*
X-3857733Y14721194D01*
X-3784679Y14706663D01*
X-3784676Y14706662D01*
X-3784674Y14706662D01*
X-3635324Y14706662D01*
X-3635323Y14706663D01*
X-3610971Y14711507D01*
X-3562268Y14721194D01*
X-3562267Y14721195D01*
X-3562260Y14721196D01*
X-3562255Y14721200D01*
X-3557461Y14723185D01*
X-3487992Y14730658D01*
X-3462539Y14723185D01*
X-3457744Y14721199D01*
X-3457740Y14721196D01*
X-3457736Y14721196D01*
X-3457733Y14721194D01*
X-3384679Y14706663D01*
X-3384676Y14706662D01*
X-3384674Y14706662D01*
X-3235324Y14706662D01*
X-3235323Y14706663D01*
X-3210971Y14711507D01*
X-3162268Y14721194D01*
X-3162267Y14721195D01*
X-3162260Y14721196D01*
X-3162255Y14721200D01*
X-3157461Y14723185D01*
X-3087992Y14730658D01*
X-3062539Y14723185D01*
X-3057744Y14721199D01*
X-3057740Y14721196D01*
X-3057736Y14721196D01*
X-3057733Y14721194D01*
X-2984679Y14706663D01*
X-2984676Y14706662D01*
X-2984674Y14706662D01*
X-2835324Y14706662D01*
X-2835323Y14706663D01*
X-2810971Y14711507D01*
X-2762268Y14721194D01*
X-2762267Y14721195D01*
X-2762260Y14721196D01*
X-2762255Y14721200D01*
X-2757461Y14723185D01*
X-2687992Y14730658D01*
X-2662539Y14723185D01*
X-2657744Y14721199D01*
X-2657740Y14721196D01*
X-2657736Y14721196D01*
X-2657733Y14721194D01*
X-2584679Y14706663D01*
X-2584676Y14706662D01*
X-2584674Y14706662D01*
X-2435324Y14706662D01*
X-2435323Y14706663D01*
X-2410971Y14711507D01*
X-2362268Y14721194D01*
X-2362267Y14721195D01*
X-2362260Y14721196D01*
X-2362255Y14721200D01*
X-2357461Y14723185D01*
X-2287992Y14730658D01*
X-2262539Y14723185D01*
X-2257744Y14721199D01*
X-2257740Y14721196D01*
X-2257736Y14721196D01*
X-2257733Y14721194D01*
X-2184679Y14706663D01*
X-2184676Y14706662D01*
X-2184674Y14706662D01*
X-2035324Y14706662D01*
X-2035323Y14706663D01*
X-2010971Y14711507D01*
X-1962268Y14721194D01*
X-1962267Y14721195D01*
X-1962260Y14721196D01*
X-1962255Y14721200D01*
X-1957461Y14723185D01*
X-1887992Y14730658D01*
X-1862539Y14723185D01*
X-1857744Y14721199D01*
X-1857740Y14721196D01*
X-1857736Y14721196D01*
X-1857733Y14721194D01*
X-1784679Y14706663D01*
X-1784676Y14706662D01*
X-1784674Y14706662D01*
X-1635324Y14706662D01*
X-1635323Y14706663D01*
X-1610971Y14711507D01*
X-1562268Y14721194D01*
X-1562267Y14721195D01*
X-1562260Y14721196D01*
X-1562255Y14721200D01*
X-1557461Y14723185D01*
X-1487992Y14730658D01*
X-1462539Y14723185D01*
X-1457744Y14721199D01*
X-1457740Y14721196D01*
X-1457736Y14721196D01*
X-1457733Y14721194D01*
X-1384679Y14706663D01*
X-1384676Y14706662D01*
X-1384674Y14706662D01*
X-1235324Y14706662D01*
X-1235323Y14706663D01*
X-1210971Y14711507D01*
X-1162268Y14721194D01*
X-1162267Y14721195D01*
X-1162260Y14721196D01*
X-1162255Y14721200D01*
X-1157461Y14723185D01*
X-1087992Y14730658D01*
X-1062539Y14723185D01*
X-1057744Y14721199D01*
X-1057740Y14721196D01*
X-1057736Y14721196D01*
X-1057733Y14721194D01*
X-984679Y14706663D01*
X-984676Y14706662D01*
X-984674Y14706662D01*
X-835324Y14706662D01*
X-835323Y14706663D01*
X-810971Y14711507D01*
X-762268Y14721194D01*
X-762267Y14721195D01*
X-762260Y14721196D01*
X-762255Y14721200D01*
X-757461Y14723185D01*
X-687992Y14730658D01*
X-662539Y14723185D01*
X-657744Y14721199D01*
X-657740Y14721196D01*
X-657736Y14721196D01*
X-657733Y14721194D01*
X-584679Y14706663D01*
X-584676Y14706662D01*
X-584674Y14706662D01*
X-435324Y14706662D01*
X-435323Y14706663D01*
X-410971Y14711507D01*
X-362268Y14721194D01*
X-362267Y14721195D01*
X-362260Y14721196D01*
X-362255Y14721200D01*
X-357461Y14723185D01*
X-287992Y14730658D01*
X-262539Y14723185D01*
X-257744Y14721199D01*
X-257740Y14721196D01*
X-257736Y14721196D01*
X-257733Y14721194D01*
X-184679Y14706663D01*
X-184676Y14706662D01*
X-184674Y14706662D01*
X-35324Y14706662D01*
X-35323Y14706663D01*
X-10971Y14711507D01*
X37732Y14721194D01*
X37733Y14721195D01*
X37740Y14721196D01*
X37745Y14721200D01*
X42539Y14723185D01*
X112008Y14730658D01*
X137461Y14723185D01*
X142256Y14721199D01*
X142260Y14721196D01*
X142264Y14721196D01*
X142267Y14721194D01*
X215321Y14706663D01*
X215324Y14706662D01*
X215326Y14706662D01*
X364676Y14706662D01*
X364677Y14706663D01*
X389029Y14711507D01*
X437732Y14721194D01*
X437733Y14721195D01*
X437740Y14721196D01*
X437745Y14721200D01*
X442539Y14723185D01*
X512008Y14730658D01*
X537461Y14723185D01*
X542256Y14721199D01*
X542260Y14721196D01*
X542264Y14721196D01*
X542267Y14721194D01*
X615321Y14706663D01*
X615324Y14706662D01*
X615326Y14706662D01*
X764676Y14706662D01*
X764677Y14706663D01*
X789029Y14711507D01*
X837732Y14721194D01*
X837733Y14721195D01*
X837740Y14721196D01*
X837745Y14721200D01*
X842539Y14723185D01*
X912008Y14730658D01*
X937461Y14723185D01*
G37*
%TD.AperFunction*%
%TA.AperFunction,Conductor*%
G36*
X-6024461Y13517477D02*
G01*
X-5978706Y13464673D01*
X-5967500Y13413162D01*
X-5967500Y12031162D01*
X-5987185Y11964123D01*
X-6039989Y11918368D01*
X-6091500Y11907162D01*
X-6343500Y11907162D01*
X-6410539Y11926847D01*
X-6456294Y11979651D01*
X-6467500Y12031162D01*
X-6467500Y13413162D01*
X-6447815Y13480201D01*
X-6395011Y13525956D01*
X-6343500Y13537162D01*
X-6091500Y13537162D01*
X-6024461Y13517477D01*
G37*
%TD.AperFunction*%
%TA.AperFunction,Conductor*%
G36*
X4662539Y40839815D02*
G01*
X4708294Y40787011D01*
X4719500Y40735500D01*
X4719500Y26894833D01*
X4699815Y26827794D01*
X4647011Y26782039D01*
X4577853Y26772095D01*
X4514297Y26801120D01*
X4507819Y26807152D01*
X3674510Y27640461D01*
X3657121Y27650500D01*
X3654329Y27652112D01*
X3605991Y27680020D01*
X3605990Y27680021D01*
X3580513Y27686848D01*
X3529562Y27700500D01*
X3529560Y27700500D01*
X3373297Y27700500D01*
X3347191Y27703279D01*
X3329991Y27706984D01*
X3325117Y27710240D01*
X3248401Y27725500D01*
X3244009Y27725500D01*
X3233394Y27727786D01*
X3208659Y27741226D01*
X3182559Y27751764D01*
X3178371Y27757682D01*
X3172001Y27761143D01*
X3158460Y27785820D01*
X3142200Y27808798D01*
X3140607Y27818354D01*
X3138389Y27822397D01*
X3138843Y27828943D01*
X3135500Y27849007D01*
X3135500Y27885244D01*
X3155185Y27952283D01*
X3180807Y27978941D01*
X3180644Y27979104D01*
X3200080Y27998540D01*
X3273224Y28071684D01*
X3323972Y28180513D01*
X3330500Y28230099D01*
X3330499Y28649900D01*
X3323972Y28699487D01*
X3273224Y28808316D01*
X3188316Y28893224D01*
X3079487Y28943972D01*
X3079485Y28943973D01*
X3079486Y28943973D01*
X3029902Y28950500D01*
X2670102Y28950500D01*
X2661746Y28949400D01*
X2660459Y28949231D01*
X2591425Y28959999D01*
X2545964Y29000352D01*
X2544499Y28999215D01*
X2539714Y29005384D01*
X2425383Y29119715D01*
X2425374Y29119722D01*
X2286193Y29202033D01*
X2286190Y29202035D01*
X2140001Y29244507D01*
X2140000Y29244506D01*
X2140000Y27635496D01*
X2141789Y27634152D01*
X2183581Y27578158D01*
X2188955Y27510803D01*
X2184500Y27488404D01*
X2184500Y27311602D01*
X2199760Y27234881D01*
X2210446Y27218889D01*
X2231323Y27152212D01*
X2212837Y27084832D01*
X2210446Y27081111D01*
X2199759Y27065118D01*
X2184500Y26988404D01*
X2184500Y26811602D01*
X2199760Y26734881D01*
X2210446Y26718889D01*
X2231323Y26652212D01*
X2212837Y26584832D01*
X2210446Y26581111D01*
X2199759Y26565118D01*
X2184500Y26488404D01*
X2184500Y26311602D01*
X2199760Y26234881D01*
X2210446Y26218889D01*
X2231323Y26152212D01*
X2212837Y26084832D01*
X2210446Y26081111D01*
X2199759Y26065118D01*
X2184500Y25988404D01*
X2184500Y25811602D01*
X2199760Y25734882D01*
X2199761Y25734881D01*
X2213521Y25714287D01*
X2234398Y25647609D01*
X2215913Y25580229D01*
X2198099Y25557716D01*
X-2822819Y20536797D01*
X-2884142Y20503312D01*
X-2953834Y20508296D01*
X-3009767Y20550168D01*
X-3034184Y20615632D01*
X-3034500Y20624478D01*
X-3034500Y21064523D01*
X-3014815Y21131562D01*
X-2998181Y21152204D01*
X-1847266Y22303119D01*
X-626443Y23523941D01*
X-613371Y23555500D01*
X-584500Y23625200D01*
X-584500Y25152712D01*
X-564815Y25219751D01*
X-512011Y25265506D01*
X-444312Y25275651D01*
X-439373Y25275001D01*
X-439363Y25275000D01*
X-140000Y25275000D01*
X-140000Y25776000D01*
X-137450Y25784686D01*
X-138738Y25793647D01*
X-127760Y25817688D01*
X-120315Y25843039D01*
X-113475Y25848967D01*
X-109713Y25857203D01*
X-87479Y25871493D01*
X-67511Y25888794D01*
X-56997Y25891082D01*
X-50935Y25894977D01*
X-16000Y25900000D01*
X-14000Y25900000D01*
X53039Y25880315D01*
X98794Y25827511D01*
X110000Y25776000D01*
X110000Y25275000D01*
X409363Y25275000D01*
X409377Y25275001D01*
X519341Y25289479D01*
X519342Y25289479D01*
X656175Y25346157D01*
X773679Y25436321D01*
X863843Y25553825D01*
X920521Y25690658D01*
X922622Y25698498D01*
X958984Y25758160D01*
X1021830Y25788692D01*
X1091206Y25780400D01*
X1145085Y25735917D01*
X1145500Y25735302D01*
X1165448Y25705447D01*
X1231769Y25661133D01*
X1231770Y25661132D01*
X1290247Y25649501D01*
X1290250Y25649500D01*
X1290252Y25649500D01*
X1529750Y25649500D01*
X1529751Y25649501D01*
X1544568Y25652448D01*
X1588229Y25661132D01*
X1588229Y25661133D01*
X1588231Y25661133D01*
X1654552Y25705448D01*
X1698867Y25771769D01*
X1698867Y25771771D01*
X1698868Y25771771D01*
X1710499Y25830248D01*
X1710500Y25830250D01*
X1710500Y27469751D01*
X1710499Y27469753D01*
X1698868Y27528230D01*
X1698867Y27528231D01*
X1660898Y27585056D01*
X1640020Y27651734D01*
X1640000Y27653947D01*
X1640000Y29244506D01*
X1631105Y29251184D01*
X1592800Y29251294D01*
X1534130Y29289236D01*
X1505288Y29352875D01*
X1505138Y29386363D01*
X1505498Y29389105D01*
X1505500Y29389108D01*
X1505500Y29520892D01*
X1471392Y29648186D01*
X1405500Y29762314D01*
X1312314Y29855500D01*
X1212138Y29913337D01*
X1198187Y29921392D01*
X1102118Y29947133D01*
X1070892Y29955500D01*
X939108Y29955500D01*
X835035Y29927615D01*
X765188Y29929277D01*
X715263Y29959708D01*
X503819Y30171152D01*
X470334Y30232475D01*
X467500Y30258833D01*
X467500Y30754847D01*
X447020Y30831277D01*
X447017Y30831282D01*
X407464Y30899791D01*
X407458Y30899799D01*
X351512Y30955745D01*
X351511Y30955746D01*
X300029Y30985469D01*
X251814Y31036035D01*
X238590Y31104642D01*
X264558Y31169507D01*
X321472Y31210036D01*
X391262Y31213361D01*
X394094Y31212639D01*
X499108Y31184500D01*
X499110Y31184500D01*
X630890Y31184500D01*
X630892Y31184500D01*
X758186Y31218608D01*
X872314Y31284500D01*
X965500Y31377686D01*
X1031392Y31491814D01*
X1065500Y31619108D01*
X1065500Y31709168D01*
X1085185Y31776207D01*
X1101819Y31796849D01*
X2558504Y33253534D01*
X4071460Y34766489D01*
X4105234Y34824988D01*
X4111021Y34835011D01*
X4131500Y34911438D01*
X4131500Y37421296D01*
X4111021Y37497723D01*
X4111017Y37497730D01*
X4071464Y37566239D01*
X4071458Y37566247D01*
X2886246Y38751459D01*
X2886238Y38751465D01*
X2817729Y38791018D01*
X2817724Y38791021D01*
X2792247Y38797848D01*
X2741296Y38811500D01*
X130098Y38811500D01*
X63059Y38831185D01*
X17304Y38883989D01*
X7360Y38953147D01*
X36385Y39016703D01*
X42417Y39023181D01*
X60520Y39041284D01*
X139577Y39178216D01*
X180500Y39330943D01*
X180500Y39489057D01*
X139577Y39641784D01*
X139573Y39641791D01*
X60524Y39778710D01*
X60518Y39778718D01*
X-51283Y39890519D01*
X-51291Y39890525D01*
X-188210Y39969574D01*
X-188214Y39969576D01*
X-188216Y39969577D01*
X-340943Y40010500D01*
X-1899057Y40010500D01*
X-2051784Y39969577D01*
X-2051791Y39969574D01*
X-2188710Y39890525D01*
X-2188718Y39890519D01*
X-2300519Y39778718D01*
X-2300525Y39778710D01*
X-2379574Y39641791D01*
X-2379577Y39641784D01*
X-2420500Y39489057D01*
X-2420500Y39330944D01*
X-2379577Y39178217D01*
X-2379574Y39178210D01*
X-2300525Y39041291D01*
X-2300521Y39041286D01*
X-2300520Y39041284D01*
X-2188716Y38929480D01*
X-2188714Y38929479D01*
X-2188710Y38929476D01*
X-2109923Y38883989D01*
X-2051784Y38850423D01*
X-1899057Y38809500D01*
X-1899055Y38809500D01*
X-686333Y38809500D01*
X-619294Y38789815D01*
X-573539Y38737011D01*
X-563595Y38667853D01*
X-583460Y38616268D01*
X-590163Y38606309D01*
X-609960Y38586511D01*
X-649046Y38518814D01*
X-651431Y38515268D01*
X-675160Y38495571D01*
X-697484Y38474284D01*
X-702173Y38473147D01*
X-705191Y38470641D01*
X-719927Y38468840D01*
X-754304Y38460500D01*
X-1029248Y38460500D01*
X-1095310Y38447360D01*
X-1143690Y38447360D01*
X-1209752Y38460500D01*
X-1529248Y38460500D01*
X-1595310Y38447360D01*
X-1643690Y38447360D01*
X-1709752Y38460500D01*
X-2029248Y38460500D01*
X-2029253Y38460500D01*
X-2095559Y38447311D01*
X-2143941Y38447311D01*
X-2210248Y38460500D01*
X-2210252Y38460500D01*
X-2529748Y38460500D01*
X-2529751Y38460500D01*
X-2595559Y38447410D01*
X-2643941Y38447410D01*
X-2709749Y38460500D01*
X-2709752Y38460500D01*
X-3029248Y38460500D01*
X-3095310Y38447360D01*
X-3103596Y38447358D01*
X-3108356Y38445480D01*
X-3143373Y38447344D01*
X-3143601Y38447343D01*
X-3143686Y38447360D01*
X-3143690Y38447360D01*
X-3144519Y38447525D01*
X-3151260Y38448861D01*
X-3151269Y38448867D01*
X-3209752Y38460500D01*
X-3210004Y38460500D01*
X-3216192Y38461726D01*
X-3242038Y38475222D01*
X-3269074Y38486152D01*
X-3275378Y38492630D01*
X-3278127Y38494065D01*
X-3280043Y38497424D01*
X-3291357Y38509050D01*
X-3372310Y38617188D01*
X-3372313Y38617191D01*
X-3487407Y38703351D01*
X-3487414Y38703355D01*
X-3622121Y38753597D01*
X-3622128Y38753599D01*
X-3681656Y38760000D01*
X-3729500Y38760000D01*
X-3729500Y36751089D01*
X-3728000Y36737138D01*
X-3728000Y35684000D01*
X-3730551Y35675315D01*
X-3729262Y35666353D01*
X-3740241Y35642313D01*
X-3747685Y35616961D01*
X-3754526Y35611034D01*
X-3758287Y35602797D01*
X-3780522Y35588508D01*
X-3800489Y35571206D01*
X-3811004Y35568919D01*
X-3817065Y35565023D01*
X-3852000Y35560000D01*
X-3884000Y35560000D01*
X-3951039Y35579685D01*
X-3996794Y35632489D01*
X-4008000Y35684000D01*
X-4008000Y36468912D01*
X-4009500Y36482862D01*
X-4009500Y37520000D01*
X-4509500Y37520000D01*
X-4509500Y37350351D01*
X-4529185Y37283312D01*
X-4581989Y37237557D01*
X-4651147Y37227613D01*
X-4674355Y37233979D01*
X-4674429Y37233733D01*
X-4680262Y37235503D01*
X-4805929Y37260500D01*
X-4805931Y37260500D01*
X-5434069Y37260500D01*
X-5434071Y37260500D01*
X-5559739Y37235503D01*
X-5559745Y37235501D01*
X-5678125Y37186467D01*
X-5678134Y37186462D01*
X-5784669Y37115277D01*
X-5784673Y37115274D01*
X-5875274Y37024673D01*
X-5875277Y37024669D01*
X-5946462Y36918134D01*
X-5946467Y36918125D01*
X-5995501Y36799745D01*
X-5995503Y36799739D01*
X-6020500Y36674072D01*
X-6020500Y36674069D01*
X-6020500Y36545931D01*
X-6020500Y36545929D01*
X-6020501Y36545929D01*
X-5995503Y36420262D01*
X-5995501Y36420256D01*
X-5946467Y36301876D01*
X-5946462Y36301867D01*
X-5875277Y36195332D01*
X-5875274Y36195328D01*
X-5784673Y36104727D01*
X-5784669Y36104724D01*
X-5678134Y36033539D01*
X-5678125Y36033534D01*
X-5582990Y35994128D01*
X-5528587Y35950287D01*
X-5506522Y35883993D01*
X-5510668Y35847474D01*
X-5522524Y35803230D01*
X-5532933Y35724159D01*
X-5532933Y35645842D01*
X-5522524Y35566773D01*
X-5502254Y35491126D01*
X-5502252Y35491119D01*
X-5471736Y35417448D01*
X-5471735Y35417445D01*
X-5432577Y35349623D01*
X-5432570Y35349613D01*
X-5384029Y35286353D01*
X-5384023Y35286346D01*
X-5328655Y35230978D01*
X-5328649Y35230973D01*
X-5265379Y35182424D01*
X-5197556Y35143266D01*
X-5123872Y35112745D01*
X-5048225Y35092476D01*
X-4983289Y35083928D01*
X-4969159Y35082067D01*
X-4969158Y35082067D01*
X-4890841Y35082067D01*
X-4878854Y35083646D01*
X-4811775Y35092476D01*
X-4736128Y35112745D01*
X-4679452Y35136222D01*
X-4609985Y35143690D01*
X-4547505Y35112416D01*
X-4511852Y35052327D01*
X-4508000Y35021660D01*
X-4508000Y34912156D01*
X-4501599Y34852628D01*
X-4501597Y34852621D01*
X-4451355Y34717914D01*
X-4451351Y34717907D01*
X-4365191Y34602813D01*
X-4365188Y34602810D01*
X-4250094Y34516650D01*
X-4242304Y34512396D01*
X-4243671Y34509895D01*
X-4199342Y34476726D01*
X-4174911Y34411267D01*
X-4189748Y34342991D01*
X-4210911Y34314714D01*
X-4261459Y34264166D01*
X-4261465Y34264158D01*
X-4301018Y34195649D01*
X-4301021Y34195644D01*
X-4307354Y34172009D01*
X-4321500Y34119215D01*
X-4321500Y33500785D01*
X-4315209Y33477308D01*
X-4301021Y33424357D01*
X-4301020Y33424356D01*
X-4276743Y33382307D01*
X-4261460Y33355836D01*
X-2971113Y32065489D01*
X-2915164Y32009540D01*
X-2915162Y32009539D01*
X-2915158Y32009536D01*
X-2885328Y31992314D01*
X-2846642Y31969979D01*
X-2770215Y31949500D01*
X-2691091Y31949500D01*
X-2679401Y31949500D01*
X-2612362Y31929815D01*
X-2566607Y31877011D01*
X-2556663Y31807853D01*
X-2572013Y31763501D01*
X-2600021Y31714990D01*
X-2600021Y31714989D01*
X-2617429Y31650021D01*
X-2620500Y31638561D01*
X-2620500Y30225834D01*
X-2629145Y30196394D01*
X-2635668Y30166407D01*
X-2639423Y30161392D01*
X-2640185Y30158795D01*
X-2656819Y30138152D01*
X-2814355Y29980617D01*
X-2875678Y29947133D01*
X-2945370Y29952117D01*
X-2951048Y29954791D01*
X-2951099Y29954667D01*
X-2958607Y29957777D01*
X-2958609Y29957778D01*
X-3085903Y29991886D01*
X-3217687Y29991886D01*
X-3344983Y29957778D01*
X-3459109Y29891886D01*
X-3459112Y29891884D01*
X-3552293Y29798703D01*
X-3552295Y29798700D01*
X-3618187Y29684574D01*
X-3629485Y29642407D01*
X-3652295Y29557278D01*
X-3652295Y29425494D01*
X-3642545Y29389108D01*
X-3618187Y29298199D01*
X-3597178Y29261811D01*
X-3552295Y29184072D01*
X-3552293Y29184070D01*
X-3466319Y29098096D01*
X-3432834Y29036773D01*
X-3430000Y29010415D01*
X-3430000Y28057157D01*
X-3290806Y28097596D01*
X-3152715Y28179262D01*
X-3152706Y28179269D01*
X-3039269Y28292706D01*
X-3039262Y28292715D01*
X-2957594Y28430809D01*
X-2957593Y28430812D01*
X-2920957Y28556911D01*
X-2883351Y28615797D01*
X-2819879Y28645003D01*
X-2750692Y28635257D01*
X-2714200Y28609997D01*
X-2169791Y28065588D01*
X-2136306Y28004265D01*
X-2141290Y27934573D01*
X-2183162Y27878640D01*
X-2248626Y27854223D01*
X-2273655Y27854968D01*
X-2315681Y27860500D01*
X-2315684Y27860500D01*
X-2664316Y27860500D01*
X-2664317Y27860500D01*
X-2713172Y27854069D01*
X-2820405Y27804065D01*
X-2904065Y27720405D01*
X-2954069Y27613172D01*
X-2960500Y27564317D01*
X-2960500Y27115684D01*
X-2954069Y27066829D01*
X-2904065Y26959596D01*
X-2826819Y26882350D01*
X-2793334Y26821027D01*
X-2790500Y26794669D01*
X-2790500Y24805833D01*
X-2810185Y24738794D01*
X-2826819Y24718152D01*
X-5500458Y22044514D01*
X-5505408Y22038062D01*
X-5507604Y22039747D01*
X-5542579Y22004781D01*
X-5567314Y21990500D01*
X-5567317Y21990498D01*
X-5660498Y21897317D01*
X-5660500Y21897314D01*
X-5726392Y21783188D01*
X-5760500Y21655892D01*
X-5760500Y21524109D01*
X-5726392Y21396813D01*
X-5693446Y21339750D01*
X-5660500Y21282686D01*
X-5567314Y21189500D01*
X-5453186Y21123608D01*
X-5325892Y21089500D01*
X-5325890Y21089500D01*
X-5194110Y21089500D01*
X-5194108Y21089500D01*
X-5066814Y21123608D01*
X-4952686Y21189500D01*
X-4859500Y21282686D01*
X-4793608Y21396814D01*
X-4759500Y21524108D01*
X-4759500Y21655892D01*
X-4793608Y21783186D01*
X-4793613Y21783194D01*
X-4796530Y21790237D01*
X-4804003Y21859705D01*
X-4772733Y21922187D01*
X-4769682Y21925349D01*
X-2249540Y24445489D01*
X-2209978Y24514012D01*
X-2189500Y24590438D01*
X-2189500Y24669562D01*
X-2189500Y26794669D01*
X-2180881Y26824025D01*
X-2174419Y26853937D01*
X-2170595Y26859054D01*
X-2169815Y26861708D01*
X-2153309Y26882222D01*
X-2153181Y26882350D01*
X-2075935Y26959596D01*
X-2075737Y26960022D01*
X-2067809Y26967972D01*
X-2046235Y26979794D01*
X-2027023Y26995157D01*
X-2016136Y26996287D01*
X-2006535Y27001547D01*
X-1981992Y26999828D01*
X-1957526Y27002365D01*
X-1947757Y26997430D01*
X-1936836Y26996664D01*
X-1917121Y26981951D01*
X-1895165Y26970857D01*
X-1891907Y26967097D01*
X-1891736Y26967267D01*
X-1884065Y26959596D01*
X-1800404Y26875935D01*
X-1800402Y26875934D01*
X-1798377Y26874516D01*
X-1795956Y26871487D01*
X-1792733Y26868264D01*
X-1793093Y26867905D01*
X-1754752Y26819939D01*
X-1745500Y26772941D01*
X-1745500Y24215478D01*
X-1765185Y24148439D01*
X-1781819Y24127797D01*
X-4266058Y21643557D01*
X-4343556Y21566060D01*
X-4385500Y21464801D01*
X-4385500Y17462807D01*
X-4405185Y17395768D01*
X-4457989Y17350013D01*
X-4527147Y17340069D01*
X-4541592Y17343032D01*
X-4644107Y17370500D01*
X-4644108Y17370500D01*
X-4775892Y17370500D01*
X-4903188Y17336392D01*
X-5017314Y17270500D01*
X-5017317Y17270498D01*
X-5110498Y17177317D01*
X-5110500Y17177314D01*
X-5176392Y17063188D01*
X-5210500Y16935892D01*
X-5210500Y16845834D01*
X-5230185Y16778795D01*
X-5246819Y16758153D01*
X-6401562Y15603410D01*
X-6401615Y15603357D01*
X-6402011Y15602960D01*
X-6457960Y15547011D01*
X-6459458Y15544418D01*
X-6467000Y15536732D01*
X-6491190Y15523228D01*
X-6513561Y15506895D01*
X-6521266Y15506437D01*
X-6528007Y15502673D01*
X-6555657Y15504391D01*
X-6583307Y15502745D01*
X-6590038Y15506526D01*
X-6597742Y15507004D01*
X-6620073Y15523396D01*
X-6644225Y15536962D01*
X-6647844Y15543782D01*
X-6654066Y15548349D01*
X-6663991Y15574215D01*
X-6676973Y15598682D01*
X-6678265Y15611416D01*
X-6679096Y15613581D01*
X-6678686Y15615558D01*
X-6679500Y15623587D01*
X-6679500Y30515892D01*
X-6420500Y30515892D01*
X-6420500Y30384109D01*
X-6386392Y30256813D01*
X-6372340Y30232475D01*
X-6320500Y30142686D01*
X-6320498Y30142684D01*
X-6256819Y30079005D01*
X-6223334Y30017682D01*
X-6220500Y29991324D01*
X-6220500Y29561092D01*
X-6200021Y29484665D01*
X-6165859Y29425494D01*
X-6160460Y29416143D01*
X-6160458Y29416140D01*
X-5760709Y29016392D01*
X-5373857Y28629540D01*
X-5305334Y28589978D01*
X-5228908Y28569500D01*
X-5228900Y28569500D01*
X-5220848Y28568439D01*
X-5221067Y28566783D01*
X-5163282Y28549815D01*
X-5117940Y28497905D01*
X-5114065Y28489596D01*
X-5030404Y28405935D01*
X-4923173Y28355932D01*
X-4874317Y28349500D01*
X-4874316Y28349500D01*
X-4525683Y28349500D01*
X-4517542Y28350572D01*
X-4476827Y28355932D01*
X-4476819Y28355936D01*
X-4468014Y28358502D01*
X-4398144Y28358369D01*
X-4339438Y28320483D01*
X-4326574Y28302581D01*
X-4320741Y28292717D01*
X-4320732Y28292706D01*
X-4207295Y28179269D01*
X-4207286Y28179262D01*
X-4069195Y28097596D01*
X-3930000Y28057156D01*
X-3930000Y29682846D01*
X-3930002Y29682847D01*
X-4069189Y29642409D01*
X-4069192Y29642407D01*
X-4207286Y29560739D01*
X-4207295Y29560732D01*
X-4320734Y29447292D01*
X-4320735Y29447292D01*
X-4326574Y29437418D01*
X-4377645Y29389736D01*
X-4446388Y29377235D01*
X-4467997Y29381495D01*
X-4476827Y29384069D01*
X-4525683Y29390500D01*
X-4525684Y29390500D01*
X-4874316Y29390500D01*
X-4874317Y29390500D01*
X-4923172Y29384069D01*
X-5030405Y29334065D01*
X-5041746Y29322724D01*
X-5103071Y29289242D01*
X-5172763Y29294231D01*
X-5217104Y29322729D01*
X-5583181Y29688806D01*
X-5597885Y29715734D01*
X-5614477Y29741552D01*
X-5615369Y29747753D01*
X-5616666Y29750129D01*
X-5619500Y29776487D01*
X-5619500Y29991324D01*
X-5599815Y30058363D01*
X-5583181Y30079005D01*
X-5519500Y30142686D01*
X-5453608Y30256814D01*
X-5419500Y30384108D01*
X-5419500Y30515892D01*
X-5453608Y30643186D01*
X-5519500Y30757314D01*
X-5612686Y30850500D01*
X-5698060Y30899791D01*
X-5726813Y30916392D01*
X-5835448Y30945500D01*
X-5854108Y30950500D01*
X-5985892Y30950500D01*
X-6113188Y30916392D01*
X-6227314Y30850500D01*
X-6227317Y30850498D01*
X-6320498Y30757317D01*
X-6320500Y30757314D01*
X-6386392Y30643188D01*
X-6420500Y30515892D01*
X-6679500Y30515892D01*
X-6679500Y38307845D01*
X-4509500Y38307845D01*
X-4509500Y37800000D01*
X-4009500Y37800000D01*
X-4009500Y38760000D01*
X-4057345Y38760000D01*
X-4116873Y38753599D01*
X-4116880Y38753597D01*
X-4251587Y38703355D01*
X-4251594Y38703351D01*
X-4366688Y38617191D01*
X-4366691Y38617188D01*
X-4452851Y38502094D01*
X-4452855Y38502087D01*
X-4503097Y38367380D01*
X-4503099Y38367373D01*
X-4509500Y38307845D01*
X-6679500Y38307845D01*
X-6679500Y40735500D01*
X-6659815Y40802539D01*
X-6607011Y40848294D01*
X-6555500Y40859500D01*
X4595500Y40859500D01*
X4662539Y40839815D01*
G37*
%TD.AperFunction*%
%TA.AperFunction,Conductor*%
G36*
X-701166Y20586705D02*
G01*
X-645233Y20544833D01*
X-620816Y20479369D01*
X-620500Y20470523D01*
X-620500Y20404109D01*
X-586392Y20276813D01*
X-553446Y20219750D01*
X-520500Y20162686D01*
X-520498Y20162684D01*
X-456819Y20099005D01*
X-423334Y20037682D01*
X-420500Y20011324D01*
X-420500Y19260438D01*
X-406848Y19209487D01*
X-400021Y19184010D01*
X-400018Y19184005D01*
X-360465Y19115496D01*
X-360459Y19115488D01*
X73181Y18681848D01*
X106666Y18620525D01*
X109500Y18594167D01*
X109500Y17330495D01*
X89815Y17263456D01*
X73181Y17242814D01*
X-397819Y16771814D01*
X-417256Y16761202D01*
X-433989Y16746701D01*
X-447321Y16744785D01*
X-459142Y16738329D01*
X-481229Y16739909D01*
X-503147Y16736757D01*
X-515399Y16742353D01*
X-528834Y16743313D01*
X-546561Y16756584D01*
X-566703Y16765782D01*
X-573986Y16777114D01*
X-584767Y16785185D01*
X-592505Y16805931D01*
X-604477Y16824560D01*
X-607629Y16846479D01*
X-609184Y16850649D01*
X-609500Y16859495D01*
X-609500Y17048502D01*
X-592886Y17110504D01*
X-585109Y17123974D01*
X-585108Y17123976D01*
X-551000Y17251270D01*
X-551000Y17383054D01*
X-585108Y17510348D01*
X-651000Y17624476D01*
X-744186Y17717662D01*
X-801250Y17750608D01*
X-858313Y17783554D01*
X-921961Y17800608D01*
X-985608Y17817662D01*
X-1117392Y17817662D01*
X-1244688Y17783554D01*
X-1358814Y17717662D01*
X-1358817Y17717660D01*
X-1451998Y17624479D01*
X-1452000Y17624476D01*
X-1517892Y17510350D01*
X-1552000Y17383054D01*
X-1552000Y17357299D01*
X-1559846Y17330580D01*
X-1564464Y17303117D01*
X-1569554Y17297519D01*
X-1571685Y17290260D01*
X-1592728Y17272027D01*
X-1611463Y17251417D01*
X-1621446Y17247143D01*
X-1624489Y17244505D01*
X-1643907Y17237524D01*
X-1678407Y17228280D01*
X-1748257Y17229943D01*
X-1806119Y17269106D01*
X-1833623Y17333335D01*
X-1834500Y17348055D01*
X-1834500Y19504523D01*
X-1814815Y19571562D01*
X-1798181Y19592204D01*
X-832181Y20558204D01*
X-770858Y20591689D01*
X-701166Y20586705D01*
G37*
%TD.AperFunction*%
%TA.AperFunction,Conductor*%
G36*
X3178539Y25554816D02*
G01*
X3224294Y25502012D01*
X3235500Y25450501D01*
X3235500Y22390800D01*
X3215815Y22323761D01*
X3199181Y22303119D01*
X2826882Y21930819D01*
X2765559Y21897334D01*
X2739201Y21894500D01*
X-386523Y21894500D01*
X-453562Y21914185D01*
X-499317Y21966989D01*
X-509261Y22036147D01*
X-480236Y22099703D01*
X-474204Y22106181D01*
X2957796Y25538182D01*
X2984723Y25552886D01*
X3010542Y25569478D01*
X3016742Y25570370D01*
X3019119Y25571667D01*
X3045477Y25574501D01*
X3111500Y25574501D01*
X3178539Y25554816D01*
G37*
%TD.AperFunction*%
%TA.AperFunction,Conductor*%
G36*
X1713539Y38190815D02*
G01*
X1759294Y38138011D01*
X1770500Y38086500D01*
X1770500Y36481862D01*
X1770000Y36480160D01*
X1770000Y35700000D01*
X2270000Y35700000D01*
X2270000Y35869443D01*
X2289685Y35936482D01*
X2342489Y35982237D01*
X2411647Y35992181D01*
X2434334Y35985956D01*
X2434429Y35986267D01*
X2440251Y35984501D01*
X2440256Y35984499D01*
X2440260Y35984499D01*
X2440261Y35984498D01*
X2565928Y35959500D01*
X2565931Y35959500D01*
X3194071Y35959500D01*
X3308372Y35982237D01*
X3319744Y35984499D01*
X3359047Y36000780D01*
X3428517Y36008248D01*
X3490996Y35976973D01*
X3526648Y35916884D01*
X3530500Y35886218D01*
X3530500Y35126834D01*
X3510815Y35059795D01*
X3494181Y35039153D01*
X1886122Y33431095D01*
X1824799Y33397610D01*
X1755107Y33402594D01*
X1699174Y33444466D01*
X1674757Y33509930D01*
X1687853Y33570132D01*
X1686466Y33570706D01*
X1689572Y33578208D01*
X1689577Y33578216D01*
X1730500Y33730943D01*
X1730500Y33889057D01*
X1689577Y34041784D01*
X1689573Y34041791D01*
X1610524Y34178710D01*
X1610518Y34178718D01*
X1497299Y34291937D01*
X1463814Y34353260D01*
X1468798Y34422952D01*
X1490000Y34455942D01*
X1490000Y34460000D01*
X1770000Y34460000D01*
X1817828Y34460000D01*
X1817844Y34460001D01*
X1877372Y34466402D01*
X1877379Y34466404D01*
X2012086Y34516646D01*
X2012093Y34516650D01*
X2127187Y34602810D01*
X2127190Y34602813D01*
X2213350Y34717907D01*
X2213354Y34717914D01*
X2263596Y34852621D01*
X2263598Y34852628D01*
X2269999Y34912156D01*
X2270000Y34912173D01*
X2270000Y35420000D01*
X1770000Y35420000D01*
X1770000Y34460000D01*
X1490000Y34460000D01*
X1490000Y36738138D01*
X1490500Y36739841D01*
X1490500Y38086500D01*
X1493050Y38095186D01*
X1491762Y38104147D01*
X1502740Y38128188D01*
X1510185Y38153539D01*
X1517025Y38159467D01*
X1520787Y38167703D01*
X1543021Y38181993D01*
X1562989Y38199294D01*
X1573503Y38201582D01*
X1579565Y38205477D01*
X1614500Y38210500D01*
X1646500Y38210500D01*
X1713539Y38190815D01*
G37*
%TD.AperFunction*%
%TD*%
%TA.AperFunction,NonConductor*%
G36*
X-29751Y34759500D02*
G01*
X-29748Y34759500D01*
X289750Y34759500D01*
X355808Y34772640D01*
X404192Y34772640D01*
X470249Y34759500D01*
X470252Y34759500D01*
X789750Y34759500D01*
X855808Y34772640D01*
X904192Y34772640D01*
X976227Y34758311D01*
X975686Y34755595D01*
X1029416Y34733973D01*
X1051856Y34710952D01*
X1128319Y34608812D01*
X1152737Y34543348D01*
X1137886Y34475074D01*
X1088481Y34425669D01*
X1029053Y34410500D01*
X50943Y34410500D01*
X-101784Y34369577D01*
X-101791Y34369574D01*
X-238710Y34290525D01*
X-238718Y34290519D01*
X-356267Y34172969D01*
X-358286Y34174988D01*
X-403569Y34141933D01*
X-473316Y34137788D01*
X-534231Y34172009D01*
X-566975Y34233731D01*
X-569500Y34258628D01*
X-569500Y34635500D01*
X-549815Y34702539D01*
X-497011Y34748294D01*
X-445500Y34759500D01*
X-210250Y34759500D01*
X-144192Y34772640D01*
X-95808Y34772640D01*
X-29751Y34759500D01*
G37*
%TD.AperFunction*%
%TA.AperFunction,NonConductor*%
G36*
X-864297Y33458227D02*
G01*
X-857819Y33452195D01*
X-568819Y33163195D01*
X-554116Y33136268D01*
X-537523Y33110449D01*
X-536632Y33104249D01*
X-535334Y33101872D01*
X-532500Y33075514D01*
X-532500Y32989119D01*
X-552185Y32922080D01*
X-604989Y32876325D01*
X-674147Y32866381D01*
X-737703Y32895406D01*
X-744181Y32901438D01*
X-1033181Y33190438D01*
X-1066666Y33251761D01*
X-1069500Y33278119D01*
X-1069500Y33364514D01*
X-1049815Y33431553D01*
X-997011Y33477308D01*
X-927853Y33487252D01*
X-864297Y33458227D01*
G37*
%TD.AperFunction*%
%TA.AperFunction,NonConductor*%
G36*
X-2105744Y33238746D02*
G01*
X-2047882Y33199584D01*
X-2020377Y33135356D01*
X-2019500Y33120634D01*
X-2019500Y32674500D01*
X-2039185Y32607461D01*
X-2091989Y32561706D01*
X-2143500Y32550500D01*
X-2554820Y32550500D01*
X-2621859Y32570185D01*
X-2642501Y32586819D01*
X-3053501Y32997819D01*
X-3086986Y33059142D01*
X-3082002Y33128834D01*
X-3040130Y33184767D01*
X-2974666Y33209184D01*
X-2965820Y33209500D01*
X-2290946Y33209500D01*
X-2290943Y33209500D01*
X-2175590Y33240409D01*
X-2105744Y33238746D01*
G37*
%TD.AperFunction*%
%TA.AperFunction,NonConductor*%
G36*
X1493133Y33242579D02*
G01*
X1536334Y33187665D01*
X1542987Y33118113D01*
X1510982Y33056005D01*
X1508905Y33053878D01*
X676847Y32221819D01*
X615524Y32188334D01*
X589166Y32185500D01*
X499108Y32185500D01*
X371814Y32151392D01*
X371813Y32151392D01*
X371811Y32151391D01*
X371810Y32151391D01*
X254500Y32083661D01*
X186600Y32067188D01*
X120573Y32090040D01*
X77382Y32144962D01*
X68500Y32191048D01*
X68500Y33085500D01*
X88185Y33152539D01*
X140989Y33198294D01*
X192500Y33209500D01*
X1209055Y33209500D01*
X1209057Y33209500D01*
X1361784Y33250423D01*
X1361792Y33250428D01*
X1369294Y33253534D01*
X1370102Y33251581D01*
X1427102Y33265420D01*
X1493133Y33242579D01*
G37*
%TD.AperFunction*%
%TA.AperFunction,NonConductor*%
G36*
X-1263297Y32570166D02*
G01*
X-1256819Y32564134D01*
X-919819Y32227134D01*
X-886334Y32165811D01*
X-883500Y32139453D01*
X-883500Y31794500D01*
X-903185Y31727461D01*
X-955989Y31681706D01*
X-1007500Y31670500D01*
X-1069562Y31670500D01*
X-1136961Y31652441D01*
X-1145993Y31650020D01*
X-1189741Y31624762D01*
X-1189746Y31624759D01*
X-1199532Y31619108D01*
X-1214511Y31610460D01*
X-1260325Y31564647D01*
X-1264100Y31561431D01*
X-1291657Y31549130D01*
X-1318142Y31534667D01*
X-1323237Y31535032D01*
X-1327901Y31532949D01*
X-1357735Y31537499D01*
X-1387834Y31539651D01*
X-1391923Y31542713D01*
X-1396972Y31543482D01*
X-1419609Y31563438D01*
X-1443767Y31581523D01*
X-1445552Y31586309D01*
X-1449383Y31589686D01*
X-1457637Y31618708D01*
X-1468184Y31646987D01*
X-1468500Y31655833D01*
X-1468500Y32476453D01*
X-1448815Y32543492D01*
X-1396011Y32589247D01*
X-1326853Y32599191D01*
X-1263297Y32570166D01*
G37*
%TD.AperFunction*%
%TA.AperFunction,NonConductor*%
G36*
X273703Y29550880D02*
G01*
X280181Y29544848D01*
X506106Y29318923D01*
X534893Y29269067D01*
X535500Y29269318D01*
X537407Y29264713D01*
X538197Y29263345D01*
X538606Y29261818D01*
X538609Y29261811D01*
X553939Y29235259D01*
X570412Y29167359D01*
X547560Y29101332D01*
X492638Y29058141D01*
X471926Y29052723D01*
X471958Y29052603D01*
X464109Y29050500D01*
X464108Y29050500D01*
X336814Y29016392D01*
X336813Y29016392D01*
X336811Y29016391D01*
X336810Y29016391D01*
X254500Y28968869D01*
X186599Y28952396D01*
X120573Y28975249D01*
X77382Y29030170D01*
X68500Y29076256D01*
X68500Y29457167D01*
X88185Y29524206D01*
X140989Y29569961D01*
X210147Y29579905D01*
X273703Y29550880D01*
G37*
%TD.AperFunction*%
%TA.AperFunction,NonConductor*%
G36*
X-640487Y31068851D02*
G01*
X-618749Y31068334D01*
X-607258Y31060557D01*
X-593795Y31057197D01*
X-578894Y31041362D01*
X-560885Y31029174D01*
X-555423Y31016420D01*
X-545913Y31006314D01*
X-541939Y30984935D01*
X-533378Y30964947D01*
X-532500Y30950220D01*
X-532500Y29386558D01*
X-552185Y29319519D01*
X-604989Y29273764D01*
X-624405Y29266784D01*
X-663185Y29256393D01*
X-663186Y29256393D01*
X-777314Y29190500D01*
X-777317Y29190498D01*
X-870498Y29097317D01*
X-870500Y29097314D01*
X-936392Y28983188D01*
X-958196Y28901813D01*
X-970500Y28855892D01*
X-970500Y28724108D01*
X-962860Y28695592D01*
X-964522Y28625744D01*
X-1003684Y28567881D01*
X-1067913Y28540377D01*
X-1082634Y28539500D01*
X-1543324Y28539500D01*
X-1610363Y28559185D01*
X-1656118Y28611989D01*
X-1666062Y28681147D01*
X-1637037Y28744703D01*
X-1631005Y28751181D01*
X-1594500Y28787686D01*
X-1528608Y28901814D01*
X-1494500Y29029108D01*
X-1494500Y29119168D01*
X-1474815Y29186207D01*
X-1458181Y29206849D01*
X-1312155Y29352875D01*
X-1092540Y29572489D01*
X-1079255Y29595500D01*
X-1052979Y29641011D01*
X-1032500Y29717438D01*
X-1032500Y30461167D01*
X-1012815Y30528206D01*
X-996181Y30548848D01*
X-955540Y30589489D01*
X-946471Y30605199D01*
X-929547Y30634510D01*
X-925631Y30641294D01*
X-915979Y30658011D01*
X-895500Y30734438D01*
X-895500Y30945500D01*
X-893673Y30951724D01*
X-894858Y30958099D01*
X-883950Y30984835D01*
X-875815Y31012539D01*
X-870915Y31016786D01*
X-868464Y31022791D01*
X-844831Y31039388D01*
X-823011Y31058294D01*
X-815272Y31060145D01*
X-811285Y31062944D01*
X-786457Y31067036D01*
X-776585Y31069396D01*
X-774051Y31069500D01*
X-769562Y31069500D01*
X-690438Y31069500D01*
X-675315Y31073553D01*
X-661585Y31074116D01*
X-640487Y31068851D01*
G37*
%TD.AperFunction*%
%TA.AperFunction,NonConductor*%
G36*
X-505237Y27918815D02*
G01*
X-459482Y27866011D01*
X-449538Y27796853D01*
X-478563Y27733297D01*
X-503383Y27711399D01*
X-525831Y27696399D01*
X-592508Y27675520D01*
X-594724Y27675500D01*
X-959943Y27675500D01*
X-1026982Y27695185D01*
X-1048429Y27712631D01*
X-1055822Y27720162D01*
X-1055935Y27720404D01*
X-1062779Y27727248D01*
X-1063155Y27727631D01*
X-1079371Y27757990D01*
X-1095835Y27788142D01*
X-1095793Y27788736D01*
X-1096073Y27789260D01*
X-1093306Y27823511D01*
X-1090851Y27857834D01*
X-1090494Y27858312D01*
X-1090446Y27858903D01*
X-1069595Y27886229D01*
X-1048979Y27913767D01*
X-1048423Y27913975D01*
X-1048061Y27914448D01*
X-1015725Y27926171D01*
X-983515Y27938184D01*
X-982483Y27938221D01*
X-982375Y27938260D01*
X-982241Y27938230D01*
X-974669Y27938500D01*
X-572276Y27938500D01*
X-505237Y27918815D01*
G37*
%TD.AperFunction*%
%TA.AperFunction,NonConductor*%
G36*
X1037987Y28247661D02*
G01*
X1093921Y28205790D01*
X1113731Y28166074D01*
X1157969Y28013804D01*
X1240278Y27874626D01*
X1240285Y27874617D01*
X1273266Y27841636D01*
X1306751Y27780313D01*
X1301767Y27710621D01*
X1259895Y27654688D01*
X1233048Y27639398D01*
X1231772Y27638870D01*
X1165447Y27594553D01*
X1121132Y27528231D01*
X1121131Y27528230D01*
X1109500Y27469753D01*
X1109500Y26276499D01*
X1089815Y26209460D01*
X1037011Y26163705D01*
X967853Y26153761D01*
X904297Y26182786D01*
X870939Y26229045D01*
X863842Y26246177D01*
X773679Y26363680D01*
X676912Y26437932D01*
X666083Y26452763D01*
X651614Y26464069D01*
X642530Y26485019D01*
X635710Y26494360D01*
X635345Y26495390D01*
X632476Y26503596D01*
X620240Y26565117D01*
X600801Y26594209D01*
X595602Y26609083D01*
X594597Y26628875D01*
X588676Y26647786D01*
X592864Y26663054D01*
X592062Y26678863D01*
X601917Y26696055D01*
X607160Y26715167D01*
X609517Y26718836D01*
X620240Y26734883D01*
X635500Y26811599D01*
X635499Y26988400D01*
X620240Y27065117D01*
X620239Y27065119D01*
X620238Y27065122D01*
X609555Y27081109D01*
X588676Y27147786D01*
X607160Y27215167D01*
X609517Y27218836D01*
X620240Y27234883D01*
X635500Y27311599D01*
X635499Y27488400D01*
X620240Y27565117D01*
X620239Y27565119D01*
X620238Y27565121D01*
X573214Y27635496D01*
X562112Y27652112D01*
X475117Y27710240D01*
X475115Y27710241D01*
X475112Y27710242D01*
X398404Y27725500D01*
X393365Y27725500D01*
X361176Y27734952D01*
X328749Y27743666D01*
X327749Y27744767D01*
X326326Y27745185D01*
X304362Y27770532D01*
X281789Y27795401D01*
X281543Y27796867D01*
X280571Y27797989D01*
X275793Y27831217D01*
X270253Y27864312D01*
X270838Y27865677D01*
X270627Y27867147D01*
X284569Y27897678D01*
X297804Y27928520D01*
X299190Y27929692D01*
X299652Y27930703D01*
X323938Y27952242D01*
X333197Y27958499D01*
X334989Y27958979D01*
X403511Y27998540D01*
X426557Y28021587D01*
X436406Y28028242D01*
X458822Y28035390D01*
X479472Y28046666D01*
X501674Y28049053D01*
X502973Y28049467D01*
X503702Y28049271D01*
X505833Y28049500D01*
X595890Y28049500D01*
X595892Y28049500D01*
X723186Y28083608D01*
X837314Y28149500D01*
X906976Y28219163D01*
X968295Y28252645D01*
X1037987Y28247661D01*
G37*
%TD.AperFunction*%
%TA.AperFunction,NonConductor*%
G36*
X3958834Y21755350D02*
G01*
X4014767Y21713478D01*
X4039184Y21648014D01*
X4039500Y21639168D01*
X4039500Y20845833D01*
X4019815Y20778794D01*
X4003181Y20758152D01*
X2731848Y19486819D01*
X2670525Y19453334D01*
X2644167Y19450500D01*
X2158676Y19450500D01*
X2091637Y19470185D01*
X2070995Y19486819D01*
X2007316Y19550498D01*
X2007314Y19550500D01*
X1935081Y19592204D01*
X1893187Y19616392D01*
X1829539Y19633446D01*
X1765892Y19650500D01*
X1634108Y19650500D01*
X1516592Y19619013D01*
X1446743Y19620675D01*
X1388881Y19659838D01*
X1361377Y19724066D01*
X1360500Y19738787D01*
X1360500Y20479561D01*
X1354136Y20503312D01*
X1340021Y20555989D01*
X1340017Y20555996D01*
X1339939Y20556186D01*
X1339855Y20556605D01*
X1337917Y20563840D01*
X1338391Y20563968D01*
X1330500Y20603640D01*
X1330500Y20735890D01*
X1330500Y20735892D01*
X1296392Y20863186D01*
X1296389Y20863191D01*
X1293280Y20870700D01*
X1296477Y20872025D01*
X1283783Y20924460D01*
X1306667Y20990476D01*
X1361610Y21033640D01*
X1407640Y21042500D01*
X3084155Y21042500D01*
X3084156Y21042500D01*
X3185414Y21084443D01*
X3262913Y21161942D01*
X3262912Y21161942D01*
X3321481Y21220511D01*
X3827820Y21726850D01*
X3889142Y21760334D01*
X3958834Y21755350D01*
G37*
%TD.AperFunction*%
%TA.AperFunction,NonConductor*%
G36*
X436273Y20303440D02*
G01*
X446617Y20305433D01*
X469830Y20296140D01*
X494257Y20290826D01*
X507078Y20281229D01*
X511482Y20279465D01*
X522511Y20269675D01*
X522686Y20269500D01*
X636814Y20203608D01*
X667592Y20195362D01*
X727252Y20158999D01*
X757783Y20096153D01*
X759500Y20075587D01*
X759500Y19144833D01*
X739815Y19077794D01*
X687011Y19032039D01*
X617853Y19022095D01*
X554297Y19051120D01*
X547819Y19057152D01*
X216819Y19388152D01*
X183334Y19449475D01*
X180500Y19475833D01*
X180500Y20011324D01*
X200185Y20078363D01*
X216819Y20099005D01*
X280500Y20162686D01*
X327443Y20243995D01*
X345537Y20261248D01*
X360520Y20281261D01*
X370386Y20284942D01*
X378010Y20292210D01*
X402562Y20296943D01*
X425984Y20305678D01*
X436273Y20303440D01*
G37*
%TD.AperFunction*%
%TA.AperFunction,NonConductor*%
G36*
X1956943Y16004000D02*
G01*
X1986930Y15997476D01*
X1991945Y15993722D01*
X1994542Y15992959D01*
X2015184Y15976325D01*
X2078865Y15912644D01*
X2192993Y15846752D01*
X2320287Y15812644D01*
X2320289Y15812644D01*
X2338000Y15812644D01*
X2405039Y15792959D01*
X2450794Y15740155D01*
X2462000Y15688644D01*
X2462000Y14952995D01*
X2453355Y14923555D01*
X2446832Y14893568D01*
X2443077Y14888553D01*
X2442315Y14885956D01*
X2425681Y14865314D01*
X2404348Y14843981D01*
X2343025Y14810496D01*
X2316667Y14807662D01*
X1514500Y14807662D01*
X1447461Y14827347D01*
X1401706Y14880151D01*
X1390500Y14931662D01*
X1390500Y15778829D01*
X1410185Y15845868D01*
X1426819Y15866510D01*
X1536634Y15976325D01*
X1597957Y16009810D01*
X1624315Y16012644D01*
X1927503Y16012644D01*
X1956943Y16004000D01*
G37*
%TD.AperFunction*%
%TA.AperFunction,NonConductor*%
G36*
X-4471743Y16395306D02*
G01*
X-4413881Y16356143D01*
X-4386377Y16291915D01*
X-4385500Y16277194D01*
X-4385500Y15879835D01*
X-4394938Y15832384D01*
X-4395967Y15829901D01*
X-4410500Y15756839D01*
X-4410500Y14931662D01*
X-4430185Y14864623D01*
X-4482989Y14818868D01*
X-4534500Y14807662D01*
X-5622067Y14807662D01*
X-5643136Y14802016D01*
X-5652802Y14802247D01*
X-5661728Y14798528D01*
X-5687163Y14803065D01*
X-5712986Y14803680D01*
X-5722825Y14809426D01*
X-5730512Y14810797D01*
X-5753502Y14827341D01*
X-5759543Y14830869D01*
X-5764096Y14835091D01*
X-5764276Y14835478D01*
X-5849184Y14920386D01*
X-5863043Y14926849D01*
X-5877316Y14940085D01*
X-5885645Y14954059D01*
X-5897853Y14964811D01*
X-5903323Y14983720D01*
X-5913087Y15000103D01*
X-5912563Y15015665D01*
X-5917000Y15031007D01*
X-5917000Y15186668D01*
X-5897315Y15253707D01*
X-5880686Y15274345D01*
X-4821849Y16333182D01*
X-4760526Y16366666D01*
X-4734168Y16369500D01*
X-4644110Y16369500D01*
X-4644108Y16369500D01*
X-4541592Y16396969D01*
X-4471743Y16395306D01*
G37*
%TD.AperFunction*%
%TA.AperFunction,NonConductor*%
G36*
X2691229Y10502839D02*
G01*
X2723571Y10501105D01*
X2726187Y10499457D01*
X2728547Y10499228D01*
X2736498Y10492959D01*
X2769999Y10471849D01*
X2815186Y10426662D01*
X2929314Y10360770D01*
X3056608Y10326662D01*
X3056610Y10326662D01*
X3146667Y10326662D01*
X3176107Y10318018D01*
X3206094Y10311494D01*
X3211109Y10307740D01*
X3213706Y10306977D01*
X3234348Y10290343D01*
X3352510Y10172181D01*
X3385995Y10110858D01*
X3381011Y10041166D01*
X3339139Y9985233D01*
X3273675Y9960816D01*
X3264829Y9960500D01*
X3020105Y9960500D01*
X3004386Y9958431D01*
X2970513Y9953972D01*
X2970511Y9953971D01*
X2970509Y9953971D01*
X2861683Y9903224D01*
X2776776Y9818317D01*
X2773132Y9813112D01*
X2763545Y9805451D01*
X2757449Y9794803D01*
X2736765Y9784047D01*
X2718553Y9769490D01*
X2706348Y9768228D01*
X2695461Y9762565D01*
X2672244Y9764699D01*
X2649054Y9762299D01*
X2638102Y9767837D01*
X2625885Y9768959D01*
X2607508Y9783305D01*
X2586701Y9793825D01*
X2579130Y9805458D01*
X2570810Y9811953D01*
X2562622Y9830823D01*
X2554525Y9843266D01*
X2551643Y9851498D01*
X2550966Y9854902D01*
X2549884Y9856521D01*
X2546500Y9866188D01*
X2544883Y9897752D01*
X2541504Y9929170D01*
X2543011Y9934307D01*
X2542927Y9935966D01*
X2544101Y9938018D01*
X2548977Y9954623D01*
X2550962Y9959417D01*
X2550966Y9959422D01*
X2551181Y9960499D01*
X2565499Y10032484D01*
X2565500Y10032486D01*
X2565500Y10181839D01*
X2565499Y10181841D01*
X2550968Y10254895D01*
X2550966Y10254898D01*
X2550966Y10254902D01*
X2550963Y10254906D01*
X2548977Y10259701D01*
X2541504Y10329170D01*
X2543067Y10336546D01*
X2547313Y10353956D01*
X2550966Y10359422D01*
X2561217Y10410960D01*
X2561850Y10413552D01*
X2578078Y10441580D01*
X2593086Y10470270D01*
X2595479Y10471634D01*
X2596860Y10474017D01*
X2625667Y10488824D01*
X2653802Y10504844D01*
X2656551Y10504697D01*
X2659002Y10505956D01*
X2691229Y10502839D01*
G37*
%TD.AperFunction*%
%TA.AperFunction,NonConductor*%
G36*
X1417362Y6668978D02*
G01*
X1463117Y6616174D01*
X1473061Y6547016D01*
X1444036Y6483460D01*
X1438004Y6476982D01*
X1383501Y6422480D01*
X1332752Y6313649D01*
X1326225Y6264065D01*
X1326225Y6248108D01*
X1319986Y6226863D01*
X1318407Y6204774D01*
X1310334Y6193991D01*
X1306540Y6181069D01*
X1289806Y6166570D01*
X1276535Y6148841D01*
X1263914Y6144134D01*
X1253736Y6135314D01*
X1231818Y6132163D01*
X1211071Y6124424D01*
X1197910Y6127287D01*
X1184578Y6125370D01*
X1164434Y6134570D01*
X1142798Y6139276D01*
X1125072Y6152545D01*
X1121022Y6154395D01*
X1114544Y6160427D01*
X1011086Y6263885D01*
X977601Y6325208D01*
X975830Y6335365D01*
X973972Y6349487D01*
X923224Y6458316D01*
X904558Y6476982D01*
X871073Y6538305D01*
X876057Y6607997D01*
X917929Y6663930D01*
X983393Y6688347D01*
X992239Y6688663D01*
X1350323Y6688663D01*
X1417362Y6668978D01*
G37*
%TD.AperFunction*%
M02*
